<svg width="247" height="401" viewBox="0 0 247 401" fill="none" xmlns="http://www.w3.org/2000/svg">
<g clip-path="url(#clip0_306_293)">
<rect x="0.25" y="0.25" width="246.5" height="345.5" rx="19.75" fill="#F0F0F0" stroke="black" stroke-width="0.5"/>
<path opacity="0.72" d="M31.7871 31.3682L33.9473 24.0469H34.624L34.0771 26.2207L31.7734 34H31.124L31.7871 31.3682ZM29.2783 24.0469L31.0967 31.2998L31.6436 34H30.9668L28.417 24.0469H29.2783ZM37.5361 31.2998L39.3271 24.0469H40.1885L37.6455 34H36.9688L37.5361 31.2998ZM34.6992 24.0469L36.832 31.3682L37.4883 34H36.8389L34.583 26.2207L34.0293 24.0469H34.6992ZM40.9541 30.418V30.1924C40.9541 29.6546 41.0316 29.1579 41.1865 28.7021C41.3415 28.2464 41.5625 27.8522 41.8496 27.5195C42.1413 27.1868 42.4899 26.9294 42.8955 26.7471C43.3011 26.5602 43.7523 26.4668 44.249 26.4668C44.7503 26.4668 45.2038 26.5602 45.6094 26.7471C46.015 26.9294 46.3636 27.1868 46.6553 27.5195C46.9469 27.8522 47.1702 28.2464 47.3252 28.7021C47.4801 29.1579 47.5576 29.6546 47.5576 30.1924V30.418C47.5576 30.9557 47.4801 31.4525 47.3252 31.9082C47.1702 32.3594 46.9469 32.7513 46.6553 33.084C46.3682 33.4167 46.0218 33.6764 45.6162 33.8633C45.2106 34.0456 44.7594 34.1367 44.2627 34.1367C43.7614 34.1367 43.3079 34.0456 42.9023 33.8633C42.4967 33.6764 42.1481 33.4167 41.8564 33.084C41.5648 32.7513 41.3415 32.3594 41.1865 31.9082C41.0316 31.4525 40.9541 30.9557 40.9541 30.418ZM41.7676 30.1924V30.418C41.7676 30.8236 41.8223 31.2087 41.9316 31.5732C42.041 31.9333 42.2005 32.2546 42.4102 32.5371C42.6198 32.8151 42.8796 33.0339 43.1895 33.1934C43.4993 33.3529 43.8571 33.4326 44.2627 33.4326C44.6637 33.4326 45.0169 33.3529 45.3223 33.1934C45.6322 33.0339 45.8919 32.8151 46.1016 32.5371C46.3112 32.2546 46.4684 31.9333 46.5732 31.5732C46.6826 31.2087 46.7373 30.8236 46.7373 30.418V30.1924C46.7373 29.7913 46.6826 29.4108 46.5732 29.0508C46.4684 28.6908 46.3089 28.3695 46.0947 28.0869C45.8851 27.8044 45.6253 27.5811 45.3154 27.417C45.0055 27.2529 44.6501 27.1709 44.249 27.1709C43.848 27.1709 43.4925 27.2529 43.1826 27.417C42.8773 27.5811 42.6175 27.8044 42.4033 28.0869C42.1937 28.3695 42.0342 28.6908 41.9248 29.0508C41.82 29.4108 41.7676 29.7913 41.7676 30.1924ZM50.0664 27.8271V34H49.2529V26.6035H50.0459L50.0664 27.8271ZM52.6846 26.5488L52.6641 27.3008C52.5729 27.2871 52.484 27.2757 52.3975 27.2666C52.3109 27.2575 52.2174 27.2529 52.1172 27.2529C51.7617 27.2529 51.4495 27.319 51.1807 27.4512C50.9163 27.5788 50.693 27.7588 50.5107 27.9912C50.3285 28.2191 50.1895 28.488 50.0938 28.7979C49.998 29.1032 49.9434 29.4313 49.9297 29.7822L49.6289 29.8984C49.6289 29.4154 49.679 28.9665 49.7793 28.5518C49.8796 28.137 50.0322 27.7747 50.2373 27.4648C50.4469 27.1504 50.709 26.9066 51.0234 26.7334C51.3424 26.5557 51.7161 26.4668 52.1445 26.4668C52.2493 26.4668 52.3519 26.4759 52.4521 26.4941C52.557 26.5078 52.6344 26.526 52.6846 26.5488ZM54.7832 23.5V34H53.9697V23.5H54.7832ZM59.4248 26.6035L55.9658 30.0352L54.4961 31.457L54.373 30.6572L55.5557 29.3789L58.3926 26.6035H59.4248ZM58.7139 34L55.624 30.1582L56.0752 29.4541L59.6982 34H58.7139Z" fill="#2B2F42"/>
<path opacity="0.72" d="M161.089 322.891H161.694L164.321 329.15L166.953 322.891H167.554L164.551 330H164.092L161.089 322.891ZM160.903 322.891H161.436L161.499 326.895V330H160.903V322.891ZM167.217 322.891H167.749V330H167.148V326.895L167.217 322.891ZM172.632 329.053V326.328C172.632 326.077 172.58 325.861 172.476 325.679C172.371 325.496 172.218 325.356 172.017 325.259C171.815 325.161 171.566 325.112 171.27 325.112C170.996 325.112 170.752 325.161 170.537 325.259C170.326 325.353 170.158 325.482 170.034 325.645C169.914 325.804 169.854 325.981 169.854 326.177L169.268 326.172C169.268 325.973 169.316 325.781 169.414 325.596C169.512 325.41 169.65 325.244 169.829 325.098C170.008 324.951 170.221 324.836 170.469 324.751C170.719 324.663 170.994 324.619 171.294 324.619C171.672 324.619 172.004 324.683 172.29 324.81C172.58 324.937 172.806 325.127 172.969 325.381C173.132 325.635 173.213 325.954 173.213 326.338V328.892C173.213 329.074 173.226 329.263 173.252 329.458C173.281 329.653 173.322 329.814 173.374 329.941V330H172.754C172.715 329.883 172.684 329.736 172.661 329.561C172.642 329.382 172.632 329.212 172.632 329.053ZM172.769 326.924L172.778 327.373H171.631C171.331 327.373 171.063 327.401 170.825 327.456C170.591 327.508 170.392 327.586 170.229 327.69C170.067 327.791 169.941 327.913 169.854 328.057C169.769 328.2 169.727 328.363 169.727 328.545C169.727 328.734 169.774 328.906 169.868 329.062C169.966 329.219 170.103 329.344 170.278 329.438C170.457 329.53 170.669 329.575 170.913 329.575C171.239 329.575 171.525 329.515 171.772 329.395C172.023 329.274 172.23 329.116 172.393 328.921C172.555 328.726 172.664 328.512 172.72 328.281L172.974 328.618C172.931 328.781 172.853 328.949 172.739 329.121C172.629 329.29 172.484 329.45 172.305 329.6C172.126 329.746 171.914 329.867 171.67 329.961C171.429 330.052 171.156 330.098 170.85 330.098C170.505 330.098 170.203 330.033 169.946 329.902C169.692 329.772 169.494 329.595 169.351 329.37C169.211 329.142 169.141 328.885 169.141 328.599C169.141 328.338 169.196 328.105 169.307 327.9C169.417 327.692 169.577 327.516 169.785 327.373C169.997 327.227 170.251 327.116 170.547 327.041C170.846 326.963 171.182 326.924 171.553 326.924H172.769ZM176.27 329.473L177.915 324.717H178.545L176.309 330.85C176.263 330.97 176.204 331.104 176.133 331.25C176.064 331.396 175.973 331.536 175.859 331.67C175.749 331.807 175.609 331.917 175.439 332.002C175.273 332.09 175.07 332.134 174.829 332.134C174.767 332.134 174.688 332.126 174.59 332.109C174.495 332.096 174.427 332.083 174.385 332.07L174.38 331.577C174.416 331.587 174.468 331.595 174.536 331.602C174.604 331.608 174.652 331.611 174.678 331.611C174.889 331.611 175.067 331.576 175.21 331.504C175.356 331.432 175.479 331.325 175.576 331.182C175.674 331.042 175.76 330.866 175.835 330.654L176.27 329.473ZM174.731 324.717L176.416 329.253L176.572 329.863L176.147 330.103L174.097 324.717H174.731ZM183.716 326.611V327.114H181.377V326.611H183.716ZM188.047 327.881V322.891H188.647V327.881C188.647 328.359 188.553 328.763 188.364 329.092C188.179 329.421 187.925 329.671 187.603 329.844C187.28 330.013 186.912 330.098 186.499 330.098C186.076 330.098 185.701 330.023 185.376 329.873C185.054 329.723 184.803 329.497 184.624 329.194C184.445 328.888 184.355 328.503 184.355 328.037H184.956C184.956 328.379 185.016 328.665 185.137 328.896C185.26 329.124 185.438 329.297 185.669 329.414C185.9 329.528 186.177 329.585 186.499 329.585C186.789 329.585 187.049 329.521 187.28 329.395C187.515 329.264 187.7 329.074 187.837 328.823C187.977 328.569 188.047 328.255 188.047 327.881ZM193.662 328.779V324.717H194.248V330H193.687L193.662 328.779ZM193.77 327.803L194.072 327.793C194.072 328.125 194.033 328.431 193.955 328.711C193.877 328.991 193.755 329.235 193.589 329.443C193.423 329.652 193.208 329.813 192.944 329.927C192.681 330.041 192.363 330.098 191.992 330.098C191.735 330.098 191.499 330.062 191.284 329.99C191.073 329.915 190.89 329.798 190.737 329.639C190.584 329.479 190.465 329.272 190.381 329.019C190.299 328.765 190.259 328.457 190.259 328.096V324.717H190.84V328.105C190.84 328.389 190.871 328.625 190.933 328.813C190.998 329.002 191.086 329.154 191.196 329.268C191.31 329.382 191.44 329.463 191.587 329.512C191.733 329.561 191.891 329.585 192.061 329.585C192.49 329.585 192.829 329.502 193.076 329.336C193.327 329.17 193.504 328.952 193.608 328.682C193.716 328.408 193.77 328.115 193.77 327.803ZM196.426 322.5V330H195.845V322.5H196.426ZM199.59 329.473L201.235 324.717H201.865L199.629 330.85C199.583 330.97 199.525 331.104 199.453 331.25C199.385 331.396 199.294 331.536 199.18 331.67C199.069 331.807 198.929 331.917 198.76 332.002C198.594 332.09 198.39 332.134 198.149 332.134C198.088 332.134 198.008 332.126 197.91 332.109C197.816 332.096 197.747 332.083 197.705 332.07L197.7 331.577C197.736 331.587 197.788 331.595 197.856 331.602C197.925 331.608 197.972 331.611 197.998 331.611C198.21 331.611 198.387 331.576 198.53 331.504C198.677 331.432 198.799 331.325 198.896 331.182C198.994 331.042 199.08 330.866 199.155 330.654L199.59 329.473ZM198.052 324.717L199.736 329.253L199.893 329.863L199.468 330.103L197.417 324.717H198.052ZM209.575 329.497V330H205.127V329.546L207.456 326.904C207.746 326.576 207.977 326.287 208.149 326.04C208.322 325.789 208.446 325.562 208.521 325.356C208.599 325.148 208.638 324.946 208.638 324.751C208.638 324.465 208.581 324.212 208.467 323.994C208.356 323.776 208.19 323.605 207.969 323.481C207.747 323.358 207.474 323.296 207.148 323.296C206.823 323.296 206.54 323.366 206.299 323.506C206.058 323.646 205.872 323.841 205.742 324.092C205.615 324.339 205.552 324.621 205.552 324.937H204.971C204.971 324.546 205.057 324.188 205.229 323.862C205.405 323.537 205.656 323.278 205.981 323.086C206.307 322.891 206.696 322.793 207.148 322.793C207.578 322.793 207.948 322.869 208.257 323.022C208.566 323.172 208.804 323.389 208.97 323.672C209.139 323.955 209.224 324.297 209.224 324.697C209.224 324.912 209.185 325.129 209.106 325.347C209.032 325.565 208.927 325.783 208.794 326.001C208.664 326.216 208.514 326.429 208.345 326.641C208.179 326.852 208.005 327.061 207.822 327.266L205.84 329.497H209.575ZM214.956 325.835V327.031C214.956 327.552 214.907 328.006 214.81 328.394C214.712 328.778 214.569 329.097 214.38 329.351C214.194 329.601 213.966 329.788 213.696 329.912C213.429 330.036 213.123 330.098 212.778 330.098C212.505 330.098 212.254 330.059 212.026 329.98C211.799 329.902 211.595 329.784 211.416 329.624C211.24 329.461 211.09 329.258 210.967 329.014C210.843 328.77 210.749 328.483 210.684 328.154C210.618 327.822 210.586 327.448 210.586 327.031V325.835C210.586 325.311 210.635 324.858 210.732 324.478C210.833 324.097 210.977 323.781 211.162 323.53C211.351 323.28 211.58 323.094 211.851 322.974C212.121 322.85 212.427 322.788 212.769 322.788C213.042 322.788 213.293 322.829 213.521 322.91C213.752 322.988 213.955 323.105 214.131 323.262C214.31 323.418 214.46 323.618 214.58 323.862C214.704 324.103 214.797 324.388 214.858 324.717C214.924 325.046 214.956 325.418 214.956 325.835ZM214.375 327.1V325.762C214.375 325.439 214.352 325.146 214.307 324.883C214.264 324.619 214.201 324.388 214.116 324.189C214.032 323.991 213.924 323.825 213.794 323.691C213.667 323.558 213.517 323.459 213.345 323.394C213.175 323.325 212.983 323.291 212.769 323.291C212.505 323.291 212.272 323.345 212.07 323.452C211.872 323.556 211.706 323.713 211.572 323.921C211.439 324.126 211.338 324.383 211.27 324.692C211.204 325.002 211.172 325.358 211.172 325.762V327.1C211.172 327.419 211.193 327.71 211.235 327.974C211.278 328.234 211.343 328.465 211.431 328.667C211.519 328.869 211.626 329.04 211.753 329.18C211.883 329.316 212.033 329.421 212.202 329.492C212.375 329.561 212.567 329.595 212.778 329.595C213.049 329.595 213.283 329.541 213.481 329.434C213.68 329.323 213.846 329.162 213.979 328.95C214.113 328.735 214.212 328.473 214.277 328.164C214.342 327.852 214.375 327.497 214.375 327.1ZM220.669 329.497V330H216.221V329.546L218.55 326.904C218.84 326.576 219.071 326.287 219.243 326.04C219.416 325.789 219.539 325.562 219.614 325.356C219.692 325.148 219.731 324.946 219.731 324.751C219.731 324.465 219.674 324.212 219.561 323.994C219.45 323.776 219.284 323.605 219.062 323.481C218.841 323.358 218.568 323.296 218.242 323.296C217.917 323.296 217.633 323.366 217.393 323.506C217.152 323.646 216.966 323.841 216.836 324.092C216.709 324.339 216.646 324.621 216.646 324.937H216.064C216.064 324.546 216.151 324.188 216.323 323.862C216.499 323.537 216.75 323.278 217.075 323.086C217.401 322.891 217.79 322.793 218.242 322.793C218.672 322.793 219.041 322.869 219.351 323.022C219.66 323.172 219.897 323.389 220.063 323.672C220.233 323.955 220.317 324.297 220.317 324.697C220.317 324.912 220.278 325.129 220.2 325.347C220.125 325.565 220.021 325.783 219.888 326.001C219.757 326.216 219.608 326.429 219.438 326.641C219.272 326.852 219.098 327.061 218.916 327.266L216.934 329.497H220.669ZM226.216 329.497V330H221.768V329.546L224.097 326.904C224.386 326.576 224.618 326.287 224.79 326.04C224.963 325.789 225.086 325.562 225.161 325.356C225.239 325.148 225.278 324.946 225.278 324.751C225.278 324.465 225.221 324.212 225.107 323.994C224.997 323.776 224.831 323.605 224.609 323.481C224.388 323.358 224.115 323.296 223.789 323.296C223.464 323.296 223.18 323.366 222.939 323.506C222.699 323.646 222.513 323.841 222.383 324.092C222.256 324.339 222.192 324.621 222.192 324.937H221.611C221.611 324.546 221.698 324.188 221.87 323.862C222.046 323.537 222.297 323.278 222.622 323.086C222.948 322.891 223.337 322.793 223.789 322.793C224.219 322.793 224.588 322.869 224.897 323.022C225.207 323.172 225.444 323.389 225.61 323.672C225.78 323.955 225.864 324.297 225.864 324.697C225.864 324.912 225.825 325.129 225.747 325.347C225.672 325.565 225.568 325.783 225.435 326.001C225.304 326.216 225.155 326.429 224.985 326.641C224.819 326.852 224.645 327.061 224.463 327.266L222.48 329.497H226.216Z" fill="#2B2F42"/>
<path d="M37.576 58.864C36.6587 58.864 35.8373 59.0453 35.112 59.408C34.408 59.7707 33.8107 60.2933 33.32 60.976C32.8293 61.6373 32.456 62.448 32.2 63.408C31.9653 64.368 31.848 65.4453 31.848 66.64C31.848 68.2613 32.04 69.648 32.424 70.8C32.8293 71.9307 33.4587 72.7947 34.312 73.392C35.1653 73.9893 36.2533 74.288 37.576 74.288C38.5147 74.288 39.4427 74.1813 40.36 73.968C41.2987 73.7547 42.312 73.456 43.4 73.072V77.136C42.3973 77.5413 41.4053 77.84 40.424 78.032C39.4427 78.224 38.344 78.32 37.128 78.32C34.7813 78.32 32.84 77.84 31.304 76.88C29.7893 75.8987 28.6693 74.5333 27.944 72.784C27.2187 71.0133 26.856 68.9547 26.856 66.608C26.856 64.88 27.0907 63.3013 27.56 61.872C28.0293 60.4213 28.712 59.1733 29.608 58.128C30.5253 57.0827 31.6453 56.272 32.968 55.696C34.312 55.12 35.848 54.832 37.576 54.832C38.7067 54.832 39.8373 54.9813 40.968 55.28C42.12 55.5573 43.2187 55.9413 44.264 56.432L42.696 60.368C41.8427 59.9627 40.9787 59.6107 40.104 59.312C39.2507 59.0133 38.408 58.864 37.576 58.864ZM57.631 60.208C57.8657 60.208 58.143 60.2187 58.463 60.24C58.783 60.2613 59.039 60.2933 59.231 60.336L58.879 64.816C58.7297 64.7733 58.5057 64.7413 58.207 64.72C57.9297 64.6773 57.6843 64.656 57.471 64.656C56.8523 64.656 56.255 64.7413 55.679 64.912C55.103 65.0613 54.5803 65.3067 54.111 65.648C53.663 65.9893 53.3003 66.448 53.023 67.024C52.767 67.5787 52.639 68.272 52.639 69.104V78H47.871V60.528H51.487L52.191 63.472H52.415C52.7563 62.8747 53.183 62.3307 53.695 61.84C54.207 61.3493 54.7937 60.9547 55.455 60.656C56.1377 60.3573 56.863 60.208 57.631 60.208ZM68.9773 60.208C70.5986 60.208 71.9853 60.5173 73.1373 61.136C74.3106 61.7547 75.2173 62.6507 75.8573 63.824C76.4973 64.9973 76.8173 66.4373 76.8173 68.144V70.448H65.5533C65.5959 71.792 65.9906 72.848 66.7373 73.616C67.5053 74.384 68.5613 74.768 69.9053 74.768C71.0359 74.768 72.0599 74.6613 72.9773 74.448C73.8946 74.2133 74.8439 73.8613 75.8253 73.392V77.072C74.9719 77.4987 74.0653 77.808 73.1053 78C72.1666 78.2133 71.0253 78.32 69.6813 78.32C67.9319 78.32 66.3853 78 65.0413 77.36C63.6973 76.6987 62.6413 75.7067 61.8733 74.384C61.1053 73.0613 60.7213 71.3973 60.7213 69.392C60.7213 67.344 61.0626 65.648 61.7453 64.304C62.4493 62.9387 63.4199 61.9147 64.6573 61.232C65.8946 60.5493 67.3346 60.208 68.9773 60.208ZM69.0093 63.6C68.0919 63.6 67.3239 63.8987 66.7053 64.496C66.1079 65.0933 65.7559 66.0213 65.6493 67.28H72.3373C72.3373 66.576 72.2093 65.9467 71.9533 65.392C71.7186 64.8373 71.3559 64.4 70.8653 64.08C70.3746 63.76 69.7559 63.6 69.0093 63.6ZM87.8515 60.176C90.1982 60.176 91.9902 60.688 93.2275 61.712C94.4862 62.7147 95.1155 64.2613 95.1155 66.352V78H91.7875L90.8595 75.632H90.7315C90.2408 76.2507 89.7288 76.7627 89.1955 77.168C88.6835 77.5733 88.0862 77.8613 87.4035 78.032C86.7422 78.224 85.9208 78.32 84.9395 78.32C83.9155 78.32 82.9875 78.128 82.1555 77.744C81.3448 77.3387 80.7048 76.7307 80.2355 75.92C79.7662 75.088 79.5315 74.0427 79.5315 72.784C79.5315 70.928 80.1822 69.5627 81.4835 68.688C82.7848 67.792 84.7368 67.3013 87.3395 67.216L90.3795 67.12V66.352C90.3795 65.4347 90.1342 64.7627 89.6435 64.336C89.1742 63.9093 88.5128 63.696 87.6595 63.696C86.8062 63.696 85.9742 63.824 85.1635 64.08C84.3528 64.3147 83.5422 64.6133 82.7315 64.976L81.1635 61.744C82.1022 61.2533 83.1368 60.8693 84.2675 60.592C85.4195 60.3147 86.6142 60.176 87.8515 60.176ZM88.5235 69.968C86.9875 70.0107 85.9208 70.288 85.3235 70.8C84.7262 71.312 84.4275 71.984 84.4275 72.816C84.4275 73.5413 84.6408 74.064 85.0675 74.384C85.4942 74.6827 86.0488 74.832 86.7315 74.832C87.7555 74.832 88.6195 74.5333 89.3235 73.936C90.0275 73.3173 90.3795 72.4533 90.3795 71.344V69.904L88.5235 69.968ZM107.356 74.512C107.889 74.512 108.401 74.4587 108.892 74.352C109.383 74.2453 109.873 74.1173 110.364 73.968V77.52C109.852 77.7333 109.212 77.9147 108.444 78.064C107.697 78.2347 106.876 78.32 105.98 78.32C104.935 78.32 103.996 78.1493 103.164 77.808C102.353 77.4667 101.703 76.88 101.212 76.048C100.743 75.1947 100.508 74.0213 100.508 72.528V64.112H98.236V62.096L100.86 60.496L102.236 56.816H105.276V60.528H110.172V64.112H105.276V72.528C105.276 73.1893 105.468 73.6907 105.852 74.032C106.236 74.352 106.737 74.512 107.356 74.512ZM118.639 60.528V78H113.871V60.528H118.639ZM116.271 53.68C116.975 53.68 117.583 53.8507 118.095 54.192C118.607 54.512 118.863 55.12 118.863 56.016C118.863 56.8907 118.607 57.4987 118.095 57.84C117.583 58.1813 116.975 58.352 116.271 58.352C115.546 58.352 114.927 58.1813 114.415 57.84C113.924 57.4987 113.679 56.8907 113.679 56.016C113.679 55.12 113.924 54.512 114.415 54.192C114.927 53.8507 115.546 53.68 116.271 53.68ZM127.781 78L121.125 60.528H126.117L129.477 70.48C129.605 70.864 129.712 71.2693 129.797 71.696C129.904 72.1227 129.978 72.5387 130.021 72.944C130.085 73.3493 130.128 73.7227 130.149 74.064H130.277C130.298 73.7013 130.341 73.3173 130.405 72.912C130.469 72.5067 130.544 72.1013 130.629 71.696C130.736 71.2693 130.853 70.864 130.981 70.48L134.341 60.528H139.333L132.677 78H127.781ZM149.04 60.208C150.661 60.208 152.048 60.5173 153.2 61.136C154.373 61.7547 155.28 62.6507 155.92 63.824C156.56 64.9973 156.88 66.4373 156.88 68.144V70.448H145.616C145.658 71.792 146.053 72.848 146.8 73.616C147.568 74.384 148.624 74.768 149.968 74.768C151.098 74.768 152.122 74.6613 153.04 74.448C153.957 74.2133 154.906 73.8613 155.888 73.392V77.072C155.034 77.4987 154.128 77.808 153.168 78C152.229 78.2133 151.088 78.32 149.744 78.32C147.994 78.32 146.448 78 145.104 77.36C143.76 76.6987 142.704 75.7067 141.936 74.384C141.168 73.0613 140.784 71.3973 140.784 69.392C140.784 67.344 141.125 65.648 141.808 64.304C142.512 62.9387 143.482 61.9147 144.72 61.232C145.957 60.5493 147.397 60.208 149.04 60.208ZM149.072 63.6C148.154 63.6 147.386 63.8987 146.768 64.496C146.17 65.0933 145.818 66.0213 145.712 67.28H152.4C152.4 66.576 152.272 65.9467 152.016 65.392C151.781 64.8373 151.418 64.4 150.928 64.08C150.437 63.76 149.818 63.6 149.072 63.6ZM159.21 71.376V67.472H167.594V71.376H159.21ZM41.352 115.664C41.352 117.008 41.0213 118.181 40.36 119.184C39.6987 120.187 38.7387 120.965 37.48 121.52C36.2427 122.053 34.728 122.32 32.936 122.32C32.1467 122.32 31.368 122.267 30.6 122.16C29.8533 122.053 29.128 121.904 28.424 121.712C27.7413 121.499 27.0907 121.243 26.472 120.944V116.432C27.56 116.901 28.68 117.339 29.832 117.744C31.0053 118.128 32.168 118.32 33.32 118.32C34.1093 118.32 34.7387 118.213 35.208 118C35.6987 117.787 36.0507 117.499 36.264 117.136C36.4987 116.773 36.616 116.357 36.616 115.888C36.616 115.312 36.4133 114.821 36.008 114.416C35.624 114.011 35.1013 113.637 34.44 113.296C33.7787 112.933 33.0213 112.549 32.168 112.144C31.6347 111.888 31.0587 111.589 30.44 111.248C29.8213 110.885 29.224 110.448 28.648 109.936C28.0933 109.403 27.6347 108.763 27.272 108.016C26.9093 107.269 26.728 106.373 26.728 105.328C26.728 103.963 27.0373 102.8 27.656 101.84C28.296 100.859 29.192 100.112 30.344 99.6C31.5173 99.088 32.8933 98.832 34.472 98.832C35.6667 98.832 36.7973 98.9707 37.864 99.248C38.952 99.5253 40.0827 99.92 41.256 100.432L39.688 104.208C38.6427 103.781 37.704 103.451 36.872 103.216C36.04 102.981 35.1867 102.864 34.312 102.864C33.7147 102.864 33.2027 102.96 32.776 103.152C32.3493 103.344 32.0187 103.611 31.784 103.952C31.5707 104.293 31.464 104.699 31.464 105.168C31.464 105.701 31.624 106.16 31.944 106.544C32.264 106.907 32.744 107.259 33.384 107.6C34.024 107.941 34.824 108.347 35.784 108.816C36.9573 109.371 37.9493 109.947 38.76 110.544C39.592 111.141 40.232 111.845 40.68 112.656C41.128 113.467 41.352 114.469 41.352 115.664ZM60.993 113.232C60.993 114.683 60.7903 115.973 60.385 117.104C60.001 118.235 59.4357 119.195 58.689 119.984C57.9637 120.752 57.0783 121.339 56.033 121.744C54.9877 122.128 53.8037 122.32 52.481 122.32C51.265 122.32 50.1343 122.128 49.089 121.744C48.065 121.339 47.1797 120.752 46.433 119.984C45.6863 119.195 45.0997 118.235 44.673 117.104C44.2677 115.973 44.065 114.683 44.065 113.232C44.065 111.291 44.4063 109.659 45.089 108.336C45.7717 106.992 46.753 105.968 48.033 105.264C49.313 104.56 50.8277 104.208 52.577 104.208C54.2197 104.208 55.6703 104.56 56.929 105.264C58.1877 105.968 59.1797 106.992 59.905 108.336C60.6303 109.659 60.993 111.291 60.993 113.232ZM48.929 113.232C48.929 114.384 49.0463 115.355 49.281 116.144C49.537 116.912 49.9317 117.499 50.465 117.904C50.9983 118.288 51.6917 118.48 52.545 118.48C53.3983 118.48 54.081 118.288 54.593 117.904C55.1263 117.499 55.5103 116.912 55.745 116.144C56.001 115.355 56.129 114.384 56.129 113.232C56.129 112.08 56.001 111.12 55.745 110.352C55.5103 109.584 55.1263 109.008 54.593 108.624C54.0597 108.24 53.3663 108.048 52.513 108.048C51.2543 108.048 50.337 108.485 49.761 109.36C49.2063 110.213 48.929 111.504 48.929 113.232ZM72.0375 122.32C70.3095 122.32 68.8375 122.011 67.6215 121.392C66.4055 120.752 65.4775 119.771 64.8375 118.448C64.1975 117.125 63.8775 115.429 63.8775 113.36C63.8775 111.227 64.2402 109.488 64.9655 108.144C65.6908 106.8 66.6935 105.808 67.9735 105.168C69.2748 104.528 70.7682 104.208 72.4535 104.208C73.6482 104.208 74.6828 104.325 75.5575 104.56C76.4535 104.795 77.2322 105.072 77.8935 105.392L76.4855 109.072C75.7388 108.773 75.0348 108.528 74.3735 108.336C73.7335 108.144 73.0935 108.048 72.4535 108.048C71.6215 108.048 70.9282 108.251 70.3735 108.656C69.8188 109.04 69.4028 109.627 69.1255 110.416C68.8695 111.184 68.7415 112.155 68.7415 113.328C68.7415 114.48 68.8802 115.44 69.1575 116.208C69.4562 116.955 69.8828 117.52 70.4375 117.904C70.9922 118.267 71.6642 118.448 72.4535 118.448C73.4562 118.448 74.3415 118.32 75.1095 118.064C75.8775 117.787 76.6242 117.413 77.3495 116.944V121.008C76.6242 121.477 75.8562 121.808 75.0455 122C74.2562 122.213 73.2535 122.32 72.0375 122.32ZM86.139 104.528V122H81.371V104.528H86.139ZM83.771 97.68C84.475 97.68 85.083 97.8507 85.595 98.192C86.107 98.512 86.363 99.12 86.363 100.016C86.363 100.891 86.107 101.499 85.595 101.84C85.083 102.181 84.475 102.352 83.771 102.352C83.0457 102.352 82.427 102.181 81.915 101.84C81.4243 101.499 81.179 100.891 81.179 100.016C81.179 99.12 81.4243 98.512 81.915 98.192C82.427 97.8507 83.0457 97.68 83.771 97.68ZM98.289 104.176C100.636 104.176 102.428 104.688 103.665 105.712C104.924 106.715 105.553 108.261 105.553 110.352V122H102.225L101.297 119.632H101.169C100.678 120.251 100.166 120.763 99.633 121.168C99.121 121.573 98.5237 121.861 97.841 122.032C97.1797 122.224 96.3583 122.32 95.377 122.32C94.353 122.32 93.425 122.128 92.593 121.744C91.7823 121.339 91.1423 120.731 90.673 119.92C90.2037 119.088 89.969 118.043 89.969 116.784C89.969 114.928 90.6197 113.563 91.921 112.688C93.2223 111.792 95.1743 111.301 97.777 111.216L100.817 111.12V110.352C100.817 109.435 100.572 108.763 100.081 108.336C99.6117 107.909 98.9503 107.696 98.097 107.696C97.2437 107.696 96.4117 107.824 95.601 108.08C94.7903 108.315 93.9797 108.613 93.169 108.976L91.601 105.744C92.5397 105.253 93.5743 104.869 94.705 104.592C95.857 104.315 97.0517 104.176 98.289 104.176ZM98.961 113.968C97.425 114.011 96.3583 114.288 95.761 114.8C95.1637 115.312 94.865 115.984 94.865 116.816C94.865 117.541 95.0783 118.064 95.505 118.384C95.9317 118.683 96.4863 118.832 97.169 118.832C98.193 118.832 99.057 118.533 99.761 117.936C100.465 117.317 100.817 116.453 100.817 115.344V113.904L98.961 113.968ZM115.202 122H110.434V97.68H115.202V122ZM48.008 148.208C49.992 148.208 51.4853 148.72 52.488 149.744C53.512 150.747 54.024 152.368 54.024 154.608V166H49.256V155.792C49.256 154.533 49.0427 153.595 48.616 152.976C48.1893 152.336 47.528 152.016 46.632 152.016C45.3733 152.016 44.4773 152.464 43.944 153.36C43.4107 154.256 43.144 155.547 43.144 157.232V166H38.376V155.792C38.376 154.96 38.28 154.267 38.088 153.712C37.896 153.157 37.608 152.741 37.224 152.464C36.84 152.165 36.3493 152.016 35.752 152.016C34.8773 152.016 34.184 152.24 33.672 152.688C33.16 153.136 32.7973 153.787 32.584 154.64C32.3707 155.493 32.264 156.539 32.264 157.776V166H27.496V148.528H31.144L31.784 150.768H32.04C32.4027 150.171 32.8507 149.691 33.384 149.328C33.9173 148.944 34.504 148.667 35.144 148.496C35.8053 148.304 36.4667 148.208 37.128 148.208C38.408 148.208 39.496 148.421 40.392 148.848C41.288 149.253 41.9707 149.893 42.44 150.768H42.856C43.3893 149.872 44.1253 149.221 45.064 148.816C46.024 148.411 47.0053 148.208 48.008 148.208ZM66.1335 148.208C67.7548 148.208 69.1415 148.517 70.2935 149.136C71.4668 149.755 72.3735 150.651 73.0135 151.824C73.6535 152.997 73.9735 154.437 73.9735 156.144V158.448H62.7095C62.7522 159.792 63.1468 160.848 63.8935 161.616C64.6615 162.384 65.7175 162.768 67.0615 162.768C68.1922 162.768 69.2162 162.661 70.1335 162.448C71.0508 162.213 72.0002 161.861 72.9815 161.392V165.072C72.1282 165.499 71.2215 165.808 70.2615 166C69.3228 166.213 68.1815 166.32 66.8375 166.32C65.0882 166.32 63.5415 166 62.1975 165.36C60.8535 164.699 59.7975 163.707 59.0295 162.384C58.2615 161.061 57.8775 159.397 57.8775 157.392C57.8775 155.344 58.2188 153.648 58.9015 152.304C59.6055 150.939 60.5762 149.915 61.8135 149.232C63.0508 148.549 64.4908 148.208 66.1335 148.208ZM66.1655 151.6C65.2482 151.6 64.4802 151.899 63.8615 152.496C63.2642 153.093 62.9122 154.021 62.8055 155.28H69.4935C69.4935 154.576 69.3655 153.947 69.1095 153.392C68.8748 152.837 68.5122 152.4 68.0215 152.08C67.5308 151.76 66.9122 151.6 66.1655 151.6ZM83.3758 166.32C81.4344 166.32 79.8451 165.563 78.6078 164.048C77.3918 162.512 76.7838 160.261 76.7838 157.296C76.7838 154.309 77.4024 152.048 78.6398 150.512C79.8771 148.976 81.4984 148.208 83.5038 148.208C84.3358 148.208 85.0718 148.325 85.7118 148.56C86.3518 148.773 86.8958 149.072 87.3438 149.456C87.8131 149.84 88.2078 150.277 88.5278 150.768H88.6878C88.6238 150.427 88.5491 149.936 88.4638 149.296C88.3784 148.635 88.3358 147.963 88.3358 147.28V141.68H93.1038V166H89.4558L88.5278 163.728H88.3358C88.0371 164.197 87.6531 164.635 87.1838 165.04C86.7358 165.424 86.2024 165.733 85.5838 165.968C84.9651 166.203 84.2291 166.32 83.3758 166.32ZM85.0398 162.512C86.3624 162.512 87.2904 162.128 87.8238 161.36C88.3571 160.571 88.6344 159.397 88.6558 157.84V157.328C88.6558 155.621 88.3891 154.32 87.8558 153.424C87.3438 152.528 86.3838 152.08 84.9758 152.08C83.9304 152.08 83.1091 152.539 82.5118 153.456C81.9144 154.352 81.6158 155.653 81.6158 157.36C81.6158 159.067 81.9144 160.357 82.5118 161.232C83.1091 162.085 83.9518 162.512 85.0398 162.512ZM102.858 148.528V166H98.0898V148.528H102.858ZM100.49 141.68C101.194 141.68 101.802 141.851 102.314 142.192C102.826 142.512 103.082 143.12 103.082 144.016C103.082 144.891 102.826 145.499 102.314 145.84C101.802 146.181 101.194 146.352 100.49 146.352C99.7644 146.352 99.1458 146.181 98.6338 145.84C98.1431 145.499 97.8978 144.891 97.8978 144.016C97.8978 143.12 98.1431 142.512 98.6338 142.192C99.1458 141.851 99.7644 141.68 100.49 141.68ZM115.008 148.176C117.354 148.176 119.146 148.688 120.384 149.712C121.642 150.715 122.272 152.261 122.272 154.352V166H118.944L118.016 163.632H117.888C117.397 164.251 116.885 164.763 116.352 165.168C115.84 165.573 115.242 165.861 114.56 166.032C113.898 166.224 113.077 166.32 112.096 166.32C111.072 166.32 110.144 166.128 109.312 165.744C108.501 165.339 107.861 164.731 107.392 163.92C106.922 163.088 106.688 162.043 106.688 160.784C106.688 158.928 107.338 157.563 108.64 156.688C109.941 155.792 111.893 155.301 114.496 155.216L117.536 155.12V154.352C117.536 153.435 117.29 152.763 116.8 152.336C116.33 151.909 115.669 151.696 114.816 151.696C113.962 151.696 113.13 151.824 112.32 152.08C111.509 152.315 110.698 152.613 109.888 152.976L108.32 149.744C109.258 149.253 110.293 148.869 111.424 148.592C112.576 148.315 113.77 148.176 115.008 148.176ZM115.68 157.968C114.144 158.011 113.077 158.288 112.48 158.8C111.882 159.312 111.584 159.984 111.584 160.816C111.584 161.541 111.797 162.064 112.224 162.384C112.65 162.683 113.205 162.832 113.888 162.832C114.912 162.832 115.776 162.533 116.48 161.936C117.184 161.317 117.536 160.453 117.536 159.344V157.904L115.68 157.968Z" fill="#575353"/>
<path d="M31.576 194H28.48V193.376L29.488 193.148V186.296L28.48 186.056V185.432H31.576V186.056L30.568 186.296V193.148L31.576 193.376V194ZM36.1824 187.448C36.9504 187.448 37.5304 187.636 37.9224 188.012C38.3144 188.38 38.5104 188.98 38.5104 189.812V194H37.4664V189.884C37.4664 189.364 37.3504 188.976 37.1184 188.72C36.8864 188.464 36.5224 188.336 36.0264 188.336C35.3144 188.336 34.8224 188.536 34.5504 188.936C34.2784 189.336 34.1424 189.912 34.1424 190.664V194H33.0864V187.568H33.9384L34.0944 188.444H34.1544C34.2984 188.22 34.4744 188.036 34.6824 187.892C34.8984 187.74 35.1344 187.628 35.3904 187.556C35.6464 187.484 35.9104 187.448 36.1824 187.448ZM42.6524 193.256C42.8124 193.256 42.9764 193.244 43.1444 193.22C43.3124 193.188 43.4484 193.156 43.5524 193.124V193.928C43.4404 193.984 43.2804 194.028 43.0724 194.06C42.8644 194.1 42.6644 194.12 42.4724 194.12C42.1364 194.12 41.8244 194.064 41.5364 193.952C41.2564 193.832 41.0284 193.628 40.8524 193.34C40.6764 193.052 40.5884 192.648 40.5884 192.128V188.384H39.6764V187.88L40.6004 187.46L41.0204 186.092H41.6444V187.568H43.5044V188.384H41.6444V192.104C41.6444 192.496 41.7364 192.788 41.9204 192.98C42.1124 193.164 42.3564 193.256 42.6524 193.256ZM47.3243 187.448C47.8763 187.448 48.3483 187.568 48.7403 187.808C49.1403 188.048 49.4443 188.388 49.6523 188.828C49.8683 189.26 49.9763 189.768 49.9763 190.352V190.988H45.5723C45.5883 191.716 45.7723 192.272 46.1243 192.656C46.4843 193.032 46.9843 193.22 47.6243 193.22C48.0323 193.22 48.3923 193.184 48.7043 193.112C49.0243 193.032 49.3523 192.92 49.6883 192.776V193.7C49.3603 193.844 49.0363 193.948 48.7163 194.012C48.3963 194.084 48.0163 194.12 47.5763 194.12C46.9683 194.12 46.4283 193.996 45.9563 193.748C45.4923 193.5 45.1283 193.132 44.8643 192.644C44.6083 192.148 44.4803 191.544 44.4803 190.832C44.4803 190.128 44.5963 189.524 44.8283 189.02C45.0683 188.516 45.4003 188.128 45.8243 187.856C46.2563 187.584 46.7563 187.448 47.3243 187.448ZM47.3123 188.312C46.8083 188.312 46.4083 188.476 46.1123 188.804C45.8243 189.124 45.6523 189.572 45.5963 190.148H48.8723C48.8723 189.78 48.8163 189.46 48.7043 189.188C48.5923 188.916 48.4203 188.704 48.1883 188.552C47.9643 188.392 47.6723 188.312 47.3123 188.312ZM54.6138 187.448C54.7338 187.448 54.8618 187.456 54.9978 187.472C55.1418 187.48 55.2658 187.496 55.3698 187.52L55.2378 188.492C55.1338 188.468 55.0178 188.448 54.8898 188.432C54.7698 188.416 54.6538 188.408 54.5418 188.408C54.2938 188.408 54.0578 188.46 53.8338 188.564C53.6098 188.668 53.4098 188.816 53.2338 189.008C53.0578 189.192 52.9178 189.416 52.8138 189.68C52.7178 189.944 52.6698 190.24 52.6698 190.568V194H51.6138V187.568H52.4778L52.5978 188.744H52.6458C52.7818 188.504 52.9458 188.288 53.1378 188.096C53.3298 187.896 53.5498 187.74 53.7978 187.628C54.0458 187.508 54.3178 187.448 54.6138 187.448ZM59.6668 187.448C60.4348 187.448 61.0148 187.636 61.4068 188.012C61.7988 188.38 61.9948 188.98 61.9948 189.812V194H60.9508V189.884C60.9508 189.364 60.8348 188.976 60.6028 188.72C60.3708 188.464 60.0068 188.336 59.5108 188.336C58.7988 188.336 58.3068 188.536 58.0348 188.936C57.7628 189.336 57.6268 189.912 57.6268 190.664V194H56.5708V187.568H57.4228L57.5788 188.444H57.6388C57.7828 188.22 57.9588 188.036 58.1668 187.892C58.3828 187.74 58.6188 187.628 58.8748 187.556C59.1308 187.484 59.3948 187.448 59.6668 187.448ZM68.1768 192.224C68.1768 192.64 68.0728 192.988 67.8648 193.268C67.6568 193.548 67.3608 193.76 66.9768 193.904C66.5928 194.048 66.1368 194.12 65.6088 194.12C65.1608 194.12 64.7728 194.084 64.4448 194.012C64.1248 193.94 63.8408 193.84 63.5928 193.712V192.752C63.8488 192.88 64.1568 193 64.5168 193.112C64.8848 193.216 65.2568 193.268 65.6328 193.268C66.1688 193.268 66.5568 193.184 66.7968 193.016C67.0368 192.84 67.1568 192.608 67.1568 192.32C67.1568 192.16 67.1128 192.016 67.0248 191.888C66.9368 191.76 66.7768 191.632 66.5448 191.504C66.3208 191.376 65.9968 191.232 65.5728 191.072C65.1568 190.912 64.8008 190.752 64.5048 190.592C64.2088 190.432 63.9808 190.24 63.8208 190.016C63.6608 189.792 63.5808 189.504 63.5808 189.152C63.5808 188.608 63.8008 188.188 64.2408 187.892C64.6888 187.596 65.2728 187.448 65.9928 187.448C66.3848 187.448 66.7488 187.488 67.0848 187.568C67.4288 187.64 67.7488 187.744 68.0448 187.88L67.6848 188.72C67.5088 188.64 67.3208 188.572 67.1208 188.516C66.9288 188.452 66.7328 188.404 66.5328 188.372C66.3328 188.332 66.1288 188.312 65.9208 188.312C65.4888 188.312 65.1568 188.384 64.9248 188.528C64.7008 188.664 64.5888 188.852 64.5888 189.092C64.5888 189.268 64.6408 189.42 64.7448 189.548C64.8488 189.668 65.0208 189.788 65.2608 189.908C65.5088 190.02 65.8368 190.156 66.2448 190.316C66.6528 190.468 67.0008 190.624 67.2888 190.784C67.5768 190.944 67.7968 191.14 67.9488 191.372C68.1008 191.596 68.1768 191.88 68.1768 192.224ZM70.7869 187.556C70.7869 187.708 70.7789 187.864 70.7629 188.024C70.7549 188.184 70.7429 188.328 70.7269 188.456H70.7989C70.9349 188.232 71.1069 188.048 71.3149 187.904C71.5229 187.76 71.7549 187.652 72.0109 187.58C72.2669 187.5 72.5309 187.46 72.8029 187.46C73.3229 187.46 73.7549 187.544 74.0989 187.712C74.4509 187.872 74.7149 188.124 74.8909 188.468C75.0669 188.812 75.1549 189.26 75.1549 189.812V194H74.1109V189.884C74.1109 189.364 73.9949 188.976 73.7629 188.72C73.5309 188.464 73.1669 188.336 72.6709 188.336C72.1909 188.336 71.8149 188.428 71.5429 188.612C71.2709 188.788 71.0749 189.052 70.9549 189.404C70.8429 189.748 70.7869 190.172 70.7869 190.676V194H69.7309V184.88H70.7869V187.556ZM78.2049 187.568V194H77.1489V187.568H78.2049ZM77.6889 185.156C77.8489 185.156 77.9889 185.212 78.1089 185.324C78.2369 185.428 78.3009 185.596 78.3009 185.828C78.3009 186.052 78.2369 186.22 78.1089 186.332C77.9889 186.444 77.8489 186.5 77.6889 186.5C77.5129 186.5 77.3649 186.444 77.2449 186.332C77.1249 186.22 77.0649 186.052 77.0649 185.828C77.0649 185.596 77.1249 185.428 77.2449 185.324C77.3649 185.212 77.5129 185.156 77.6889 185.156ZM83.3027 187.448C84.0947 187.448 84.7307 187.724 85.2107 188.276C85.6987 188.828 85.9427 189.66 85.9427 190.772C85.9427 191.5 85.8307 192.116 85.6067 192.62C85.3907 193.116 85.0827 193.492 84.6827 193.748C84.2907 193.996 83.8267 194.12 83.2907 194.12C82.9627 194.12 82.6707 194.076 82.4147 193.988C82.1587 193.9 81.9387 193.788 81.7547 193.652C81.5787 193.508 81.4267 193.352 81.2987 193.184H81.2267C81.2427 193.32 81.2587 193.492 81.2747 193.7C81.2907 193.908 81.2987 194.088 81.2987 194.24V196.88H80.2427V187.568H81.1067L81.2507 188.444H81.2987C81.4267 188.26 81.5787 188.092 81.7547 187.94C81.9387 187.788 82.1547 187.668 82.4027 187.58C82.6587 187.492 82.9587 187.448 83.3027 187.448ZM83.1107 188.336C82.6787 188.336 82.3307 188.42 82.0667 188.588C81.8027 188.748 81.6107 188.992 81.4907 189.32C81.3707 189.648 81.3067 190.064 81.2987 190.568V190.772C81.2987 191.3 81.3547 191.748 81.4667 192.116C81.5787 192.484 81.7667 192.764 82.0307 192.956C82.3027 193.148 82.6707 193.244 83.1347 193.244C83.5267 193.244 83.8467 193.136 84.0947 192.92C84.3507 192.704 84.5387 192.412 84.6587 192.044C84.7867 191.668 84.8507 191.24 84.8507 190.76C84.8507 190.024 84.7067 189.436 84.4187 188.996C84.1387 188.556 83.7027 188.336 83.1107 188.336ZM38.38 201.432L36.244 210H35.152L33.628 204.384C33.58 204.216 33.532 204.044 33.484 203.868C33.444 203.692 33.404 203.524 33.364 203.364C33.324 203.204 33.292 203.068 33.268 202.956C33.244 202.836 33.228 202.748 33.22 202.692C33.212 202.748 33.196 202.836 33.172 202.956C33.148 203.068 33.12 203.204 33.088 203.364C33.056 203.524 33.016 203.696 32.968 203.88C32.928 204.056 32.884 204.236 32.836 204.42L31.348 210H30.244L28.12 201.432H29.236L30.472 206.664C30.512 206.848 30.552 207.032 30.592 207.216C30.632 207.392 30.664 207.568 30.688 207.744C30.72 207.912 30.748 208.076 30.772 208.236C30.804 208.396 30.828 208.552 30.844 208.704C30.868 208.544 30.892 208.38 30.916 208.212C30.948 208.044 30.98 207.872 31.012 207.696C31.052 207.512 31.092 207.328 31.132 207.144C31.18 206.96 31.228 206.78 31.276 206.604L32.668 201.432H33.772L35.224 206.64C35.272 206.824 35.316 207.012 35.356 207.204C35.404 207.388 35.444 207.568 35.476 207.744C35.516 207.92 35.548 208.092 35.572 208.26C35.604 208.42 35.632 208.568 35.656 208.704C35.68 208.504 35.712 208.296 35.752 208.08C35.792 207.856 35.836 207.624 35.884 207.384C35.94 207.144 35.996 206.9 36.052 206.652L37.276 201.432H38.38ZM44.4543 203.568V210H43.6143L43.4583 209.148H43.4103C43.2823 209.372 43.1143 209.556 42.9063 209.7C42.7063 209.844 42.4863 209.948 42.2463 210.012C42.0063 210.084 41.7543 210.12 41.4902 210.12C41.0103 210.12 40.6063 210.04 40.2783 209.88C39.9503 209.712 39.7023 209.456 39.5343 209.112C39.3743 208.768 39.2943 208.324 39.2943 207.78V203.568H40.3503V207.708C40.3503 208.22 40.4583 208.604 40.6743 208.86C40.8903 209.116 41.2223 209.244 41.6703 209.244C42.1103 209.244 42.4543 209.156 42.7023 208.98C42.9583 208.796 43.1383 208.532 43.2423 208.188C43.3543 207.836 43.4103 207.412 43.4103 206.916V203.568H44.4543ZM49.3023 203.448C50.0223 203.448 50.5663 203.636 50.9343 204.012C51.3103 204.38 51.4983 204.98 51.4983 205.812V210H50.4543V205.884C50.4543 205.364 50.3463 204.976 50.1303 204.72C49.9143 204.464 49.5823 204.336 49.1343 204.336C48.4783 204.336 48.0223 204.536 47.7663 204.936C47.5183 205.336 47.3943 205.912 47.3943 206.664V210H46.3503V203.568H47.1903L47.3463 204.444H47.4063C47.5343 204.22 47.6983 204.036 47.8983 203.892C48.0983 203.74 48.3183 203.628 48.5583 203.556C48.7983 203.484 49.0463 203.448 49.3023 203.448ZM55.4942 210.12C54.7502 210.12 54.1502 209.844 53.6942 209.292C53.2462 208.732 53.0222 207.9 53.0222 206.796C53.0222 205.692 53.2502 204.86 53.7062 204.3C54.1622 203.732 54.7622 203.448 55.5062 203.448C55.8182 203.448 56.0902 203.492 56.3222 203.58C56.5542 203.66 56.7542 203.772 56.9222 203.916C57.0982 204.06 57.2462 204.22 57.3662 204.396H57.4382C57.4302 204.292 57.4142 204.14 57.3902 203.94C57.3742 203.732 57.3662 203.568 57.3662 203.448V200.88H58.4102V210H57.5702L57.4142 209.136H57.3662C57.2462 209.32 57.0982 209.488 56.9222 209.64C56.7542 209.784 56.5502 209.9 56.3102 209.988C56.0782 210.076 55.8062 210.12 55.4942 210.12ZM55.6862 209.244C56.3102 209.244 56.7462 209.06 56.9942 208.692C57.2502 208.316 57.3782 207.752 57.3782 207V206.808C57.3782 206.008 57.2582 205.396 57.0182 204.972C56.7782 204.54 56.3302 204.324 55.6742 204.324C55.1462 204.324 54.7502 204.552 54.4862 205.008C54.2302 205.456 54.1022 206.06 54.1022 206.82C54.1022 207.588 54.2302 208.184 54.4862 208.608C54.7502 209.032 55.1502 209.244 55.6862 209.244ZM62.6594 203.448C63.1794 203.448 63.6274 203.568 64.0034 203.808C64.3794 204.048 64.6674 204.388 64.8674 204.828C65.0754 205.26 65.1794 205.768 65.1794 206.352V206.988H61.0514C61.0674 207.716 61.2394 208.272 61.5674 208.656C61.8954 209.032 62.3554 209.22 62.9474 209.22C63.3314 209.22 63.6714 209.184 63.9674 209.112C64.2714 209.032 64.5834 208.92 64.9034 208.776V209.7C64.5914 209.844 64.2834 209.948 63.9794 210.012C63.6834 210.084 63.3234 210.12 62.8994 210.12C62.3234 210.12 61.8154 209.996 61.3754 209.748C60.9354 209.5 60.5914 209.132 60.3434 208.644C60.0954 208.148 59.9714 207.544 59.9714 206.832C59.9714 206.128 60.0834 205.524 60.3074 205.02C60.5314 204.516 60.8434 204.128 61.2434 203.856C61.6514 203.584 62.1234 203.448 62.6594 203.448ZM62.6594 204.312C62.1954 204.312 61.8274 204.476 61.5554 204.804C61.2834 205.124 61.1234 205.572 61.0754 206.148H64.0994C64.0994 205.78 64.0474 205.46 63.9434 205.188C63.8394 204.916 63.6794 204.704 63.4634 204.552C63.2554 204.392 62.9874 204.312 62.6594 204.312ZM69.5621 203.448C69.6741 203.448 69.7941 203.456 69.9221 203.472C70.0501 203.48 70.1621 203.496 70.2581 203.52L70.1381 204.492C70.0421 204.468 69.9341 204.448 69.8141 204.432C69.7021 204.416 69.5941 204.408 69.4901 204.408C69.2581 204.408 69.0381 204.46 68.8301 204.564C68.6221 204.668 68.4341 204.816 68.2661 205.008C68.1061 205.192 67.9781 205.416 67.8821 205.68C67.7861 205.944 67.7381 206.24 67.7381 206.568V210H66.6941V203.568H67.5461L67.6661 204.744H67.7141C67.8421 204.504 67.9941 204.288 68.1701 204.096C68.3541 203.896 68.5621 203.74 68.7941 203.628C69.0261 203.508 69.2821 203.448 69.5621 203.448ZM78.0656 203.448C78.7536 203.448 79.2656 203.636 79.6016 204.012C79.9376 204.38 80.1056 204.98 80.1056 205.812V210H79.0736V205.86C79.0736 205.356 78.9736 204.976 78.7736 204.72C78.5816 204.464 78.2776 204.336 77.8616 204.336C77.2856 204.336 76.8736 204.516 76.6256 204.876C76.3856 205.236 76.2656 205.76 76.2656 206.448V210H75.2216V205.86C75.2216 205.524 75.1776 205.244 75.0896 205.02C75.0016 204.788 74.8696 204.616 74.6936 204.504C74.5176 204.392 74.2896 204.336 74.0096 204.336C73.6096 204.336 73.2936 204.428 73.0616 204.612C72.8296 204.788 72.6656 205.048 72.5696 205.392C72.4736 205.736 72.4256 206.16 72.4256 206.664V210H71.3816V203.568H72.2216L72.3776 204.444H72.4376C72.5656 204.22 72.7216 204.036 72.9056 203.892C73.0896 203.74 73.2936 203.628 73.5176 203.556C73.7416 203.484 73.9736 203.448 74.2136 203.448C74.6776 203.448 75.0656 203.536 75.3776 203.712C75.6896 203.888 75.9176 204.16 76.0616 204.528H76.1336C76.3336 204.16 76.6056 203.888 76.9496 203.712C77.3016 203.536 77.6736 203.448 78.0656 203.448ZM84.2796 203.46C85.0156 203.46 85.5636 203.632 85.9236 203.976C86.2916 204.32 86.4756 204.868 86.4756 205.62V210H85.7196L85.5156 209.088H85.4676C85.2916 209.32 85.1116 209.516 84.9276 209.676C84.7516 209.828 84.5436 209.94 84.3036 210.012C84.0716 210.084 83.7836 210.12 83.4396 210.12C83.0796 210.12 82.7556 210.052 82.4676 209.916C82.1796 209.78 81.9516 209.572 81.7836 209.292C81.6156 209.004 81.5316 208.644 81.5316 208.212C81.5316 207.572 81.7676 207.08 82.2396 206.736C82.7116 206.384 83.4396 206.192 84.4236 206.16L85.4436 206.124V205.74C85.4436 205.204 85.3356 204.832 85.1196 204.624C84.9116 204.416 84.6116 204.312 84.2196 204.312C83.9076 204.312 83.6076 204.364 83.3196 204.468C83.0396 204.564 82.7716 204.676 82.5156 204.804L82.1916 204.012C82.4636 203.86 82.7796 203.732 83.1396 203.628C83.4996 203.516 83.8796 203.46 84.2796 203.46ZM84.5676 206.892C83.8316 206.924 83.3196 207.052 83.0316 207.276C82.7516 207.5 82.6116 207.816 82.6116 208.224C82.6116 208.584 82.7116 208.848 82.9116 209.016C83.1116 209.184 83.3716 209.268 83.6916 209.268C84.1876 209.268 84.6036 209.12 84.9396 208.824C85.2756 208.52 85.4436 208.056 85.4436 207.432V206.856L84.5676 206.892ZM91.2906 203.448C92.0106 203.448 92.5546 203.636 92.9226 204.012C93.2986 204.38 93.4866 204.98 93.4866 205.812V210H92.4426V205.884C92.4426 205.364 92.3346 204.976 92.1186 204.72C91.9026 204.464 91.5706 204.336 91.1226 204.336C90.4666 204.336 90.0106 204.536 89.7546 204.936C89.5066 205.336 89.3826 205.912 89.3826 206.664V210H88.3386V203.568H89.1786L89.3346 204.444H89.3946C89.5226 204.22 89.6866 204.036 89.8866 203.892C90.0866 203.74 90.3066 203.628 90.5466 203.556C90.7866 203.484 91.0346 203.448 91.2906 203.448ZM101.012 210H99.9441V202.38H97.4481V201.432H103.484V202.38H101.012V210ZM105.613 203.556C105.613 203.708 105.605 203.864 105.589 204.024C105.581 204.184 105.569 204.328 105.553 204.456H105.625C105.753 204.232 105.913 204.048 106.105 203.904C106.305 203.76 106.521 203.652 106.753 203.58C106.993 203.5 107.241 203.46 107.497 203.46C107.985 203.46 108.393 203.544 108.721 203.712C109.049 203.872 109.297 204.124 109.465 204.468C109.633 204.812 109.717 205.26 109.717 205.812V210H108.673V205.884C108.673 205.364 108.565 204.976 108.349 204.72C108.133 204.464 107.801 204.336 107.353 204.336C106.913 204.336 106.565 204.428 106.309 204.612C106.053 204.788 105.873 205.052 105.769 205.404C105.665 205.748 105.613 206.172 105.613 206.676V210H104.569V200.88H105.613V203.556ZM116.869 206.772C116.869 207.308 116.801 207.784 116.665 208.2C116.537 208.608 116.349 208.956 116.101 209.244C115.853 209.532 115.553 209.752 115.201 209.904C114.849 210.048 114.457 210.12 114.025 210.12C113.625 210.12 113.253 210.048 112.909 209.904C112.573 209.752 112.277 209.532 112.021 209.244C111.773 208.956 111.581 208.608 111.445 208.2C111.309 207.784 111.241 207.308 111.241 206.772C111.241 206.06 111.353 205.46 111.577 204.972C111.809 204.476 112.137 204.1 112.561 203.844C112.985 203.58 113.485 203.448 114.061 203.448C114.613 203.448 115.097 203.58 115.513 203.844C115.937 204.1 116.269 204.476 116.509 204.972C116.749 205.46 116.869 206.06 116.869 206.772ZM112.321 206.772C112.321 207.276 112.381 207.716 112.501 208.092C112.621 208.46 112.809 208.744 113.065 208.944C113.321 209.144 113.649 209.244 114.049 209.244C114.449 209.244 114.777 209.144 115.033 208.944C115.289 208.744 115.477 208.46 115.597 208.092C115.725 207.716 115.789 207.276 115.789 206.772C115.789 206.26 115.725 205.824 115.597 205.464C115.477 205.104 115.289 204.828 115.033 204.636C114.777 204.436 114.445 204.336 114.037 204.336C113.437 204.336 113.001 204.552 112.729 204.984C112.457 205.416 112.321 206.012 112.321 206.772ZM125.105 203.448C125.793 203.448 126.305 203.636 126.641 204.012C126.977 204.38 127.145 204.98 127.145 205.812V210H126.113V205.86C126.113 205.356 126.013 204.976 125.813 204.72C125.621 204.464 125.317 204.336 124.901 204.336C124.325 204.336 123.913 204.516 123.665 204.876C123.425 205.236 123.305 205.76 123.305 206.448V210H122.261V205.86C122.261 205.524 122.217 205.244 122.129 205.02C122.041 204.788 121.909 204.616 121.733 204.504C121.557 204.392 121.329 204.336 121.049 204.336C120.649 204.336 120.333 204.428 120.101 204.612C119.869 204.788 119.705 205.048 119.609 205.392C119.513 205.736 119.465 206.16 119.465 206.664V210H118.421V203.568H119.261L119.417 204.444H119.477C119.605 204.22 119.761 204.036 119.945 203.892C120.129 203.74 120.333 203.628 120.557 203.556C120.781 203.484 121.013 203.448 121.253 203.448C121.717 203.448 122.105 203.536 122.417 203.712C122.729 203.888 122.957 204.16 123.101 204.528H123.173C123.373 204.16 123.645 203.888 123.989 203.712C124.341 203.536 124.713 203.448 125.105 203.448ZM131.919 203.448C132.663 203.448 133.259 203.724 133.707 204.276C134.163 204.828 134.391 205.66 134.391 206.772C134.391 207.5 134.287 208.116 134.079 208.62C133.871 209.116 133.579 209.492 133.203 209.748C132.835 209.996 132.403 210.12 131.907 210.12C131.595 210.12 131.319 210.076 131.079 209.988C130.847 209.9 130.647 209.788 130.479 209.652C130.311 209.508 130.167 209.352 130.047 209.184H129.975C129.991 209.32 130.007 209.492 130.023 209.7C130.039 209.908 130.047 210.088 130.047 210.24V212.88H129.003V203.568H129.855L129.999 204.444H130.047C130.167 204.26 130.311 204.092 130.479 203.94C130.647 203.788 130.847 203.668 131.079 203.58C131.319 203.492 131.599 203.448 131.919 203.448ZM131.715 204.336C131.315 204.336 130.991 204.42 130.743 204.588C130.503 204.748 130.327 204.992 130.215 205.32C130.103 205.648 130.047 206.064 130.047 206.568V206.772C130.047 207.3 130.095 207.748 130.191 208.116C130.295 208.484 130.471 208.764 130.719 208.956C130.967 209.148 131.307 209.244 131.739 209.244C132.099 209.244 132.395 209.136 132.627 208.92C132.859 208.704 133.031 208.412 133.143 208.044C133.255 207.668 133.311 207.24 133.311 206.76C133.311 206.024 133.179 205.436 132.915 204.996C132.659 204.556 132.259 204.336 131.715 204.336ZM139.924 208.224C139.924 208.64 139.824 208.988 139.624 209.268C139.432 209.548 139.156 209.76 138.796 209.904C138.436 210.048 138.004 210.12 137.5 210.12C137.076 210.12 136.708 210.084 136.396 210.012C136.092 209.94 135.824 209.84 135.592 209.712V208.752C135.84 208.88 136.136 209 136.48 209.112C136.824 209.216 137.172 209.268 137.524 209.268C138.012 209.268 138.364 209.184 138.58 209.016C138.804 208.84 138.916 208.608 138.916 208.32C138.916 208.16 138.872 208.016 138.784 207.888C138.704 207.76 138.556 207.632 138.34 207.504C138.132 207.376 137.828 207.232 137.428 207.072C137.044 206.912 136.712 206.752 136.432 206.592C136.16 206.432 135.948 206.24 135.796 206.016C135.652 205.792 135.58 205.504 135.58 205.152C135.58 204.608 135.788 204.188 136.204 203.892C136.628 203.596 137.18 203.448 137.86 203.448C138.228 203.448 138.572 203.488 138.892 203.568C139.212 203.64 139.516 203.744 139.804 203.88L139.456 204.72C139.288 204.64 139.112 204.572 138.928 204.516C138.744 204.452 138.556 204.404 138.364 204.372C138.18 204.332 137.992 204.312 137.8 204.312C137.408 204.312 137.108 204.384 136.9 204.528C136.692 204.664 136.588 204.852 136.588 205.092C136.588 205.268 136.636 205.42 136.732 205.548C136.828 205.676 136.984 205.8 137.2 205.92C137.424 206.032 137.728 206.164 138.112 206.316C138.496 206.468 138.824 206.624 139.096 206.784C139.368 206.944 139.572 207.14 139.708 207.372C139.852 207.596 139.924 207.88 139.924 208.224ZM146.67 206.772C146.67 207.308 146.602 207.784 146.466 208.2C146.338 208.608 146.15 208.956 145.902 209.244C145.654 209.532 145.354 209.752 145.002 209.904C144.65 210.048 144.258 210.12 143.826 210.12C143.426 210.12 143.054 210.048 142.71 209.904C142.374 209.752 142.078 209.532 141.822 209.244C141.574 208.956 141.382 208.608 141.246 208.2C141.11 207.784 141.042 207.308 141.042 206.772C141.042 206.06 141.154 205.46 141.378 204.972C141.61 204.476 141.938 204.1 142.362 203.844C142.786 203.58 143.286 203.448 143.862 203.448C144.414 203.448 144.898 203.58 145.314 203.844C145.738 204.1 146.07 204.476 146.31 204.972C146.55 205.46 146.67 206.06 146.67 206.772ZM142.122 206.772C142.122 207.276 142.182 207.716 142.302 208.092C142.422 208.46 142.61 208.744 142.866 208.944C143.122 209.144 143.45 209.244 143.85 209.244C144.25 209.244 144.578 209.144 144.834 208.944C145.09 208.744 145.278 208.46 145.398 208.092C145.526 207.716 145.59 207.276 145.59 206.772C145.59 206.26 145.526 205.824 145.398 205.464C145.278 205.104 145.09 204.828 144.834 204.636C144.578 204.436 144.246 204.336 143.838 204.336C143.238 204.336 142.802 204.552 142.53 204.984C142.258 205.416 142.122 206.012 142.122 206.772ZM151.173 203.448C151.893 203.448 152.437 203.636 152.805 204.012C153.181 204.38 153.369 204.98 153.369 205.812V210H152.325V205.884C152.325 205.364 152.217 204.976 152.001 204.72C151.785 204.464 151.453 204.336 151.005 204.336C150.349 204.336 149.893 204.536 149.637 204.936C149.389 205.336 149.265 205.912 149.265 206.664V210H148.221V203.568H149.061L149.217 204.444H149.277C149.405 204.22 149.569 204.036 149.769 203.892C149.969 203.74 150.189 203.628 150.429 203.556C150.669 203.484 150.917 203.448 151.173 203.448ZM31.684 226H30.616V218.38H28.12V217.432H34.156V218.38H31.684V226ZM36.285 219.556C36.285 219.708 36.277 219.864 36.261 220.024C36.253 220.184 36.241 220.328 36.225 220.456H36.297C36.425 220.232 36.585 220.048 36.777 219.904C36.977 219.76 37.193 219.652 37.425 219.58C37.665 219.5 37.913 219.46 38.169 219.46C38.657 219.46 39.065 219.544 39.393 219.712C39.721 219.872 39.969 220.124 40.137 220.468C40.305 220.812 40.389 221.26 40.389 221.812V226H39.345V221.884C39.345 221.364 39.237 220.976 39.021 220.72C38.805 220.464 38.473 220.336 38.025 220.336C37.585 220.336 37.237 220.428 36.981 220.612C36.725 220.788 36.545 221.052 36.441 221.404C36.337 221.748 36.285 222.172 36.285 222.676V226H35.241V216.88H36.285V219.556ZM44.5648 219.46C45.3008 219.46 45.8488 219.632 46.2088 219.976C46.5768 220.32 46.7608 220.868 46.7608 221.62V226H46.0048L45.8008 225.088H45.7528C45.5768 225.32 45.3968 225.516 45.2128 225.676C45.0368 225.828 44.8288 225.94 44.5888 226.012C44.3568 226.084 44.0688 226.12 43.7248 226.12C43.3648 226.12 43.0408 226.052 42.7528 225.916C42.4648 225.78 42.2368 225.572 42.0688 225.292C41.9008 225.004 41.8168 224.644 41.8168 224.212C41.8168 223.572 42.0528 223.08 42.5248 222.736C42.9968 222.384 43.7248 222.192 44.7088 222.16L45.7288 222.124V221.74C45.7288 221.204 45.6208 220.832 45.4048 220.624C45.1968 220.416 44.8968 220.312 44.5048 220.312C44.1928 220.312 43.8928 220.364 43.6048 220.468C43.3248 220.564 43.0568 220.676 42.8008 220.804L42.4768 220.012C42.7488 219.86 43.0648 219.732 43.4248 219.628C43.7848 219.516 44.1648 219.46 44.5648 219.46ZM44.8528 222.892C44.1168 222.924 43.6048 223.052 43.3168 223.276C43.0368 223.5 42.8968 223.816 42.8968 224.224C42.8968 224.584 42.9968 224.848 43.1968 225.016C43.3968 225.184 43.6568 225.268 43.9768 225.268C44.4728 225.268 44.8888 225.12 45.2248 224.824C45.5608 224.52 45.7288 224.056 45.7288 223.432V222.856L44.8528 222.892ZM49.6798 219.568V226H48.6358V219.568H49.6798ZM49.1638 217.156C49.3238 217.156 49.4638 217.212 49.5838 217.324C49.7038 217.428 49.7638 217.596 49.7638 217.828C49.7638 218.052 49.7038 218.22 49.5838 218.332C49.4638 218.444 49.3238 218.5 49.1638 218.5C48.9958 218.5 48.8518 218.444 48.7318 218.332C48.6118 218.22 48.5518 218.052 48.5518 217.828C48.5518 217.596 48.6118 217.428 48.7318 217.324C48.8518 217.212 48.9958 217.156 49.1638 217.156ZM52.6209 226H51.5769V216.88H52.6209V226ZM56.8343 219.46C57.5703 219.46 58.1183 219.632 58.4783 219.976C58.8463 220.32 59.0303 220.868 59.0303 221.62V226H58.2743L58.0703 225.088H58.0223C57.8463 225.32 57.6663 225.516 57.4823 225.676C57.3063 225.828 57.0983 225.94 56.8583 226.012C56.6263 226.084 56.3383 226.12 55.9943 226.12C55.6343 226.12 55.3103 226.052 55.0223 225.916C54.7343 225.78 54.5063 225.572 54.3383 225.292C54.1703 225.004 54.0863 224.644 54.0863 224.212C54.0863 223.572 54.3223 223.08 54.7943 222.736C55.2663 222.384 55.9943 222.192 56.9783 222.16L57.9983 222.124V221.74C57.9983 221.204 57.8903 220.832 57.6743 220.624C57.4663 220.416 57.1663 220.312 56.7743 220.312C56.4623 220.312 56.1623 220.364 55.8743 220.468C55.5943 220.564 55.3263 220.676 55.0703 220.804L54.7463 220.012C55.0183 219.86 55.3343 219.732 55.6943 219.628C56.0543 219.516 56.4343 219.46 56.8343 219.46ZM57.1223 222.892C56.3863 222.924 55.8743 223.052 55.5863 223.276C55.3063 223.5 55.1663 223.816 55.1663 224.224C55.1663 224.584 55.2663 224.848 55.4663 225.016C55.6663 225.184 55.9263 225.268 56.2463 225.268C56.7423 225.268 57.1583 225.12 57.4943 224.824C57.8303 224.52 57.9983 224.056 57.9983 223.432V222.856L57.1223 222.892ZM63.8453 219.448C64.5653 219.448 65.1093 219.636 65.4773 220.012C65.8533 220.38 66.0413 220.98 66.0413 221.812V226H64.9973V221.884C64.9973 221.364 64.8893 220.976 64.6733 220.72C64.4573 220.464 64.1253 220.336 63.6773 220.336C63.0213 220.336 62.5653 220.536 62.3093 220.936C62.0613 221.336 61.9373 221.912 61.9373 222.664V226H60.8933V219.568H61.7333L61.8893 220.444H61.9493C62.0773 220.22 62.2413 220.036 62.4413 219.892C62.6413 219.74 62.8613 219.628 63.1013 219.556C63.3413 219.484 63.5893 219.448 63.8453 219.448ZM70.0371 226.12C69.2931 226.12 68.6931 225.844 68.2371 225.292C67.7891 224.732 67.5651 223.9 67.5651 222.796C67.5651 221.692 67.7931 220.86 68.2491 220.3C68.7051 219.732 69.3051 219.448 70.0491 219.448C70.3611 219.448 70.6331 219.492 70.8651 219.58C71.0971 219.66 71.2971 219.772 71.4651 219.916C71.6411 220.06 71.7891 220.22 71.9091 220.396H71.9811C71.9731 220.292 71.9571 220.14 71.9331 219.94C71.9171 219.732 71.9091 219.568 71.9091 219.448V216.88H72.9531V226H72.1131L71.9571 225.136H71.9091C71.7891 225.32 71.6411 225.488 71.4651 225.64C71.2971 225.784 71.0931 225.9 70.8531 225.988C70.6211 226.076 70.3491 226.12 70.0371 226.12ZM70.2291 225.244C70.8531 225.244 71.2891 225.06 71.5371 224.692C71.7931 224.316 71.9211 223.752 71.9211 223V222.808C71.9211 222.008 71.8011 221.396 71.5611 220.972C71.3211 220.54 70.8731 220.324 70.2171 220.324C69.6891 220.324 69.2931 220.552 69.0291 221.008C68.7731 221.456 68.6451 222.06 68.6451 222.82C68.6451 223.588 68.7731 224.184 69.0291 224.608C69.2931 225.032 69.6931 225.244 70.2291 225.244Z" fill="#575353"/>
<ellipse cx="205.5" cy="235.5" rx="68.5" ry="62.5" fill="url(#paint0_radial_306_293)"/>
</g>
<defs>
<radialGradient id="paint0_radial_306_293" cx="0" cy="0" r="1" gradientUnits="userSpaceOnUse" gradientTransform="translate(205.5 235.5) rotate(90) scale(62.5 68.5)">
<stop stop-color="#BCA5FE"/>
<stop offset="1" stop-color="#D9D9D9" stop-opacity="0"/>
</radialGradient>
<clipPath id="clip0_306_293">
<rect width="247" height="401" fill="white"/>
</clipPath>
</defs>
</svg>
