<svg width="247" height="401" viewBox="0 0 247 401" fill="none" xmlns="http://www.w3.org/2000/svg">
<g clip-path="url(#clip0_306_300)">
<rect x="0.25" y="0.25" width="246.5" height="345.5" rx="19.75" fill="white" stroke="black" stroke-width="0.5"/>
<path opacity="0.72" d="M31.7871 31.3682L33.9473 24.0469H34.624L34.0771 26.2207L31.7734 34H31.124L31.7871 31.3682ZM29.2783 24.0469L31.0967 31.2998L31.6436 34H30.9668L28.417 24.0469H29.2783ZM37.5361 31.2998L39.3271 24.0469H40.1885L37.6455 34H36.9688L37.5361 31.2998ZM34.6992 24.0469L36.832 31.3682L37.4883 34H36.8389L34.583 26.2207L34.0293 24.0469H34.6992ZM40.9541 30.418V30.1924C40.9541 29.6546 41.0316 29.1579 41.1865 28.7021C41.3415 28.2464 41.5625 27.8522 41.8496 27.5195C42.1413 27.1868 42.4899 26.9294 42.8955 26.7471C43.3011 26.5602 43.7523 26.4668 44.249 26.4668C44.7503 26.4668 45.2038 26.5602 45.6094 26.7471C46.015 26.9294 46.3636 27.1868 46.6553 27.5195C46.9469 27.8522 47.1702 28.2464 47.3252 28.7021C47.4801 29.1579 47.5576 29.6546 47.5576 30.1924V30.418C47.5576 30.9557 47.4801 31.4525 47.3252 31.9082C47.1702 32.3594 46.9469 32.7513 46.6553 33.084C46.3682 33.4167 46.0218 33.6764 45.6162 33.8633C45.2106 34.0456 44.7594 34.1367 44.2627 34.1367C43.7614 34.1367 43.3079 34.0456 42.9023 33.8633C42.4967 33.6764 42.1481 33.4167 41.8564 33.084C41.5648 32.7513 41.3415 32.3594 41.1865 31.9082C41.0316 31.4525 40.9541 30.9557 40.9541 30.418ZM41.7676 30.1924V30.418C41.7676 30.8236 41.8223 31.2087 41.9316 31.5732C42.041 31.9333 42.2005 32.2546 42.4102 32.5371C42.6198 32.8151 42.8796 33.0339 43.1895 33.1934C43.4993 33.3529 43.8571 33.4326 44.2627 33.4326C44.6637 33.4326 45.0169 33.3529 45.3223 33.1934C45.6322 33.0339 45.8919 32.8151 46.1016 32.5371C46.3112 32.2546 46.4684 31.9333 46.5732 31.5732C46.6826 31.2087 46.7373 30.8236 46.7373 30.418V30.1924C46.7373 29.7913 46.6826 29.4108 46.5732 29.0508C46.4684 28.6908 46.3089 28.3695 46.0947 28.0869C45.8851 27.8044 45.6253 27.5811 45.3154 27.417C45.0055 27.2529 44.6501 27.1709 44.249 27.1709C43.848 27.1709 43.4925 27.2529 43.1826 27.417C42.8773 27.5811 42.6175 27.8044 42.4033 28.0869C42.1937 28.3695 42.0342 28.6908 41.9248 29.0508C41.82 29.4108 41.7676 29.7913 41.7676 30.1924ZM50.0664 27.8271V34H49.2529V26.6035H50.0459L50.0664 27.8271ZM52.6846 26.5488L52.6641 27.3008C52.5729 27.2871 52.484 27.2757 52.3975 27.2666C52.3109 27.2575 52.2174 27.2529 52.1172 27.2529C51.7617 27.2529 51.4495 27.319 51.1807 27.4512C50.9163 27.5788 50.693 27.7588 50.5107 27.9912C50.3285 28.2191 50.1895 28.488 50.0938 28.7979C49.998 29.1032 49.9434 29.4313 49.9297 29.7822L49.6289 29.8984C49.6289 29.4154 49.679 28.9665 49.7793 28.5518C49.8796 28.137 50.0322 27.7747 50.2373 27.4648C50.4469 27.1504 50.709 26.9066 51.0234 26.7334C51.3424 26.5557 51.7161 26.4668 52.1445 26.4668C52.2493 26.4668 52.3519 26.4759 52.4521 26.4941C52.557 26.5078 52.6344 26.526 52.6846 26.5488ZM54.7832 23.5V34H53.9697V23.5H54.7832ZM59.4248 26.6035L55.9658 30.0352L54.4961 31.457L54.373 30.6572L55.5557 29.3789L58.3926 26.6035H59.4248ZM58.7139 34L55.624 30.1582L56.0752 29.4541L59.6982 34H58.7139Z" fill="#2B2F42"/>
<path opacity="0.72" d="M145.089 321.891H145.694L148.321 328.15L150.953 321.891H151.554L148.551 329H148.092L145.089 321.891ZM144.903 321.891H145.436L145.499 325.895V329H144.903V321.891ZM151.217 321.891H151.749V329H151.148V325.895L151.217 321.891ZM156.632 328.053V325.328C156.632 325.077 156.58 324.861 156.476 324.679C156.371 324.496 156.218 324.356 156.017 324.259C155.815 324.161 155.566 324.112 155.27 324.112C154.996 324.112 154.752 324.161 154.537 324.259C154.326 324.353 154.158 324.482 154.034 324.645C153.914 324.804 153.854 324.981 153.854 325.177L153.268 325.172C153.268 324.973 153.316 324.781 153.414 324.596C153.512 324.41 153.65 324.244 153.829 324.098C154.008 323.951 154.221 323.836 154.469 323.751C154.719 323.663 154.994 323.619 155.294 323.619C155.672 323.619 156.004 323.683 156.29 323.81C156.58 323.937 156.806 324.127 156.969 324.381C157.132 324.635 157.213 324.954 157.213 325.338V327.892C157.213 328.074 157.226 328.263 157.252 328.458C157.281 328.653 157.322 328.814 157.374 328.941V329H156.754C156.715 328.883 156.684 328.736 156.661 328.561C156.642 328.382 156.632 328.212 156.632 328.053ZM156.769 325.924L156.778 326.373H155.631C155.331 326.373 155.063 326.401 154.825 326.456C154.591 326.508 154.392 326.586 154.229 326.69C154.067 326.791 153.941 326.913 153.854 327.057C153.769 327.2 153.727 327.363 153.727 327.545C153.727 327.734 153.774 327.906 153.868 328.062C153.966 328.219 154.103 328.344 154.278 328.438C154.457 328.53 154.669 328.575 154.913 328.575C155.239 328.575 155.525 328.515 155.772 328.395C156.023 328.274 156.23 328.116 156.393 327.921C156.555 327.726 156.664 327.512 156.72 327.281L156.974 327.618C156.931 327.781 156.853 327.949 156.739 328.121C156.629 328.29 156.484 328.45 156.305 328.6C156.126 328.746 155.914 328.867 155.67 328.961C155.429 329.052 155.156 329.098 154.85 329.098C154.505 329.098 154.203 329.033 153.946 328.902C153.692 328.772 153.494 328.595 153.351 328.37C153.211 328.142 153.141 327.885 153.141 327.599C153.141 327.338 153.196 327.105 153.307 326.9C153.417 326.692 153.577 326.516 153.785 326.373C153.997 326.227 154.251 326.116 154.547 326.041C154.846 325.963 155.182 325.924 155.553 325.924H156.769ZM160.27 328.473L161.915 323.717H162.545L160.309 329.85C160.263 329.97 160.204 330.104 160.133 330.25C160.064 330.396 159.973 330.536 159.859 330.67C159.749 330.807 159.609 330.917 159.439 331.002C159.273 331.09 159.07 331.134 158.829 331.134C158.767 331.134 158.688 331.126 158.59 331.109C158.495 331.096 158.427 331.083 158.385 331.07L158.38 330.577C158.416 330.587 158.468 330.595 158.536 330.602C158.604 330.608 158.652 330.611 158.678 330.611C158.889 330.611 159.067 330.576 159.21 330.504C159.356 330.432 159.479 330.325 159.576 330.182C159.674 330.042 159.76 329.866 159.835 329.654L160.27 328.473ZM158.731 323.717L160.416 328.253L160.572 328.863L160.147 329.103L158.097 323.717H158.731ZM165.274 325.611V326.114H162.936V325.611H165.274ZM171.241 322.315L168.78 329H168.155L170.841 321.891H171.275L171.241 322.315ZM173.478 329L171.012 322.315L170.978 321.891H171.412L174.103 329H173.478ZM173.038 326.49V327.008H169.264V326.49H173.038ZM178.346 327.779V323.717H178.932V329H178.37L178.346 327.779ZM178.453 326.803L178.756 326.793C178.756 327.125 178.717 327.431 178.639 327.711C178.561 327.991 178.438 328.235 178.272 328.443C178.106 328.652 177.892 328.813 177.628 328.927C177.364 329.041 177.047 329.098 176.676 329.098C176.419 329.098 176.183 329.062 175.968 328.99C175.756 328.915 175.574 328.798 175.421 328.639C175.268 328.479 175.149 328.272 175.064 328.019C174.983 327.765 174.942 327.457 174.942 327.096V323.717H175.523V327.105C175.523 327.389 175.554 327.625 175.616 327.813C175.681 328.002 175.769 328.154 175.88 328.268C175.994 328.382 176.124 328.463 176.271 328.512C176.417 328.561 176.575 328.585 176.744 328.585C177.174 328.585 177.512 328.502 177.76 328.336C178.01 328.17 178.188 327.952 178.292 327.682C178.399 327.408 178.453 327.115 178.453 326.803ZM183.937 323.717H184.479V328.907C184.479 329.366 184.391 329.76 184.215 330.089C184.042 330.418 183.797 330.67 183.478 330.846C183.162 331.021 182.789 331.109 182.359 331.109C182.141 331.109 181.917 331.075 181.686 331.007C181.458 330.942 181.241 330.841 181.036 330.704C180.834 330.571 180.662 330.405 180.519 330.206L180.846 329.85C181.061 330.11 181.29 330.3 181.534 330.421C181.778 330.545 182.042 330.606 182.325 330.606C182.66 330.606 182.944 330.54 183.175 330.406C183.409 330.273 183.587 330.081 183.707 329.83C183.831 329.579 183.893 329.278 183.893 328.927V324.879L183.937 323.717ZM180.226 326.412V326.31C180.226 325.899 180.271 325.53 180.362 325.201C180.457 324.869 180.592 324.586 180.768 324.352C180.943 324.114 181.157 323.933 181.407 323.81C181.661 323.683 181.948 323.619 182.267 323.619C182.573 323.619 182.844 323.67 183.082 323.771C183.32 323.871 183.525 324.016 183.697 324.205C183.87 324.394 184.008 324.618 184.112 324.879C184.22 325.139 184.298 325.429 184.347 325.748V327.052C184.308 327.351 184.236 327.626 184.132 327.877C184.028 328.124 183.889 328.341 183.717 328.526C183.544 328.709 183.336 328.85 183.092 328.951C182.851 329.049 182.573 329.098 182.257 329.098C181.941 329.098 181.658 329.033 181.407 328.902C181.157 328.772 180.943 328.588 180.768 328.351C180.592 328.11 180.457 327.825 180.362 327.496C180.271 327.167 180.226 326.806 180.226 326.412ZM180.812 326.31V326.412C180.812 326.721 180.842 327.008 180.904 327.271C180.966 327.535 181.061 327.765 181.188 327.96C181.314 328.155 181.476 328.308 181.671 328.419C181.866 328.53 182.096 328.585 182.359 328.585C182.695 328.585 182.976 328.521 183.204 328.395C183.432 328.264 183.613 328.093 183.746 327.882C183.88 327.667 183.977 327.433 184.039 327.179V325.66C184.003 325.488 183.948 325.312 183.873 325.133C183.801 324.954 183.701 324.789 183.57 324.64C183.443 324.487 183.281 324.365 183.082 324.273C182.887 324.179 182.649 324.132 182.369 324.132C182.102 324.132 181.869 324.187 181.671 324.298C181.476 324.409 181.314 324.563 181.188 324.762C181.061 324.957 180.966 325.187 180.904 325.45C180.842 325.714 180.812 326 180.812 326.31ZM189.391 327.779V323.717H189.977V329H189.415L189.391 327.779ZM189.498 326.803L189.801 326.793C189.801 327.125 189.762 327.431 189.684 327.711C189.605 327.991 189.483 328.235 189.317 328.443C189.151 328.652 188.937 328.813 188.673 328.927C188.409 329.041 188.092 329.098 187.721 329.098C187.464 329.098 187.228 329.062 187.013 328.99C186.801 328.915 186.619 328.798 186.466 328.639C186.313 328.479 186.194 328.272 186.109 328.019C186.028 327.765 185.987 327.457 185.987 327.096V323.717H186.568V327.105C186.568 327.389 186.599 327.625 186.661 327.813C186.726 328.002 186.814 328.154 186.925 328.268C187.039 328.382 187.169 328.463 187.315 328.512C187.462 328.561 187.62 328.585 187.789 328.585C188.219 328.585 188.557 328.502 188.805 328.336C189.055 328.17 189.233 327.952 189.337 327.682C189.444 327.408 189.498 327.115 189.498 326.803ZM194.669 327.652C194.669 327.509 194.633 327.368 194.562 327.228C194.49 327.088 194.352 326.959 194.146 326.842C193.945 326.725 193.647 326.625 193.253 326.544C192.96 326.479 192.698 326.406 192.467 326.324C192.239 326.243 192.047 326.145 191.891 326.031C191.734 325.917 191.616 325.781 191.534 325.621C191.453 325.462 191.412 325.273 191.412 325.055C191.412 324.859 191.454 324.675 191.539 324.503C191.627 324.327 191.751 324.174 191.91 324.044C192.073 323.91 192.268 323.806 192.496 323.731C192.727 323.657 192.986 323.619 193.272 323.619C193.679 323.619 194.028 323.689 194.317 323.829C194.61 323.966 194.833 324.153 194.986 324.391C195.143 324.628 195.221 324.897 195.221 325.196H194.64C194.64 325.014 194.586 324.841 194.479 324.679C194.374 324.516 194.22 324.382 194.015 324.278C193.813 324.174 193.565 324.122 193.272 324.122C192.97 324.122 192.724 324.168 192.535 324.259C192.346 324.35 192.208 324.465 192.12 324.605C192.035 324.745 191.993 324.89 191.993 325.04C191.993 325.157 192.011 325.265 192.047 325.362C192.086 325.457 192.154 325.545 192.252 325.626C192.353 325.707 192.496 325.784 192.682 325.855C192.867 325.927 193.108 325.997 193.404 326.065C193.831 326.16 194.179 326.275 194.449 326.412C194.723 326.546 194.924 326.712 195.055 326.91C195.185 327.105 195.25 327.343 195.25 327.623C195.25 327.841 195.204 328.041 195.113 328.224C195.022 328.403 194.89 328.557 194.718 328.688C194.549 328.818 194.343 328.919 194.103 328.99C193.865 329.062 193.598 329.098 193.302 329.098C192.856 329.098 192.478 329.024 192.169 328.878C191.863 328.728 191.63 328.533 191.471 328.292C191.314 328.048 191.236 327.789 191.236 327.516H191.817C191.837 327.789 191.923 328.006 192.076 328.165C192.229 328.321 192.416 328.432 192.638 328.497C192.862 328.562 193.084 328.595 193.302 328.595C193.601 328.595 193.852 328.551 194.054 328.463C194.256 328.375 194.409 328.259 194.513 328.116C194.617 327.973 194.669 327.818 194.669 327.652ZM198.57 323.717V324.195H195.924V323.717H198.57ZM196.896 322.359H197.477V327.716C197.477 327.96 197.509 328.144 197.574 328.268C197.639 328.391 197.724 328.474 197.828 328.517C197.932 328.559 198.045 328.58 198.165 328.58C198.253 328.58 198.338 328.575 198.419 328.565C198.5 328.552 198.574 328.539 198.639 328.526L198.663 329.02C198.591 329.042 198.499 329.06 198.385 329.073C198.271 329.09 198.157 329.098 198.043 329.098C197.818 329.098 197.62 329.057 197.447 328.976C197.275 328.891 197.14 328.748 197.042 328.546C196.944 328.341 196.896 328.062 196.896 327.711V322.359ZM206.593 328.497V329H202.145V328.546L204.474 325.904C204.763 325.576 204.994 325.287 205.167 325.04C205.34 324.789 205.463 324.562 205.538 324.356C205.616 324.148 205.655 323.946 205.655 323.751C205.655 323.465 205.598 323.212 205.484 322.994C205.374 322.776 205.208 322.605 204.986 322.481C204.765 322.358 204.492 322.296 204.166 322.296C203.84 322.296 203.557 322.366 203.316 322.506C203.076 322.646 202.89 322.841 202.76 323.092C202.633 323.339 202.569 323.621 202.569 323.937H201.988C201.988 323.546 202.075 323.188 202.247 322.862C202.423 322.537 202.674 322.278 202.999 322.086C203.325 321.891 203.714 321.793 204.166 321.793C204.596 321.793 204.965 321.869 205.274 322.022C205.584 322.172 205.821 322.389 205.987 322.672C206.157 322.955 206.241 323.297 206.241 323.697C206.241 323.912 206.202 324.129 206.124 324.347C206.049 324.565 205.945 324.783 205.812 325.001C205.681 325.216 205.532 325.429 205.362 325.641C205.196 325.852 205.022 326.061 204.84 326.266L202.857 328.497H206.593ZM211.974 324.835V326.031C211.974 326.552 211.925 327.006 211.827 327.394C211.729 327.778 211.586 328.097 211.397 328.351C211.212 328.601 210.984 328.788 210.714 328.912C210.447 329.036 210.141 329.098 209.796 329.098C209.522 329.098 209.272 329.059 209.044 328.98C208.816 328.902 208.613 328.784 208.434 328.624C208.258 328.461 208.108 328.258 207.984 328.014C207.861 327.77 207.766 327.483 207.701 327.154C207.636 326.822 207.604 326.448 207.604 326.031V324.835C207.604 324.311 207.652 323.858 207.75 323.478C207.851 323.097 207.994 322.781 208.18 322.53C208.368 322.28 208.598 322.094 208.868 321.974C209.138 321.85 209.444 321.788 209.786 321.788C210.06 321.788 210.31 321.829 210.538 321.91C210.769 321.988 210.973 322.105 211.148 322.262C211.327 322.418 211.477 322.618 211.598 322.862C211.721 323.103 211.814 323.388 211.876 323.717C211.941 324.046 211.974 324.418 211.974 324.835ZM211.393 326.1V324.762C211.393 324.439 211.37 324.146 211.324 323.883C211.282 323.619 211.218 323.388 211.134 323.189C211.049 322.991 210.942 322.825 210.812 322.691C210.685 322.558 210.535 322.459 210.362 322.394C210.193 322.325 210.001 322.291 209.786 322.291C209.522 322.291 209.29 322.345 209.088 322.452C208.889 322.556 208.723 322.713 208.59 322.921C208.456 323.126 208.355 323.383 208.287 323.692C208.222 324.002 208.189 324.358 208.189 324.762V326.1C208.189 326.419 208.211 326.71 208.253 326.974C208.295 327.234 208.36 327.465 208.448 327.667C208.536 327.869 208.644 328.04 208.771 328.18C208.901 328.316 209.05 328.421 209.22 328.492C209.392 328.561 209.584 328.595 209.796 328.595C210.066 328.595 210.3 328.541 210.499 328.434C210.698 328.323 210.864 328.162 210.997 327.95C211.131 327.735 211.23 327.473 211.295 327.164C211.36 326.852 211.393 326.497 211.393 326.1ZM217.687 328.497V329H213.238V328.546L215.567 325.904C215.857 325.576 216.088 325.287 216.261 325.04C216.433 324.789 216.557 324.562 216.632 324.356C216.71 324.148 216.749 323.946 216.749 323.751C216.749 323.465 216.692 323.212 216.578 322.994C216.467 322.776 216.301 322.605 216.08 322.481C215.859 322.358 215.585 322.296 215.26 322.296C214.934 322.296 214.651 322.366 214.41 322.506C214.169 322.646 213.984 322.841 213.854 323.092C213.727 323.339 213.663 323.621 213.663 323.937H213.082C213.082 323.546 213.168 323.188 213.341 322.862C213.517 322.537 213.767 322.278 214.093 322.086C214.418 321.891 214.807 321.793 215.26 321.793C215.689 321.793 216.059 321.869 216.368 322.022C216.677 322.172 216.915 322.389 217.081 322.672C217.25 322.955 217.335 323.297 217.335 323.697C217.335 323.912 217.296 324.129 217.218 324.347C217.143 324.565 217.039 324.783 216.905 325.001C216.775 325.216 216.625 325.429 216.456 325.641C216.29 325.852 216.116 326.061 215.934 326.266L213.951 328.497H217.687ZM221.5 321.861V329H220.919V322.599L218.985 323.316V322.765L221.402 321.861H221.5Z" fill="#2B2F42"/>
<path d="M36.552 65.168H45.608V77.008C44.4133 77.4133 43.1653 77.7333 41.864 77.968C40.584 78.2027 39.1227 78.32 37.48 78.32C35.2187 78.32 33.288 77.872 31.688 76.976C30.1093 76.08 28.904 74.7573 28.072 73.008C27.2613 71.2587 26.856 69.104 26.856 66.544C26.856 64.1547 27.3147 62.0853 28.232 60.336C29.1707 58.5867 30.5253 57.232 32.296 56.272C34.0667 55.312 36.232 54.832 38.792 54.832C40.008 54.832 41.2027 54.96 42.376 55.216C43.5493 55.472 44.616 55.8133 45.576 56.24L43.976 60.112C43.272 59.7493 42.472 59.4507 41.576 59.216C40.68 58.9813 39.7413 58.864 38.76 58.864C37.352 58.864 36.1253 59.184 35.08 59.824C34.056 60.464 33.256 61.3707 32.68 62.544C32.1253 63.696 31.848 65.0613 31.848 66.64C31.848 68.1333 32.0507 69.456 32.456 70.608C32.8613 71.76 33.5013 72.6667 34.376 73.328C35.2507 73.968 36.392 74.288 37.8 74.288C38.2693 74.288 38.6747 74.2773 39.016 74.256C39.3787 74.2133 39.7093 74.1707 40.008 74.128C40.3067 74.064 40.5947 74.0107 40.872 73.968V69.2H36.552V65.168ZM60.4123 60.208C60.6469 60.208 60.9243 60.2187 61.2443 60.24C61.5643 60.2613 61.8203 60.2933 62.0123 60.336L61.6603 64.816C61.5109 64.7733 61.2869 64.7413 60.9883 64.72C60.7109 64.6773 60.4656 64.656 60.2523 64.656C59.6336 64.656 59.0363 64.7413 58.4603 64.912C57.8843 65.0613 57.3616 65.3067 56.8923 65.648C56.4443 65.9893 56.0816 66.448 55.8043 67.024C55.5483 67.5787 55.4203 68.272 55.4203 69.104V78H50.6523V60.528H54.2683L54.9723 63.472H55.1963C55.5376 62.8747 55.9643 62.3307 56.4763 61.84C56.9883 61.3493 57.5749 60.9547 58.2363 60.656C58.9189 60.3573 59.6443 60.208 60.4123 60.208ZM71.7265 60.176C74.0732 60.176 75.8652 60.688 77.1025 61.712C78.3612 62.7147 78.9905 64.2613 78.9905 66.352V78H75.6625L74.7345 75.632H74.6065C74.1158 76.2507 73.6038 76.7627 73.0705 77.168C72.5585 77.5733 71.9612 77.8613 71.2785 78.032C70.6172 78.224 69.7958 78.32 68.8145 78.32C67.7905 78.32 66.8625 78.128 66.0305 77.744C65.2198 77.3387 64.5798 76.7307 64.1105 75.92C63.6412 75.088 63.4065 74.0427 63.4065 72.784C63.4065 70.928 64.0572 69.5627 65.3585 68.688C66.6598 67.792 68.6118 67.3013 71.2145 67.216L74.2545 67.12V66.352C74.2545 65.4347 74.0092 64.7627 73.5185 64.336C73.0492 63.9093 72.3878 63.696 71.5345 63.696C70.6812 63.696 69.8492 63.824 69.0385 64.08C68.2278 64.3147 67.4172 64.6133 66.6065 64.976L65.0385 61.744C65.9772 61.2533 67.0118 60.8693 68.1425 60.592C69.2945 60.3147 70.4892 60.176 71.7265 60.176ZM72.3985 69.968C70.8625 70.0107 69.7958 70.288 69.1985 70.8C68.6012 71.312 68.3025 71.984 68.3025 72.816C68.3025 73.5413 68.5158 74.064 68.9425 74.384C69.3692 74.6827 69.9238 74.832 70.6065 74.832C71.6305 74.832 72.4945 74.5333 73.1985 73.936C73.9025 73.3173 74.2545 72.4533 74.2545 71.344V69.904L72.3985 69.968ZM93.599 60.208C95.5617 60.208 97.151 60.976 98.367 62.512C99.583 64.0267 100.191 66.2667 100.191 69.232C100.191 71.216 99.903 72.8907 99.327 74.256C98.751 75.6 97.9617 76.6133 96.959 77.296C95.9563 77.9787 94.7937 78.32 93.471 78.32C92.639 78.32 91.9137 78.2133 91.295 78C90.6977 77.7867 90.1857 77.5093 89.759 77.168C89.3323 76.8267 88.959 76.464 88.639 76.08H88.383C88.4683 76.4853 88.5323 76.912 88.575 77.36C88.6177 77.7867 88.639 78.2133 88.639 78.64V85.68H83.871V60.528H87.743L88.415 62.8H88.639C88.959 62.3307 89.343 61.904 89.791 61.52C90.239 61.1147 90.7723 60.7947 91.391 60.56C92.031 60.3253 92.767 60.208 93.599 60.208ZM92.063 64.016C91.231 64.016 90.5697 64.1867 90.079 64.528C89.5883 64.8693 89.2257 65.392 88.991 66.096C88.7777 66.7787 88.6603 67.6427 88.639 68.688V69.2C88.639 70.3307 88.7457 71.2907 88.959 72.08C89.1723 72.848 89.535 73.4347 90.047 73.84C90.559 74.2453 91.2523 74.448 92.127 74.448C92.8523 74.448 93.4497 74.2453 93.919 73.84C94.3883 73.4347 94.7403 72.8373 94.975 72.048C95.2097 71.2587 95.327 70.2987 95.327 69.168C95.327 67.4613 95.0603 66.1813 94.527 65.328C94.015 64.4533 93.1937 64.016 92.063 64.016ZM108.889 58.64C108.889 59.4933 108.857 60.3147 108.793 61.104C108.75 61.8933 108.708 62.448 108.665 62.768H108.921C109.305 62.1707 109.753 61.6907 110.265 61.328C110.777 60.944 111.342 60.6667 111.961 60.496C112.601 60.304 113.273 60.208 113.977 60.208C115.236 60.208 116.334 60.432 117.273 60.88C118.212 61.328 118.937 62.0213 119.449 62.96C119.982 63.8987 120.249 65.1147 120.249 66.608V78H115.481V67.792C115.481 66.5333 115.246 65.5947 114.777 64.976C114.329 64.336 113.625 64.016 112.665 64.016C111.705 64.016 110.948 64.24 110.393 64.688C109.86 65.136 109.476 65.7867 109.241 66.64C109.006 67.4933 108.889 68.5387 108.889 69.776V78H104.121V53.68H108.889V58.64ZM129.92 60.528V78H125.152V60.528H129.92ZM127.552 53.68C128.256 53.68 128.864 53.8507 129.376 54.192C129.888 54.512 130.144 55.12 130.144 56.016C130.144 56.8907 129.888 57.4987 129.376 57.84C128.864 58.1813 128.256 58.352 127.552 58.352C126.827 58.352 126.208 58.1813 125.696 57.84C125.206 57.4987 124.96 56.8907 124.96 56.016C124.96 55.12 125.206 54.512 125.696 54.192C126.208 53.8507 126.827 53.68 127.552 53.68ZM142.006 78.32C140.278 78.32 138.806 78.0107 137.59 77.392C136.374 76.752 135.446 75.7707 134.806 74.448C134.166 73.1253 133.846 71.4293 133.846 69.36C133.846 67.2267 134.209 65.488 134.934 64.144C135.66 62.8 136.662 61.808 137.942 61.168C139.244 60.528 140.737 60.208 142.422 60.208C143.617 60.208 144.652 60.3253 145.526 60.56C146.422 60.7947 147.201 61.072 147.862 61.392L146.454 65.072C145.708 64.7733 145.004 64.528 144.342 64.336C143.702 64.144 143.062 64.048 142.422 64.048C141.59 64.048 140.897 64.2507 140.342 64.656C139.788 65.04 139.372 65.6267 139.094 66.416C138.838 67.184 138.71 68.1547 138.71 69.328C138.71 70.48 138.849 71.44 139.126 72.208C139.425 72.9547 139.852 73.52 140.406 73.904C140.961 74.2667 141.633 74.448 142.422 74.448C143.425 74.448 144.31 74.32 145.078 74.064C145.846 73.7867 146.593 73.4133 147.318 72.944V77.008C146.593 77.4773 145.825 77.808 145.014 78C144.225 78.2133 143.222 78.32 142.006 78.32ZM46.824 110.352C46.824 112.912 46.3333 115.056 45.352 116.784C44.3707 118.512 42.9413 119.813 41.064 120.688C39.208 121.563 36.968 122 34.344 122H27.88V99.152H35.048C37.4373 99.152 39.5067 99.5787 41.256 100.432C43.0267 101.285 44.392 102.544 45.352 104.208C46.3333 105.851 46.824 107.899 46.824 110.352ZM41.8 110.48C41.8 108.795 41.5547 107.408 41.064 106.32C40.5733 105.232 39.8373 104.432 38.856 103.92C37.896 103.387 36.712 103.12 35.304 103.12H32.712V118H34.792C37.16 118 38.92 117.371 40.072 116.112C41.224 114.853 41.8 112.976 41.8 110.48ZM58.3835 104.208C60.0048 104.208 61.3915 104.517 62.5435 105.136C63.7168 105.755 64.6235 106.651 65.2635 107.824C65.9035 108.997 66.2235 110.437 66.2235 112.144V114.448H54.9595C55.0022 115.792 55.3968 116.848 56.1435 117.616C56.9115 118.384 57.9675 118.768 59.3115 118.768C60.4422 118.768 61.4662 118.661 62.3835 118.448C63.3008 118.213 64.2502 117.861 65.2315 117.392V121.072C64.3782 121.499 63.4715 121.808 62.5115 122C61.5728 122.213 60.4315 122.32 59.0875 122.32C57.3382 122.32 55.7915 122 54.4475 121.36C53.1035 120.699 52.0475 119.707 51.2795 118.384C50.5115 117.061 50.1275 115.397 50.1275 113.392C50.1275 111.344 50.4688 109.648 51.1515 108.304C51.8555 106.939 52.8262 105.915 54.0635 105.232C55.3008 104.549 56.7408 104.208 58.3835 104.208ZM58.4155 107.6C57.4982 107.6 56.7302 107.899 56.1115 108.496C55.5142 109.093 55.1622 110.021 55.0555 111.28H61.7435C61.7435 110.576 61.6155 109.947 61.3595 109.392C61.1248 108.837 60.7622 108.4 60.2715 108.08C59.7808 107.76 59.1622 107.6 58.4155 107.6ZM82.2818 116.816C82.2818 117.989 82.0044 118.992 81.4498 119.824C80.8951 120.635 80.0631 121.253 78.9538 121.68C77.8444 122.107 76.4684 122.32 74.8258 122.32C73.6098 122.32 72.5644 122.235 71.6898 122.064C70.8151 121.915 69.9404 121.659 69.0658 121.296V117.36C70.0044 117.787 71.0178 118.139 72.1058 118.416C73.1938 118.693 74.1538 118.832 74.9858 118.832C75.9244 118.832 76.5858 118.693 76.9698 118.416C77.3751 118.139 77.5778 117.776 77.5778 117.328C77.5778 117.029 77.4924 116.763 77.3218 116.528C77.1724 116.293 76.8311 116.027 76.2978 115.728C75.7644 115.429 74.9324 115.045 73.8018 114.576C72.7138 114.107 71.8178 113.648 71.1138 113.2C70.4098 112.731 69.8871 112.176 69.5458 111.536C69.2044 110.875 69.0338 110.053 69.0338 109.072C69.0338 107.451 69.6631 106.235 70.9218 105.424C72.1804 104.613 73.8551 104.208 75.9458 104.208C77.0338 104.208 78.0684 104.315 79.0498 104.528C80.0311 104.741 81.0444 105.093 82.0898 105.584L80.6498 109.008C80.0738 108.752 79.5191 108.528 78.9858 108.336C78.4524 108.144 77.9298 107.995 77.4178 107.888C76.9271 107.781 76.4151 107.728 75.8818 107.728C75.1778 107.728 74.6444 107.824 74.2818 108.016C73.9404 108.208 73.7698 108.496 73.7698 108.88C73.7698 109.157 73.8551 109.413 74.0258 109.648C74.2178 109.861 74.5698 110.096 75.0818 110.352C75.6151 110.608 76.3938 110.949 77.4178 111.376C78.4204 111.781 79.2844 112.208 80.0098 112.656C80.7351 113.083 81.2898 113.627 81.6738 114.288C82.0791 114.928 82.2818 115.771 82.2818 116.816ZM90.764 104.528V122H85.996V104.528H90.764ZM88.396 97.68C89.1 97.68 89.708 97.8507 90.22 98.192C90.732 98.512 90.988 99.12 90.988 100.016C90.988 100.891 90.732 101.499 90.22 101.84C89.708 102.181 89.1 102.352 88.396 102.352C87.6707 102.352 87.052 102.181 86.54 101.84C86.0493 101.499 85.804 100.891 85.804 100.016C85.804 99.12 86.0493 98.512 86.54 98.192C87.052 97.8507 87.6707 97.68 88.396 97.68ZM101.41 104.208C102.477 104.208 103.437 104.421 104.29 104.848C105.143 105.275 105.869 105.915 106.466 106.768H106.594L106.978 104.528H111.01V122.032C111.01 123.696 110.679 125.093 110.018 126.224C109.378 127.355 108.407 128.208 107.106 128.784C105.805 129.381 104.194 129.68 102.274 129.68C101.037 129.68 99.8847 129.605 98.818 129.456C97.7727 129.307 96.7487 129.04 95.746 128.656V124.848C96.4713 125.147 97.1967 125.392 97.922 125.584C98.6687 125.797 99.426 125.947 100.194 126.032C100.983 126.139 101.773 126.192 102.562 126.192C103.799 126.192 104.717 125.861 105.314 125.2C105.933 124.539 106.242 123.547 106.242 122.224V121.872C106.242 121.509 106.253 121.136 106.274 120.752C106.317 120.368 106.349 120.027 106.37 119.728H106.242C105.645 120.645 104.93 121.307 104.098 121.712C103.266 122.117 102.327 122.32 101.282 122.32C99.2127 122.32 97.5913 121.531 96.418 119.952C95.266 118.352 94.69 116.133 94.69 113.296C94.69 111.376 94.9567 109.744 95.49 108.4C96.0233 107.035 96.7913 106 97.794 105.296C98.818 104.571 100.023 104.208 101.41 104.208ZM102.914 108.08C102.167 108.08 101.538 108.283 101.026 108.688C100.535 109.072 100.162 109.659 99.906 110.448C99.6713 111.216 99.554 112.187 99.554 113.36C99.554 115.109 99.8313 116.421 100.386 117.296C100.941 118.149 101.805 118.576 102.978 118.576C103.597 118.576 104.13 118.501 104.578 118.352C105.026 118.181 105.389 117.915 105.666 117.552C105.965 117.168 106.189 116.677 106.338 116.08C106.487 115.483 106.562 114.757 106.562 113.904V113.328C106.562 112.069 106.434 111.056 106.178 110.288C105.922 109.52 105.527 108.965 104.994 108.624C104.461 108.261 103.767 108.08 102.914 108.08ZM125.916 104.208C127.793 104.208 129.297 104.72 130.428 105.744C131.559 106.747 132.124 108.368 132.124 110.608V122H127.356V111.792C127.356 110.533 127.132 109.595 126.684 108.976C126.236 108.336 125.521 108.016 124.54 108.016C123.089 108.016 122.097 108.517 121.564 109.52C121.031 110.501 120.764 111.92 120.764 113.776V122H115.996V104.528H119.644L120.284 106.768H120.54C120.924 106.171 121.393 105.691 121.948 105.328C122.503 104.944 123.121 104.667 123.804 104.496C124.487 104.304 125.191 104.208 125.916 104.208ZM144.227 104.208C145.849 104.208 147.235 104.517 148.387 105.136C149.561 105.755 150.467 106.651 151.107 107.824C151.747 108.997 152.067 110.437 152.067 112.144V114.448H140.803C140.846 115.792 141.241 116.848 141.987 117.616C142.755 118.384 143.811 118.768 145.155 118.768C146.286 118.768 147.31 118.661 148.227 118.448C149.145 118.213 150.094 117.861 151.075 117.392V121.072C150.222 121.499 149.315 121.808 148.355 122C147.417 122.213 146.275 122.32 144.931 122.32C143.182 122.32 141.635 122 140.291 121.36C138.947 120.699 137.891 119.707 137.123 118.384C136.355 117.061 135.971 115.397 135.971 113.392C135.971 111.344 136.313 109.648 136.995 108.304C137.699 106.939 138.67 105.915 139.907 105.232C141.145 104.549 142.585 104.208 144.227 104.208ZM144.259 107.6C143.342 107.6 142.574 107.899 141.955 108.496C141.358 109.093 141.006 110.021 140.899 111.28H147.587C147.587 110.576 147.459 109.947 147.203 109.392C146.969 108.837 146.606 108.4 146.115 108.08C145.625 107.76 145.006 107.6 144.259 107.6ZM165.694 104.208C165.928 104.208 166.206 104.219 166.526 104.24C166.846 104.261 167.102 104.293 167.294 104.336L166.942 108.816C166.792 108.773 166.568 108.741 166.27 108.72C165.992 108.677 165.747 108.656 165.534 108.656C164.915 108.656 164.318 108.741 163.742 108.912C163.166 109.061 162.643 109.307 162.174 109.648C161.726 109.989 161.363 110.448 161.086 111.024C160.83 111.579 160.702 112.272 160.702 113.104V122H155.934V104.528H159.55L160.254 107.472H160.478C160.819 106.875 161.246 106.331 161.758 105.84C162.27 105.349 162.856 104.955 163.518 104.656C164.2 104.357 164.926 104.208 165.694 104.208Z" fill="#575353"/>
<path d="M29.576 156H26.48V155.376L27.488 155.148V148.296L26.48 148.056V147.432H29.576V148.056L28.568 148.296V155.148L29.576 155.376V156ZM34.1824 149.448C34.9504 149.448 35.5304 149.636 35.9224 150.012C36.3144 150.38 36.5104 150.98 36.5104 151.812V156H35.4664V151.884C35.4664 151.364 35.3504 150.976 35.1184 150.72C34.8864 150.464 34.5224 150.336 34.0264 150.336C33.3144 150.336 32.8224 150.536 32.5504 150.936C32.2784 151.336 32.1424 151.912 32.1424 152.664V156H31.0864V149.568H31.9384L32.0944 150.444H32.1544C32.2984 150.22 32.4744 150.036 32.6824 149.892C32.8984 149.74 33.1344 149.628 33.3904 149.556C33.6464 149.484 33.9104 149.448 34.1824 149.448ZM40.6524 155.256C40.8124 155.256 40.9764 155.244 41.1444 155.22C41.3124 155.188 41.4484 155.156 41.5524 155.124V155.928C41.4404 155.984 41.2804 156.028 41.0724 156.06C40.8644 156.1 40.6644 156.12 40.4724 156.12C40.1364 156.12 39.8244 156.064 39.5364 155.952C39.2564 155.832 39.0284 155.628 38.8524 155.34C38.6764 155.052 38.5884 154.648 38.5884 154.128V150.384H37.6764V149.88L38.6004 149.46L39.0204 148.092H39.6444V149.568H41.5044V150.384H39.6444V154.104C39.6444 154.496 39.7364 154.788 39.9204 154.98C40.1124 155.164 40.3564 155.256 40.6524 155.256ZM45.3243 149.448C45.8763 149.448 46.3483 149.568 46.7403 149.808C47.1403 150.048 47.4443 150.388 47.6523 150.828C47.8683 151.26 47.9763 151.768 47.9763 152.352V152.988H43.5723C43.5883 153.716 43.7723 154.272 44.1243 154.656C44.4843 155.032 44.9843 155.22 45.6243 155.22C46.0323 155.22 46.3923 155.184 46.7043 155.112C47.0243 155.032 47.3523 154.92 47.6883 154.776V155.7C47.3603 155.844 47.0363 155.948 46.7163 156.012C46.3963 156.084 46.0163 156.12 45.5763 156.12C44.9683 156.12 44.4283 155.996 43.9563 155.748C43.4923 155.5 43.1283 155.132 42.8643 154.644C42.6083 154.148 42.4803 153.544 42.4803 152.832C42.4803 152.128 42.5963 151.524 42.8283 151.02C43.0683 150.516 43.4003 150.128 43.8243 149.856C44.2563 149.584 44.7563 149.448 45.3243 149.448ZM45.3123 150.312C44.8083 150.312 44.4083 150.476 44.1123 150.804C43.8243 151.124 43.6523 151.572 43.5963 152.148H46.8723C46.8723 151.78 46.8163 151.46 46.7043 151.188C46.5923 150.916 46.4203 150.704 46.1883 150.552C45.9643 150.392 45.6723 150.312 45.3123 150.312ZM52.6138 149.448C52.7338 149.448 52.8618 149.456 52.9978 149.472C53.1418 149.48 53.2658 149.496 53.3698 149.52L53.2378 150.492C53.1338 150.468 53.0178 150.448 52.8898 150.432C52.7698 150.416 52.6538 150.408 52.5418 150.408C52.2938 150.408 52.0578 150.46 51.8338 150.564C51.6098 150.668 51.4098 150.816 51.2338 151.008C51.0578 151.192 50.9178 151.416 50.8138 151.68C50.7178 151.944 50.6698 152.24 50.6698 152.568V156H49.6138V149.568H50.4778L50.5978 150.744H50.6458C50.7818 150.504 50.9458 150.288 51.1378 150.096C51.3298 149.896 51.5498 149.74 51.7978 149.628C52.0458 149.508 52.3178 149.448 52.6138 149.448ZM57.6668 149.448C58.4348 149.448 59.0148 149.636 59.4068 150.012C59.7988 150.38 59.9948 150.98 59.9948 151.812V156H58.9508V151.884C58.9508 151.364 58.8348 150.976 58.6028 150.72C58.3708 150.464 58.0068 150.336 57.5108 150.336C56.7988 150.336 56.3068 150.536 56.0348 150.936C55.7628 151.336 55.6268 151.912 55.6268 152.664V156H54.5708V149.568H55.4228L55.5788 150.444H55.6388C55.7828 150.22 55.9588 150.036 56.1668 149.892C56.3828 149.74 56.6188 149.628 56.8748 149.556C57.1308 149.484 57.3948 149.448 57.6668 149.448ZM66.1768 154.224C66.1768 154.64 66.0728 154.988 65.8648 155.268C65.6568 155.548 65.3608 155.76 64.9768 155.904C64.5928 156.048 64.1368 156.12 63.6088 156.12C63.1608 156.12 62.7728 156.084 62.4448 156.012C62.1248 155.94 61.8408 155.84 61.5928 155.712V154.752C61.8488 154.88 62.1568 155 62.5168 155.112C62.8848 155.216 63.2568 155.268 63.6328 155.268C64.1688 155.268 64.5568 155.184 64.7968 155.016C65.0368 154.84 65.1568 154.608 65.1568 154.32C65.1568 154.16 65.1128 154.016 65.0248 153.888C64.9368 153.76 64.7768 153.632 64.5448 153.504C64.3208 153.376 63.9968 153.232 63.5728 153.072C63.1568 152.912 62.8008 152.752 62.5048 152.592C62.2088 152.432 61.9808 152.24 61.8208 152.016C61.6608 151.792 61.5808 151.504 61.5808 151.152C61.5808 150.608 61.8008 150.188 62.2408 149.892C62.6888 149.596 63.2728 149.448 63.9928 149.448C64.3848 149.448 64.7488 149.488 65.0848 149.568C65.4288 149.64 65.7488 149.744 66.0448 149.88L65.6848 150.72C65.5088 150.64 65.3208 150.572 65.1208 150.516C64.9288 150.452 64.7328 150.404 64.5328 150.372C64.3328 150.332 64.1288 150.312 63.9208 150.312C63.4888 150.312 63.1568 150.384 62.9248 150.528C62.7008 150.664 62.5888 150.852 62.5888 151.092C62.5888 151.268 62.6408 151.42 62.7448 151.548C62.8488 151.668 63.0208 151.788 63.2608 151.908C63.5088 152.02 63.8368 152.156 64.2448 152.316C64.6528 152.468 65.0008 152.624 65.2888 152.784C65.5768 152.944 65.7968 153.14 65.9488 153.372C66.1008 153.596 66.1768 153.88 66.1768 154.224ZM68.7869 149.556C68.7869 149.708 68.7789 149.864 68.7629 150.024C68.7549 150.184 68.7429 150.328 68.7269 150.456H68.7989C68.9349 150.232 69.1069 150.048 69.3149 149.904C69.5229 149.76 69.7549 149.652 70.0109 149.58C70.2669 149.5 70.5309 149.46 70.8029 149.46C71.3229 149.46 71.7549 149.544 72.0989 149.712C72.4509 149.872 72.7149 150.124 72.8909 150.468C73.0669 150.812 73.1549 151.26 73.1549 151.812V156H72.1109V151.884C72.1109 151.364 71.9949 150.976 71.7629 150.72C71.5309 150.464 71.1669 150.336 70.6709 150.336C70.1909 150.336 69.8149 150.428 69.5429 150.612C69.2709 150.788 69.0749 151.052 68.9549 151.404C68.8429 151.748 68.7869 152.172 68.7869 152.676V156H67.7309V146.88H68.7869V149.556ZM76.2049 149.568V156H75.1489V149.568H76.2049ZM75.6889 147.156C75.8489 147.156 75.9889 147.212 76.1089 147.324C76.2369 147.428 76.3009 147.596 76.3009 147.828C76.3009 148.052 76.2369 148.22 76.1089 148.332C75.9889 148.444 75.8489 148.5 75.6889 148.5C75.5129 148.5 75.3649 148.444 75.2449 148.332C75.1249 148.22 75.0649 148.052 75.0649 147.828C75.0649 147.596 75.1249 147.428 75.2449 147.324C75.3649 147.212 75.5129 147.156 75.6889 147.156ZM81.3027 149.448C82.0947 149.448 82.7307 149.724 83.2107 150.276C83.6987 150.828 83.9427 151.66 83.9427 152.772C83.9427 153.5 83.8307 154.116 83.6067 154.62C83.3907 155.116 83.0827 155.492 82.6827 155.748C82.2907 155.996 81.8267 156.12 81.2907 156.12C80.9627 156.12 80.6707 156.076 80.4147 155.988C80.1587 155.9 79.9387 155.788 79.7547 155.652C79.5787 155.508 79.4267 155.352 79.2987 155.184H79.2267C79.2427 155.32 79.2587 155.492 79.2747 155.7C79.2907 155.908 79.2987 156.088 79.2987 156.24V158.88H78.2427V149.568H79.1067L79.2507 150.444H79.2987C79.4267 150.26 79.5787 150.092 79.7547 149.94C79.9387 149.788 80.1547 149.668 80.4027 149.58C80.6587 149.492 80.9587 149.448 81.3027 149.448ZM81.1107 150.336C80.6787 150.336 80.3307 150.42 80.0667 150.588C79.8027 150.748 79.6107 150.992 79.4907 151.32C79.3707 151.648 79.3067 152.064 79.2987 152.568V152.772C79.2987 153.3 79.3547 153.748 79.4667 154.116C79.5787 154.484 79.7667 154.764 80.0307 154.956C80.3027 155.148 80.6707 155.244 81.1347 155.244C81.5267 155.244 81.8467 155.136 82.0947 154.92C82.3507 154.704 82.5387 154.412 82.6587 154.044C82.7867 153.668 82.8507 153.24 82.8507 152.76C82.8507 152.024 82.7067 151.436 82.4187 150.996C82.1387 150.556 81.7027 150.336 81.1107 150.336ZM27.092 172V163.432H28.16V171.04H31.664V172H27.092ZM35.3611 172H32.3971V171.376L33.3451 171.148V164.296L32.3971 164.056V163.432H35.3611V164.056L34.4131 164.296V171.148L35.3611 171.376V172ZM43.3563 172H42.0963L37.8483 164.884H37.8003C37.8083 165.028 37.8163 165.188 37.8243 165.364C37.8403 165.54 37.8523 165.732 37.8603 165.94C37.8683 166.14 37.8763 166.348 37.8843 166.564C37.8923 166.78 37.8963 166.996 37.8963 167.212V172H36.9123V163.432H38.1603L42.3963 170.524H42.4443C42.4363 170.428 42.4283 170.296 42.4203 170.128C42.4123 169.952 42.4043 169.76 42.3963 169.552C42.3883 169.336 42.3803 169.116 42.3723 168.892C42.3643 168.668 42.3603 168.46 42.3603 168.268V163.432H43.3563V172ZM50.0493 172H45.5373V163.432H50.0493V164.38H46.6053V167.056H49.8453V167.992H46.6053V171.052H50.0493V172ZM55.3586 172L52.7666 164.488H52.7186C52.7346 164.648 52.7466 164.852 52.7546 165.1C52.7706 165.348 52.7826 165.62 52.7906 165.916C52.7986 166.204 52.8026 166.5 52.8026 166.804V172H51.8186V163.432H53.3786L55.8146 170.452H55.8626L58.3466 163.432H59.9066V172H58.8506V166.732C58.8506 166.452 58.8546 166.176 58.8626 165.904C58.8706 165.624 58.8826 165.364 58.8986 165.124C58.9146 164.876 58.9266 164.668 58.9346 164.5H58.8866L56.2466 172H55.3586ZM67.1359 172L66.1999 169.348H63.0199L62.0959 172H61.0039L64.1239 163.396H65.1319L68.2399 172H67.1359ZM64.9999 165.796C64.9839 165.732 64.9479 165.616 64.8919 165.448C64.8439 165.28 64.7919 165.108 64.7359 164.932C64.6879 164.748 64.6479 164.608 64.6159 164.512C64.5759 164.672 64.5319 164.836 64.4839 165.004C64.4439 165.164 64.4039 165.312 64.3639 165.448C64.3239 165.584 64.2879 165.7 64.2559 165.796L63.3679 168.388H65.8879L64.9999 165.796ZM75.7821 172H74.5221L70.2741 164.884H70.2261C70.2341 165.028 70.2421 165.188 70.2501 165.364C70.2661 165.54 70.2781 165.732 70.2861 165.94C70.2941 166.14 70.3021 166.348 70.3101 166.564C70.3181 166.78 70.3221 166.996 70.3221 167.212V172H69.3381V163.432H70.5861L74.8221 170.524H74.8701C74.8621 170.428 74.8541 170.296 74.8461 170.128C74.8381 169.952 74.8301 169.76 74.8221 169.552C74.8141 169.336 74.8061 169.116 74.7981 168.892C74.7901 168.668 74.7861 168.46 74.7861 168.268V163.432H75.7821V172ZM83.4848 172H82.4168V164.38H79.9208V163.432H85.9568V164.38H83.4848V172ZM88.0858 165.556C88.0858 165.708 88.0778 165.864 88.0618 166.024C88.0538 166.184 88.0418 166.328 88.0258 166.456H88.0978C88.2258 166.232 88.3858 166.048 88.5778 165.904C88.7778 165.76 88.9938 165.652 89.2258 165.58C89.4658 165.5 89.7138 165.46 89.9698 165.46C90.4578 165.46 90.8658 165.544 91.1938 165.712C91.5218 165.872 91.7698 166.124 91.9378 166.468C92.1058 166.812 92.1898 167.26 92.1898 167.812V172H91.1458V167.884C91.1458 167.364 91.0378 166.976 90.8218 166.72C90.6058 166.464 90.2738 166.336 89.8258 166.336C89.3858 166.336 89.0378 166.428 88.7818 166.612C88.5258 166.788 88.3458 167.052 88.2418 167.404C88.1378 167.748 88.0858 168.172 88.0858 168.676V172H87.0418V162.88H88.0858V165.556ZM96.3656 165.46C97.1016 165.46 97.6496 165.632 98.0096 165.976C98.3776 166.32 98.5616 166.868 98.5616 167.62V172H97.8056L97.6016 171.088H97.5536C97.3776 171.32 97.1976 171.516 97.0136 171.676C96.8376 171.828 96.6296 171.94 96.3896 172.012C96.1576 172.084 95.8696 172.12 95.5256 172.12C95.1656 172.12 94.8416 172.052 94.5536 171.916C94.2656 171.78 94.0376 171.572 93.8696 171.292C93.7016 171.004 93.6176 170.644 93.6176 170.212C93.6176 169.572 93.8536 169.08 94.3256 168.736C94.7976 168.384 95.5256 168.192 96.5096 168.16L97.5296 168.124V167.74C97.5296 167.204 97.4216 166.832 97.2056 166.624C96.9976 166.416 96.6976 166.312 96.3056 166.312C95.9936 166.312 95.6936 166.364 95.4056 166.468C95.1256 166.564 94.8576 166.676 94.6016 166.804L94.2776 166.012C94.5496 165.86 94.8656 165.732 95.2256 165.628C95.5856 165.516 95.9656 165.46 96.3656 165.46ZM96.6536 168.892C95.9176 168.924 95.4056 169.052 95.1176 169.276C94.8376 169.5 94.6976 169.816 94.6976 170.224C94.6976 170.584 94.7976 170.848 94.9976 171.016C95.1976 171.184 95.4576 171.268 95.7776 171.268C96.2736 171.268 96.6896 171.12 97.0256 170.824C97.3616 170.52 97.5296 170.056 97.5296 169.432V168.856L96.6536 168.892ZM101.481 165.568V172H100.437V165.568H101.481ZM100.965 163.156C101.125 163.156 101.265 163.212 101.385 163.324C101.505 163.428 101.565 163.596 101.565 163.828C101.565 164.052 101.505 164.22 101.385 164.332C101.265 164.444 101.125 164.5 100.965 164.5C100.797 164.5 100.653 164.444 100.533 164.332C100.413 164.22 100.353 164.052 100.353 163.828C100.353 163.596 100.413 163.428 100.533 163.324C100.653 163.212 100.797 163.156 100.965 163.156ZM104.422 172H103.378V162.88H104.422V172ZM108.635 165.46C109.371 165.46 109.919 165.632 110.279 165.976C110.647 166.32 110.831 166.868 110.831 167.62V172H110.075L109.871 171.088H109.823C109.647 171.32 109.467 171.516 109.283 171.676C109.107 171.828 108.899 171.94 108.659 172.012C108.427 172.084 108.139 172.12 107.795 172.12C107.435 172.12 107.111 172.052 106.823 171.916C106.535 171.78 106.307 171.572 106.139 171.292C105.971 171.004 105.887 170.644 105.887 170.212C105.887 169.572 106.123 169.08 106.595 168.736C107.067 168.384 107.795 168.192 108.779 168.16L109.799 168.124V167.74C109.799 167.204 109.691 166.832 109.475 166.624C109.267 166.416 108.967 166.312 108.575 166.312C108.263 166.312 107.963 166.364 107.675 166.468C107.395 166.564 107.127 166.676 106.871 166.804L106.547 166.012C106.819 165.86 107.135 165.732 107.495 165.628C107.855 165.516 108.235 165.46 108.635 165.46ZM108.923 168.892C108.187 168.924 107.675 169.052 107.387 169.276C107.107 169.5 106.967 169.816 106.967 170.224C106.967 170.584 107.067 170.848 107.267 171.016C107.467 171.184 107.727 171.268 108.047 171.268C108.543 171.268 108.959 171.12 109.295 170.824C109.631 170.52 109.799 170.056 109.799 169.432V168.856L108.923 168.892ZM115.646 165.448C116.366 165.448 116.91 165.636 117.278 166.012C117.654 166.38 117.842 166.98 117.842 167.812V172H116.798V167.884C116.798 167.364 116.69 166.976 116.474 166.72C116.258 166.464 115.926 166.336 115.478 166.336C114.822 166.336 114.366 166.536 114.11 166.936C113.862 167.336 113.738 167.912 113.738 168.664V172H112.694V165.568H113.534L113.69 166.444H113.75C113.878 166.22 114.042 166.036 114.242 165.892C114.442 165.74 114.662 165.628 114.902 165.556C115.142 165.484 115.39 165.448 115.646 165.448ZM121.838 172.12C121.094 172.12 120.494 171.844 120.038 171.292C119.59 170.732 119.366 169.9 119.366 168.796C119.366 167.692 119.594 166.86 120.05 166.3C120.506 165.732 121.106 165.448 121.85 165.448C122.162 165.448 122.434 165.492 122.666 165.58C122.898 165.66 123.098 165.772 123.266 165.916C123.442 166.06 123.59 166.22 123.71 166.396H123.782C123.774 166.292 123.758 166.14 123.734 165.94C123.718 165.732 123.71 165.568 123.71 165.448V162.88H124.754V172H123.914L123.758 171.136H123.71C123.59 171.32 123.442 171.488 123.266 171.64C123.098 171.784 122.894 171.9 122.654 171.988C122.422 172.076 122.15 172.12 121.838 172.12ZM122.03 171.244C122.654 171.244 123.09 171.06 123.338 170.692C123.594 170.316 123.722 169.752 123.722 169V168.808C123.722 168.008 123.602 167.396 123.362 166.972C123.122 166.54 122.674 166.324 122.018 166.324C121.49 166.324 121.094 166.552 120.83 167.008C120.574 167.456 120.446 168.06 120.446 168.82C120.446 169.588 120.574 170.184 120.83 170.608C121.094 171.032 121.494 171.244 122.03 171.244Z" fill="#575353"/>
<ellipse cx="181.5" cy="228.5" rx="68.5" ry="62.5" fill="url(#paint0_radial_306_300)"/>
</g>
<defs>
<radialGradient id="paint0_radial_306_300" cx="0" cy="0" r="1" gradientUnits="userSpaceOnUse" gradientTransform="translate(181.5 228.5) rotate(90) scale(62.5 68.5)">
<stop stop-color="#9BC3FF"/>
<stop offset="1" stop-color="#D9D9D9" stop-opacity="0"/>
</radialGradient>
<clipPath id="clip0_306_300">
<rect width="247" height="401" fill="white"/>
</clipPath>
</defs>
</svg>
