<svg width="247" height="401" viewBox="0 0 247 401" fill="none" xmlns="http://www.w3.org/2000/svg">
<g clip-path="url(#clip0_306_315)">
<rect x="0.25" y="0.25" width="246.5" height="345.5" rx="19.75" fill="white" stroke="black" stroke-width="0.5"/>
<path opacity="0.72" d="M31.4512 33.2822V34H25.8525V33.2822H31.4512ZM26.1055 24.0469V34H25.2646V24.0469H26.1055ZM30.7539 28.5107V29.2285H25.8525V28.5107H30.7539ZM31.417 24.0469V24.7715H25.8525V24.0469H31.417ZM37.7129 32.5645V23.5H38.5332V34H37.7676L37.7129 32.5645ZM32.5791 30.377V30.2334C32.5791 29.6592 32.6452 29.1419 32.7773 28.6816C32.9095 28.2168 33.0986 27.8203 33.3447 27.4922C33.5954 27.1595 33.8962 26.9066 34.2471 26.7334C34.598 26.5557 34.9945 26.4668 35.4365 26.4668C35.8695 26.4668 36.2523 26.5374 36.585 26.6787C36.9176 26.82 37.2025 27.0228 37.4395 27.2871C37.681 27.5514 37.8747 27.8659 38.0205 28.2305C38.1709 28.5951 38.2803 29.0007 38.3486 29.4473V31.2725C38.2939 31.6917 38.1937 32.0768 38.0479 32.4277C37.902 32.7741 37.7083 33.0771 37.4668 33.3369C37.2253 33.5921 36.9336 33.7904 36.5918 33.9316C36.2546 34.0684 35.8649 34.1367 35.4229 34.1367C34.9854 34.1367 34.5911 34.0456 34.2402 33.8633C33.8893 33.681 33.5908 33.4235 33.3447 33.0908C33.0986 32.7536 32.9095 32.3548 32.7773 31.8945C32.6452 31.4342 32.5791 30.9284 32.5791 30.377ZM33.3994 30.2334V30.377C33.3994 30.8099 33.4427 31.2109 33.5293 31.5801C33.6159 31.9492 33.748 32.2705 33.9258 32.5439C34.1035 32.8174 34.3291 33.0316 34.6025 33.1865C34.876 33.3415 35.1995 33.4189 35.5732 33.4189C36.0426 33.4189 36.4368 33.3301 36.7559 33.1523C37.0749 32.9701 37.3301 32.7308 37.5215 32.4346C37.7129 32.1338 37.8519 31.8057 37.9385 31.4502V29.3242C37.8838 29.0827 37.804 28.8366 37.6992 28.5859C37.5944 28.3353 37.4508 28.1051 37.2686 27.8955C37.0908 27.6813 36.863 27.5104 36.585 27.3828C36.3115 27.2507 35.9788 27.1846 35.5869 27.1846C35.2087 27.1846 34.8828 27.262 34.6094 27.417C34.3359 27.5719 34.1081 27.7884 33.9258 28.0664C33.748 28.3398 33.6159 28.6611 33.5293 29.0303C33.4427 29.3994 33.3994 29.8005 33.3994 30.2334ZM45.4238 32.291V26.6035H46.2441V34H45.458L45.4238 32.291ZM45.5742 30.9238L45.998 30.9102C45.998 31.375 45.9434 31.8034 45.834 32.1953C45.7246 32.5872 45.5537 32.929 45.3213 33.2207C45.0889 33.5124 44.7881 33.738 44.4189 33.8975C44.0498 34.057 43.6055 34.1367 43.0859 34.1367C42.7259 34.1367 42.3955 34.0866 42.0947 33.9863C41.7985 33.8815 41.5433 33.7174 41.3291 33.4941C41.1149 33.2708 40.9486 32.9814 40.8301 32.626C40.7161 32.2705 40.6592 31.8398 40.6592 31.334V26.6035H41.4727V31.3477C41.4727 31.7441 41.516 32.0745 41.6025 32.3389C41.6937 32.6032 41.8167 32.8151 41.9717 32.9746C42.1312 33.1341 42.3135 33.248 42.5186 33.3164C42.7236 33.3848 42.9447 33.4189 43.1816 33.4189C43.7832 33.4189 44.2572 33.3027 44.6035 33.0703C44.9544 32.8379 45.2028 32.5326 45.3486 32.1543C45.499 31.7715 45.5742 31.3613 45.5742 30.9238ZM51.1113 33.4326C51.4577 33.4326 51.7812 33.3688 52.082 33.2412C52.3874 33.109 52.638 32.9154 52.834 32.6602C53.0345 32.4004 53.1484 32.0837 53.1758 31.71H53.9551C53.9323 32.1794 53.7887 32.5986 53.5244 32.9678C53.2646 33.3324 52.9229 33.6195 52.499 33.8291C52.0798 34.0342 51.6172 34.1367 51.1113 34.1367C50.5964 34.1367 50.1406 34.0433 49.7441 33.8564C49.3522 33.6696 49.0241 33.4098 48.7598 33.0771C48.4954 32.7399 48.2949 32.348 48.1582 31.9014C48.026 31.4502 47.96 30.9648 47.96 30.4453V30.1582C47.96 29.6387 48.026 29.1556 48.1582 28.709C48.2949 28.2578 48.4954 27.8659 48.7598 27.5332C49.0241 27.196 49.3522 26.9339 49.7441 26.7471C50.1361 26.5602 50.5895 26.4668 51.1045 26.4668C51.6331 26.4668 52.1071 26.5739 52.5264 26.7881C52.9502 27.0023 53.2874 27.3053 53.5381 27.6973C53.7933 28.0892 53.9323 28.554 53.9551 29.0918H53.1758C53.153 28.6953 53.0482 28.3535 52.8613 28.0664C52.6745 27.7793 52.4284 27.5583 52.123 27.4033C51.8177 27.2484 51.4782 27.1709 51.1045 27.1709C50.6852 27.1709 50.3275 27.2529 50.0312 27.417C49.735 27.5765 49.4935 27.7975 49.3066 28.0801C49.1243 28.3581 48.9899 28.6771 48.9033 29.0371C48.8167 29.3926 48.7734 29.7663 48.7734 30.1582V30.4453C48.7734 30.8418 48.8145 31.2201 48.8965 31.5801C48.9831 31.9355 49.1175 32.2523 49.2998 32.5303C49.4867 32.8083 49.7282 33.0293 50.0244 33.1934C50.3252 33.3529 50.6875 33.4326 51.1113 33.4326ZM60.1006 32.6738V28.8594C60.1006 28.5085 60.0277 28.2054 59.8818 27.9502C59.736 27.695 59.5218 27.499 59.2393 27.3623C58.9567 27.2256 58.6081 27.1572 58.1934 27.1572C57.8105 27.1572 57.4688 27.2256 57.168 27.3623C56.8717 27.4945 56.637 27.6745 56.4639 27.9023C56.2952 28.1257 56.2109 28.374 56.2109 28.6475L55.3906 28.6406C55.3906 28.3626 55.459 28.0938 55.5957 27.834C55.7324 27.5742 55.9261 27.3418 56.1768 27.1367C56.4274 26.9316 56.7259 26.7699 57.0723 26.6514C57.4232 26.5283 57.8083 26.4668 58.2275 26.4668C58.7562 26.4668 59.221 26.5557 59.6221 26.7334C60.0277 26.9111 60.3444 27.1777 60.5723 27.5332C60.8001 27.8887 60.9141 28.3353 60.9141 28.873V32.4482C60.9141 32.7035 60.9323 32.9678 60.9688 33.2412C61.0098 33.5146 61.0667 33.7402 61.1396 33.918V34H60.2715C60.2168 33.8359 60.1735 33.6309 60.1416 33.3848C60.1143 33.1341 60.1006 32.8971 60.1006 32.6738ZM60.292 29.6934L60.3057 30.3223H58.6992C58.2799 30.3223 57.904 30.361 57.5713 30.4385C57.2432 30.5114 56.9652 30.6208 56.7373 30.7666C56.5094 30.9079 56.334 31.0788 56.2109 31.2793C56.0924 31.4798 56.0332 31.7077 56.0332 31.9629C56.0332 32.2272 56.0993 32.4688 56.2314 32.6875C56.3682 32.9062 56.5596 33.0817 56.8057 33.2139C57.0563 33.3415 57.3525 33.4053 57.6943 33.4053C58.1501 33.4053 58.5511 33.321 58.8975 33.1523C59.2484 32.9837 59.5378 32.7627 59.7656 32.4893C59.9935 32.2158 60.1462 31.9173 60.2236 31.5938L60.5791 32.0654C60.5199 32.2933 60.4105 32.528 60.251 32.7695C60.096 33.0065 59.8932 33.2298 59.6426 33.4395C59.3919 33.6445 59.0957 33.8132 58.7539 33.9453C58.4167 34.0729 58.0339 34.1367 57.6055 34.1367C57.1224 34.1367 56.7008 34.0456 56.3408 33.8633C55.9854 33.681 55.7074 33.4326 55.5068 33.1182C55.3109 32.7992 55.2129 32.4391 55.2129 32.0381C55.2129 31.6735 55.2904 31.3477 55.4453 31.0605C55.6003 30.7689 55.8236 30.5228 56.1152 30.3223C56.4115 30.1172 56.7669 29.9622 57.1816 29.8574C57.6009 29.748 58.0703 29.6934 58.5898 29.6934H60.292ZM65.9043 26.6035V27.2734H62.1992V26.6035H65.9043ZM63.5596 24.7031H64.373V32.2021C64.373 32.5439 64.4186 32.8014 64.5098 32.9746C64.6009 33.1478 64.7194 33.264 64.8652 33.3232C65.0111 33.3825 65.1683 33.4121 65.3369 33.4121C65.46 33.4121 65.5785 33.4053 65.6924 33.3916C65.8063 33.3734 65.9089 33.3551 66 33.3369L66.0342 34.0273C65.9339 34.0592 65.804 34.0843 65.6445 34.1025C65.485 34.1253 65.3255 34.1367 65.166 34.1367C64.8516 34.1367 64.5736 34.0798 64.332 33.9658C64.0905 33.8473 63.9014 33.6468 63.7646 33.3643C63.6279 33.0771 63.5596 32.6875 63.5596 32.1953V24.7031ZM68.5293 26.6035V34H67.7158V26.6035H68.5293ZM67.5723 24.4639C67.5723 24.3089 67.6201 24.179 67.7158 24.0742C67.8161 23.9648 67.9528 23.9102 68.126 23.9102C68.2992 23.9102 68.4359 23.9648 68.5361 24.0742C68.641 24.179 68.6934 24.3089 68.6934 24.4639C68.6934 24.6143 68.641 24.7441 68.5361 24.8535C68.4359 24.9583 68.2992 25.0107 68.126 25.0107C67.9528 25.0107 67.8161 24.9583 67.7158 24.8535C67.6201 24.7441 67.5723 24.6143 67.5723 24.4639ZM70.3135 30.418V30.1924C70.3135 29.6546 70.391 29.1579 70.5459 28.7021C70.7008 28.2464 70.9219 27.8522 71.209 27.5195C71.5007 27.1868 71.8493 26.9294 72.2549 26.7471C72.6605 26.5602 73.1117 26.4668 73.6084 26.4668C74.1097 26.4668 74.5632 26.5602 74.9688 26.7471C75.3743 26.9294 75.723 27.1868 76.0146 27.5195C76.3063 27.8522 76.5296 28.2464 76.6846 28.7021C76.8395 29.1579 76.917 29.6546 76.917 30.1924V30.418C76.917 30.9557 76.8395 31.4525 76.6846 31.9082C76.5296 32.3594 76.3063 32.7513 76.0146 33.084C75.7275 33.4167 75.3812 33.6764 74.9756 33.8633C74.57 34.0456 74.1188 34.1367 73.6221 34.1367C73.1208 34.1367 72.6673 34.0456 72.2617 33.8633C71.8561 33.6764 71.5075 33.4167 71.2158 33.084C70.9242 32.7513 70.7008 32.3594 70.5459 31.9082C70.391 31.4525 70.3135 30.9557 70.3135 30.418ZM71.127 30.1924V30.418C71.127 30.8236 71.1816 31.2087 71.291 31.5732C71.4004 31.9333 71.5599 32.2546 71.7695 32.5371C71.9792 32.8151 72.2389 33.0339 72.5488 33.1934C72.8587 33.3529 73.2165 33.4326 73.6221 33.4326C74.0231 33.4326 74.3763 33.3529 74.6816 33.1934C74.9915 33.0339 75.2513 32.8151 75.4609 32.5371C75.6706 32.2546 75.8278 31.9333 75.9326 31.5732C76.042 31.2087 76.0967 30.8236 76.0967 30.418V30.1924C76.0967 29.7913 76.042 29.4108 75.9326 29.0508C75.8278 28.6908 75.6683 28.3695 75.4541 28.0869C75.2445 27.8044 74.9847 27.5811 74.6748 27.417C74.3649 27.2529 74.0094 27.1709 73.6084 27.1709C73.2074 27.1709 72.8519 27.2529 72.542 27.417C72.2367 27.5811 71.9769 27.8044 71.7627 28.0869C71.5531 28.3695 71.3936 28.6908 71.2842 29.0508C71.1794 29.4108 71.127 29.7913 71.127 30.1924ZM79.4258 28.1826V34H78.6123V26.6035H79.3916L79.4258 28.1826ZM79.2412 29.8438L78.8789 29.6387C78.9062 29.2012 78.9951 28.791 79.1455 28.4082C79.2959 28.0254 79.4987 27.6882 79.7539 27.3965C80.0137 27.1048 80.3167 26.877 80.6631 26.7129C81.014 26.5488 81.4014 26.4668 81.8252 26.4668C82.1943 26.4668 82.5247 26.5169 82.8164 26.6172C83.1081 26.7174 83.3564 26.877 83.5615 27.0957C83.7666 27.3145 83.9215 27.5947 84.0264 27.9365C84.1357 28.2783 84.1904 28.6953 84.1904 29.1875V34H83.3701V29.1807C83.3701 28.6702 83.2995 28.2715 83.1582 27.9844C83.0169 27.6927 82.8164 27.4854 82.5566 27.3623C82.2969 27.2393 81.9893 27.1777 81.6338 27.1777C81.2419 27.1777 80.8978 27.2643 80.6016 27.4375C80.3099 27.6061 80.0638 27.8271 79.8633 28.1006C79.6673 28.3695 79.5169 28.6589 79.4121 28.9688C79.3073 29.2741 79.2503 29.5658 79.2412 29.8438Z" fill="#2B2F42"/>
<path opacity="0.72" d="M175.122 325.497V326H170.674V325.546L173.003 322.904C173.293 322.576 173.524 322.287 173.696 322.04C173.869 321.789 173.993 321.562 174.067 321.356C174.146 321.148 174.185 320.946 174.185 320.751C174.185 320.465 174.128 320.212 174.014 319.994C173.903 319.776 173.737 319.605 173.516 319.481C173.294 319.358 173.021 319.296 172.695 319.296C172.37 319.296 172.087 319.366 171.846 319.506C171.605 319.646 171.419 319.841 171.289 320.092C171.162 320.339 171.099 320.621 171.099 320.937H170.518C170.518 320.546 170.604 320.188 170.776 319.862C170.952 319.537 171.203 319.278 171.528 319.086C171.854 318.891 172.243 318.793 172.695 318.793C173.125 318.793 173.494 318.869 173.804 319.022C174.113 319.172 174.351 319.389 174.517 319.672C174.686 319.955 174.771 320.297 174.771 320.697C174.771 320.912 174.731 321.129 174.653 321.347C174.578 321.565 174.474 321.783 174.341 322.001C174.211 322.216 174.061 322.429 173.892 322.641C173.726 322.852 173.551 323.061 173.369 323.266L171.387 325.497H175.122ZM180.503 321.835V323.031C180.503 323.552 180.454 324.006 180.356 324.394C180.259 324.778 180.116 325.097 179.927 325.351C179.741 325.601 179.513 325.788 179.243 325.912C178.976 326.036 178.67 326.098 178.325 326.098C178.052 326.098 177.801 326.059 177.573 325.98C177.345 325.902 177.142 325.784 176.963 325.624C176.787 325.461 176.637 325.258 176.514 325.014C176.39 324.77 176.296 324.483 176.23 324.154C176.165 323.822 176.133 323.448 176.133 323.031V321.835C176.133 321.311 176.182 320.858 176.279 320.478C176.38 320.097 176.523 319.781 176.709 319.53C176.898 319.28 177.127 319.094 177.397 318.974C177.668 318.85 177.974 318.788 178.315 318.788C178.589 318.788 178.84 318.829 179.067 318.91C179.299 318.988 179.502 319.105 179.678 319.262C179.857 319.418 180.007 319.618 180.127 319.862C180.251 320.103 180.343 320.388 180.405 320.717C180.47 321.046 180.503 321.418 180.503 321.835ZM179.922 323.1V321.762C179.922 321.439 179.899 321.146 179.854 320.883C179.811 320.619 179.748 320.388 179.663 320.189C179.578 319.991 179.471 319.825 179.341 319.691C179.214 319.558 179.064 319.459 178.892 319.394C178.722 319.325 178.53 319.291 178.315 319.291C178.052 319.291 177.819 319.345 177.617 319.452C177.419 319.556 177.253 319.713 177.119 319.921C176.986 320.126 176.885 320.383 176.816 320.692C176.751 321.002 176.719 321.358 176.719 321.762V323.1C176.719 323.419 176.74 323.71 176.782 323.974C176.825 324.234 176.89 324.465 176.978 324.667C177.065 324.869 177.173 325.04 177.3 325.18C177.43 325.316 177.58 325.421 177.749 325.492C177.922 325.561 178.114 325.595 178.325 325.595C178.595 325.595 178.83 325.541 179.028 325.434C179.227 325.323 179.393 325.162 179.526 324.95C179.66 324.735 179.759 324.473 179.824 324.164C179.889 323.852 179.922 323.497 179.922 323.1ZM186.216 325.497V326H181.768V325.546L184.097 322.904C184.386 322.576 184.618 322.287 184.79 322.04C184.963 321.789 185.086 321.562 185.161 321.356C185.239 321.148 185.278 320.946 185.278 320.751C185.278 320.465 185.221 320.212 185.107 319.994C184.997 319.776 184.831 319.605 184.609 319.481C184.388 319.358 184.115 319.296 183.789 319.296C183.464 319.296 183.18 319.366 182.939 319.506C182.699 319.646 182.513 319.841 182.383 320.092C182.256 320.339 182.192 320.621 182.192 320.937H181.611C181.611 320.546 181.698 320.188 181.87 319.862C182.046 319.537 182.297 319.278 182.622 319.086C182.948 318.891 183.337 318.793 183.789 318.793C184.219 318.793 184.588 318.869 184.897 319.022C185.207 319.172 185.444 319.389 185.61 319.672C185.78 319.955 185.864 320.297 185.864 320.697C185.864 320.912 185.825 321.129 185.747 321.347C185.672 321.565 185.568 321.783 185.435 322.001C185.304 322.216 185.155 322.429 184.985 322.641C184.819 322.852 184.645 323.061 184.463 323.266L182.48 325.497H186.216ZM188.613 322.123H189.209C189.574 322.123 189.878 322.061 190.122 321.938C190.369 321.811 190.555 321.643 190.679 321.435C190.806 321.226 190.869 320.995 190.869 320.741C190.869 320.455 190.815 320.204 190.708 319.989C190.601 319.771 190.436 319.602 190.215 319.481C189.997 319.358 189.717 319.296 189.375 319.296C189.076 319.296 188.809 319.354 188.574 319.472C188.34 319.589 188.154 319.757 188.018 319.975C187.881 320.193 187.812 320.453 187.812 320.756H187.231C187.231 320.368 187.324 320.028 187.51 319.735C187.695 319.439 187.951 319.208 188.276 319.042C188.602 318.876 188.968 318.793 189.375 318.793C189.795 318.793 190.16 318.869 190.469 319.022C190.781 319.175 191.022 319.398 191.191 319.691C191.364 319.984 191.45 320.341 191.45 320.761C191.45 320.976 191.403 321.187 191.309 321.396C191.217 321.604 191.081 321.793 190.898 321.962C190.716 322.128 190.49 322.261 190.22 322.362C189.95 322.463 189.635 322.514 189.277 322.514H188.613V322.123ZM188.613 322.626V322.24H189.277C189.684 322.24 190.033 322.287 190.322 322.382C190.612 322.473 190.85 322.603 191.035 322.772C191.224 322.938 191.362 323.132 191.45 323.354C191.538 323.575 191.582 323.812 191.582 324.066C191.582 324.392 191.528 324.68 191.421 324.931C191.313 325.181 191.16 325.395 190.962 325.57C190.767 325.743 190.535 325.875 190.269 325.966C190.005 326.054 189.715 326.098 189.399 326.098C189.113 326.098 188.833 326.055 188.56 325.971C188.289 325.886 188.045 325.761 187.827 325.595C187.612 325.425 187.441 325.214 187.314 324.96C187.188 324.703 187.124 324.407 187.124 324.071H187.705C187.705 324.371 187.777 324.636 187.92 324.867C188.063 325.095 188.262 325.274 188.516 325.404C188.773 325.531 189.067 325.595 189.399 325.595C189.735 325.595 190.021 325.538 190.259 325.424C190.5 325.307 190.684 325.136 190.811 324.911C190.938 324.687 191.001 324.411 191.001 324.086C191.001 323.744 190.924 323.466 190.771 323.251C190.622 323.036 190.412 322.878 190.142 322.777C189.875 322.676 189.564 322.626 189.209 322.626H188.613ZM194.771 322.611V323.114H192.432V322.611H194.771ZM198.379 323.104H196.353V322.592H198.379C198.802 322.592 199.146 322.523 199.409 322.387C199.676 322.247 199.87 322.058 199.99 321.82C200.114 321.583 200.176 321.316 200.176 321.02C200.176 320.73 200.114 320.463 199.99 320.219C199.87 319.975 199.676 319.779 199.409 319.633C199.146 319.483 198.802 319.408 198.379 319.408H196.562V326H195.962V318.891H198.379C198.9 318.891 199.338 318.98 199.692 319.159C200.05 319.338 200.321 319.587 200.503 319.906C200.685 320.225 200.776 320.593 200.776 321.01C200.776 321.446 200.685 321.822 200.503 322.138C200.321 322.45 200.052 322.689 199.697 322.855C199.342 323.021 198.903 323.104 198.379 323.104ZM202.568 321.591V326H201.987V320.717H202.554L202.568 321.591ZM204.438 320.678L204.424 321.215C204.359 321.205 204.295 321.197 204.233 321.19C204.172 321.184 204.105 321.181 204.033 321.181C203.779 321.181 203.556 321.228 203.364 321.322C203.175 321.413 203.016 321.542 202.886 321.708C202.756 321.871 202.656 322.063 202.588 322.284C202.52 322.502 202.48 322.737 202.471 322.987L202.256 323.07C202.256 322.725 202.292 322.405 202.363 322.108C202.435 321.812 202.544 321.553 202.69 321.332C202.84 321.107 203.027 320.933 203.252 320.81C203.48 320.683 203.747 320.619 204.053 320.619C204.128 320.619 204.201 320.626 204.272 320.639C204.347 320.648 204.403 320.661 204.438 320.678ZM207.3 326.098C206.955 326.098 206.637 326.034 206.348 325.907C206.061 325.78 205.811 325.601 205.596 325.37C205.384 325.139 205.22 324.866 205.103 324.55C204.989 324.231 204.932 323.882 204.932 323.505V323.295C204.932 322.888 204.992 322.52 205.112 322.191C205.233 321.863 205.399 321.581 205.61 321.347C205.822 321.112 206.063 320.933 206.333 320.81C206.606 320.683 206.893 320.619 207.192 320.619C207.528 320.619 207.826 320.679 208.086 320.8C208.346 320.917 208.564 321.085 208.74 321.303C208.919 321.518 209.054 321.773 209.146 322.069C209.237 322.362 209.282 322.686 209.282 323.041V323.397H205.283V322.899H208.701V322.831C208.695 322.535 208.634 322.258 208.521 322.001C208.41 321.741 208.244 321.529 208.022 321.366C207.801 321.203 207.524 321.122 207.192 321.122C206.945 321.122 206.717 321.174 206.509 321.278C206.304 321.382 206.126 321.532 205.977 321.728C205.83 321.92 205.716 322.149 205.635 322.416C205.557 322.68 205.518 322.973 205.518 323.295V323.505C205.518 323.798 205.56 324.071 205.645 324.325C205.732 324.576 205.856 324.797 206.016 324.989C206.178 325.181 206.37 325.331 206.592 325.438C206.813 325.546 207.057 325.6 207.324 325.6C207.637 325.6 207.913 325.543 208.154 325.429C208.395 325.312 208.612 325.128 208.804 324.877L209.17 325.16C209.056 325.329 208.913 325.486 208.74 325.629C208.571 325.772 208.368 325.886 208.13 325.971C207.892 326.055 207.616 326.098 207.3 326.098ZM213.599 324.652C213.599 324.509 213.563 324.368 213.491 324.228C213.42 324.088 213.281 323.959 213.076 323.842C212.874 323.725 212.576 323.625 212.183 323.544C211.89 323.479 211.628 323.406 211.396 323.324C211.169 323.243 210.977 323.145 210.82 323.031C210.664 322.917 210.545 322.781 210.464 322.621C210.382 322.462 210.342 322.273 210.342 322.055C210.342 321.859 210.384 321.675 210.469 321.503C210.557 321.327 210.68 321.174 210.84 321.044C211.003 320.91 211.198 320.806 211.426 320.731C211.657 320.657 211.916 320.619 212.202 320.619C212.609 320.619 212.957 320.689 213.247 320.829C213.54 320.966 213.763 321.153 213.916 321.391C214.072 321.628 214.15 321.897 214.15 322.196H213.569C213.569 322.014 213.516 321.841 213.408 321.679C213.304 321.516 213.149 321.382 212.944 321.278C212.743 321.174 212.495 321.122 212.202 321.122C211.899 321.122 211.654 321.168 211.465 321.259C211.276 321.35 211.138 321.465 211.05 321.605C210.965 321.745 210.923 321.89 210.923 322.04C210.923 322.157 210.941 322.265 210.977 322.362C211.016 322.457 211.084 322.545 211.182 322.626C211.283 322.707 211.426 322.784 211.611 322.855C211.797 322.927 212.038 322.997 212.334 323.065C212.76 323.16 213.109 323.275 213.379 323.412C213.652 323.546 213.854 323.712 213.984 323.91C214.115 324.105 214.18 324.343 214.18 324.623C214.18 324.841 214.134 325.041 214.043 325.224C213.952 325.403 213.82 325.557 213.647 325.688C213.478 325.818 213.273 325.919 213.032 325.99C212.795 326.062 212.528 326.098 212.231 326.098C211.785 326.098 211.408 326.024 211.099 325.878C210.793 325.728 210.56 325.533 210.4 325.292C210.244 325.048 210.166 324.789 210.166 324.516H210.747C210.767 324.789 210.853 325.006 211.006 325.165C211.159 325.321 211.346 325.432 211.567 325.497C211.792 325.562 212.013 325.595 212.231 325.595C212.531 325.595 212.782 325.551 212.983 325.463C213.185 325.375 213.338 325.259 213.442 325.116C213.547 324.973 213.599 324.818 213.599 324.652ZM217.544 326.098C217.199 326.098 216.882 326.034 216.592 325.907C216.305 325.78 216.055 325.601 215.84 325.37C215.628 325.139 215.464 324.866 215.347 324.55C215.233 324.231 215.176 323.882 215.176 323.505V323.295C215.176 322.888 215.236 322.52 215.356 322.191C215.477 321.863 215.643 321.581 215.854 321.347C216.066 321.112 216.307 320.933 216.577 320.81C216.851 320.683 217.137 320.619 217.437 320.619C217.772 320.619 218.07 320.679 218.33 320.8C218.59 320.917 218.809 321.085 218.984 321.303C219.163 321.518 219.299 321.773 219.39 322.069C219.481 322.362 219.526 322.686 219.526 323.041V323.397H215.527V322.899H218.945V322.831C218.939 322.535 218.879 322.258 218.765 322.001C218.654 321.741 218.488 321.529 218.267 321.366C218.045 321.203 217.769 321.122 217.437 321.122C217.189 321.122 216.961 321.174 216.753 321.278C216.548 321.382 216.37 321.532 216.221 321.728C216.074 321.92 215.96 322.149 215.879 322.416C215.801 322.68 215.762 322.973 215.762 323.295V323.505C215.762 323.798 215.804 324.071 215.889 324.325C215.977 324.576 216.1 324.797 216.26 324.989C216.423 325.181 216.615 325.331 216.836 325.438C217.057 325.546 217.301 325.6 217.568 325.6C217.881 325.6 218.158 325.543 218.398 325.429C218.639 325.312 218.856 325.128 219.048 324.877L219.414 325.16C219.3 325.329 219.157 325.486 218.984 325.629C218.815 325.772 218.612 325.886 218.374 325.971C218.136 326.055 217.86 326.098 217.544 326.098ZM221.26 321.845V326H220.679V320.717H221.235L221.26 321.845ZM221.128 323.031L220.869 322.885C220.889 322.572 220.952 322.279 221.06 322.006C221.167 321.732 221.312 321.492 221.494 321.283C221.68 321.075 221.896 320.912 222.144 320.795C222.394 320.678 222.671 320.619 222.974 320.619C223.237 320.619 223.473 320.655 223.682 320.727C223.89 320.798 224.067 320.912 224.214 321.068C224.36 321.225 224.471 321.425 224.546 321.669C224.624 321.913 224.663 322.211 224.663 322.562V326H224.077V322.558C224.077 322.193 224.027 321.908 223.926 321.703C223.825 321.495 223.682 321.347 223.496 321.259C223.311 321.171 223.091 321.127 222.837 321.127C222.557 321.127 222.311 321.189 222.1 321.312C221.891 321.433 221.715 321.591 221.572 321.786C221.432 321.978 221.325 322.185 221.25 322.406C221.175 322.624 221.134 322.833 221.128 323.031ZM228.174 320.717V321.195H225.527V320.717H228.174ZM226.499 319.359H227.08V324.716C227.08 324.96 227.113 325.144 227.178 325.268C227.243 325.391 227.327 325.474 227.432 325.517C227.536 325.559 227.648 325.58 227.769 325.58C227.856 325.58 227.941 325.575 228.022 325.565C228.104 325.552 228.177 325.539 228.242 325.526L228.267 326.02C228.195 326.042 228.102 326.06 227.988 326.073C227.874 326.09 227.76 326.098 227.646 326.098C227.422 326.098 227.223 326.057 227.051 325.976C226.878 325.891 226.743 325.748 226.646 325.546C226.548 325.341 226.499 325.062 226.499 324.711V319.359Z" fill="#2B2F42"/>
<path d="M28.836 185.26C28.38 185.26 27.968 185.34 27.6 185.5C27.232 185.652 26.92 185.88 26.664 186.184C26.408 186.48 26.212 186.844 26.076 187.276C25.94 187.7 25.872 188.18 25.872 188.716C25.872 189.42 25.98 190.032 26.196 190.552C26.42 191.072 26.748 191.472 27.18 191.752C27.62 192.032 28.168 192.172 28.824 192.172C29.2 192.172 29.556 192.14 29.892 192.076C30.228 192.012 30.556 191.932 30.876 191.836V192.772C30.556 192.892 30.224 192.98 29.88 193.036C29.544 193.092 29.14 193.12 28.668 193.12C27.796 193.12 27.068 192.94 26.484 192.58C25.9 192.22 25.46 191.708 25.164 191.044C24.876 190.38 24.732 189.6 24.732 188.704C24.732 188.056 24.82 187.464 24.996 186.928C25.18 186.392 25.444 185.928 25.788 185.536C26.14 185.144 26.572 184.844 27.084 184.636C27.596 184.42 28.184 184.312 28.848 184.312C29.288 184.312 29.712 184.356 30.12 184.444C30.528 184.532 30.892 184.656 31.212 184.816L30.78 185.728C30.516 185.608 30.22 185.5 29.892 185.404C29.572 185.308 29.22 185.26 28.836 185.26ZM38.194 189.772C38.194 190.308 38.122 190.784 37.978 191.2C37.842 191.608 37.642 191.956 37.378 192.244C37.122 192.532 36.806 192.752 36.43 192.904C36.062 193.048 35.65 193.12 35.194 193.12C34.77 193.12 34.378 193.048 34.018 192.904C33.658 192.752 33.346 192.532 33.082 192.244C32.818 191.956 32.61 191.608 32.458 191.2C32.314 190.784 32.242 190.308 32.242 189.772C32.242 189.06 32.362 188.46 32.602 187.972C32.842 187.476 33.186 187.1 33.634 186.844C34.082 186.58 34.614 186.448 35.23 186.448C35.814 186.448 36.326 186.58 36.766 186.844C37.214 187.1 37.562 187.476 37.81 187.972C38.066 188.46 38.194 189.06 38.194 189.772ZM33.334 189.772C33.334 190.276 33.398 190.716 33.526 191.092C33.662 191.46 33.87 191.744 34.15 191.944C34.43 192.144 34.786 192.244 35.218 192.244C35.65 192.244 36.006 192.144 36.286 191.944C36.566 191.744 36.77 191.46 36.898 191.092C37.034 190.716 37.102 190.276 37.102 189.772C37.102 189.26 37.034 188.824 36.898 188.464C36.762 188.104 36.554 187.828 36.274 187.636C36.002 187.436 35.646 187.336 35.206 187.336C34.55 187.336 34.074 187.552 33.778 187.984C33.482 188.416 33.334 189.012 33.334 189.772ZM42.8677 186.448C42.9877 186.448 43.1157 186.456 43.2517 186.472C43.3957 186.48 43.5197 186.496 43.6237 186.52L43.4917 187.492C43.3877 187.468 43.2717 187.448 43.1437 187.432C43.0237 187.416 42.9077 187.408 42.7957 187.408C42.5477 187.408 42.3117 187.46 42.0877 187.564C41.8637 187.668 41.6637 187.816 41.4877 188.008C41.3117 188.192 41.1717 188.416 41.0677 188.68C40.9717 188.944 40.9237 189.24 40.9237 189.568V193H39.8677V186.568H40.7317L40.8517 187.744H40.8997C41.0357 187.504 41.1997 187.288 41.3917 187.096C41.5837 186.896 41.8037 186.74 42.0517 186.628C42.2997 186.508 42.5717 186.448 42.8677 186.448ZM47.9207 186.448C48.6887 186.448 49.2687 186.636 49.6607 187.012C50.0527 187.38 50.2487 187.98 50.2487 188.812V193H49.2047V188.884C49.2047 188.364 49.0887 187.976 48.8567 187.72C48.6247 187.464 48.2607 187.336 47.7647 187.336C47.0527 187.336 46.5607 187.536 46.2887 187.936C46.0167 188.336 45.8807 188.912 45.8807 189.664V193H44.8247V186.568H45.6767L45.8327 187.444H45.8927C46.0367 187.22 46.2127 187.036 46.4207 186.892C46.6367 186.74 46.8727 186.628 47.1287 186.556C47.3847 186.484 47.6487 186.448 47.9207 186.448ZM54.7267 186.448C55.2787 186.448 55.7507 186.568 56.1427 186.808C56.5427 187.048 56.8467 187.388 57.0547 187.828C57.2707 188.26 57.3787 188.768 57.3787 189.352V189.988H52.9747C52.9907 190.716 53.1747 191.272 53.5267 191.656C53.8867 192.032 54.3867 192.22 55.0267 192.22C55.4347 192.22 55.7947 192.184 56.1067 192.112C56.4267 192.032 56.7547 191.92 57.0907 191.776V192.7C56.7627 192.844 56.4387 192.948 56.1187 193.012C55.7987 193.084 55.4187 193.12 54.9787 193.12C54.3707 193.12 53.8307 192.996 53.3587 192.748C52.8947 192.5 52.5307 192.132 52.2667 191.644C52.0107 191.148 51.8827 190.544 51.8827 189.832C51.8827 189.128 51.9987 188.524 52.2307 188.02C52.4707 187.516 52.8027 187.128 53.2267 186.856C53.6587 186.584 54.1587 186.448 54.7267 186.448ZM54.7147 187.312C54.2107 187.312 53.8107 187.476 53.5147 187.804C53.2267 188.124 53.0547 188.572 52.9987 189.148H56.2747C56.2747 188.78 56.2187 188.46 56.1067 188.188C55.9947 187.916 55.8227 187.704 55.5907 187.552C55.3667 187.392 55.0747 187.312 54.7147 187.312ZM62.0161 186.448C62.1361 186.448 62.2641 186.456 62.4001 186.472C62.5441 186.48 62.6681 186.496 62.7721 186.52L62.6401 187.492C62.5361 187.468 62.4201 187.448 62.2921 187.432C62.1721 187.416 62.0561 187.408 61.9441 187.408C61.6961 187.408 61.4601 187.46 61.2361 187.564C61.0121 187.668 60.8121 187.816 60.6361 188.008C60.4601 188.192 60.3201 188.416 60.2161 188.68C60.1201 188.944 60.0721 189.24 60.0721 189.568V193H59.0161V186.568H59.8801L60.0001 187.744H60.0481C60.1841 187.504 60.3481 187.288 60.5401 187.096C60.7321 186.896 60.9521 186.74 61.2001 186.628C61.4481 186.508 61.7201 186.448 62.0161 186.448ZM68.1611 191.224C68.1611 191.64 68.0571 191.988 67.8491 192.268C67.6411 192.548 67.3451 192.76 66.9611 192.904C66.5771 193.048 66.1211 193.12 65.5931 193.12C65.1451 193.12 64.7571 193.084 64.4291 193.012C64.1091 192.94 63.8251 192.84 63.5771 192.712V191.752C63.8331 191.88 64.1411 192 64.5011 192.112C64.8691 192.216 65.2411 192.268 65.6171 192.268C66.1531 192.268 66.5411 192.184 66.7811 192.016C67.0211 191.84 67.1411 191.608 67.1411 191.32C67.1411 191.16 67.0971 191.016 67.0091 190.888C66.9211 190.76 66.7611 190.632 66.5291 190.504C66.3051 190.376 65.9811 190.232 65.5571 190.072C65.1411 189.912 64.7851 189.752 64.4891 189.592C64.1931 189.432 63.9651 189.24 63.8051 189.016C63.6451 188.792 63.5651 188.504 63.5651 188.152C63.5651 187.608 63.7851 187.188 64.2251 186.892C64.6731 186.596 65.2571 186.448 65.9771 186.448C66.3691 186.448 66.7331 186.488 67.0691 186.568C67.4131 186.64 67.7331 186.744 68.0291 186.88L67.6691 187.72C67.4931 187.64 67.3051 187.572 67.1051 187.516C66.9131 187.452 66.7171 187.404 66.5171 187.372C66.3171 187.332 66.1131 187.312 65.9051 187.312C65.4731 187.312 65.1411 187.384 64.9091 187.528C64.6851 187.664 64.5731 187.852 64.5731 188.092C64.5731 188.268 64.6251 188.42 64.7291 188.548C64.8331 188.668 65.0051 188.788 65.2451 188.908C65.4931 189.02 65.8211 189.156 66.2291 189.316C66.6371 189.468 66.9851 189.624 67.2731 189.784C67.5611 189.944 67.7811 190.14 67.9331 190.372C68.0851 190.596 68.1611 190.88 68.1611 191.224ZM71.8633 192.256C72.0233 192.256 72.1873 192.244 72.3553 192.22C72.5233 192.188 72.6593 192.156 72.7633 192.124V192.928C72.6513 192.984 72.4913 193.028 72.2833 193.06C72.0753 193.1 71.8753 193.12 71.6833 193.12C71.3473 193.12 71.0353 193.064 70.7473 192.952C70.4673 192.832 70.2393 192.628 70.0633 192.34C69.8873 192.052 69.7993 191.648 69.7993 191.128V187.384H68.8873V186.88L69.8113 186.46L70.2313 185.092H70.8553V186.568H72.7153V187.384H70.8553V191.104C70.8553 191.496 70.9473 191.788 71.1313 191.98C71.3233 192.164 71.5673 192.256 71.8633 192.256ZM79.6432 189.772C79.6432 190.308 79.5713 190.784 79.4273 191.2C79.2913 191.608 79.0913 191.956 78.8273 192.244C78.5713 192.532 78.2553 192.752 77.8793 192.904C77.5113 193.048 77.0993 193.12 76.6433 193.12C76.2193 193.12 75.8273 193.048 75.4673 192.904C75.1073 192.752 74.7953 192.532 74.5312 192.244C74.2673 191.956 74.0593 191.608 73.9073 191.2C73.7633 190.784 73.6913 190.308 73.6913 189.772C73.6913 189.06 73.8113 188.46 74.0513 187.972C74.2913 187.476 74.6353 187.1 75.0833 186.844C75.5313 186.58 76.0633 186.448 76.6793 186.448C77.2633 186.448 77.7753 186.58 78.2153 186.844C78.6633 187.1 79.0113 187.476 79.2593 187.972C79.5153 188.46 79.6432 189.06 79.6432 189.772ZM74.7833 189.772C74.7833 190.276 74.8473 190.716 74.9753 191.092C75.1113 191.46 75.3193 191.744 75.5993 191.944C75.8793 192.144 76.2353 192.244 76.6673 192.244C77.0993 192.244 77.4553 192.144 77.7353 191.944C78.0153 191.744 78.2193 191.46 78.3473 191.092C78.4833 190.716 78.5513 190.276 78.5513 189.772C78.5513 189.26 78.4833 188.824 78.3473 188.464C78.2113 188.104 78.0033 187.828 77.7233 187.636C77.4513 187.436 77.0953 187.336 76.6553 187.336C75.9993 187.336 75.5233 187.552 75.2273 187.984C74.9313 188.416 74.7833 189.012 74.7833 189.772ZM84.4129 186.448C85.1809 186.448 85.7609 186.636 86.1529 187.012C86.5449 187.38 86.7409 187.98 86.7409 188.812V193H85.6969V188.884C85.6969 188.364 85.5809 187.976 85.3489 187.72C85.1169 187.464 84.7529 187.336 84.2569 187.336C83.5449 187.336 83.0529 187.536 82.7809 187.936C82.5089 188.336 82.3729 188.912 82.3729 189.664V193H81.3169V186.568H82.1689L82.3249 187.444H82.3849C82.5289 187.22 82.7049 187.036 82.9129 186.892C83.1289 186.74 83.3649 186.628 83.6209 186.556C83.8769 186.484 84.1409 186.448 84.4129 186.448ZM91.2188 186.448C91.7708 186.448 92.2428 186.568 92.6348 186.808C93.0348 187.048 93.3388 187.388 93.5468 187.828C93.7628 188.26 93.8708 188.768 93.8708 189.352V189.988H89.4668C89.4828 190.716 89.6668 191.272 90.0188 191.656C90.3788 192.032 90.8788 192.22 91.5188 192.22C91.9268 192.22 92.2868 192.184 92.5988 192.112C92.9188 192.032 93.2468 191.92 93.5828 191.776V192.7C93.2548 192.844 92.9308 192.948 92.6108 193.012C92.2908 193.084 91.9108 193.12 91.4708 193.12C90.8628 193.12 90.3228 192.996 89.8508 192.748C89.3868 192.5 89.0228 192.132 88.7588 191.644C88.5028 191.148 88.3748 190.544 88.3748 189.832C88.3748 189.128 88.4908 188.524 88.7228 188.02C88.9628 187.516 89.2948 187.128 89.7188 186.856C90.1508 186.584 90.6508 186.448 91.2188 186.448ZM91.2068 187.312C90.7028 187.312 90.3028 187.476 90.0068 187.804C89.7188 188.124 89.5468 188.572 89.4908 189.148H92.7668C92.7668 188.78 92.7108 188.46 92.5988 188.188C92.4868 187.916 92.3148 187.704 92.0828 187.552C91.8588 187.392 91.5668 187.312 91.2068 187.312ZM101.181 193H98.0855V192.376L99.0935 192.148V185.296L98.0855 185.056V184.432H101.181V185.056L100.173 185.296V192.148L101.181 192.376V193ZM105.788 186.448C106.556 186.448 107.136 186.636 107.528 187.012C107.92 187.38 108.116 187.98 108.116 188.812V193H107.072V188.884C107.072 188.364 106.956 187.976 106.724 187.72C106.492 187.464 106.128 187.336 105.632 187.336C104.92 187.336 104.428 187.536 104.156 187.936C103.884 188.336 103.748 188.912 103.748 189.664V193H102.692V186.568H103.544L103.7 187.444H103.76C103.904 187.22 104.08 187.036 104.288 186.892C104.504 186.74 104.74 186.628 104.996 186.556C105.252 186.484 105.516 186.448 105.788 186.448ZM112.258 192.256C112.418 192.256 112.582 192.244 112.75 192.22C112.918 192.188 113.054 192.156 113.158 192.124V192.928C113.046 192.984 112.886 193.028 112.678 193.06C112.47 193.1 112.27 193.12 112.078 193.12C111.742 193.12 111.43 193.064 111.142 192.952C110.862 192.832 110.634 192.628 110.458 192.34C110.282 192.052 110.194 191.648 110.194 191.128V187.384H109.282V186.88L110.206 186.46L110.626 185.092H111.25V186.568H113.11V187.384H111.25V191.104C111.25 191.496 111.342 191.788 111.526 191.98C111.718 192.164 111.962 192.256 112.258 192.256ZM116.93 186.448C117.482 186.448 117.954 186.568 118.346 186.808C118.746 187.048 119.05 187.388 119.258 187.828C119.474 188.26 119.582 188.768 119.582 189.352V189.988H115.178C115.194 190.716 115.378 191.272 115.73 191.656C116.09 192.032 116.59 192.22 117.23 192.22C117.638 192.22 117.998 192.184 118.31 192.112C118.63 192.032 118.958 191.92 119.294 191.776V192.7C118.966 192.844 118.642 192.948 118.322 193.012C118.002 193.084 117.622 193.12 117.182 193.12C116.574 193.12 116.034 192.996 115.562 192.748C115.098 192.5 114.734 192.132 114.47 191.644C114.214 191.148 114.086 190.544 114.086 189.832C114.086 189.128 114.202 188.524 114.434 188.02C114.674 187.516 115.006 187.128 115.43 186.856C115.862 186.584 116.362 186.448 116.93 186.448ZM116.918 187.312C116.414 187.312 116.014 187.476 115.718 187.804C115.43 188.124 115.258 188.572 115.202 189.148H118.478C118.478 188.78 118.422 188.46 118.31 188.188C118.198 187.916 118.026 187.704 117.794 187.552C117.57 187.392 117.278 187.312 116.918 187.312ZM124.219 186.448C124.339 186.448 124.467 186.456 124.603 186.472C124.747 186.48 124.871 186.496 124.975 186.52L124.843 187.492C124.739 187.468 124.623 187.448 124.495 187.432C124.375 187.416 124.259 187.408 124.147 187.408C123.899 187.408 123.663 187.46 123.439 187.564C123.215 187.668 123.015 187.816 122.839 188.008C122.663 188.192 122.523 188.416 122.419 188.68C122.323 188.944 122.275 189.24 122.275 189.568V193H121.219V186.568H122.083L122.203 187.744H122.251C122.387 187.504 122.551 187.288 122.743 187.096C122.935 186.896 123.155 186.74 123.403 186.628C123.651 186.508 123.923 186.448 124.219 186.448ZM129.272 186.448C130.04 186.448 130.62 186.636 131.012 187.012C131.404 187.38 131.6 187.98 131.6 188.812V193H130.556V188.884C130.556 188.364 130.44 187.976 130.208 187.72C129.976 187.464 129.612 187.336 129.116 187.336C128.404 187.336 127.912 187.536 127.64 187.936C127.368 188.336 127.232 188.912 127.232 189.664V193H126.176V186.568H127.028L127.184 187.444H127.244C127.388 187.22 127.564 187.036 127.772 186.892C127.988 186.74 128.224 186.628 128.48 186.556C128.736 186.484 129 186.448 129.272 186.448ZM136.03 186.46C136.814 186.46 137.394 186.632 137.77 186.976C138.146 187.32 138.334 187.868 138.334 188.62V193H137.566L137.362 192.088H137.314C137.13 192.32 136.938 192.516 136.738 192.676C136.546 192.828 136.322 192.94 136.066 193.012C135.818 193.084 135.514 193.12 135.154 193.12C134.77 193.12 134.422 193.052 134.11 192.916C133.806 192.78 133.566 192.572 133.39 192.292C133.214 192.004 133.126 191.644 133.126 191.212C133.126 190.572 133.378 190.08 133.882 189.736C134.386 189.384 135.162 189.192 136.21 189.16L137.302 189.124V188.74C137.302 188.204 137.186 187.832 136.954 187.624C136.722 187.416 136.394 187.312 135.97 187.312C135.634 187.312 135.314 187.364 135.01 187.468C134.706 187.564 134.422 187.676 134.158 187.804L133.834 187.012C134.114 186.86 134.446 186.732 134.83 186.628C135.214 186.516 135.614 186.46 136.03 186.46ZM136.342 189.892C135.542 189.924 134.986 190.052 134.674 190.276C134.37 190.5 134.218 190.816 134.218 191.224C134.218 191.584 134.326 191.848 134.542 192.016C134.766 192.184 135.05 192.268 135.394 192.268C135.938 192.268 136.39 192.12 136.75 191.824C137.11 191.52 137.29 191.056 137.29 190.432V189.856L136.342 189.892ZM142.469 192.256C142.629 192.256 142.793 192.244 142.961 192.22C143.129 192.188 143.265 192.156 143.369 192.124V192.928C143.257 192.984 143.097 193.028 142.889 193.06C142.681 193.1 142.481 193.12 142.289 193.12C141.953 193.12 141.641 193.064 141.353 192.952C141.073 192.832 140.845 192.628 140.669 192.34C140.493 192.052 140.405 191.648 140.405 191.128V187.384H139.493V186.88L140.417 186.46L140.837 185.092H141.461V186.568H143.321V187.384H141.461V191.104C141.461 191.496 141.553 191.788 141.737 191.98C141.929 192.164 142.173 192.256 142.469 192.256ZM145.713 186.568V193H144.657V186.568H145.713ZM145.197 184.156C145.357 184.156 145.497 184.212 145.617 184.324C145.745 184.428 145.809 184.596 145.809 184.828C145.809 185.052 145.745 185.22 145.617 185.332C145.497 185.444 145.357 185.5 145.197 185.5C145.021 185.5 144.873 185.444 144.753 185.332C144.633 185.22 144.573 185.052 144.573 184.828C144.573 184.596 144.633 184.428 144.753 184.324C144.873 184.212 145.021 184.156 145.197 184.156ZM153.342 189.772C153.342 190.308 153.27 190.784 153.126 191.2C152.99 191.608 152.79 191.956 152.526 192.244C152.27 192.532 151.954 192.752 151.578 192.904C151.21 193.048 150.798 193.12 150.342 193.12C149.918 193.12 149.526 193.048 149.166 192.904C148.806 192.752 148.494 192.532 148.23 192.244C147.966 191.956 147.758 191.608 147.606 191.2C147.462 190.784 147.39 190.308 147.39 189.772C147.39 189.06 147.51 188.46 147.75 187.972C147.99 187.476 148.334 187.1 148.782 186.844C149.23 186.58 149.762 186.448 150.378 186.448C150.962 186.448 151.474 186.58 151.914 186.844C152.362 187.1 152.71 187.476 152.958 187.972C153.214 188.46 153.342 189.06 153.342 189.772ZM148.482 189.772C148.482 190.276 148.546 190.716 148.674 191.092C148.81 191.46 149.018 191.744 149.298 191.944C149.578 192.144 149.934 192.244 150.366 192.244C150.798 192.244 151.154 192.144 151.434 191.944C151.714 191.744 151.918 191.46 152.046 191.092C152.182 190.716 152.25 190.276 152.25 189.772C152.25 189.26 152.182 188.824 152.046 188.464C151.91 188.104 151.702 187.828 151.422 187.636C151.15 187.436 150.794 187.336 150.354 187.336C149.698 187.336 149.222 187.552 148.926 187.984C148.63 188.416 148.482 189.012 148.482 189.772ZM158.112 186.448C158.88 186.448 159.46 186.636 159.852 187.012C160.244 187.38 160.44 187.98 160.44 188.812V193H159.396V188.884C159.396 188.364 159.28 187.976 159.048 187.72C158.816 187.464 158.452 187.336 157.956 187.336C157.244 187.336 156.752 187.536 156.48 187.936C156.208 188.336 156.072 188.912 156.072 189.664V193H155.016V186.568H155.868L156.024 187.444H156.084C156.228 187.22 156.404 187.036 156.612 186.892C156.828 186.74 157.064 186.628 157.32 186.556C157.576 186.484 157.84 186.448 158.112 186.448ZM164.87 186.46C165.654 186.46 166.234 186.632 166.61 186.976C166.986 187.32 167.174 187.868 167.174 188.62V193H166.406L166.202 192.088H166.154C165.97 192.32 165.778 192.516 165.578 192.676C165.386 192.828 165.162 192.94 164.906 193.012C164.658 193.084 164.354 193.12 163.994 193.12C163.61 193.12 163.262 193.052 162.95 192.916C162.646 192.78 162.406 192.572 162.23 192.292C162.054 192.004 161.966 191.644 161.966 191.212C161.966 190.572 162.218 190.08 162.722 189.736C163.226 189.384 164.002 189.192 165.05 189.16L166.142 189.124V188.74C166.142 188.204 166.026 187.832 165.794 187.624C165.562 187.416 165.234 187.312 164.81 187.312C164.474 187.312 164.154 187.364 163.85 187.468C163.546 187.564 163.262 187.676 162.998 187.804L162.674 187.012C162.954 186.86 163.286 186.732 163.67 186.628C164.054 186.516 164.454 186.46 164.87 186.46ZM165.182 189.892C164.382 189.924 163.826 190.052 163.514 190.276C163.21 190.5 163.058 190.816 163.058 191.224C163.058 191.584 163.166 191.848 163.382 192.016C163.606 192.184 163.89 192.268 164.234 192.268C164.778 192.268 165.23 192.12 165.59 191.824C165.95 191.52 166.13 191.056 166.13 190.432V189.856L165.182 189.892ZM170.217 193H169.161V183.88H170.217V193ZM28.836 201.26C28.38 201.26 27.968 201.34 27.6 201.5C27.232 201.652 26.92 201.88 26.664 202.184C26.408 202.48 26.212 202.844 26.076 203.276C25.94 203.7 25.872 204.18 25.872 204.716C25.872 205.42 25.98 206.032 26.196 206.552C26.42 207.072 26.748 207.472 27.18 207.752C27.62 208.032 28.168 208.172 28.824 208.172C29.2 208.172 29.556 208.14 29.892 208.076C30.228 208.012 30.556 207.932 30.876 207.836V208.772C30.556 208.892 30.224 208.98 29.88 209.036C29.544 209.092 29.14 209.12 28.668 209.12C27.796 209.12 27.068 208.94 26.484 208.58C25.9 208.22 25.46 207.708 25.164 207.044C24.876 206.38 24.732 205.6 24.732 204.704C24.732 204.056 24.82 203.464 24.996 202.928C25.18 202.392 25.444 201.928 25.788 201.536C26.14 201.144 26.572 200.844 27.084 200.636C27.596 200.42 28.184 200.312 28.848 200.312C29.288 200.312 29.712 200.356 30.12 200.444C30.528 200.532 30.892 200.656 31.212 200.816L30.78 201.728C30.516 201.608 30.22 201.5 29.892 201.404C29.572 201.308 29.22 201.26 28.836 201.26ZM38.194 205.772C38.194 206.308 38.122 206.784 37.978 207.2C37.842 207.608 37.642 207.956 37.378 208.244C37.122 208.532 36.806 208.752 36.43 208.904C36.062 209.048 35.65 209.12 35.194 209.12C34.77 209.12 34.378 209.048 34.018 208.904C33.658 208.752 33.346 208.532 33.082 208.244C32.818 207.956 32.61 207.608 32.458 207.2C32.314 206.784 32.242 206.308 32.242 205.772C32.242 205.06 32.362 204.46 32.602 203.972C32.842 203.476 33.186 203.1 33.634 202.844C34.082 202.58 34.614 202.448 35.23 202.448C35.814 202.448 36.326 202.58 36.766 202.844C37.214 203.1 37.562 203.476 37.81 203.972C38.066 204.46 38.194 205.06 38.194 205.772ZM33.334 205.772C33.334 206.276 33.398 206.716 33.526 207.092C33.662 207.46 33.87 207.744 34.15 207.944C34.43 208.144 34.786 208.244 35.218 208.244C35.65 208.244 36.006 208.144 36.286 207.944C36.566 207.744 36.77 207.46 36.898 207.092C37.034 206.716 37.102 206.276 37.102 205.772C37.102 205.26 37.034 204.824 36.898 204.464C36.762 204.104 36.554 203.828 36.274 203.636C36.002 203.436 35.646 203.336 35.206 203.336C34.55 203.336 34.074 203.552 33.778 203.984C33.482 204.416 33.334 205.012 33.334 205.772ZM46.9237 202.448C47.6517 202.448 48.1957 202.636 48.5557 203.012C48.9157 203.38 49.0957 203.98 49.0957 204.812V209H48.0517V204.86C48.0517 204.356 47.9437 203.976 47.7277 203.72C47.5197 203.464 47.1917 203.336 46.7437 203.336C46.1197 203.336 45.6717 203.516 45.3997 203.876C45.1357 204.236 45.0037 204.76 45.0037 205.448V209H43.9597V204.86C43.9597 204.524 43.9117 204.244 43.8157 204.02C43.7197 203.788 43.5757 203.616 43.3837 203.504C43.1917 203.392 42.9437 203.336 42.6397 203.336C42.2077 203.336 41.8677 203.428 41.6197 203.612C41.3717 203.788 41.1917 204.048 41.0797 204.392C40.9757 204.736 40.9237 205.16 40.9237 205.664V209H39.8677V202.568H40.7197L40.8757 203.444H40.9357C41.0717 203.22 41.2357 203.036 41.4277 202.892C41.6277 202.74 41.8477 202.628 42.0877 202.556C42.3277 202.484 42.5757 202.448 42.8317 202.448C43.3277 202.448 43.7397 202.536 44.0677 202.712C44.4037 202.888 44.6477 203.16 44.7997 203.528H44.8597C45.0757 203.16 45.3677 202.888 45.7357 202.712C46.1117 202.536 46.5077 202.448 46.9237 202.448ZM58.1385 202.448C58.8665 202.448 59.4105 202.636 59.7705 203.012C60.1305 203.38 60.3105 203.98 60.3105 204.812V209H59.2665V204.86C59.2665 204.356 59.1585 203.976 58.9425 203.72C58.7345 203.464 58.4065 203.336 57.9585 203.336C57.3345 203.336 56.8865 203.516 56.6145 203.876C56.3505 204.236 56.2185 204.76 56.2185 205.448V209H55.1745V204.86C55.1745 204.524 55.1265 204.244 55.0305 204.02C54.9345 203.788 54.7905 203.616 54.5985 203.504C54.4065 203.392 54.1585 203.336 53.8545 203.336C53.4225 203.336 53.0825 203.428 52.8345 203.612C52.5865 203.788 52.4065 204.048 52.2945 204.392C52.1905 204.736 52.1385 205.16 52.1385 205.664V209H51.0825V202.568H51.9345L52.0905 203.444H52.1505C52.2865 203.22 52.4505 203.036 52.6425 202.892C52.8425 202.74 53.0625 202.628 53.3025 202.556C53.5425 202.484 53.7905 202.448 54.0465 202.448C54.5425 202.448 54.9545 202.536 55.2825 202.712C55.6185 202.888 55.8625 203.16 56.0145 203.528H56.0745C56.2905 203.16 56.5825 202.888 56.9505 202.712C57.3265 202.536 57.7225 202.448 58.1385 202.448ZM67.6733 202.568V209H66.8093L66.6533 208.148H66.6053C66.4693 208.372 66.2933 208.556 66.0773 208.7C65.8613 208.844 65.6253 208.948 65.3693 209.012C65.1133 209.084 64.8453 209.12 64.5653 209.12C64.0533 209.12 63.6213 209.04 63.2693 208.88C62.9253 208.712 62.6653 208.456 62.4893 208.112C62.3133 207.768 62.2253 207.324 62.2253 206.78V202.568H63.2933V206.708C63.2933 207.22 63.4093 207.604 63.6413 207.86C63.8733 208.116 64.2333 208.244 64.7213 208.244C65.2013 208.244 65.5773 208.156 65.8493 207.98C66.1293 207.796 66.3253 207.532 66.4373 207.188C66.5573 206.836 66.6173 206.412 66.6173 205.916V202.568H67.6733ZM72.8113 202.448C73.5793 202.448 74.1593 202.636 74.5513 203.012C74.9433 203.38 75.1393 203.98 75.1393 204.812V209H74.0953V204.884C74.0953 204.364 73.9793 203.976 73.7473 203.72C73.5153 203.464 73.1513 203.336 72.6553 203.336C71.9433 203.336 71.4513 203.536 71.1793 203.936C70.9073 204.336 70.7713 204.912 70.7713 205.664V209H69.7153V202.568H70.5673L70.7233 203.444H70.7833C70.9273 203.22 71.1033 203.036 71.3113 202.892C71.5273 202.74 71.7633 202.628 72.0193 202.556C72.2753 202.484 72.5393 202.448 72.8113 202.448ZM78.1893 202.568V209H77.1333V202.568H78.1893ZM77.6733 200.156C77.8333 200.156 77.9733 200.212 78.0933 200.324C78.2213 200.428 78.2853 200.596 78.2853 200.828C78.2853 201.052 78.2213 201.22 78.0933 201.332C77.9733 201.444 77.8333 201.5 77.6733 201.5C77.4973 201.5 77.3493 201.444 77.2293 201.332C77.1093 201.22 77.0493 201.052 77.0493 200.828C77.0493 200.596 77.1093 200.428 77.2293 200.324C77.3493 200.212 77.4973 200.156 77.6733 200.156ZM82.375 208.256C82.535 208.256 82.699 208.244 82.867 208.22C83.035 208.188 83.171 208.156 83.275 208.124V208.928C83.163 208.984 83.003 209.028 82.795 209.06C82.587 209.1 82.387 209.12 82.195 209.12C81.859 209.12 81.547 209.064 81.259 208.952C80.979 208.832 80.751 208.628 80.575 208.34C80.399 208.052 80.311 207.648 80.311 207.128V203.384H79.399V202.88L80.323 202.46L80.743 201.092H81.367V202.568H83.227V203.384H81.367V207.104C81.367 207.496 81.459 207.788 81.643 207.98C81.835 208.164 82.079 208.256 82.375 208.256ZM83.555 202.568H84.683L86.075 206.228C86.155 206.444 86.227 206.652 86.291 206.852C86.363 207.052 86.427 207.248 86.483 207.44C86.539 207.624 86.583 207.804 86.615 207.98H86.663C86.711 207.78 86.787 207.52 86.891 207.2C86.995 206.872 87.103 206.544 87.215 206.216L88.523 202.568H89.663L86.891 209.888C86.739 210.288 86.559 210.636 86.351 210.932C86.151 211.236 85.903 211.468 85.607 211.628C85.319 211.796 84.967 211.88 84.551 211.88C84.359 211.88 84.191 211.868 84.047 211.844C83.903 211.828 83.779 211.808 83.675 211.784V210.944C83.763 210.96 83.867 210.976 83.987 210.992C84.115 211.008 84.247 211.016 84.383 211.016C84.631 211.016 84.843 210.968 85.019 210.872C85.203 210.784 85.359 210.652 85.487 210.476C85.615 210.308 85.723 210.108 85.811 209.876L86.147 209.024L83.555 202.568ZM97.6133 201.26C97.1573 201.26 96.7453 201.34 96.3773 201.5C96.0093 201.652 95.6973 201.88 95.4413 202.184C95.1853 202.48 94.9893 202.844 94.8533 203.276C94.7173 203.7 94.6493 204.18 94.6493 204.716C94.6493 205.42 94.7573 206.032 94.9733 206.552C95.1973 207.072 95.5253 207.472 95.9573 207.752C96.3973 208.032 96.9453 208.172 97.6013 208.172C97.9773 208.172 98.3333 208.14 98.6693 208.076C99.0053 208.012 99.3333 207.932 99.6533 207.836V208.772C99.3333 208.892 99.0013 208.98 98.6573 209.036C98.3213 209.092 97.9173 209.12 97.4453 209.12C96.5733 209.12 95.8453 208.94 95.2613 208.58C94.6773 208.22 94.2373 207.708 93.9413 207.044C93.6533 206.38 93.5093 205.6 93.5093 204.704C93.5093 204.056 93.5973 203.464 93.7733 202.928C93.9573 202.392 94.2213 201.928 94.5653 201.536C94.9173 201.144 95.3493 200.844 95.8613 200.636C96.3733 200.42 96.9613 200.312 97.6253 200.312C98.0653 200.312 98.4893 200.356 98.8973 200.444C99.3053 200.532 99.6693 200.656 99.9893 200.816L99.5573 201.728C99.2933 201.608 98.9973 201.5 98.6693 201.404C98.3493 201.308 97.9973 201.26 97.6133 201.26ZM106.971 205.772C106.971 206.308 106.899 206.784 106.755 207.2C106.619 207.608 106.419 207.956 106.155 208.244C105.899 208.532 105.583 208.752 105.207 208.904C104.839 209.048 104.427 209.12 103.971 209.12C103.547 209.12 103.155 209.048 102.795 208.904C102.435 208.752 102.123 208.532 101.859 208.244C101.595 207.956 101.387 207.608 101.235 207.2C101.091 206.784 101.019 206.308 101.019 205.772C101.019 205.06 101.139 204.46 101.379 203.972C101.619 203.476 101.963 203.1 102.411 202.844C102.859 202.58 103.391 202.448 104.007 202.448C104.591 202.448 105.103 202.58 105.543 202.844C105.991 203.1 106.339 203.476 106.587 203.972C106.843 204.46 106.971 205.06 106.971 205.772ZM102.111 205.772C102.111 206.276 102.175 206.716 102.303 207.092C102.439 207.46 102.647 207.744 102.927 207.944C103.207 208.144 103.563 208.244 103.995 208.244C104.427 208.244 104.783 208.144 105.063 207.944C105.343 207.744 105.547 207.46 105.675 207.092C105.811 206.716 105.879 206.276 105.879 205.772C105.879 205.26 105.811 204.824 105.675 204.464C105.539 204.104 105.331 203.828 105.051 203.636C104.779 203.436 104.423 203.336 103.983 203.336C103.327 203.336 102.851 203.552 102.555 203.984C102.259 204.416 102.111 205.012 102.111 205.772ZM109.701 209H108.645V199.88H109.701V209ZM112.795 209H111.739V199.88H112.795V209ZM117.317 202.448C117.869 202.448 118.341 202.568 118.733 202.808C119.133 203.048 119.437 203.388 119.645 203.828C119.861 204.26 119.969 204.768 119.969 205.352V205.988H115.565C115.581 206.716 115.765 207.272 116.117 207.656C116.477 208.032 116.977 208.22 117.617 208.22C118.025 208.22 118.385 208.184 118.697 208.112C119.017 208.032 119.345 207.92 119.681 207.776V208.7C119.353 208.844 119.029 208.948 118.709 209.012C118.389 209.084 118.009 209.12 117.569 209.12C116.961 209.12 116.421 208.996 115.949 208.748C115.485 208.5 115.121 208.132 114.857 207.644C114.601 207.148 114.473 206.544 114.473 205.832C114.473 205.128 114.589 204.524 114.821 204.02C115.061 203.516 115.393 203.128 115.817 202.856C116.249 202.584 116.749 202.448 117.317 202.448ZM117.305 203.312C116.801 203.312 116.401 203.476 116.105 203.804C115.817 204.124 115.645 204.572 115.589 205.148H118.865C118.865 204.78 118.809 204.46 118.697 204.188C118.585 203.916 118.413 203.704 118.181 203.552C117.957 203.392 117.665 203.312 117.305 203.312ZM123.886 202.448C124.31 202.448 124.69 202.528 125.026 202.688C125.37 202.848 125.662 203.092 125.902 203.42H125.962L126.106 202.568H126.946V209.108C126.946 209.716 126.842 210.224 126.634 210.632C126.426 211.048 126.11 211.36 125.686 211.568C125.262 211.776 124.722 211.88 124.066 211.88C123.602 211.88 123.174 211.844 122.782 211.772C122.398 211.708 122.054 211.608 121.75 211.472V210.5C121.958 210.604 122.186 210.692 122.434 210.764C122.682 210.844 122.95 210.904 123.238 210.944C123.526 210.984 123.822 211.004 124.126 211.004C124.678 211.004 125.11 210.84 125.422 210.512C125.742 210.192 125.902 209.752 125.902 209.192V208.94C125.902 208.844 125.906 208.708 125.914 208.532C125.922 208.348 125.93 208.22 125.938 208.148H125.89C125.666 208.476 125.386 208.72 125.05 208.88C124.722 209.04 124.338 209.12 123.898 209.12C123.066 209.12 122.414 208.828 121.942 208.244C121.478 207.66 121.246 206.844 121.246 205.796C121.246 205.108 121.35 204.516 121.558 204.02C121.774 203.516 122.078 203.128 122.47 202.856C122.862 202.584 123.334 202.448 123.886 202.448ZM124.03 203.336C123.67 203.336 123.362 203.432 123.106 203.624C122.858 203.816 122.666 204.096 122.53 204.464C122.402 204.832 122.338 205.28 122.338 205.808C122.338 206.6 122.482 207.208 122.77 207.632C123.066 208.048 123.494 208.256 124.054 208.256C124.382 208.256 124.662 208.216 124.894 208.136C125.126 208.048 125.318 207.916 125.47 207.74C125.622 207.556 125.734 207.324 125.806 207.044C125.878 206.764 125.914 206.432 125.914 206.048V205.796C125.914 205.212 125.846 204.74 125.71 204.38C125.582 204.02 125.378 203.756 125.098 203.588C124.818 203.42 124.462 203.336 124.03 203.336ZM131.473 202.448C132.025 202.448 132.497 202.568 132.889 202.808C133.289 203.048 133.593 203.388 133.801 203.828C134.017 204.26 134.125 204.768 134.125 205.352V205.988H129.721C129.737 206.716 129.921 207.272 130.273 207.656C130.633 208.032 131.133 208.22 131.773 208.22C132.181 208.22 132.541 208.184 132.853 208.112C133.173 208.032 133.501 207.92 133.837 207.776V208.7C133.509 208.844 133.185 208.948 132.865 209.012C132.545 209.084 132.165 209.12 131.725 209.12C131.117 209.12 130.577 208.996 130.105 208.748C129.641 208.5 129.277 208.132 129.013 207.644C128.757 207.148 128.629 206.544 128.629 205.832C128.629 205.128 128.745 204.524 128.977 204.02C129.217 203.516 129.549 203.128 129.973 202.856C130.405 202.584 130.905 202.448 131.473 202.448ZM131.461 203.312C130.957 203.312 130.557 203.476 130.261 203.804C129.973 204.124 129.801 204.572 129.745 205.148H133.021C133.021 204.78 132.965 204.46 132.853 204.188C132.741 203.916 132.569 203.704 132.337 203.552C132.113 203.392 131.821 203.312 131.461 203.312ZM27.612 216.432C28.324 216.432 28.92 216.5 29.4 216.636C29.888 216.772 30.252 216.996 30.492 217.308C30.74 217.62 30.864 218.036 30.864 218.556C30.864 218.892 30.8 219.192 30.672 219.456C30.552 219.712 30.368 219.928 30.12 220.104C29.88 220.272 29.584 220.388 29.232 220.452V220.512C29.592 220.568 29.916 220.672 30.204 220.824C30.5 220.976 30.732 221.192 30.9 221.472C31.068 221.752 31.152 222.116 31.152 222.564C31.152 223.084 31.032 223.528 30.792 223.896C30.552 224.256 30.208 224.532 29.76 224.724C29.32 224.908 28.792 225 28.176 225H25.164V216.432H27.612ZM27.828 220.08C28.564 220.08 29.068 219.964 29.34 219.732C29.612 219.492 29.748 219.14 29.748 218.676C29.748 218.204 29.58 217.868 29.244 217.668C28.916 217.46 28.388 217.356 27.66 217.356H26.244V220.08H27.828ZM26.244 220.98V224.088H27.972C28.732 224.088 29.26 223.94 29.556 223.644C29.852 223.348 30 222.96 30 222.48C30 222.176 29.932 221.912 29.796 221.688C29.668 221.464 29.448 221.292 29.136 221.172C28.832 221.044 28.416 220.98 27.888 220.98H26.244ZM35.8247 218.448C35.9447 218.448 36.0727 218.456 36.2087 218.472C36.3527 218.48 36.4767 218.496 36.5807 218.52L36.4487 219.492C36.3447 219.468 36.2287 219.448 36.1007 219.432C35.9807 219.416 35.8647 219.408 35.7527 219.408C35.5047 219.408 35.2687 219.46 35.0447 219.564C34.8207 219.668 34.6207 219.816 34.4447 220.008C34.2687 220.192 34.1287 220.416 34.0247 220.68C33.9287 220.944 33.8807 221.24 33.8807 221.568V225H32.8247V218.568H33.6887L33.8087 219.744H33.8567C33.9927 219.504 34.1567 219.288 34.3487 219.096C34.5407 218.896 34.7607 218.74 35.0087 218.628C35.2567 218.508 35.5287 218.448 35.8247 218.448ZM38.8377 218.568V225H37.7817V218.568H38.8377ZM38.3217 216.156C38.4817 216.156 38.6217 216.212 38.7417 216.324C38.8697 216.428 38.9337 216.596 38.9337 216.828C38.9337 217.052 38.8697 217.22 38.7417 217.332C38.6217 217.444 38.4817 217.5 38.3217 217.5C38.1457 217.5 37.9977 217.444 37.8777 217.332C37.7577 217.22 37.6977 217.052 37.6977 216.828C37.6977 216.596 37.7577 216.428 37.8777 216.324C37.9977 216.212 38.1457 216.156 38.3217 216.156ZM43.0235 224.256C43.1835 224.256 43.3475 224.244 43.5155 224.22C43.6835 224.188 43.8195 224.156 43.9235 224.124V224.928C43.8115 224.984 43.6515 225.028 43.4435 225.06C43.2355 225.1 43.0355 225.12 42.8435 225.12C42.5075 225.12 42.1955 225.064 41.9075 224.952C41.6275 224.832 41.3995 224.628 41.2235 224.34C41.0475 224.052 40.9595 223.648 40.9595 223.128V219.384H40.0475V218.88L40.9715 218.46L41.3915 217.092H42.0155V218.568H43.8755V219.384H42.0155V223.104C42.0155 223.496 42.1075 223.788 42.2915 223.98C42.4835 224.164 42.7275 224.256 43.0235 224.256ZM46.2674 218.568V225H45.2114V218.568H46.2674ZM45.7514 216.156C45.9114 216.156 46.0514 216.212 46.1714 216.324C46.2994 216.428 46.3634 216.596 46.3634 216.828C46.3634 217.052 46.2994 217.22 46.1714 217.332C46.0514 217.444 45.9114 217.5 45.7514 217.5C45.5754 217.5 45.4274 217.444 45.3074 217.332C45.1874 217.22 45.1274 217.052 45.1274 216.828C45.1274 216.596 45.1874 216.428 45.3074 216.324C45.4274 216.212 45.5754 216.156 45.7514 216.156ZM52.4932 223.224C52.4932 223.64 52.3892 223.988 52.1812 224.268C51.9732 224.548 51.6772 224.76 51.2932 224.904C50.9092 225.048 50.4532 225.12 49.9252 225.12C49.4772 225.12 49.0892 225.084 48.7612 225.012C48.4412 224.94 48.1572 224.84 47.9092 224.712V223.752C48.1652 223.88 48.4732 224 48.8332 224.112C49.2012 224.216 49.5732 224.268 49.9492 224.268C50.4852 224.268 50.8732 224.184 51.1132 224.016C51.3532 223.84 51.4732 223.608 51.4732 223.32C51.4732 223.16 51.4292 223.016 51.3412 222.888C51.2532 222.76 51.0932 222.632 50.8612 222.504C50.6372 222.376 50.3132 222.232 49.8892 222.072C49.4732 221.912 49.1172 221.752 48.8212 221.592C48.5252 221.432 48.2972 221.24 48.1372 221.016C47.9772 220.792 47.8972 220.504 47.8972 220.152C47.8972 219.608 48.1172 219.188 48.5572 218.892C49.0052 218.596 49.5892 218.448 50.3092 218.448C50.7012 218.448 51.0652 218.488 51.4012 218.568C51.7452 218.64 52.0652 218.744 52.3612 218.88L52.0012 219.72C51.8252 219.64 51.6372 219.572 51.4372 219.516C51.2452 219.452 51.0492 219.404 50.8492 219.372C50.6492 219.332 50.4452 219.312 50.2372 219.312C49.8052 219.312 49.4732 219.384 49.2412 219.528C49.0172 219.664 48.9052 219.852 48.9052 220.092C48.9052 220.268 48.9572 220.42 49.0612 220.548C49.1652 220.668 49.3372 220.788 49.5772 220.908C49.8252 221.02 50.1532 221.156 50.5612 221.316C50.9692 221.468 51.3172 221.624 51.6052 221.784C51.8932 221.944 52.1132 222.14 52.2652 222.372C52.4172 222.596 52.4932 222.88 52.4932 223.224ZM55.1033 218.556C55.1033 218.708 55.0953 218.864 55.0793 219.024C55.0713 219.184 55.0593 219.328 55.0433 219.456H55.1153C55.2513 219.232 55.4233 219.048 55.6313 218.904C55.8393 218.76 56.0713 218.652 56.3273 218.58C56.5833 218.5 56.8473 218.46 57.1193 218.46C57.6393 218.46 58.0713 218.544 58.4153 218.712C58.7673 218.872 59.0313 219.124 59.2073 219.468C59.3833 219.812 59.4713 220.26 59.4713 220.812V225H58.4273V220.884C58.4273 220.364 58.3113 219.976 58.0793 219.72C57.8473 219.464 57.4833 219.336 56.9873 219.336C56.5073 219.336 56.1313 219.428 55.8593 219.612C55.5873 219.788 55.3913 220.052 55.2713 220.404C55.1593 220.748 55.1033 221.172 55.1033 221.676V225H54.0473V215.88H55.1033V218.556ZM68.3985 217.26C67.9425 217.26 67.5305 217.34 67.1625 217.5C66.7945 217.652 66.4825 217.88 66.2265 218.184C65.9705 218.48 65.7745 218.844 65.6385 219.276C65.5025 219.7 65.4345 220.18 65.4345 220.716C65.4345 221.42 65.5425 222.032 65.7585 222.552C65.9825 223.072 66.3105 223.472 66.7425 223.752C67.1825 224.032 67.7305 224.172 68.3865 224.172C68.7625 224.172 69.1185 224.14 69.4545 224.076C69.7905 224.012 70.1185 223.932 70.4385 223.836V224.772C70.1185 224.892 69.7865 224.98 69.4425 225.036C69.1065 225.092 68.7025 225.12 68.2305 225.12C67.3585 225.12 66.6305 224.94 66.0465 224.58C65.4625 224.22 65.0225 223.708 64.7265 223.044C64.4385 222.38 64.2945 221.6 64.2945 220.704C64.2945 220.056 64.3825 219.464 64.5585 218.928C64.7425 218.392 65.0065 217.928 65.3505 217.536C65.7025 217.144 66.1345 216.844 66.6465 216.636C67.1585 216.42 67.7465 216.312 68.4105 216.312C68.8505 216.312 69.2745 216.356 69.6825 216.444C70.0905 216.532 70.4545 216.656 70.7745 216.816L70.3425 217.728C70.0785 217.608 69.7825 217.5 69.4545 217.404C69.1345 217.308 68.7825 217.26 68.3985 217.26ZM77.7565 221.772C77.7565 222.308 77.6845 222.784 77.5405 223.2C77.4045 223.608 77.2045 223.956 76.9405 224.244C76.6845 224.532 76.3685 224.752 75.9925 224.904C75.6245 225.048 75.2125 225.12 74.7565 225.12C74.3325 225.12 73.9405 225.048 73.5805 224.904C73.2205 224.752 72.9085 224.532 72.6445 224.244C72.3805 223.956 72.1725 223.608 72.0205 223.2C71.8765 222.784 71.8045 222.308 71.8045 221.772C71.8045 221.06 71.9245 220.46 72.1645 219.972C72.4045 219.476 72.7485 219.1 73.1965 218.844C73.6445 218.58 74.1765 218.448 74.7925 218.448C75.3765 218.448 75.8885 218.58 76.3285 218.844C76.7765 219.1 77.1245 219.476 77.3725 219.972C77.6285 220.46 77.7565 221.06 77.7565 221.772ZM72.8965 221.772C72.8965 222.276 72.9605 222.716 73.0885 223.092C73.2245 223.46 73.4325 223.744 73.7125 223.944C73.9925 224.144 74.3485 224.244 74.7805 224.244C75.2125 224.244 75.5685 224.144 75.8485 223.944C76.1285 223.744 76.3325 223.46 76.4605 223.092C76.5965 222.716 76.6645 222.276 76.6645 221.772C76.6645 221.26 76.5965 220.824 76.4605 220.464C76.3245 220.104 76.1165 219.828 75.8365 219.636C75.5645 219.436 75.2085 219.336 74.7685 219.336C74.1125 219.336 73.6365 219.552 73.3405 219.984C73.0445 220.416 72.8965 221.012 72.8965 221.772ZM80.4862 225H79.4302V215.88H80.4862V225ZM87.8999 218.568V225H87.0359L86.8799 224.148H86.8319C86.6959 224.372 86.5199 224.556 86.3039 224.7C86.0879 224.844 85.8519 224.948 85.5959 225.012C85.3399 225.084 85.0719 225.12 84.7919 225.12C84.2799 225.12 83.8479 225.04 83.4959 224.88C83.1519 224.712 82.8919 224.456 82.7159 224.112C82.5399 223.768 82.4519 223.324 82.4519 222.78V218.568H83.5199V222.708C83.5199 223.22 83.6359 223.604 83.8679 223.86C84.0999 224.116 84.4599 224.244 84.9479 224.244C85.4279 224.244 85.8039 224.156 86.0759 223.98C86.3559 223.796 86.5519 223.532 86.6639 223.188C86.7839 222.836 86.8439 222.412 86.8439 221.916V218.568H87.8999ZM96.9979 218.448C97.7259 218.448 98.2699 218.636 98.6299 219.012C98.9899 219.38 99.1699 219.98 99.1699 220.812V225H98.1259V220.86C98.1259 220.356 98.0179 219.976 97.8019 219.72C97.5939 219.464 97.2659 219.336 96.8179 219.336C96.1939 219.336 95.7459 219.516 95.4739 219.876C95.2099 220.236 95.0779 220.76 95.0779 221.448V225H94.0339V220.86C94.0339 220.524 93.9859 220.244 93.8899 220.02C93.7939 219.788 93.6499 219.616 93.4579 219.504C93.2659 219.392 93.0179 219.336 92.7139 219.336C92.2819 219.336 91.9419 219.428 91.6939 219.612C91.4459 219.788 91.2659 220.048 91.1539 220.392C91.0499 220.736 90.9979 221.16 90.9979 221.664V225H89.9419V218.568H90.7939L90.9499 219.444H91.0099C91.1459 219.22 91.3099 219.036 91.5019 218.892C91.7019 218.74 91.9219 218.628 92.1619 218.556C92.4019 218.484 92.6499 218.448 92.9059 218.448C93.4019 218.448 93.8139 218.536 94.1419 218.712C94.4779 218.888 94.7219 219.16 94.8739 219.528H94.9339C95.1499 219.16 95.4419 218.888 95.8099 218.712C96.1859 218.536 96.5819 218.448 96.9979 218.448ZM102.213 218.1C102.213 218.372 102.205 218.628 102.189 218.868C102.181 219.1 102.169 219.284 102.153 219.42H102.213C102.397 219.148 102.649 218.92 102.969 218.736C103.289 218.552 103.701 218.46 104.205 218.46C105.005 218.46 105.645 218.74 106.125 219.3C106.613 219.852 106.857 220.68 106.857 221.784C106.857 222.52 106.745 223.136 106.521 223.632C106.305 224.128 105.997 224.5 105.597 224.748C105.197 224.996 104.733 225.12 104.205 225.12C103.701 225.12 103.289 225.028 102.969 224.844C102.649 224.66 102.397 224.44 102.213 224.184H102.129L101.913 225H101.157V215.88H102.213V218.1ZM104.025 219.336C103.569 219.336 103.209 219.424 102.945 219.6C102.681 219.768 102.493 220.032 102.381 220.392C102.269 220.744 102.213 221.196 102.213 221.748V221.796C102.213 222.588 102.341 223.196 102.597 223.62C102.861 224.036 103.345 224.244 104.049 224.244C104.625 224.244 105.053 224.032 105.333 223.608C105.621 223.184 105.765 222.572 105.765 221.772C105.765 220.964 105.621 220.356 105.333 219.948C105.053 219.54 104.617 219.336 104.025 219.336ZM109.596 218.568V225H108.54V218.568H109.596ZM109.08 216.156C109.24 216.156 109.38 216.212 109.5 216.324C109.628 216.428 109.692 216.596 109.692 216.828C109.692 217.052 109.628 217.22 109.5 217.332C109.38 217.444 109.24 217.5 109.08 217.5C108.904 217.5 108.756 217.444 108.636 217.332C108.516 217.22 108.456 217.052 108.456 216.828C108.456 216.596 108.516 216.428 108.636 216.324C108.756 216.212 108.904 216.156 109.08 216.156ZM114.069 218.46C114.853 218.46 115.433 218.632 115.809 218.976C116.185 219.32 116.373 219.868 116.373 220.62V225H115.605L115.401 224.088H115.353C115.169 224.32 114.977 224.516 114.777 224.676C114.585 224.828 114.361 224.94 114.105 225.012C113.857 225.084 113.553 225.12 113.193 225.12C112.809 225.12 112.461 225.052 112.149 224.916C111.845 224.78 111.605 224.572 111.429 224.292C111.253 224.004 111.165 223.644 111.165 223.212C111.165 222.572 111.417 222.08 111.921 221.736C112.425 221.384 113.201 221.192 114.249 221.16L115.341 221.124V220.74C115.341 220.204 115.225 219.832 114.993 219.624C114.761 219.416 114.433 219.312 114.009 219.312C113.673 219.312 113.353 219.364 113.049 219.468C112.745 219.564 112.461 219.676 112.197 219.804L111.873 219.012C112.153 218.86 112.485 218.732 112.869 218.628C113.253 218.516 113.653 218.46 114.069 218.46ZM114.381 221.892C113.581 221.924 113.025 222.052 112.713 222.276C112.409 222.5 112.257 222.816 112.257 223.224C112.257 223.584 112.365 223.848 112.581 224.016C112.805 224.184 113.089 224.268 113.433 224.268C113.977 224.268 114.429 224.12 114.789 223.824C115.149 223.52 115.329 223.056 115.329 222.432V221.856L114.381 221.892ZM119.644 223.74C119.572 224.02 119.48 224.324 119.368 224.652C119.256 224.98 119.132 225.304 118.996 225.624C118.868 225.952 118.74 226.26 118.612 226.548H117.832C117.912 226.244 117.988 225.916 118.06 225.564C118.14 225.22 118.212 224.88 118.276 224.544C118.34 224.2 118.392 223.888 118.432 223.608H119.56L119.644 223.74ZM128.504 217.26C128.048 217.26 127.636 217.34 127.268 217.5C126.9 217.652 126.588 217.88 126.332 218.184C126.076 218.48 125.88 218.844 125.744 219.276C125.608 219.7 125.54 220.18 125.54 220.716C125.54 221.42 125.648 222.032 125.864 222.552C126.088 223.072 126.416 223.472 126.848 223.752C127.288 224.032 127.836 224.172 128.492 224.172C128.868 224.172 129.224 224.14 129.56 224.076C129.896 224.012 130.224 223.932 130.544 223.836V224.772C130.224 224.892 129.892 224.98 129.548 225.036C129.212 225.092 128.808 225.12 128.336 225.12C127.464 225.12 126.736 224.94 126.152 224.58C125.568 224.22 125.128 223.708 124.832 223.044C124.544 222.38 124.4 221.6 124.4 220.704C124.4 220.056 124.488 219.464 124.664 218.928C124.848 218.392 125.112 217.928 125.456 217.536C125.808 217.144 126.24 216.844 126.752 216.636C127.264 216.42 127.852 216.312 128.516 216.312C128.956 216.312 129.38 216.356 129.788 216.444C130.196 216.532 130.56 216.656 130.88 216.816L130.448 217.728C130.184 217.608 129.888 217.5 129.56 217.404C129.24 217.308 128.888 217.26 128.504 217.26ZM134.706 218.46C135.49 218.46 136.07 218.632 136.446 218.976C136.822 219.32 137.01 219.868 137.01 220.62V225H136.242L136.038 224.088H135.99C135.806 224.32 135.614 224.516 135.414 224.676C135.222 224.828 134.998 224.94 134.742 225.012C134.494 225.084 134.19 225.12 133.83 225.12C133.446 225.12 133.098 225.052 132.786 224.916C132.482 224.78 132.242 224.572 132.066 224.292C131.89 224.004 131.802 223.644 131.802 223.212C131.802 222.572 132.054 222.08 132.558 221.736C133.062 221.384 133.838 221.192 134.886 221.16L135.978 221.124V220.74C135.978 220.204 135.862 219.832 135.63 219.624C135.398 219.416 135.07 219.312 134.646 219.312C134.31 219.312 133.99 219.364 133.686 219.468C133.382 219.564 133.098 219.676 132.834 219.804L132.51 219.012C132.79 218.86 133.122 218.732 133.506 218.628C133.89 218.516 134.29 218.46 134.706 218.46ZM135.018 221.892C134.218 221.924 133.662 222.052 133.35 222.276C133.046 222.5 132.894 222.816 132.894 223.224C132.894 223.584 133.002 223.848 133.218 224.016C133.442 224.184 133.726 224.268 134.07 224.268C134.614 224.268 135.066 224.12 135.426 223.824C135.786 223.52 135.966 223.056 135.966 222.432V221.856L135.018 221.892ZM142.093 218.448C142.861 218.448 143.441 218.636 143.833 219.012C144.225 219.38 144.421 219.98 144.421 220.812V225H143.377V220.884C143.377 220.364 143.261 219.976 143.029 219.72C142.797 219.464 142.433 219.336 141.937 219.336C141.225 219.336 140.733 219.536 140.461 219.936C140.189 220.336 140.053 220.912 140.053 221.664V225H138.997V218.568H139.849L140.005 219.444H140.065C140.209 219.22 140.385 219.036 140.593 218.892C140.809 218.74 141.045 218.628 141.301 218.556C141.557 218.484 141.821 218.448 142.093 218.448ZM148.851 218.46C149.635 218.46 150.215 218.632 150.591 218.976C150.967 219.32 151.155 219.868 151.155 220.62V225H150.387L150.183 224.088H150.135C149.951 224.32 149.759 224.516 149.559 224.676C149.367 224.828 149.143 224.94 148.887 225.012C148.639 225.084 148.335 225.12 147.975 225.12C147.591 225.12 147.243 225.052 146.931 224.916C146.627 224.78 146.387 224.572 146.211 224.292C146.035 224.004 145.947 223.644 145.947 223.212C145.947 222.572 146.199 222.08 146.703 221.736C147.207 221.384 147.983 221.192 149.031 221.16L150.123 221.124V220.74C150.123 220.204 150.007 219.832 149.775 219.624C149.543 219.416 149.215 219.312 148.791 219.312C148.455 219.312 148.135 219.364 147.831 219.468C147.527 219.564 147.243 219.676 146.979 219.804L146.655 219.012C146.935 218.86 147.267 218.732 147.651 218.628C148.035 218.516 148.435 218.46 148.851 218.46ZM149.163 221.892C148.363 221.924 147.807 222.052 147.495 222.276C147.191 222.5 147.039 222.816 147.039 223.224C147.039 223.584 147.147 223.848 147.363 224.016C147.587 224.184 147.871 224.268 148.215 224.268C148.759 224.268 149.211 224.12 149.571 223.824C149.931 223.52 150.111 223.056 150.111 222.432V221.856L149.163 221.892ZM155.421 225.12C154.621 225.12 153.981 224.844 153.501 224.292C153.021 223.732 152.781 222.9 152.781 221.796C152.781 220.692 153.021 219.86 153.501 219.3C153.989 218.732 154.633 218.448 155.433 218.448C155.769 218.448 156.061 218.492 156.309 218.58C156.557 218.66 156.773 218.772 156.957 218.916C157.141 219.06 157.297 219.22 157.425 219.396H157.497C157.489 219.292 157.473 219.14 157.449 218.94C157.433 218.732 157.425 218.568 157.425 218.448V215.88H158.481V225H157.629L157.473 224.136H157.425C157.297 224.32 157.141 224.488 156.957 224.64C156.773 224.784 156.553 224.9 156.297 224.988C156.049 225.076 155.757 225.12 155.421 225.12ZM155.589 224.244C156.269 224.244 156.745 224.06 157.017 223.692C157.297 223.316 157.437 222.752 157.437 222V221.808C157.437 221.008 157.305 220.396 157.041 219.972C156.777 219.54 156.289 219.324 155.577 219.324C155.009 219.324 154.581 219.552 154.293 220.008C154.013 220.456 153.873 221.06 153.873 221.82C153.873 222.588 154.013 223.184 154.293 223.608C154.581 224.032 155.013 224.244 155.589 224.244ZM162.96 218.46C163.744 218.46 164.324 218.632 164.7 218.976C165.076 219.32 165.264 219.868 165.264 220.62V225H164.496L164.292 224.088H164.244C164.06 224.32 163.868 224.516 163.668 224.676C163.476 224.828 163.252 224.94 162.996 225.012C162.748 225.084 162.444 225.12 162.084 225.12C161.7 225.12 161.352 225.052 161.04 224.916C160.736 224.78 160.496 224.572 160.32 224.292C160.144 224.004 160.056 223.644 160.056 223.212C160.056 222.572 160.308 222.08 160.812 221.736C161.316 221.384 162.092 221.192 163.14 221.16L164.232 221.124V220.74C164.232 220.204 164.116 219.832 163.884 219.624C163.652 219.416 163.324 219.312 162.9 219.312C162.564 219.312 162.244 219.364 161.94 219.468C161.636 219.564 161.352 219.676 161.088 219.804L160.764 219.012C161.044 218.86 161.376 218.732 161.76 218.628C162.144 218.516 162.544 218.46 162.96 218.46ZM163.272 221.892C162.472 221.924 161.916 222.052 161.604 222.276C161.3 222.5 161.148 222.816 161.148 223.224C161.148 223.584 161.256 223.848 161.472 224.016C161.696 224.184 161.98 224.268 162.324 224.268C162.868 224.268 163.32 224.12 163.68 223.824C164.04 223.52 164.22 223.056 164.22 222.432V221.856L163.272 221.892Z" fill="#575353"/>
<path d="M45.472 67.936C45.472 69.5147 45.12 70.944 44.416 72.224C43.7333 73.4827 42.688 74.4853 41.28 75.232C39.8933 75.9573 38.1333 76.32 36 76.32C32.9707 76.32 30.6667 75.552 29.088 74.016C27.5093 72.4587 26.72 70.4107 26.72 67.872V53.152H31.552V67.136C31.552 69.0133 31.936 70.336 32.704 71.104C33.472 71.872 34.6133 72.256 36.128 72.256C37.1947 72.256 38.0587 72.0747 38.72 71.712C39.3813 71.3493 39.8613 70.784 40.16 70.016C40.48 69.248 40.64 68.2773 40.64 67.104V53.152H45.472V67.936ZM69.5315 76H63.9955L58.6835 67.36L53.3715 76H48.1875L55.7715 64.224L48.6675 53.152H54.0115L58.9395 61.376L63.7715 53.152H68.9875L61.8195 64.48L69.5315 76ZM70.4913 69.376V65.472H78.8753V69.376H70.4913ZM101.316 67.936C101.316 69.5147 100.964 70.944 100.26 72.224C99.5771 73.4827 98.5318 74.4853 97.1238 75.232C95.7371 75.9573 93.9771 76.32 91.8438 76.32C88.8144 76.32 86.5104 75.552 84.9318 74.016C83.3531 72.4587 82.5638 70.4107 82.5638 67.872V53.152H87.3958V67.136C87.3958 69.0133 87.7798 70.336 88.5478 71.104C89.3158 71.872 90.4571 72.256 91.9718 72.256C93.0384 72.256 93.9024 72.0747 94.5638 71.712C95.2251 71.3493 95.7051 70.784 96.0037 70.016C96.3238 69.248 96.4838 68.2773 96.4838 67.104V53.152H101.316V67.936ZM115.455 76H105.055V73.248L107.839 71.968V57.184L105.055 55.904V53.152H115.455V55.904L112.671 57.184V71.968L115.455 73.248V76ZM45.824 108.352C45.824 110.912 45.3333 113.056 44.352 114.784C43.3707 116.512 41.9413 117.813 40.064 118.688C38.208 119.563 35.968 120 33.344 120H26.88V97.152H34.048C36.4373 97.152 38.5067 97.5787 40.256 98.432C42.0267 99.2853 43.392 100.544 44.352 102.208C45.3333 103.851 45.824 105.899 45.824 108.352ZM40.8 108.48C40.8 106.795 40.5547 105.408 40.064 104.32C39.5733 103.232 38.8373 102.432 37.856 101.92C36.896 101.387 35.712 101.12 34.304 101.12H31.712V116H33.792C36.16 116 37.92 115.371 39.072 114.112C40.224 112.853 40.8 110.976 40.8 108.48ZM57.3835 102.208C59.0048 102.208 60.3915 102.517 61.5435 103.136C62.7168 103.755 63.6235 104.651 64.2635 105.824C64.9035 106.997 65.2235 108.437 65.2235 110.144V112.448H53.9595C54.0022 113.792 54.3968 114.848 55.1435 115.616C55.9115 116.384 56.9675 116.768 58.3115 116.768C59.4422 116.768 60.4662 116.661 61.3835 116.448C62.3008 116.213 63.2502 115.861 64.2315 115.392V119.072C63.3782 119.499 62.4715 119.808 61.5115 120C60.5728 120.213 59.4315 120.32 58.0875 120.32C56.3382 120.32 54.7915 120 53.4475 119.36C52.1035 118.699 51.0475 117.707 50.2795 116.384C49.5115 115.061 49.1275 113.397 49.1275 111.392C49.1275 109.344 49.4688 107.648 50.1515 106.304C50.8555 104.939 51.8262 103.915 53.0635 103.232C54.3008 102.549 55.7408 102.208 57.3835 102.208ZM57.4155 105.6C56.4982 105.6 55.7302 105.899 55.1115 106.496C54.5142 107.093 54.1622 108.021 54.0555 109.28H60.7435C60.7435 108.576 60.6155 107.947 60.3595 107.392C60.1248 106.837 59.7622 106.4 59.2715 106.08C58.7808 105.76 58.1622 105.6 57.4155 105.6ZM81.2818 114.816C81.2818 115.989 81.0044 116.992 80.4498 117.824C79.8951 118.635 79.0631 119.253 77.9538 119.68C76.8444 120.107 75.4684 120.32 73.8258 120.32C72.6098 120.32 71.5644 120.235 70.6898 120.064C69.8151 119.915 68.9404 119.659 68.0658 119.296V115.36C69.0044 115.787 70.0178 116.139 71.1058 116.416C72.1938 116.693 73.1538 116.832 73.9858 116.832C74.9244 116.832 75.5858 116.693 75.9698 116.416C76.3751 116.139 76.5778 115.776 76.5778 115.328C76.5778 115.029 76.4924 114.763 76.3218 114.528C76.1724 114.293 75.8311 114.027 75.2978 113.728C74.7644 113.429 73.9324 113.045 72.8018 112.576C71.7138 112.107 70.8178 111.648 70.1138 111.2C69.4098 110.731 68.8871 110.176 68.5458 109.536C68.2044 108.875 68.0338 108.053 68.0338 107.072C68.0338 105.451 68.6631 104.235 69.9218 103.424C71.1804 102.613 72.8551 102.208 74.9458 102.208C76.0338 102.208 77.0684 102.315 78.0498 102.528C79.0311 102.741 80.0444 103.093 81.0898 103.584L79.6498 107.008C79.0738 106.752 78.5191 106.528 77.9858 106.336C77.4524 106.144 76.9298 105.995 76.4178 105.888C75.9271 105.781 75.4151 105.728 74.8818 105.728C74.1778 105.728 73.6444 105.824 73.2818 106.016C72.9404 106.208 72.7698 106.496 72.7698 106.88C72.7698 107.157 72.8551 107.413 73.0258 107.648C73.2178 107.861 73.5698 108.096 74.0818 108.352C74.6151 108.608 75.3938 108.949 76.4178 109.376C77.4204 109.781 78.2844 110.208 79.0098 110.656C79.7351 111.083 80.2898 111.627 80.6738 112.288C81.0791 112.928 81.2818 113.771 81.2818 114.816ZM89.764 102.528V120H84.996V102.528H89.764ZM87.396 95.68C88.1 95.68 88.708 95.8507 89.22 96.192C89.732 96.512 89.988 97.12 89.988 98.016C89.988 98.8907 89.732 99.4987 89.22 99.84C88.708 100.181 88.1 100.352 87.396 100.352C86.6707 100.352 86.052 100.181 85.54 99.84C85.0493 99.4987 84.804 98.8907 84.804 98.016C84.804 97.12 85.0493 96.512 85.54 96.192C86.052 95.8507 86.6707 95.68 87.396 95.68ZM100.41 102.208C101.477 102.208 102.437 102.421 103.29 102.848C104.143 103.275 104.869 103.915 105.466 104.768H105.594L105.978 102.528H110.01V120.032C110.01 121.696 109.679 123.093 109.018 124.224C108.378 125.355 107.407 126.208 106.106 126.784C104.805 127.381 103.194 127.68 101.274 127.68C100.037 127.68 98.8847 127.605 97.818 127.456C96.7727 127.307 95.7487 127.04 94.746 126.656V122.848C95.4713 123.147 96.1967 123.392 96.922 123.584C97.6687 123.797 98.426 123.947 99.194 124.032C99.9833 124.139 100.773 124.192 101.562 124.192C102.799 124.192 103.717 123.861 104.314 123.2C104.933 122.539 105.242 121.547 105.242 120.224V119.872C105.242 119.509 105.253 119.136 105.274 118.752C105.317 118.368 105.349 118.027 105.37 117.728H105.242C104.645 118.645 103.93 119.307 103.098 119.712C102.266 120.117 101.327 120.32 100.282 120.32C98.2127 120.32 96.5913 119.531 95.418 117.952C94.266 116.352 93.69 114.133 93.69 111.296C93.69 109.376 93.9567 107.744 94.49 106.4C95.0233 105.035 95.7913 104 96.794 103.296C97.818 102.571 99.0233 102.208 100.41 102.208ZM101.914 106.08C101.167 106.08 100.538 106.283 100.026 106.688C99.5353 107.072 99.162 107.659 98.906 108.448C98.6713 109.216 98.554 110.187 98.554 111.36C98.554 113.109 98.8313 114.421 99.386 115.296C99.9407 116.149 100.805 116.576 101.978 116.576C102.597 116.576 103.13 116.501 103.578 116.352C104.026 116.181 104.389 115.915 104.666 115.552C104.965 115.168 105.189 114.677 105.338 114.08C105.487 113.483 105.562 112.757 105.562 111.904V111.328C105.562 110.069 105.434 109.056 105.178 108.288C104.922 107.52 104.527 106.965 103.994 106.624C103.461 106.261 102.767 106.08 101.914 106.08ZM124.916 102.208C126.793 102.208 128.297 102.72 129.428 103.744C130.559 104.747 131.124 106.368 131.124 108.608V120H126.356V109.792C126.356 108.533 126.132 107.595 125.684 106.976C125.236 106.336 124.521 106.016 123.54 106.016C122.089 106.016 121.097 106.517 120.564 107.52C120.031 108.501 119.764 109.92 119.764 111.776V120H114.996V102.528H118.644L119.284 104.768H119.54C119.924 104.171 120.393 103.691 120.948 103.328C121.503 102.944 122.121 102.667 122.804 102.496C123.487 102.304 124.191 102.208 124.916 102.208ZM33.664 146.176C36.0107 146.176 37.8027 146.688 39.04 147.712C40.2987 148.715 40.928 150.261 40.928 152.352V164H37.6L36.672 161.632H36.544C36.0533 162.251 35.5413 162.763 35.008 163.168C34.496 163.573 33.8987 163.861 33.216 164.032C32.5547 164.224 31.7333 164.32 30.752 164.32C29.728 164.32 28.8 164.128 27.968 163.744C27.1573 163.339 26.5173 162.731 26.048 161.92C25.5787 161.088 25.344 160.043 25.344 158.784C25.344 156.928 25.9947 155.563 27.296 154.688C28.5973 153.792 30.5493 153.301 33.152 153.216L36.192 153.12V152.352C36.192 151.435 35.9467 150.763 35.456 150.336C34.9867 149.909 34.3253 149.696 33.472 149.696C32.6187 149.696 31.7867 149.824 30.976 150.08C30.1653 150.315 29.3547 150.613 28.544 150.976L26.976 147.744C27.9147 147.253 28.9493 146.869 30.08 146.592C31.232 146.315 32.4267 146.176 33.664 146.176ZM34.336 155.968C32.8 156.011 31.7333 156.288 31.136 156.8C30.5387 157.312 30.24 157.984 30.24 158.816C30.24 159.541 30.4533 160.064 30.88 160.384C31.3067 160.683 31.8613 160.832 32.544 160.832C33.568 160.832 34.432 160.533 35.136 159.936C35.84 159.317 36.192 158.453 36.192 157.344V155.904L34.336 155.968ZM51.3445 164.32C49.4032 164.32 47.8138 163.563 46.5765 162.048C45.3605 160.512 44.7525 158.261 44.7525 155.296C44.7525 152.309 45.3712 150.048 46.6085 148.512C47.8458 146.976 49.4672 146.208 51.4725 146.208C52.3045 146.208 53.0405 146.325 53.6805 146.56C54.3205 146.773 54.8645 147.072 55.3125 147.456C55.7818 147.84 56.1765 148.277 56.4965 148.768H56.6565C56.5925 148.427 56.5178 147.936 56.4325 147.296C56.3472 146.635 56.3045 145.963 56.3045 145.28V139.68H61.0725V164H57.4245L56.4965 161.728H56.3045C56.0058 162.197 55.6218 162.635 55.1525 163.04C54.7045 163.424 54.1712 163.733 53.5525 163.968C52.9338 164.203 52.1978 164.32 51.3445 164.32ZM53.0085 160.512C54.3312 160.512 55.2592 160.128 55.7925 159.36C56.3258 158.571 56.6032 157.397 56.6245 155.84V155.328C56.6245 153.621 56.3578 152.32 55.8245 151.424C55.3125 150.528 54.3525 150.08 52.9445 150.08C51.8992 150.08 51.0778 150.539 50.4805 151.456C49.8832 152.352 49.5845 153.653 49.5845 155.36C49.5845 157.067 49.8832 158.357 50.4805 159.232C51.0778 160.085 51.9205 160.512 53.0085 160.512ZM70.2185 164L63.5625 146.528H68.5545L71.9145 156.48C72.0425 156.864 72.1492 157.269 72.2345 157.696C72.3412 158.123 72.4158 158.539 72.4585 158.944C72.5225 159.349 72.5652 159.723 72.5865 160.064H72.7145C72.7358 159.701 72.7785 159.317 72.8425 158.912C72.9065 158.507 72.9812 158.101 73.0665 157.696C73.1732 157.269 73.2905 156.864 73.4185 156.48L76.7785 146.528H81.7705L75.1145 164H70.2185ZM91.4453 146.176C93.7919 146.176 95.5839 146.688 96.8213 147.712C98.0799 148.715 98.7093 150.261 98.7093 152.352V164H95.3813L94.4533 161.632H94.3253C93.8346 162.251 93.3226 162.763 92.7893 163.168C92.2773 163.573 91.6799 163.861 90.9973 164.032C90.3359 164.224 89.5146 164.32 88.5333 164.32C87.5093 164.32 86.5813 164.128 85.7493 163.744C84.9386 163.339 84.2986 162.731 83.8293 161.92C83.3599 161.088 83.1253 160.043 83.1253 158.784C83.1253 156.928 83.7759 155.563 85.0773 154.688C86.3786 153.792 88.3306 153.301 90.9333 153.216L93.9733 153.12V152.352C93.9733 151.435 93.7279 150.763 93.2373 150.336C92.7679 149.909 92.1066 149.696 91.2533 149.696C90.3999 149.696 89.5679 149.824 88.7573 150.08C87.9466 150.315 87.1359 150.613 86.3253 150.976L84.7573 147.744C85.6959 147.253 86.7306 146.869 87.8613 146.592C89.0133 146.315 90.2079 146.176 91.4453 146.176ZM92.1173 155.968C90.5813 156.011 89.5146 156.288 88.9173 156.8C88.3199 157.312 88.0213 157.984 88.0213 158.816C88.0213 159.541 88.2346 160.064 88.6613 160.384C89.0879 160.683 89.6426 160.832 90.3253 160.832C91.3493 160.832 92.2133 160.533 92.9173 159.936C93.6213 159.317 93.9733 158.453 93.9733 157.344V155.904L92.1173 155.968ZM113.51 146.208C115.387 146.208 116.891 146.72 118.022 147.744C119.152 148.747 119.718 150.368 119.718 152.608V164H114.95V153.792C114.95 152.533 114.726 151.595 114.278 150.976C113.83 150.336 113.115 150.016 112.134 150.016C110.683 150.016 109.691 150.517 109.158 151.52C108.624 152.501 108.358 153.92 108.358 155.776V164H103.59V146.528H107.238L107.878 148.768H108.134C108.518 148.171 108.987 147.691 109.542 147.328C110.096 146.944 110.715 146.667 111.398 146.496C112.08 146.304 112.784 146.208 113.51 146.208ZM131.725 164.32C129.997 164.32 128.525 164.011 127.309 163.392C126.093 162.752 125.165 161.771 124.525 160.448C123.885 159.125 123.565 157.429 123.565 155.36C123.565 153.227 123.928 151.488 124.653 150.144C125.378 148.8 126.381 147.808 127.661 147.168C128.962 146.528 130.456 146.208 132.141 146.208C133.336 146.208 134.37 146.325 135.245 146.56C136.141 146.795 136.92 147.072 137.581 147.392L136.173 151.072C135.426 150.773 134.722 150.528 134.061 150.336C133.421 150.144 132.781 150.048 132.141 150.048C131.309 150.048 130.616 150.251 130.061 150.656C129.506 151.04 129.09 151.627 128.813 152.416C128.557 153.184 128.429 154.155 128.429 155.328C128.429 156.48 128.568 157.44 128.845 158.208C129.144 158.955 129.57 159.52 130.125 159.904C130.68 160.267 131.352 160.448 132.141 160.448C133.144 160.448 134.029 160.32 134.797 160.064C135.565 159.787 136.312 159.413 137.037 158.944V163.008C136.312 163.477 135.544 163.808 134.733 164C133.944 164.213 132.941 164.32 131.725 164.32ZM148.259 146.208C149.88 146.208 151.267 146.517 152.419 147.136C153.592 147.755 154.499 148.651 155.139 149.824C155.779 150.997 156.099 152.437 156.099 154.144V156.448H144.835C144.877 157.792 145.272 158.848 146.019 159.616C146.787 160.384 147.843 160.768 149.187 160.768C150.317 160.768 151.341 160.661 152.259 160.448C153.176 160.213 154.125 159.861 155.107 159.392V163.072C154.253 163.499 153.347 163.808 152.387 164C151.448 164.213 150.307 164.32 148.963 164.32C147.213 164.32 145.667 164 144.323 163.36C142.979 162.699 141.923 161.707 141.155 160.384C140.387 159.061 140.003 157.397 140.003 155.392C140.003 153.344 140.344 151.648 141.027 150.304C141.731 148.939 142.701 147.915 143.939 147.232C145.176 146.549 146.616 146.208 148.259 146.208ZM148.291 149.6C147.373 149.6 146.605 149.899 145.987 150.496C145.389 151.093 145.037 152.021 144.931 153.28H151.619C151.619 152.576 151.491 151.947 151.235 151.392C151 150.837 150.637 150.4 150.147 150.08C149.656 149.76 149.037 149.6 148.291 149.6ZM165.501 164.32C163.559 164.32 161.97 163.563 160.733 162.048C159.517 160.512 158.909 158.261 158.909 155.296C158.909 152.309 159.527 150.048 160.765 148.512C162.002 146.976 163.623 146.208 165.629 146.208C166.461 146.208 167.197 146.325 167.837 146.56C168.477 146.773 169.021 147.072 169.469 147.456C169.938 147.84 170.333 148.277 170.653 148.768H170.813C170.749 148.427 170.674 147.936 170.589 147.296C170.503 146.635 170.461 145.963 170.461 145.28V139.68H175.229V164H171.581L170.653 161.728H170.461C170.162 162.197 169.778 162.635 169.309 163.04C168.861 163.424 168.327 163.733 167.709 163.968C167.09 164.203 166.354 164.32 165.501 164.32ZM167.165 160.512C168.487 160.512 169.415 160.128 169.949 159.36C170.482 158.571 170.759 157.397 170.781 155.84V155.328C170.781 153.621 170.514 152.32 169.981 151.424C169.469 150.528 168.509 150.08 167.101 150.08C166.055 150.08 165.234 150.539 164.637 151.456C164.039 152.352 163.741 153.653 163.741 155.36C163.741 157.067 164.039 158.357 164.637 159.232C165.234 160.085 166.077 160.512 167.165 160.512Z" fill="#575353"/>
<ellipse cx="192.5" cy="235.5" rx="68.5" ry="62.5" fill="url(#paint0_radial_306_315)"/>
</g>
<defs>
<radialGradient id="paint0_radial_306_315" cx="0" cy="0" r="1" gradientUnits="userSpaceOnUse" gradientTransform="translate(192.5 235.5) rotate(90) scale(62.5 68.5)">
<stop stop-color="#FF8DF4"/>
<stop offset="1" stop-color="#D9D9D9" stop-opacity="0"/>
</radialGradient>
<clipPath id="clip0_306_315">
<rect width="247" height="401" fill="white"/>
</clipPath>
</defs>
</svg>
