<svg width="247" height="401" viewBox="0 0 247 401" fill="none" xmlns="http://www.w3.org/2000/svg">
<rect x="0.25" y="0.25" width="246.5" height="345.5" rx="19.75" fill="white" stroke="black" stroke-width="0.5"/>
<path opacity="0.72" d="M26.7871 30.3682L28.9473 23.0469H29.624L29.0771 25.2207L26.7734 33H26.124L26.7871 30.3682ZM24.2783 23.0469L26.0967 30.2998L26.6436 33H25.9668L23.417 23.0469H24.2783ZM32.5361 30.2998L34.3271 23.0469H35.1885L32.6455 33H31.9688L32.5361 30.2998ZM29.6992 23.0469L31.832 30.3682L32.4883 33H31.8389L29.583 25.2207L29.0293 23.0469H29.6992ZM35.9541 29.418V29.1924C35.9541 28.6546 36.0316 28.1579 36.1865 27.7021C36.3415 27.2464 36.5625 26.8522 36.8496 26.5195C37.1413 26.1868 37.4899 25.9294 37.8955 25.7471C38.3011 25.5602 38.7523 25.4668 39.249 25.4668C39.7503 25.4668 40.2038 25.5602 40.6094 25.7471C41.015 25.9294 41.3636 26.1868 41.6553 26.5195C41.9469 26.8522 42.1702 27.2464 42.3252 27.7021C42.4801 28.1579 42.5576 28.6546 42.5576 29.1924V29.418C42.5576 29.9557 42.4801 30.4525 42.3252 30.9082C42.1702 31.3594 41.9469 31.7513 41.6553 32.084C41.3682 32.4167 41.0218 32.6764 40.6162 32.8633C40.2106 33.0456 39.7594 33.1367 39.2627 33.1367C38.7614 33.1367 38.3079 33.0456 37.9023 32.8633C37.4967 32.6764 37.1481 32.4167 36.8564 32.084C36.5648 31.7513 36.3415 31.3594 36.1865 30.9082C36.0316 30.4525 35.9541 29.9557 35.9541 29.418ZM36.7676 29.1924V29.418C36.7676 29.8236 36.8223 30.2087 36.9316 30.5732C37.041 30.9333 37.2005 31.2546 37.4102 31.5371C37.6198 31.8151 37.8796 32.0339 38.1895 32.1934C38.4993 32.3529 38.8571 32.4326 39.2627 32.4326C39.6637 32.4326 40.0169 32.3529 40.3223 32.1934C40.6322 32.0339 40.8919 31.8151 41.1016 31.5371C41.3112 31.2546 41.4684 30.9333 41.5732 30.5732C41.6826 30.2087 41.7373 29.8236 41.7373 29.418V29.1924C41.7373 28.7913 41.6826 28.4108 41.5732 28.0508C41.4684 27.6908 41.3089 27.3695 41.0947 27.0869C40.8851 26.8044 40.6253 26.5811 40.3154 26.417C40.0055 26.2529 39.6501 26.1709 39.249 26.1709C38.848 26.1709 38.4925 26.2529 38.1826 26.417C37.8773 26.5811 37.6175 26.8044 37.4033 27.0869C37.1937 27.3695 37.0342 27.6908 36.9248 28.0508C36.82 28.4108 36.7676 28.7913 36.7676 29.1924ZM45.0664 26.8271V33H44.2529V25.6035H45.0459L45.0664 26.8271ZM47.6846 25.5488L47.6641 26.3008C47.5729 26.2871 47.484 26.2757 47.3975 26.2666C47.3109 26.2575 47.2174 26.2529 47.1172 26.2529C46.7617 26.2529 46.4495 26.319 46.1807 26.4512C45.9163 26.5788 45.693 26.7588 45.5107 26.9912C45.3285 27.2191 45.1895 27.488 45.0938 27.7979C44.998 28.1032 44.9434 28.4313 44.9297 28.7822L44.6289 28.8984C44.6289 28.4154 44.679 27.9665 44.7793 27.5518C44.8796 27.137 45.0322 26.7747 45.2373 26.4648C45.4469 26.1504 45.709 25.9066 46.0234 25.7334C46.3424 25.5557 46.7161 25.4668 47.1445 25.4668C47.2493 25.4668 47.3519 25.4759 47.4521 25.4941C47.557 25.5078 47.6344 25.526 47.6846 25.5488ZM49.7832 22.5V33H48.9697V22.5H49.7832ZM54.4248 25.6035L50.9658 29.0352L49.4961 30.457L49.373 29.6572L50.5557 28.3789L53.3926 25.6035H54.4248ZM53.7139 33L50.624 29.1582L51.0752 28.4541L54.6982 33H53.7139Z" fill="#2B2F42"/>
<path opacity="0.72" d="M116.237 323.315L113.776 330H113.151L115.837 322.891H116.271L116.237 323.315ZM118.474 330L116.008 323.315L115.974 322.891H116.408L119.099 330H118.474ZM118.034 327.49V328.008H114.26V327.49H118.034ZM123.342 328.779V324.717H123.928V330H123.366L123.342 328.779ZM123.449 327.803L123.752 327.793C123.752 328.125 123.713 328.431 123.635 328.711C123.557 328.991 123.435 329.235 123.269 329.443C123.103 329.652 122.888 329.813 122.624 329.927C122.36 330.041 122.043 330.098 121.672 330.098C121.415 330.098 121.179 330.062 120.964 329.99C120.752 329.915 120.57 329.798 120.417 329.639C120.264 329.479 120.145 329.272 120.061 329.019C119.979 328.765 119.938 328.457 119.938 328.096V324.717H120.52V328.105C120.52 328.389 120.55 328.625 120.612 328.813C120.677 329.002 120.765 329.154 120.876 329.268C120.99 329.382 121.12 329.463 121.267 329.512C121.413 329.561 121.571 329.585 121.74 329.585C122.17 329.585 122.508 329.502 122.756 329.336C123.007 329.17 123.184 328.952 123.288 328.682C123.396 328.408 123.449 328.115 123.449 327.803ZM128.933 324.717H129.475V329.907C129.475 330.366 129.387 330.76 129.211 331.089C129.038 331.418 128.793 331.67 128.474 331.846C128.158 332.021 127.785 332.109 127.355 332.109C127.137 332.109 126.913 332.075 126.682 332.007C126.454 331.942 126.237 331.841 126.032 331.704C125.83 331.571 125.658 331.405 125.515 331.206L125.842 330.85C126.057 331.11 126.286 331.3 126.53 331.421C126.774 331.545 127.038 331.606 127.321 331.606C127.657 331.606 127.94 331.54 128.171 331.406C128.405 331.273 128.583 331.081 128.703 330.83C128.827 330.579 128.889 330.278 128.889 329.927V325.879L128.933 324.717ZM125.222 327.412V327.31C125.222 326.899 125.267 326.53 125.358 326.201C125.453 325.869 125.588 325.586 125.764 325.352C125.939 325.114 126.153 324.933 126.403 324.81C126.657 324.683 126.944 324.619 127.263 324.619C127.569 324.619 127.84 324.67 128.078 324.771C128.316 324.871 128.521 325.016 128.693 325.205C128.866 325.394 129.004 325.618 129.108 325.879C129.216 326.139 129.294 326.429 129.343 326.748V328.052C129.304 328.351 129.232 328.626 129.128 328.877C129.024 329.124 128.885 329.341 128.713 329.526C128.54 329.709 128.332 329.85 128.088 329.951C127.847 330.049 127.569 330.098 127.253 330.098C126.937 330.098 126.654 330.033 126.403 329.902C126.153 329.772 125.939 329.588 125.764 329.351C125.588 329.11 125.453 328.825 125.358 328.496C125.267 328.167 125.222 327.806 125.222 327.412ZM125.808 327.31V327.412C125.808 327.721 125.839 328.008 125.9 328.271C125.962 328.535 126.057 328.765 126.184 328.96C126.311 329.155 126.472 329.308 126.667 329.419C126.862 329.53 127.092 329.585 127.355 329.585C127.691 329.585 127.972 329.521 128.2 329.395C128.428 329.264 128.609 329.093 128.742 328.882C128.876 328.667 128.973 328.433 129.035 328.179V326.66C128.999 326.488 128.944 326.312 128.869 326.133C128.798 325.954 128.697 325.789 128.566 325.64C128.439 325.487 128.277 325.365 128.078 325.273C127.883 325.179 127.645 325.132 127.365 325.132C127.098 325.132 126.866 325.187 126.667 325.298C126.472 325.409 126.311 325.563 126.184 325.762C126.057 325.957 125.962 326.187 125.9 326.45C125.839 326.714 125.808 327 125.808 327.31ZM134.387 328.779V324.717H134.973V330H134.411L134.387 328.779ZM134.494 327.803L134.797 327.793C134.797 328.125 134.758 328.431 134.68 328.711C134.602 328.991 134.479 329.235 134.313 329.443C134.147 329.652 133.933 329.813 133.669 329.927C133.405 330.041 133.088 330.098 132.717 330.098C132.46 330.098 132.224 330.062 132.009 329.99C131.797 329.915 131.615 329.798 131.462 329.639C131.309 329.479 131.19 329.272 131.105 329.019C131.024 328.765 130.983 328.457 130.983 328.096V324.717H131.564V328.105C131.564 328.389 131.595 328.625 131.657 328.813C131.722 329.002 131.81 329.154 131.921 329.268C132.035 329.382 132.165 329.463 132.312 329.512C132.458 329.561 132.616 329.585 132.785 329.585C133.215 329.585 133.553 329.502 133.801 329.336C134.051 329.17 134.229 328.952 134.333 328.682C134.44 328.408 134.494 328.115 134.494 327.803ZM139.665 328.652C139.665 328.509 139.629 328.368 139.558 328.228C139.486 328.088 139.348 327.959 139.143 327.842C138.941 327.725 138.643 327.625 138.249 327.544C137.956 327.479 137.694 327.406 137.463 327.324C137.235 327.243 137.043 327.145 136.887 327.031C136.73 326.917 136.612 326.781 136.53 326.621C136.449 326.462 136.408 326.273 136.408 326.055C136.408 325.859 136.451 325.675 136.535 325.503C136.623 325.327 136.747 325.174 136.906 325.044C137.069 324.91 137.264 324.806 137.492 324.731C137.723 324.657 137.982 324.619 138.269 324.619C138.675 324.619 139.024 324.689 139.313 324.829C139.606 324.966 139.829 325.153 139.982 325.391C140.139 325.628 140.217 325.897 140.217 326.196H139.636C139.636 326.014 139.582 325.841 139.475 325.679C139.37 325.516 139.216 325.382 139.011 325.278C138.809 325.174 138.562 325.122 138.269 325.122C137.966 325.122 137.72 325.168 137.531 325.259C137.342 325.35 137.204 325.465 137.116 325.605C137.032 325.745 136.989 325.89 136.989 326.04C136.989 326.157 137.007 326.265 137.043 326.362C137.082 326.457 137.15 326.545 137.248 326.626C137.349 326.707 137.492 326.784 137.678 326.855C137.863 326.927 138.104 326.997 138.4 327.065C138.827 327.16 139.175 327.275 139.445 327.412C139.719 327.546 139.921 327.712 140.051 327.91C140.181 328.105 140.246 328.343 140.246 328.623C140.246 328.841 140.201 329.041 140.109 329.224C140.018 329.403 139.886 329.557 139.714 329.688C139.545 329.818 139.34 329.919 139.099 329.99C138.861 330.062 138.594 330.098 138.298 330.098C137.852 330.098 137.474 330.024 137.165 329.878C136.859 329.728 136.626 329.533 136.467 329.292C136.311 329.048 136.232 328.789 136.232 328.516H136.813C136.833 328.789 136.919 329.006 137.072 329.165C137.225 329.321 137.412 329.432 137.634 329.497C137.858 329.562 138.08 329.595 138.298 329.595C138.597 329.595 138.848 329.551 139.05 329.463C139.252 329.375 139.405 329.259 139.509 329.116C139.613 328.973 139.665 328.818 139.665 328.652ZM143.566 324.717V325.195H140.92V324.717H143.566ZM141.892 323.359H142.473V328.716C142.473 328.96 142.505 329.144 142.57 329.268C142.635 329.391 142.72 329.474 142.824 329.517C142.928 329.559 143.041 329.58 143.161 329.58C143.249 329.58 143.334 329.575 143.415 329.565C143.496 329.552 143.57 329.539 143.635 329.526L143.659 330.02C143.588 330.042 143.495 330.06 143.381 330.073C143.267 330.09 143.153 330.098 143.039 330.098C142.814 330.098 142.616 330.057 142.443 329.976C142.271 329.891 142.136 329.748 142.038 329.546C141.94 329.341 141.892 329.062 141.892 328.711V323.359ZM151.589 329.497V330H147.141V329.546L149.47 326.904C149.759 326.576 149.991 326.287 150.163 326.04C150.336 325.789 150.459 325.562 150.534 325.356C150.612 325.148 150.651 324.946 150.651 324.751C150.651 324.465 150.594 324.212 150.48 323.994C150.37 323.776 150.204 323.605 149.982 323.481C149.761 323.358 149.488 323.296 149.162 323.296C148.837 323.296 148.553 323.366 148.312 323.506C148.072 323.646 147.886 323.841 147.756 324.092C147.629 324.339 147.565 324.621 147.565 324.937H146.984C146.984 324.546 147.071 324.188 147.243 323.862C147.419 323.537 147.67 323.278 147.995 323.086C148.321 322.891 148.71 322.793 149.162 322.793C149.592 322.793 149.961 322.869 150.271 323.022C150.58 323.172 150.817 323.389 150.983 323.672C151.153 323.955 151.237 324.297 151.237 324.697C151.237 324.912 151.198 325.129 151.12 325.347C151.045 325.565 150.941 325.783 150.808 326.001C150.677 326.216 150.528 326.429 150.358 326.641C150.192 326.852 150.018 327.061 149.836 327.266L147.854 329.497H151.589ZM156.97 325.835V327.031C156.97 327.552 156.921 328.006 156.823 328.394C156.726 328.778 156.582 329.097 156.394 329.351C156.208 329.601 155.98 329.788 155.71 329.912C155.443 330.036 155.137 330.098 154.792 330.098C154.519 330.098 154.268 330.059 154.04 329.98C153.812 329.902 153.609 329.784 153.43 329.624C153.254 329.461 153.104 329.258 152.98 329.014C152.857 328.77 152.762 328.483 152.697 328.154C152.632 327.822 152.6 327.448 152.6 327.031V325.835C152.6 325.311 152.648 324.858 152.746 324.478C152.847 324.097 152.99 323.781 153.176 323.53C153.365 323.28 153.594 323.094 153.864 322.974C154.134 322.85 154.44 322.788 154.782 322.788C155.056 322.788 155.306 322.829 155.534 322.91C155.765 322.988 155.969 323.105 156.145 323.262C156.324 323.418 156.473 323.618 156.594 323.862C156.717 324.103 156.81 324.388 156.872 324.717C156.937 325.046 156.97 325.418 156.97 325.835ZM156.389 327.1V325.762C156.389 325.439 156.366 325.146 156.32 324.883C156.278 324.619 156.215 324.388 156.13 324.189C156.045 323.991 155.938 323.825 155.808 323.691C155.681 323.558 155.531 323.459 155.358 323.394C155.189 323.325 154.997 323.291 154.782 323.291C154.519 323.291 154.286 323.345 154.084 323.452C153.885 323.556 153.719 323.713 153.586 323.921C153.452 324.126 153.352 324.383 153.283 324.692C153.218 325.002 153.186 325.358 153.186 325.762V327.1C153.186 327.419 153.207 327.71 153.249 327.974C153.291 328.234 153.356 328.465 153.444 328.667C153.532 328.869 153.64 329.04 153.767 329.18C153.897 329.316 154.047 329.421 154.216 329.492C154.388 329.561 154.58 329.595 154.792 329.595C155.062 329.595 155.297 329.541 155.495 329.434C155.694 329.323 155.86 329.162 155.993 328.95C156.127 328.735 156.226 328.473 156.291 328.164C156.356 327.852 156.389 327.497 156.389 327.1ZM162.683 329.497V330H158.234V329.546L160.563 326.904C160.853 326.576 161.084 326.287 161.257 326.04C161.429 325.789 161.553 325.562 161.628 325.356C161.706 325.148 161.745 324.946 161.745 324.751C161.745 324.465 161.688 324.212 161.574 323.994C161.464 323.776 161.298 323.605 161.076 323.481C160.855 323.358 160.581 323.296 160.256 323.296C159.93 323.296 159.647 323.366 159.406 323.506C159.165 323.646 158.98 323.841 158.85 324.092C158.723 324.339 158.659 324.621 158.659 324.937H158.078C158.078 324.546 158.164 324.188 158.337 323.862C158.513 323.537 158.763 323.278 159.089 323.086C159.414 322.891 159.803 322.793 160.256 322.793C160.686 322.793 161.055 322.869 161.364 323.022C161.674 323.172 161.911 323.389 162.077 323.672C162.246 323.955 162.331 324.297 162.331 324.697C162.331 324.912 162.292 325.129 162.214 325.347C162.139 325.565 162.035 325.783 161.901 326.001C161.771 326.216 161.621 326.429 161.452 326.641C161.286 326.852 161.112 327.061 160.93 327.266L158.947 329.497H162.683ZM168.229 329.497V330H163.781V329.546L166.11 326.904C166.4 326.576 166.631 326.287 166.804 326.04C166.976 325.789 167.1 325.562 167.175 325.356C167.253 325.148 167.292 324.946 167.292 324.751C167.292 324.465 167.235 324.212 167.121 323.994C167.01 323.776 166.844 323.605 166.623 323.481C166.402 323.358 166.128 323.296 165.803 323.296C165.477 323.296 165.194 323.366 164.953 323.506C164.712 323.646 164.527 323.841 164.396 324.092C164.27 324.339 164.206 324.621 164.206 324.937H163.625C163.625 324.546 163.711 324.188 163.884 323.862C164.06 323.537 164.31 323.278 164.636 323.086C164.961 322.891 165.35 322.793 165.803 322.793C166.232 322.793 166.602 322.869 166.911 323.022C167.22 323.172 167.458 323.389 167.624 323.672C167.793 323.955 167.878 324.297 167.878 324.697C167.878 324.912 167.839 325.129 167.761 325.347C167.686 325.565 167.582 325.783 167.448 326.001C167.318 326.216 167.168 326.429 166.999 326.641C166.833 326.852 166.659 327.061 166.477 327.266L164.494 329.497H168.229ZM173.679 326.611V327.114H171.34V326.611H173.679ZM178.01 327.881V322.891H178.61V327.881C178.61 328.359 178.516 328.763 178.327 329.092C178.142 329.421 177.888 329.671 177.565 329.844C177.243 330.013 176.875 330.098 176.462 330.098C176.039 330.098 175.664 330.023 175.339 329.873C175.017 329.723 174.766 329.497 174.587 329.194C174.408 328.888 174.318 328.503 174.318 328.037H174.919C174.919 328.379 174.979 328.665 175.1 328.896C175.223 329.124 175.401 329.297 175.632 329.414C175.863 329.528 176.14 329.585 176.462 329.585C176.752 329.585 177.012 329.521 177.243 329.395C177.478 329.264 177.663 329.074 177.8 328.823C177.94 328.569 178.01 328.255 178.01 327.881ZM183.454 329.053V326.328C183.454 326.077 183.402 325.861 183.298 325.679C183.194 325.496 183.041 325.356 182.839 325.259C182.637 325.161 182.388 325.112 182.092 325.112C181.818 325.112 181.574 325.161 181.359 325.259C181.148 325.353 180.98 325.482 180.856 325.645C180.736 325.804 180.676 325.981 180.676 326.177L180.09 326.172C180.09 325.973 180.139 325.781 180.236 325.596C180.334 325.41 180.472 325.244 180.651 325.098C180.83 324.951 181.044 324.836 181.291 324.751C181.542 324.663 181.817 324.619 182.116 324.619C182.494 324.619 182.826 324.683 183.112 324.81C183.402 324.937 183.628 325.127 183.791 325.381C183.954 325.635 184.035 325.954 184.035 326.338V328.892C184.035 329.074 184.048 329.263 184.074 329.458C184.104 329.653 184.144 329.814 184.196 329.941V330H183.576C183.537 329.883 183.506 329.736 183.483 329.561C183.464 329.382 183.454 329.212 183.454 329.053ZM183.591 326.924L183.601 327.373H182.453C182.154 327.373 181.885 327.401 181.647 327.456C181.413 327.508 181.215 327.586 181.052 327.69C180.889 327.791 180.764 327.913 180.676 328.057C180.591 328.2 180.549 328.363 180.549 328.545C180.549 328.734 180.596 328.906 180.69 329.062C180.788 329.219 180.925 329.344 181.101 329.438C181.28 329.53 181.491 329.575 181.735 329.575C182.061 329.575 182.347 329.515 182.595 329.395C182.845 329.274 183.052 329.116 183.215 328.921C183.378 328.726 183.487 328.512 183.542 328.281L183.796 328.618C183.754 328.781 183.675 328.949 183.562 329.121C183.451 329.29 183.306 329.45 183.127 329.6C182.948 329.746 182.736 329.867 182.492 329.961C182.251 330.052 181.978 330.098 181.672 330.098C181.327 330.098 181.026 330.033 180.769 329.902C180.515 329.772 180.316 329.595 180.173 329.37C180.033 329.142 179.963 328.885 179.963 328.599C179.963 328.338 180.018 328.105 180.129 327.9C180.24 327.692 180.399 327.516 180.607 327.373C180.819 327.227 181.073 327.116 181.369 327.041C181.669 326.963 182.004 326.924 182.375 326.924H183.591ZM186.184 325.845V330H185.603V324.717H186.159L186.184 325.845ZM186.052 327.031L185.793 326.885C185.812 326.572 185.876 326.279 185.983 326.006C186.091 325.732 186.236 325.492 186.418 325.283C186.604 325.075 186.82 324.912 187.067 324.795C187.318 324.678 187.595 324.619 187.897 324.619C188.161 324.619 188.397 324.655 188.605 324.727C188.814 324.798 188.991 324.912 189.138 325.068C189.284 325.225 189.395 325.425 189.47 325.669C189.548 325.913 189.587 326.211 189.587 326.562V330H189.001V326.558C189.001 326.193 188.951 325.908 188.85 325.703C188.749 325.495 188.605 325.347 188.42 325.259C188.234 325.171 188.015 325.127 187.761 325.127C187.481 325.127 187.235 325.189 187.023 325.312C186.815 325.433 186.639 325.591 186.496 325.786C186.356 325.978 186.249 326.185 186.174 326.406C186.099 326.624 186.058 326.833 186.052 327.031ZM194.484 328.779V324.717H195.07V330H194.509L194.484 328.779ZM194.592 327.803L194.895 327.793C194.895 328.125 194.855 328.431 194.777 328.711C194.699 328.991 194.577 329.235 194.411 329.443C194.245 329.652 194.03 329.813 193.767 329.927C193.503 330.041 193.186 330.098 192.814 330.098C192.557 330.098 192.321 330.062 192.106 329.99C191.895 329.915 191.713 329.798 191.56 329.639C191.407 329.479 191.288 329.272 191.203 329.019C191.122 328.765 191.081 328.457 191.081 328.096V324.717H191.662V328.105C191.662 328.389 191.693 328.625 191.755 328.813C191.82 329.002 191.908 329.154 192.019 329.268C192.132 329.382 192.263 329.463 192.409 329.512C192.556 329.561 192.714 329.585 192.883 329.585C193.312 329.585 193.651 329.502 193.898 329.336C194.149 329.17 194.326 328.952 194.431 328.682C194.538 328.408 194.592 328.115 194.592 327.803ZM199.812 329.053V326.328C199.812 326.077 199.759 325.861 199.655 325.679C199.551 325.496 199.398 325.356 199.196 325.259C198.994 325.161 198.745 325.112 198.449 325.112C198.176 325.112 197.932 325.161 197.717 325.259C197.505 325.353 197.338 325.482 197.214 325.645C197.093 325.804 197.033 325.981 197.033 326.177L196.447 326.172C196.447 325.973 196.496 325.781 196.594 325.596C196.691 325.41 196.83 325.244 197.009 325.098C197.188 324.951 197.401 324.836 197.648 324.751C197.899 324.663 198.174 324.619 198.474 324.619C198.851 324.619 199.183 324.683 199.47 324.81C199.759 324.937 199.986 325.127 200.148 325.381C200.311 325.635 200.393 325.954 200.393 326.338V328.892C200.393 329.074 200.406 329.263 200.432 329.458C200.461 329.653 200.502 329.814 200.554 329.941V330H199.934C199.895 329.883 199.864 329.736 199.841 329.561C199.821 329.382 199.812 329.212 199.812 329.053ZM199.948 326.924L199.958 327.373H198.811C198.511 327.373 198.243 327.401 198.005 327.456C197.771 327.508 197.572 327.586 197.409 327.69C197.246 327.791 197.121 327.913 197.033 328.057C196.949 328.2 196.906 328.363 196.906 328.545C196.906 328.734 196.953 328.906 197.048 329.062C197.146 329.219 197.282 329.344 197.458 329.438C197.637 329.53 197.849 329.575 198.093 329.575C198.418 329.575 198.705 329.515 198.952 329.395C199.203 329.274 199.41 329.116 199.572 328.921C199.735 328.726 199.844 328.512 199.899 328.281L200.153 328.618C200.111 328.781 200.033 328.949 199.919 329.121C199.808 329.29 199.663 329.45 199.484 329.6C199.305 329.746 199.094 329.867 198.85 329.961C198.609 330.052 198.335 330.098 198.029 330.098C197.684 330.098 197.383 330.033 197.126 329.902C196.872 329.772 196.674 329.595 196.53 329.37C196.39 329.142 196.32 328.885 196.32 328.599C196.32 328.338 196.376 328.105 196.486 327.9C196.597 327.692 196.757 327.516 196.965 327.373C197.176 327.227 197.43 327.116 197.727 327.041C198.026 326.963 198.361 326.924 198.732 326.924H199.948ZM202.541 325.591V330H201.96V324.717H202.526L202.541 325.591ZM204.411 324.678L204.396 325.215C204.331 325.205 204.268 325.197 204.206 325.19C204.144 325.184 204.077 325.181 204.006 325.181C203.752 325.181 203.529 325.228 203.337 325.322C203.148 325.413 202.989 325.542 202.858 325.708C202.728 325.871 202.629 326.063 202.561 326.284C202.492 326.502 202.453 326.737 202.443 326.987L202.229 327.07C202.229 326.725 202.264 326.405 202.336 326.108C202.408 325.812 202.517 325.553 202.663 325.332C202.813 325.107 203 324.933 203.225 324.81C203.452 324.683 203.719 324.619 204.025 324.619C204.1 324.619 204.174 324.626 204.245 324.639C204.32 324.648 204.375 324.661 204.411 324.678ZM206.984 329.473L208.63 324.717H209.26L207.023 330.85C206.978 330.97 206.919 331.104 206.848 331.25C206.779 331.396 206.688 331.536 206.574 331.67C206.464 331.807 206.324 331.917 206.154 332.002C205.988 332.09 205.785 332.134 205.544 332.134C205.482 332.134 205.402 332.126 205.305 332.109C205.21 332.096 205.142 332.083 205.1 332.07L205.095 331.577C205.131 331.587 205.183 331.595 205.251 331.602C205.319 331.608 205.367 331.611 205.393 331.611C205.604 331.611 205.782 331.576 205.925 331.504C206.071 331.432 206.193 331.325 206.291 331.182C206.389 331.042 206.475 330.866 206.55 330.654L206.984 329.473ZM205.446 324.717L207.131 329.253L207.287 329.863L206.862 330.103L204.812 324.717H205.446ZM216.97 329.497V330H212.521V329.546L214.851 326.904C215.14 326.576 215.371 326.287 215.544 326.04C215.716 325.789 215.84 325.562 215.915 325.356C215.993 325.148 216.032 324.946 216.032 324.751C216.032 324.465 215.975 324.212 215.861 323.994C215.751 323.776 215.585 323.605 215.363 323.481C215.142 323.358 214.868 323.296 214.543 323.296C214.217 323.296 213.934 323.366 213.693 323.506C213.452 323.646 213.267 323.841 213.137 324.092C213.01 324.339 212.946 324.621 212.946 324.937H212.365C212.365 324.546 212.451 324.188 212.624 323.862C212.8 323.537 213.05 323.278 213.376 323.086C213.701 322.891 214.09 322.793 214.543 322.793C214.973 322.793 215.342 322.869 215.651 323.022C215.961 323.172 216.198 323.389 216.364 323.672C216.534 323.955 216.618 324.297 216.618 324.697C216.618 324.912 216.579 325.129 216.501 325.347C216.426 325.565 216.322 325.783 216.188 326.001C216.058 326.216 215.909 326.429 215.739 326.641C215.573 326.852 215.399 327.061 215.217 327.266L213.234 329.497H216.97ZM222.351 325.835V327.031C222.351 327.552 222.302 328.006 222.204 328.394C222.106 328.778 221.963 329.097 221.774 329.351C221.589 329.601 221.361 329.788 221.091 329.912C220.824 330.036 220.518 330.098 220.173 330.098C219.899 330.098 219.649 330.059 219.421 329.98C219.193 329.902 218.99 329.784 218.811 329.624C218.635 329.461 218.485 329.258 218.361 329.014C218.238 328.77 218.143 328.483 218.078 328.154C218.013 327.822 217.98 327.448 217.98 327.031V325.835C217.98 325.311 218.029 324.858 218.127 324.478C218.228 324.097 218.371 323.781 218.557 323.53C218.745 323.28 218.975 323.094 219.245 322.974C219.515 322.85 219.821 322.788 220.163 322.788C220.437 322.788 220.687 322.829 220.915 322.91C221.146 322.988 221.35 323.105 221.525 323.262C221.704 323.418 221.854 323.618 221.975 323.862C222.098 324.103 222.191 324.388 222.253 324.717C222.318 325.046 222.351 325.418 222.351 325.835ZM221.77 327.1V325.762C221.77 325.439 221.747 325.146 221.701 324.883C221.659 324.619 221.595 324.388 221.511 324.189C221.426 323.991 221.319 323.825 221.188 323.691C221.062 323.558 220.912 323.459 220.739 323.394C220.57 323.325 220.378 323.291 220.163 323.291C219.899 323.291 219.667 323.345 219.465 323.452C219.266 323.556 219.1 323.713 218.967 323.921C218.833 324.126 218.732 324.383 218.664 324.692C218.599 325.002 218.566 325.358 218.566 325.762V327.1C218.566 327.419 218.588 327.71 218.63 327.974C218.672 328.234 218.737 328.465 218.825 328.667C218.913 328.869 219.021 329.04 219.147 329.18C219.278 329.316 219.427 329.421 219.597 329.492C219.769 329.561 219.961 329.595 220.173 329.595C220.443 329.595 220.677 329.541 220.876 329.434C221.075 329.323 221.241 329.162 221.374 328.95C221.507 328.735 221.607 328.473 221.672 328.164C221.737 327.852 221.77 327.497 221.77 327.1ZM228.063 329.497V330H223.615V329.546L225.944 326.904C226.234 326.576 226.465 326.287 226.638 326.04C226.81 325.789 226.934 325.562 227.009 325.356C227.087 325.148 227.126 324.946 227.126 324.751C227.126 324.465 227.069 324.212 226.955 323.994C226.844 323.776 226.678 323.605 226.457 323.481C226.236 323.358 225.962 323.296 225.637 323.296C225.311 323.296 225.028 323.366 224.787 323.506C224.546 323.646 224.361 323.841 224.23 324.092C224.104 324.339 224.04 324.621 224.04 324.937H223.459C223.459 324.546 223.545 324.188 223.718 323.862C223.894 323.537 224.144 323.278 224.47 323.086C224.795 322.891 225.184 322.793 225.637 322.793C226.066 322.793 226.436 322.869 226.745 323.022C227.054 323.172 227.292 323.389 227.458 323.672C227.627 323.955 227.712 324.297 227.712 324.697C227.712 324.912 227.673 325.129 227.595 325.347C227.52 325.565 227.416 325.783 227.282 326.001C227.152 326.216 227.002 326.429 226.833 326.641C226.667 326.852 226.493 327.061 226.311 327.266L224.328 329.497H228.063ZM230.461 326.123H231.057C231.421 326.123 231.726 326.061 231.97 325.938C232.217 325.811 232.403 325.643 232.526 325.435C232.653 325.226 232.717 324.995 232.717 324.741C232.717 324.455 232.663 324.204 232.556 323.989C232.448 323.771 232.284 323.602 232.062 323.481C231.844 323.358 231.564 323.296 231.223 323.296C230.923 323.296 230.656 323.354 230.422 323.472C230.188 323.589 230.002 323.757 229.865 323.975C229.729 324.193 229.66 324.453 229.66 324.756H229.079C229.079 324.368 229.172 324.028 229.357 323.735C229.543 323.439 229.799 323.208 230.124 323.042C230.45 322.876 230.816 322.793 231.223 322.793C231.643 322.793 232.007 322.869 232.316 323.022C232.629 323.175 232.87 323.398 233.039 323.691C233.212 323.984 233.298 324.341 233.298 324.761C233.298 324.976 233.251 325.187 233.156 325.396C233.065 325.604 232.928 325.793 232.746 325.962C232.564 326.128 232.338 326.261 232.067 326.362C231.797 326.463 231.483 326.514 231.125 326.514H230.461V326.123ZM230.461 326.626V326.24H231.125C231.532 326.24 231.88 326.287 232.17 326.382C232.46 326.473 232.697 326.603 232.883 326.772C233.072 326.938 233.21 327.132 233.298 327.354C233.386 327.575 233.43 327.812 233.43 328.066C233.43 328.392 233.376 328.68 233.269 328.931C233.161 329.181 233.008 329.395 232.81 329.57C232.614 329.743 232.383 329.875 232.116 329.966C231.853 330.054 231.563 330.098 231.247 330.098C230.961 330.098 230.681 330.055 230.407 329.971C230.137 329.886 229.893 329.761 229.675 329.595C229.46 329.425 229.289 329.214 229.162 328.96C229.035 328.703 228.972 328.407 228.972 328.071H229.553C229.553 328.371 229.624 328.636 229.768 328.867C229.911 329.095 230.109 329.274 230.363 329.404C230.62 329.531 230.915 329.595 231.247 329.595C231.582 329.595 231.869 329.538 232.106 329.424C232.347 329.307 232.531 329.136 232.658 328.911C232.785 328.687 232.849 328.411 232.849 328.086C232.849 327.744 232.772 327.466 232.619 327.251C232.469 327.036 232.259 326.878 231.989 326.777C231.722 326.676 231.411 326.626 231.057 326.626H230.461Z" fill="#2B2F42"/>
<path d="M39.352 71.664C39.352 73.008 39.0213 74.1813 38.36 75.184C37.6987 76.1867 36.7387 76.9653 35.48 77.52C34.2427 78.0533 32.728 78.32 30.936 78.32C30.1467 78.32 29.368 78.2667 28.6 78.16C27.8533 78.0533 27.128 77.904 26.424 77.712C25.7413 77.4987 25.0907 77.2427 24.472 76.944V72.432C25.56 72.9013 26.68 73.3387 27.832 73.744C29.0053 74.128 30.168 74.32 31.32 74.32C32.1093 74.32 32.7387 74.2133 33.208 74C33.6987 73.7867 34.0507 73.4987 34.264 73.136C34.4987 72.7733 34.616 72.3573 34.616 71.888C34.616 71.312 34.4133 70.8213 34.008 70.416C33.624 70.0107 33.1013 69.6373 32.44 69.296C31.7787 68.9333 31.0213 68.5493 30.168 68.144C29.6347 67.888 29.0587 67.5893 28.44 67.248C27.8213 66.8853 27.224 66.448 26.648 65.936C26.0933 65.4027 25.6347 64.7627 25.272 64.016C24.9093 63.2693 24.728 62.3733 24.728 61.328C24.728 59.9627 25.0373 58.8 25.656 57.84C26.296 56.8587 27.192 56.112 28.344 55.6C29.5173 55.088 30.8933 54.832 32.472 54.832C33.6667 54.832 34.7973 54.9707 35.864 55.248C36.952 55.5253 38.0827 55.92 39.256 56.432L37.688 60.208C36.6427 59.7813 35.704 59.4507 34.872 59.216C34.04 58.9813 33.1867 58.864 32.312 58.864C31.7147 58.864 31.2027 58.96 30.776 59.152C30.3493 59.344 30.0187 59.6107 29.784 59.952C29.5707 60.2933 29.464 60.6987 29.464 61.168C29.464 61.7013 29.624 62.16 29.944 62.544C30.264 62.9067 30.744 63.2587 31.384 63.6C32.024 63.9413 32.824 64.3467 33.784 64.816C34.9573 65.3707 35.9493 65.9467 36.76 66.544C37.592 67.1413 38.232 67.8453 38.68 68.656C39.128 69.4667 39.352 70.4693 39.352 71.664ZM58.993 69.232C58.993 70.6827 58.7903 71.9733 58.385 73.104C58.001 74.2347 57.4357 75.1947 56.689 75.984C55.9637 76.752 55.0783 77.3387 54.033 77.744C52.9877 78.128 51.8037 78.32 50.481 78.32C49.265 78.32 48.1343 78.128 47.089 77.744C46.065 77.3387 45.1797 76.752 44.433 75.984C43.6863 75.1947 43.0997 74.2347 42.673 73.104C42.2677 71.9733 42.065 70.6827 42.065 69.232C42.065 67.2907 42.4063 65.6587 43.089 64.336C43.7717 62.992 44.753 61.968 46.033 61.264C47.313 60.56 48.8277 60.208 50.577 60.208C52.2197 60.208 53.6703 60.56 54.929 61.264C56.1877 61.968 57.1797 62.992 57.905 64.336C58.6303 65.6587 58.993 67.2907 58.993 69.232ZM46.929 69.232C46.929 70.384 47.0463 71.3547 47.281 72.144C47.537 72.912 47.9317 73.4987 48.465 73.904C48.9983 74.288 49.6917 74.48 50.545 74.48C51.3983 74.48 52.081 74.288 52.593 73.904C53.1263 73.4987 53.5103 72.912 53.745 72.144C54.001 71.3547 54.129 70.384 54.129 69.232C54.129 68.08 54.001 67.12 53.745 66.352C53.5103 65.584 53.1263 65.008 52.593 64.624C52.0597 64.24 51.3663 64.048 50.513 64.048C49.2543 64.048 48.337 64.4853 47.761 65.36C47.2063 66.2133 46.929 67.504 46.929 69.232ZM70.0375 78.32C68.3095 78.32 66.8375 78.0107 65.6215 77.392C64.4055 76.752 63.4775 75.7707 62.8375 74.448C62.1975 73.1253 61.8775 71.4293 61.8775 69.36C61.8775 67.2267 62.2402 65.488 62.9655 64.144C63.6908 62.8 64.6935 61.808 65.9735 61.168C67.2748 60.528 68.7682 60.208 70.4535 60.208C71.6482 60.208 72.6828 60.3253 73.5575 60.56C74.4535 60.7947 75.2322 61.072 75.8935 61.392L74.4855 65.072C73.7388 64.7733 73.0348 64.528 72.3735 64.336C71.7335 64.144 71.0935 64.048 70.4535 64.048C69.6215 64.048 68.9282 64.2507 68.3735 64.656C67.8188 65.04 67.4028 65.6267 67.1255 66.416C66.8695 67.184 66.7415 68.1547 66.7415 69.328C66.7415 70.48 66.8802 71.44 67.1575 72.208C67.4562 72.9547 67.8828 73.52 68.4375 73.904C68.9922 74.2667 69.6642 74.448 70.4535 74.448C71.4562 74.448 72.3415 74.32 73.1095 74.064C73.8775 73.7867 74.6242 73.4133 75.3495 72.944V77.008C74.6242 77.4773 73.8562 77.808 73.0455 78C72.2562 78.2133 71.2535 78.32 70.0375 78.32ZM84.139 60.528V78H79.371V60.528H84.139ZM81.771 53.68C82.475 53.68 83.083 53.8507 83.595 54.192C84.107 54.512 84.363 55.12 84.363 56.016C84.363 56.8907 84.107 57.4987 83.595 57.84C83.083 58.1813 82.475 58.352 81.771 58.352C81.0457 58.352 80.427 58.1813 79.915 57.84C79.4243 57.4987 79.179 56.8907 79.179 56.016C79.179 55.12 79.4243 54.512 79.915 54.192C80.427 53.8507 81.0457 53.68 81.771 53.68ZM96.289 60.176C98.6357 60.176 100.428 60.688 101.665 61.712C102.924 62.7147 103.553 64.2613 103.553 66.352V78H100.225L99.297 75.632H99.169C98.6783 76.2507 98.1663 76.7627 97.633 77.168C97.121 77.5733 96.5237 77.8613 95.841 78.032C95.1797 78.224 94.3583 78.32 93.377 78.32C92.353 78.32 91.425 78.128 90.593 77.744C89.7823 77.3387 89.1423 76.7307 88.673 75.92C88.2037 75.088 87.969 74.0427 87.969 72.784C87.969 70.928 88.6197 69.5627 89.921 68.688C91.2223 67.792 93.1743 67.3013 95.777 67.216L98.817 67.12V66.352C98.817 65.4347 98.5717 64.7627 98.081 64.336C97.6117 63.9093 96.9503 63.696 96.097 63.696C95.2437 63.696 94.4117 63.824 93.601 64.08C92.7903 64.3147 91.9797 64.6133 91.169 64.976L89.601 61.744C90.5397 61.2533 91.5743 60.8693 92.705 60.592C93.857 60.3147 95.0517 60.176 96.289 60.176ZM96.961 69.968C95.425 70.0107 94.3583 70.288 93.761 70.8C93.1637 71.312 92.865 71.984 92.865 72.816C92.865 73.5413 93.0783 74.064 93.505 74.384C93.9317 74.6827 94.4863 74.832 95.169 74.832C96.193 74.832 97.057 74.5333 97.761 73.936C98.465 73.3173 98.817 72.4533 98.817 71.344V69.904L96.961 69.968ZM113.202 78H108.434V53.68H113.202V78ZM136.544 78L131.04 60.08H130.912C130.933 60.5067 130.965 61.1467 131.008 62C131.051 62.8533 131.093 63.7707 131.136 64.752C131.179 65.712 131.2 66.5867 131.2 67.376V78H126.88V55.152H133.472L138.88 72.624H138.976L144.704 55.152H151.296V78H146.784V67.184C146.784 66.4587 146.795 65.6267 146.816 64.688C146.859 63.7493 146.891 62.864 146.912 62.032C146.955 61.1787 146.987 60.5387 147.008 60.112H146.88L140.992 78H136.544ZM163.884 60.208C165.505 60.208 166.892 60.5173 168.044 61.136C169.217 61.7547 170.124 62.6507 170.764 63.824C171.404 64.9973 171.724 66.4373 171.724 68.144V70.448H160.46C160.502 71.792 160.897 72.848 161.644 73.616C162.412 74.384 163.468 74.768 164.812 74.768C165.942 74.768 166.966 74.6613 167.884 74.448C168.801 74.2133 169.75 73.8613 170.732 73.392V77.072C169.878 77.4987 168.972 77.808 168.012 78C167.073 78.2133 165.932 78.32 164.588 78.32C162.838 78.32 161.292 78 159.948 77.36C158.604 76.6987 157.548 75.7067 156.78 74.384C156.012 73.0613 155.628 71.3973 155.628 69.392C155.628 67.344 155.969 65.648 156.652 64.304C157.356 62.9387 158.326 61.9147 159.564 61.232C160.801 60.5493 162.241 60.208 163.884 60.208ZM163.916 63.6C162.998 63.6 162.23 63.8987 161.612 64.496C161.014 65.0933 160.662 66.0213 160.556 67.28H167.244C167.244 66.576 167.116 65.9467 166.86 65.392C166.625 64.8373 166.262 64.4 165.772 64.08C165.281 63.76 164.662 63.6 163.916 63.6ZM181.126 78.32C179.184 78.32 177.595 77.5627 176.358 76.048C175.142 74.512 174.534 72.2613 174.534 69.296C174.534 66.3093 175.152 64.048 176.39 62.512C177.627 60.976 179.248 60.208 181.254 60.208C182.086 60.208 182.822 60.3253 183.462 60.56C184.102 60.7733 184.646 61.072 185.094 61.456C185.563 61.84 185.958 62.2773 186.278 62.768H186.438C186.374 62.4267 186.299 61.936 186.214 61.296C186.128 60.6347 186.086 59.9627 186.086 59.28V53.68H190.854V78H187.206L186.278 75.728H186.086C185.787 76.1973 185.403 76.6347 184.934 77.04C184.486 77.424 183.952 77.7333 183.334 77.968C182.715 78.2027 181.979 78.32 181.126 78.32ZM182.79 74.512C184.112 74.512 185.04 74.128 185.574 73.36C186.107 72.5707 186.384 71.3973 186.406 69.84V69.328C186.406 67.6213 186.139 66.32 185.606 65.424C185.094 64.528 184.134 64.08 182.726 64.08C181.68 64.08 180.859 64.5387 180.262 65.456C179.664 66.352 179.366 67.6533 179.366 69.36C179.366 71.0667 179.664 72.3573 180.262 73.232C180.859 74.0853 181.702 74.512 182.79 74.512ZM200.608 60.528V78H195.84V60.528H200.608ZM198.24 53.68C198.944 53.68 199.552 53.8507 200.064 54.192C200.576 54.512 200.832 55.12 200.832 56.016C200.832 56.8907 200.576 57.4987 200.064 57.84C199.552 58.1813 198.944 58.352 198.24 58.352C197.514 58.352 196.896 58.1813 196.384 57.84C195.893 57.4987 195.648 56.8907 195.648 56.016C195.648 55.12 195.893 54.512 196.384 54.192C196.896 53.8507 197.514 53.68 198.24 53.68ZM212.758 60.176C215.104 60.176 216.896 60.688 218.134 61.712C219.392 62.7147 220.022 64.2613 220.022 66.352V78H216.694L215.766 75.632H215.638C215.147 76.2507 214.635 76.7627 214.102 77.168C213.59 77.5733 212.992 77.8613 212.31 78.032C211.648 78.224 210.827 78.32 209.846 78.32C208.822 78.32 207.894 78.128 207.062 77.744C206.251 77.3387 205.611 76.7307 205.142 75.92C204.672 75.088 204.438 74.0427 204.438 72.784C204.438 70.928 205.088 69.5627 206.39 68.688C207.691 67.792 209.643 67.3013 212.246 67.216L215.286 67.12V66.352C215.286 65.4347 215.04 64.7627 214.55 64.336C214.08 63.9093 213.419 63.696 212.566 63.696C211.712 63.696 210.88 63.824 210.07 64.08C209.259 64.3147 208.448 64.6133 207.638 64.976L206.07 61.744C207.008 61.2533 208.043 60.8693 209.174 60.592C210.326 60.3147 211.52 60.176 212.758 60.176ZM213.43 69.968C211.894 70.0107 210.827 70.288 210.23 70.8C209.632 71.312 209.334 71.984 209.334 72.816C209.334 73.5413 209.547 74.064 209.974 74.384C210.4 74.6827 210.955 74.832 211.638 74.832C212.662 74.832 213.526 74.5333 214.23 73.936C214.934 73.3173 215.286 72.4533 215.286 71.344V69.904L213.43 69.968ZM39.864 122L38.2 116.56H29.88L28.216 122H23L31.064 99.056H36.984L45.08 122H39.864ZM35.384 107.184C35.2773 106.821 35.1387 106.363 34.968 105.808C34.7973 105.253 34.6267 104.688 34.456 104.112C34.2853 103.536 34.1467 103.035 34.04 102.608C33.9333 103.035 33.784 103.568 33.592 104.208C33.4213 104.827 33.2507 105.424 33.08 106C32.9307 106.555 32.8133 106.949 32.728 107.184L31.096 112.496H37.048L35.384 107.184ZM57.3498 104.208C57.5844 104.208 57.8618 104.219 58.1818 104.24C58.5018 104.261 58.7578 104.293 58.9498 104.336L58.5978 108.816C58.4484 108.773 58.2244 108.741 57.9258 108.72C57.6484 108.677 57.4031 108.656 57.1898 108.656C56.5711 108.656 55.9738 108.741 55.3978 108.912C54.8218 109.061 54.2991 109.307 53.8298 109.648C53.3818 109.989 53.0191 110.448 52.7418 111.024C52.4858 111.579 52.3578 112.272 52.3578 113.104V122H47.5898V104.528H51.2058L51.9098 107.472H52.1338C52.4751 106.875 52.9018 106.331 53.4138 105.84C53.9258 105.349 54.5124 104.955 55.1738 104.656C55.8564 104.357 56.5818 104.208 57.3498 104.208ZM69.481 118.512C70.0143 118.512 70.5263 118.459 71.017 118.352C71.5077 118.245 71.9983 118.117 72.489 117.968V121.52C71.977 121.733 71.337 121.915 70.569 122.064C69.8223 122.235 69.001 122.32 68.105 122.32C67.0597 122.32 66.121 122.149 65.289 121.808C64.4783 121.467 63.8277 120.88 63.337 120.048C62.8677 119.195 62.633 118.021 62.633 116.528V108.112H60.361V106.096L62.985 104.496L64.361 100.816H67.401V104.528H72.297V108.112H67.401V116.528C67.401 117.189 67.593 117.691 67.977 118.032C68.361 118.352 68.8623 118.512 69.481 118.512ZM74.46 115.376V111.472H82.844V115.376H74.46ZM91.8445 122.32C89.9032 122.32 88.3138 121.563 87.0765 120.048C85.8605 118.512 85.2525 116.261 85.2525 113.296C85.2525 110.309 85.8712 108.048 87.1085 106.512C88.3458 104.976 89.9672 104.208 91.9725 104.208C92.8045 104.208 93.5405 104.325 94.1805 104.56C94.8205 104.773 95.3645 105.072 95.8125 105.456C96.2818 105.84 96.6765 106.277 96.9965 106.768H97.1565C97.0925 106.427 97.0178 105.936 96.9325 105.296C96.8472 104.635 96.8045 103.963 96.8045 103.28V97.68H101.573V122H97.9245L96.9965 119.728H96.8045C96.5058 120.197 96.1218 120.635 95.6525 121.04C95.2045 121.424 94.6712 121.733 94.0525 121.968C93.4338 122.203 92.6978 122.32 91.8445 122.32ZM93.5085 118.512C94.8312 118.512 95.7592 118.128 96.2925 117.36C96.8258 116.571 97.1032 115.397 97.1245 113.84V113.328C97.1245 111.621 96.8578 110.32 96.3245 109.424C95.8125 108.528 94.8525 108.08 93.4445 108.08C92.3992 108.08 91.5778 108.539 90.9805 109.456C90.3832 110.352 90.0845 111.653 90.0845 113.36C90.0845 115.067 90.3832 116.357 90.9805 117.232C91.5778 118.085 92.4205 118.512 93.5085 118.512ZM111.327 104.528V122H106.559V104.528H111.327ZM108.959 97.68C109.663 97.68 110.271 97.8507 110.783 98.192C111.295 98.512 111.551 99.12 111.551 100.016C111.551 100.891 111.295 101.499 110.783 101.84C110.271 102.181 109.663 102.352 108.959 102.352C108.233 102.352 107.615 102.181 107.103 101.84C106.612 101.499 106.367 100.891 106.367 100.016C106.367 99.12 106.612 98.512 107.103 98.192C107.615 97.8507 108.233 97.68 108.959 97.68ZM126.069 104.208C126.303 104.208 126.581 104.219 126.901 104.24C127.221 104.261 127.477 104.293 127.669 104.336L127.317 108.816C127.167 108.773 126.943 108.741 126.645 108.72C126.367 108.677 126.122 108.656 125.909 108.656C125.29 108.656 124.693 108.741 124.117 108.912C123.541 109.061 123.018 109.307 122.549 109.648C122.101 109.989 121.738 110.448 121.461 111.024C121.205 111.579 121.077 112.272 121.077 113.104V122H116.309V104.528H119.925L120.629 107.472H120.853C121.194 106.875 121.621 106.331 122.133 105.84C122.645 105.349 123.231 104.955 123.893 104.656C124.575 104.357 125.301 104.208 126.069 104.208ZM137.415 104.208C139.036 104.208 140.423 104.517 141.575 105.136C142.748 105.755 143.655 106.651 144.295 107.824C144.935 108.997 145.255 110.437 145.255 112.144V114.448H133.991C134.033 115.792 134.428 116.848 135.175 117.616C135.943 118.384 136.999 118.768 138.343 118.768C139.473 118.768 140.497 118.661 141.415 118.448C142.332 118.213 143.281 117.861 144.263 117.392V121.072C143.409 121.499 142.503 121.808 141.543 122C140.604 122.213 139.463 122.32 138.119 122.32C136.369 122.32 134.823 122 133.479 121.36C132.135 120.699 131.079 119.707 130.311 118.384C129.543 117.061 129.159 115.397 129.159 113.392C129.159 111.344 129.5 109.648 130.183 108.304C130.887 106.939 131.857 105.915 133.095 105.232C134.332 104.549 135.772 104.208 137.415 104.208ZM137.447 107.6C136.529 107.6 135.761 107.899 135.143 108.496C134.545 109.093 134.193 110.021 134.087 111.28H140.775C140.775 110.576 140.647 109.947 140.391 109.392C140.156 108.837 139.793 108.4 139.303 108.08C138.812 107.76 138.193 107.6 137.447 107.6ZM156.225 122.32C154.497 122.32 153.025 122.011 151.809 121.392C150.593 120.752 149.665 119.771 149.025 118.448C148.385 117.125 148.065 115.429 148.065 113.36C148.065 111.227 148.428 109.488 149.153 108.144C149.878 106.8 150.881 105.808 152.161 105.168C153.462 104.528 154.956 104.208 156.641 104.208C157.836 104.208 158.87 104.325 159.745 104.56C160.641 104.795 161.42 105.072 162.081 105.392L160.673 109.072C159.926 108.773 159.222 108.528 158.561 108.336C157.921 108.144 157.281 108.048 156.641 108.048C155.809 108.048 155.116 108.251 154.561 108.656C154.006 109.04 153.59 109.627 153.313 110.416C153.057 111.184 152.929 112.155 152.929 113.328C152.929 114.48 153.068 115.44 153.345 116.208C153.644 116.955 154.07 117.52 154.625 117.904C155.18 118.267 155.852 118.448 156.641 118.448C157.644 118.448 158.529 118.32 159.297 118.064C160.065 117.787 160.812 117.413 161.537 116.944V121.008C160.812 121.477 160.044 121.808 159.233 122C158.444 122.213 157.441 122.32 156.225 122.32ZM172.919 118.512C173.452 118.512 173.964 118.459 174.455 118.352C174.945 118.245 175.436 118.117 175.927 117.968V121.52C175.415 121.733 174.775 121.915 174.007 122.064C173.26 122.235 172.439 122.32 171.543 122.32C170.497 122.32 169.559 122.149 168.727 121.808C167.916 121.467 167.265 120.88 166.775 120.048C166.305 119.195 166.071 118.021 166.071 116.528V108.112H163.799V106.096L166.423 104.496L167.799 100.816H170.839V104.528H175.735V108.112H170.839V116.528C170.839 117.189 171.031 117.691 171.415 118.032C171.799 118.352 172.3 118.512 172.919 118.512ZM195.306 113.232C195.306 114.683 195.103 115.973 194.698 117.104C194.314 118.235 193.748 119.195 193.002 119.984C192.276 120.752 191.391 121.339 190.346 121.744C189.3 122.128 188.116 122.32 186.794 122.32C185.578 122.32 184.447 122.128 183.402 121.744C182.378 121.339 181.492 120.752 180.746 119.984C179.999 119.195 179.412 118.235 178.986 117.104C178.58 115.973 178.378 114.683 178.378 113.232C178.378 111.291 178.719 109.659 179.402 108.336C180.084 106.992 181.066 105.968 182.346 105.264C183.626 104.56 185.14 104.208 186.89 104.208C188.532 104.208 189.983 104.56 191.242 105.264C192.5 105.968 193.492 106.992 194.218 108.336C194.943 109.659 195.306 111.291 195.306 113.232ZM183.242 113.232C183.242 114.384 183.359 115.355 183.594 116.144C183.85 116.912 184.244 117.499 184.778 117.904C185.311 118.288 186.004 118.48 186.858 118.48C187.711 118.48 188.394 118.288 188.906 117.904C189.439 117.499 189.823 116.912 190.058 116.144C190.314 115.355 190.442 114.384 190.442 113.232C190.442 112.08 190.314 111.12 190.058 110.352C189.823 109.584 189.439 109.008 188.906 108.624C188.372 108.24 187.679 108.048 186.826 108.048C185.567 108.048 184.65 108.485 184.074 109.36C183.519 110.213 183.242 111.504 183.242 113.232ZM209.006 104.208C209.241 104.208 209.518 104.219 209.838 104.24C210.158 104.261 210.414 104.293 210.606 104.336L210.254 108.816C210.105 108.773 209.881 108.741 209.582 108.72C209.305 108.677 209.059 108.656 208.846 108.656C208.227 108.656 207.63 108.741 207.054 108.912C206.478 109.061 205.955 109.307 205.486 109.648C205.038 109.989 204.675 110.448 204.398 111.024C204.142 111.579 204.014 112.272 204.014 113.104V122H199.246V104.528H202.862L203.566 107.472H203.79C204.131 106.875 204.558 106.331 205.07 105.84C205.582 105.349 206.169 104.955 206.83 104.656C207.513 104.357 208.238 104.208 209.006 104.208Z" fill="#575353"/>
<path d="M25.244 147H24.164V138.432H28.952V139.38H25.244V142.416H28.724V143.364H25.244V147ZM33.2427 140.448C33.3627 140.448 33.4907 140.456 33.6267 140.472C33.7707 140.48 33.8947 140.496 33.9987 140.52L33.8667 141.492C33.7627 141.468 33.6467 141.448 33.5187 141.432C33.3987 141.416 33.2827 141.408 33.1707 141.408C32.9227 141.408 32.6867 141.46 32.4627 141.564C32.2387 141.668 32.0387 141.816 31.8627 142.008C31.6867 142.192 31.5467 142.416 31.4427 142.68C31.3467 142.944 31.2987 143.24 31.2987 143.568V147H30.2427V140.568H31.1067L31.2267 141.744H31.2747C31.4107 141.504 31.5747 141.288 31.7667 141.096C31.9587 140.896 32.1787 140.74 32.4267 140.628C32.6747 140.508 32.9467 140.448 33.2427 140.448ZM37.4493 140.448C38.0013 140.448 38.4733 140.568 38.8653 140.808C39.2653 141.048 39.5693 141.388 39.7773 141.828C39.9933 142.26 40.1013 142.768 40.1013 143.352V143.988H35.6973C35.7133 144.716 35.8973 145.272 36.2493 145.656C36.6093 146.032 37.1093 146.22 37.7493 146.22C38.1573 146.22 38.5173 146.184 38.8293 146.112C39.1493 146.032 39.4773 145.92 39.8133 145.776V146.7C39.4853 146.844 39.1613 146.948 38.8413 147.012C38.5213 147.084 38.1413 147.12 37.7013 147.12C37.0933 147.12 36.5533 146.996 36.0813 146.748C35.6173 146.5 35.2533 146.132 34.9893 145.644C34.7333 145.148 34.6053 144.544 34.6053 143.832C34.6053 143.128 34.7213 142.524 34.9533 142.02C35.1933 141.516 35.5253 141.128 35.9493 140.856C36.3813 140.584 36.8813 140.448 37.4493 140.448ZM37.4373 141.312C36.9333 141.312 36.5333 141.476 36.2373 141.804C35.9493 142.124 35.7773 142.572 35.7213 143.148H38.9973C38.9973 142.78 38.9413 142.46 38.8293 142.188C38.7173 141.916 38.5453 141.704 38.3133 141.552C38.0893 141.392 37.7973 141.312 37.4373 141.312ZM44.2228 140.448C44.7748 140.448 45.2468 140.568 45.6388 140.808C46.0388 141.048 46.3428 141.388 46.5508 141.828C46.7668 142.26 46.8748 142.768 46.8748 143.352V143.988H42.4708C42.4868 144.716 42.6708 145.272 43.0228 145.656C43.3828 146.032 43.8828 146.22 44.5228 146.22C44.9308 146.22 45.2908 146.184 45.6028 146.112C45.9228 146.032 46.2508 145.92 46.5868 145.776V146.7C46.2588 146.844 45.9348 146.948 45.6148 147.012C45.2948 147.084 44.9148 147.12 44.4748 147.12C43.8668 147.12 43.3268 146.996 42.8548 146.748C42.3908 146.5 42.0268 146.132 41.7628 145.644C41.5068 145.148 41.3788 144.544 41.3788 143.832C41.3788 143.128 41.4948 142.524 41.7268 142.02C41.9668 141.516 42.2988 141.128 42.7228 140.856C43.1548 140.584 43.6548 140.448 44.2228 140.448ZM44.2108 141.312C43.7068 141.312 43.3068 141.476 43.0108 141.804C42.7228 142.124 42.5508 142.572 42.4948 143.148H45.7708C45.7708 142.78 45.7148 142.46 45.6028 142.188C45.4908 141.916 45.3188 141.704 45.0868 141.552C44.8628 141.392 44.5708 141.312 44.2108 141.312ZM49.5682 147H48.5122V137.88H49.5682V147ZM54.0419 140.46C54.8259 140.46 55.4059 140.632 55.7819 140.976C56.1579 141.32 56.3459 141.868 56.3459 142.62V147H55.5779L55.3739 146.088H55.3259C55.1419 146.32 54.9499 146.516 54.7499 146.676C54.5579 146.828 54.3339 146.94 54.0779 147.012C53.8299 147.084 53.5259 147.12 53.1659 147.12C52.7819 147.12 52.4339 147.052 52.1219 146.916C51.8179 146.78 51.5779 146.572 51.4019 146.292C51.2259 146.004 51.1379 145.644 51.1379 145.212C51.1379 144.572 51.3899 144.08 51.8939 143.736C52.3979 143.384 53.1739 143.192 54.2219 143.16L55.3139 143.124V142.74C55.3139 142.204 55.1979 141.832 54.9659 141.624C54.7339 141.416 54.4059 141.312 53.9819 141.312C53.6459 141.312 53.3259 141.364 53.0219 141.468C52.7179 141.564 52.4339 141.676 52.1699 141.804L51.8459 141.012C52.1259 140.86 52.4579 140.732 52.8419 140.628C53.2259 140.516 53.6259 140.46 54.0419 140.46ZM54.3539 143.892C53.5539 143.924 52.9979 144.052 52.6859 144.276C52.3819 144.5 52.2299 144.816 52.2299 145.224C52.2299 145.584 52.3379 145.848 52.5539 146.016C52.7779 146.184 53.0619 146.268 53.4059 146.268C53.9499 146.268 54.4019 146.12 54.7619 145.824C55.1219 145.52 55.3019 145.056 55.3019 144.432V143.856L54.3539 143.892ZM61.4285 140.448C62.1965 140.448 62.7765 140.636 63.1685 141.012C63.5605 141.38 63.7565 141.98 63.7565 142.812V147H62.7125V142.884C62.7125 142.364 62.5965 141.976 62.3645 141.72C62.1325 141.464 61.7685 141.336 61.2725 141.336C60.5605 141.336 60.0685 141.536 59.7965 141.936C59.5245 142.336 59.3885 142.912 59.3885 143.664V147H58.3325V140.568H59.1845L59.3405 141.444H59.4005C59.5445 141.22 59.7205 141.036 59.9285 140.892C60.1445 140.74 60.3805 140.628 60.6365 140.556C60.8925 140.484 61.1565 140.448 61.4285 140.448ZM68.3305 147.12C67.7625 147.12 67.2545 147.004 66.8065 146.772C66.3665 146.54 66.0185 146.18 65.7625 145.692C65.5145 145.204 65.3905 144.58 65.3905 143.82C65.3905 143.028 65.5225 142.384 65.7865 141.888C66.0505 141.392 66.4065 141.028 66.8545 140.796C67.3105 140.564 67.8265 140.448 68.4025 140.448C68.7305 140.448 69.0465 140.484 69.3505 140.556C69.6545 140.62 69.9025 140.7 70.0945 140.796L69.7705 141.672C69.5785 141.6 69.3545 141.532 69.0985 141.468C68.8425 141.404 68.6025 141.372 68.3785 141.372C67.9465 141.372 67.5905 141.464 67.3105 141.648C67.0305 141.832 66.8225 142.104 66.6865 142.464C66.5505 142.824 66.4825 143.272 66.4825 143.808C66.4825 144.32 66.5505 144.756 66.6865 145.116C66.8225 145.476 67.0265 145.748 67.2985 145.932C67.5705 146.116 67.9105 146.208 68.3185 146.208C68.6705 146.208 68.9785 146.172 69.2425 146.1C69.5145 146.028 69.7625 145.94 69.9865 145.836V146.772C69.7705 146.884 69.5305 146.968 69.2665 147.024C69.0105 147.088 68.6985 147.12 68.3305 147.12ZM74.0001 140.448C74.5521 140.448 75.0241 140.568 75.4161 140.808C75.8161 141.048 76.1201 141.388 76.3281 141.828C76.5441 142.26 76.6521 142.768 76.6521 143.352V143.988H72.2481C72.2641 144.716 72.4481 145.272 72.8001 145.656C73.1601 146.032 73.6601 146.22 74.3001 146.22C74.7081 146.22 75.0681 146.184 75.3801 146.112C75.7001 146.032 76.0281 145.92 76.3641 145.776V146.7C76.0361 146.844 75.7121 146.948 75.3921 147.012C75.0721 147.084 74.6921 147.12 74.2521 147.12C73.6441 147.12 73.1041 146.996 72.6321 146.748C72.1681 146.5 71.8041 146.132 71.5401 145.644C71.2841 145.148 71.1561 144.544 71.1561 143.832C71.1561 143.128 71.2721 142.524 71.5041 142.02C71.7441 141.516 72.0761 141.128 72.5001 140.856C72.9321 140.584 73.4321 140.448 74.0001 140.448ZM73.9881 141.312C73.4841 141.312 73.0841 141.476 72.7881 141.804C72.5001 142.124 72.3281 142.572 72.2721 143.148H75.5481C75.5481 142.78 75.4921 142.46 75.3801 142.188C75.2681 141.916 75.0961 141.704 74.8641 141.552C74.6401 141.392 74.3481 141.312 73.9881 141.312ZM34.004 154.432L31.724 163H30.632L28.964 157.384C28.916 157.216 28.868 157.044 28.82 156.868C28.772 156.692 28.728 156.524 28.688 156.364C28.648 156.204 28.612 156.068 28.58 155.956C28.556 155.836 28.54 155.748 28.532 155.692C28.524 155.748 28.508 155.836 28.484 155.956C28.468 156.068 28.44 156.204 28.4 156.364C28.36 156.524 28.316 156.696 28.268 156.88C28.228 157.056 28.18 157.236 28.124 157.42L26.504 163H25.412L23.144 154.432H24.272L25.604 159.664C25.652 159.848 25.696 160.032 25.736 160.216C25.776 160.392 25.812 160.568 25.844 160.744C25.884 160.912 25.916 161.076 25.94 161.236C25.964 161.396 25.988 161.552 26.012 161.704C26.036 161.544 26.06 161.38 26.084 161.212C26.116 161.044 26.152 160.872 26.192 160.696C26.232 160.512 26.276 160.328 26.324 160.144C26.372 159.96 26.42 159.78 26.468 159.604L27.98 154.432H29.096L30.668 159.64C30.724 159.824 30.776 160.012 30.824 160.204C30.872 160.388 30.916 160.568 30.956 160.744C30.996 160.92 31.028 161.092 31.052 161.26C31.084 161.42 31.112 161.568 31.136 161.704C31.16 161.504 31.192 161.296 31.232 161.08C31.272 160.856 31.32 160.624 31.376 160.384C31.432 160.144 31.492 159.9 31.556 159.652L32.876 154.432H34.004ZM40.4351 156.568V163H39.5711L39.4151 162.148H39.3671C39.2311 162.372 39.0551 162.556 38.8391 162.7C38.6231 162.844 38.3871 162.948 38.1311 163.012C37.8751 163.084 37.6071 163.12 37.3271 163.12C36.8151 163.12 36.3831 163.04 36.0311 162.88C35.6871 162.712 35.4271 162.456 35.2511 162.112C35.0751 161.768 34.9871 161.324 34.9871 160.78V156.568H36.0551V160.708C36.0551 161.22 36.1711 161.604 36.4031 161.86C36.6351 162.116 36.9951 162.244 37.4831 162.244C37.9631 162.244 38.3391 162.156 38.6111 161.98C38.8911 161.796 39.0871 161.532 39.1991 161.188C39.3191 160.836 39.3791 160.412 39.3791 159.916V156.568H40.4351ZM45.573 156.448C46.341 156.448 46.921 156.636 47.313 157.012C47.705 157.38 47.901 157.98 47.901 158.812V163H46.857V158.884C46.857 158.364 46.741 157.976 46.509 157.72C46.277 157.464 45.913 157.336 45.417 157.336C44.705 157.336 44.213 157.536 43.941 157.936C43.669 158.336 43.533 158.912 43.533 159.664V163H42.477V156.568H43.329L43.485 157.444H43.545C43.689 157.22 43.865 157.036 44.073 156.892C44.289 156.74 44.525 156.628 44.781 156.556C45.037 156.484 45.301 156.448 45.573 156.448ZM52.175 163.12C51.375 163.12 50.735 162.844 50.255 162.292C49.775 161.732 49.535 160.9 49.535 159.796C49.535 158.692 49.775 157.86 50.255 157.3C50.743 156.732 51.387 156.448 52.187 156.448C52.523 156.448 52.815 156.492 53.063 156.58C53.311 156.66 53.527 156.772 53.711 156.916C53.895 157.06 54.051 157.22 54.179 157.396H54.251C54.243 157.292 54.227 157.14 54.203 156.94C54.187 156.732 54.179 156.568 54.179 156.448V153.88H55.235V163H54.383L54.227 162.136H54.179C54.051 162.32 53.895 162.488 53.711 162.64C53.527 162.784 53.307 162.9 53.051 162.988C52.803 163.076 52.511 163.12 52.175 163.12ZM52.343 162.244C53.023 162.244 53.499 162.06 53.771 161.692C54.051 161.316 54.191 160.752 54.191 160V159.808C54.191 159.008 54.059 158.396 53.795 157.972C53.531 157.54 53.043 157.324 52.331 157.324C51.763 157.324 51.335 157.552 51.047 158.008C50.767 158.456 50.627 159.06 50.627 159.82C50.627 160.588 50.767 161.184 51.047 161.608C51.335 162.032 51.767 162.244 52.343 162.244ZM59.7618 156.448C60.3138 156.448 60.7858 156.568 61.1778 156.808C61.5778 157.048 61.8818 157.388 62.0898 157.828C62.3058 158.26 62.4138 158.768 62.4138 159.352V159.988H58.0098C58.0258 160.716 58.2098 161.272 58.5618 161.656C58.9218 162.032 59.4218 162.22 60.0618 162.22C60.4698 162.22 60.8298 162.184 61.1418 162.112C61.4618 162.032 61.7898 161.92 62.1258 161.776V162.7C61.7978 162.844 61.4738 162.948 61.1538 163.012C60.8338 163.084 60.4538 163.12 60.0138 163.12C59.4058 163.12 58.8658 162.996 58.3938 162.748C57.9298 162.5 57.5658 162.132 57.3018 161.644C57.0458 161.148 56.9178 160.544 56.9178 159.832C56.9178 159.128 57.0338 158.524 57.2658 158.02C57.5058 157.516 57.8378 157.128 58.2618 156.856C58.6938 156.584 59.1938 156.448 59.7618 156.448ZM59.7498 157.312C59.2458 157.312 58.8458 157.476 58.5498 157.804C58.2618 158.124 58.0898 158.572 58.0338 159.148H61.3098C61.3098 158.78 61.2538 158.46 61.1418 158.188C61.0298 157.916 60.8578 157.704 60.6258 157.552C60.4018 157.392 60.1098 157.312 59.7498 157.312ZM67.0513 156.448C67.1713 156.448 67.2993 156.456 67.4353 156.472C67.5793 156.48 67.7033 156.496 67.8073 156.52L67.6753 157.492C67.5713 157.468 67.4553 157.448 67.3273 157.432C67.2073 157.416 67.0913 157.408 66.9793 157.408C66.7313 157.408 66.4953 157.46 66.2713 157.564C66.0473 157.668 65.8473 157.816 65.6713 158.008C65.4953 158.192 65.3553 158.416 65.2513 158.68C65.1553 158.944 65.1073 159.24 65.1073 159.568V163H64.0513V156.568H64.9153L65.0353 157.744H65.0833C65.2193 157.504 65.3833 157.288 65.5753 157.096C65.7673 156.896 65.9873 156.74 66.2353 156.628C66.4833 156.508 66.7553 156.448 67.0513 156.448ZM76.0643 156.448C76.7923 156.448 77.3363 156.636 77.6963 157.012C78.0563 157.38 78.2363 157.98 78.2363 158.812V163H77.1923V158.86C77.1923 158.356 77.0843 157.976 76.8683 157.72C76.6603 157.464 76.3323 157.336 75.8843 157.336C75.2603 157.336 74.8123 157.516 74.5403 157.876C74.2763 158.236 74.1443 158.76 74.1443 159.448V163H73.1003V158.86C73.1003 158.524 73.0523 158.244 72.9563 158.02C72.8603 157.788 72.7163 157.616 72.5243 157.504C72.3323 157.392 72.0843 157.336 71.7803 157.336C71.3483 157.336 71.0083 157.428 70.7603 157.612C70.5123 157.788 70.3323 158.048 70.2203 158.392C70.1163 158.736 70.0643 159.16 70.0643 159.664V163H69.0083V156.568H69.8603L70.0163 157.444H70.0763C70.2123 157.22 70.3763 157.036 70.5683 156.892C70.7683 156.74 70.9883 156.628 71.2283 156.556C71.4683 156.484 71.7163 156.448 71.9723 156.448C72.4683 156.448 72.8803 156.536 73.2083 156.712C73.5443 156.888 73.7883 157.16 73.9403 157.528H74.0003C74.2163 157.16 74.5083 156.888 74.8763 156.712C75.2523 156.536 75.6483 156.448 76.0643 156.448ZM82.6591 156.46C83.4431 156.46 84.0231 156.632 84.3991 156.976C84.7751 157.32 84.9631 157.868 84.9631 158.62V163H84.1951L83.9911 162.088H83.9431C83.7591 162.32 83.5671 162.516 83.3671 162.676C83.1751 162.828 82.9511 162.94 82.6951 163.012C82.4471 163.084 82.1431 163.12 81.7831 163.12C81.3991 163.12 81.0511 163.052 80.7391 162.916C80.4351 162.78 80.1951 162.572 80.0191 162.292C79.8431 162.004 79.7551 161.644 79.7551 161.212C79.7551 160.572 80.0071 160.08 80.5111 159.736C81.0151 159.384 81.7911 159.192 82.8391 159.16L83.9311 159.124V158.74C83.9311 158.204 83.8151 157.832 83.5831 157.624C83.3511 157.416 83.0231 157.312 82.5991 157.312C82.2631 157.312 81.9431 157.364 81.6391 157.468C81.3351 157.564 81.0511 157.676 80.7871 157.804L80.4631 157.012C80.7431 156.86 81.0751 156.732 81.4591 156.628C81.8431 156.516 82.2431 156.46 82.6591 156.46ZM82.9711 159.892C82.1711 159.924 81.6151 160.052 81.3031 160.276C80.9991 160.5 80.8471 160.816 80.8471 161.224C80.8471 161.584 80.9551 161.848 81.1711 162.016C81.3951 162.184 81.6791 162.268 82.0231 162.268C82.5671 162.268 83.0191 162.12 83.3791 161.824C83.7391 161.52 83.9191 161.056 83.9191 160.432V159.856L82.9711 159.892ZM90.0457 156.448C90.8137 156.448 91.3937 156.636 91.7857 157.012C92.1777 157.38 92.3737 157.98 92.3737 158.812V163H91.3297V158.884C91.3297 158.364 91.2137 157.976 90.9817 157.72C90.7497 157.464 90.3857 157.336 89.8897 157.336C89.1777 157.336 88.6857 157.536 88.4137 157.936C88.1417 158.336 88.0057 158.912 88.0057 159.664V163H86.9497V156.568H87.8017L87.9577 157.444H88.0177C88.1617 157.22 88.3377 157.036 88.5457 156.892C88.7617 156.74 88.9977 156.628 89.2537 156.556C89.5097 156.484 89.7737 156.448 90.0457 156.448ZM100.341 163H99.2608V155.38H96.5848V154.432H103.005V155.38H100.341V163ZM105.209 156.556C105.209 156.708 105.201 156.864 105.185 157.024C105.177 157.184 105.165 157.328 105.149 157.456H105.221C105.357 157.232 105.529 157.048 105.737 156.904C105.945 156.76 106.177 156.652 106.433 156.58C106.689 156.5 106.953 156.46 107.225 156.46C107.745 156.46 108.177 156.544 108.521 156.712C108.873 156.872 109.137 157.124 109.313 157.468C109.489 157.812 109.577 158.26 109.577 158.812V163H108.533V158.884C108.533 158.364 108.417 157.976 108.185 157.72C107.953 157.464 107.589 157.336 107.093 157.336C106.613 157.336 106.237 157.428 105.965 157.612C105.693 157.788 105.497 158.052 105.377 158.404C105.265 158.748 105.209 159.172 105.209 159.676V163H104.153V153.88H105.209V156.556ZM117.163 159.772C117.163 160.308 117.091 160.784 116.947 161.2C116.811 161.608 116.611 161.956 116.347 162.244C116.091 162.532 115.775 162.752 115.399 162.904C115.031 163.048 114.619 163.12 114.163 163.12C113.739 163.12 113.347 163.048 112.987 162.904C112.627 162.752 112.315 162.532 112.051 162.244C111.787 161.956 111.579 161.608 111.427 161.2C111.283 160.784 111.211 160.308 111.211 159.772C111.211 159.06 111.331 158.46 111.571 157.972C111.811 157.476 112.155 157.1 112.603 156.844C113.051 156.58 113.583 156.448 114.199 156.448C114.783 156.448 115.295 156.58 115.735 156.844C116.183 157.1 116.531 157.476 116.779 157.972C117.035 158.46 117.163 159.06 117.163 159.772ZM112.303 159.772C112.303 160.276 112.367 160.716 112.495 161.092C112.631 161.46 112.839 161.744 113.119 161.944C113.399 162.144 113.755 162.244 114.187 162.244C114.619 162.244 114.975 162.144 115.255 161.944C115.535 161.744 115.739 161.46 115.867 161.092C116.003 160.716 116.071 160.276 116.071 159.772C116.071 159.26 116.003 158.824 115.867 158.464C115.731 158.104 115.523 157.828 115.243 157.636C114.971 157.436 114.615 157.336 114.175 157.336C113.519 157.336 113.043 157.552 112.747 157.984C112.451 158.416 112.303 159.012 112.303 159.772ZM125.892 156.448C126.62 156.448 127.164 156.636 127.524 157.012C127.884 157.38 128.064 157.98 128.064 158.812V163H127.02V158.86C127.02 158.356 126.912 157.976 126.696 157.72C126.488 157.464 126.16 157.336 125.712 157.336C125.088 157.336 124.64 157.516 124.368 157.876C124.104 158.236 123.972 158.76 123.972 159.448V163H122.928V158.86C122.928 158.524 122.88 158.244 122.784 158.02C122.688 157.788 122.544 157.616 122.352 157.504C122.16 157.392 121.912 157.336 121.608 157.336C121.176 157.336 120.836 157.428 120.588 157.612C120.34 157.788 120.16 158.048 120.048 158.392C119.944 158.736 119.892 159.16 119.892 159.664V163H118.836V156.568H119.688L119.844 157.444H119.904C120.04 157.22 120.204 157.036 120.396 156.892C120.596 156.74 120.816 156.628 121.056 156.556C121.296 156.484 121.544 156.448 121.8 156.448C122.296 156.448 122.708 156.536 123.036 156.712C123.372 156.888 123.616 157.16 123.768 157.528H123.828C124.044 157.16 124.336 156.888 124.704 156.712C125.08 156.536 125.476 156.448 125.892 156.448ZM133.111 156.448C133.903 156.448 134.539 156.724 135.019 157.276C135.507 157.828 135.751 158.66 135.751 159.772C135.751 160.5 135.639 161.116 135.415 161.62C135.199 162.116 134.891 162.492 134.491 162.748C134.099 162.996 133.635 163.12 133.099 163.12C132.771 163.12 132.479 163.076 132.223 162.988C131.967 162.9 131.747 162.788 131.563 162.652C131.387 162.508 131.235 162.352 131.107 162.184H131.035C131.051 162.32 131.067 162.492 131.083 162.7C131.099 162.908 131.107 163.088 131.107 163.24V165.88H130.051V156.568H130.915L131.059 157.444H131.107C131.235 157.26 131.387 157.092 131.563 156.94C131.747 156.788 131.963 156.668 132.211 156.58C132.467 156.492 132.767 156.448 133.111 156.448ZM132.919 157.336C132.487 157.336 132.139 157.42 131.875 157.588C131.611 157.748 131.419 157.992 131.299 158.32C131.179 158.648 131.115 159.064 131.107 159.568V159.772C131.107 160.3 131.163 160.748 131.275 161.116C131.387 161.484 131.575 161.764 131.839 161.956C132.111 162.148 132.479 162.244 132.943 162.244C133.335 162.244 133.655 162.136 133.903 161.92C134.159 161.704 134.347 161.412 134.467 161.044C134.595 160.668 134.659 160.24 134.659 159.76C134.659 159.024 134.515 158.436 134.227 157.996C133.947 157.556 133.511 157.336 132.919 157.336ZM141.622 161.224C141.622 161.64 141.518 161.988 141.31 162.268C141.102 162.548 140.806 162.76 140.422 162.904C140.038 163.048 139.582 163.12 139.054 163.12C138.606 163.12 138.218 163.084 137.89 163.012C137.57 162.94 137.286 162.84 137.038 162.712V161.752C137.294 161.88 137.602 162 137.962 162.112C138.33 162.216 138.702 162.268 139.078 162.268C139.614 162.268 140.002 162.184 140.242 162.016C140.482 161.84 140.602 161.608 140.602 161.32C140.602 161.16 140.558 161.016 140.47 160.888C140.382 160.76 140.222 160.632 139.99 160.504C139.766 160.376 139.442 160.232 139.018 160.072C138.602 159.912 138.246 159.752 137.95 159.592C137.654 159.432 137.426 159.24 137.266 159.016C137.106 158.792 137.026 158.504 137.026 158.152C137.026 157.608 137.246 157.188 137.686 156.892C138.134 156.596 138.718 156.448 139.438 156.448C139.83 156.448 140.194 156.488 140.53 156.568C140.874 156.64 141.194 156.744 141.49 156.88L141.13 157.72C140.954 157.64 140.766 157.572 140.566 157.516C140.374 157.452 140.178 157.404 139.978 157.372C139.778 157.332 139.574 157.312 139.366 157.312C138.934 157.312 138.602 157.384 138.37 157.528C138.146 157.664 138.034 157.852 138.034 158.092C138.034 158.268 138.086 158.42 138.19 158.548C138.294 158.668 138.466 158.788 138.706 158.908C138.954 159.02 139.282 159.156 139.69 159.316C140.098 159.468 140.446 159.624 140.734 159.784C141.022 159.944 141.242 160.14 141.394 160.372C141.546 160.596 141.622 160.88 141.622 161.224ZM148.768 159.772C148.768 160.308 148.696 160.784 148.552 161.2C148.416 161.608 148.216 161.956 147.952 162.244C147.696 162.532 147.38 162.752 147.004 162.904C146.636 163.048 146.224 163.12 145.768 163.12C145.344 163.12 144.952 163.048 144.592 162.904C144.232 162.752 143.92 162.532 143.656 162.244C143.392 161.956 143.184 161.608 143.032 161.2C142.888 160.784 142.816 160.308 142.816 159.772C142.816 159.06 142.936 158.46 143.176 157.972C143.416 157.476 143.76 157.1 144.208 156.844C144.656 156.58 145.188 156.448 145.804 156.448C146.388 156.448 146.9 156.58 147.34 156.844C147.788 157.1 148.136 157.476 148.384 157.972C148.64 158.46 148.768 159.06 148.768 159.772ZM143.908 159.772C143.908 160.276 143.972 160.716 144.1 161.092C144.236 161.46 144.444 161.744 144.724 161.944C145.004 162.144 145.36 162.244 145.792 162.244C146.224 162.244 146.58 162.144 146.86 161.944C147.14 161.744 147.344 161.46 147.472 161.092C147.608 160.716 147.676 160.276 147.676 159.772C147.676 159.26 147.608 158.824 147.472 158.464C147.336 158.104 147.128 157.828 146.848 157.636C146.576 157.436 146.22 157.336 145.78 157.336C145.124 157.336 144.648 157.552 144.352 157.984C144.056 158.416 143.908 159.012 143.908 159.772ZM153.538 156.448C154.306 156.448 154.886 156.636 155.278 157.012C155.67 157.38 155.866 157.98 155.866 158.812V163H154.822V158.884C154.822 158.364 154.706 157.976 154.474 157.72C154.242 157.464 153.878 157.336 153.382 157.336C152.67 157.336 152.178 157.536 151.906 157.936C151.634 158.336 151.498 158.912 151.498 159.664V163H150.442V156.568H151.294L151.45 157.444H151.51C151.654 157.22 151.83 157.036 152.038 156.892C152.254 156.74 152.49 156.628 152.746 156.556C153.002 156.484 153.266 156.448 153.538 156.448ZM26.876 179H25.796V171.38H23.12V170.432H29.54V171.38H26.876V179ZM31.744 172.556C31.744 172.708 31.736 172.864 31.72 173.024C31.712 173.184 31.7 173.328 31.684 173.456H31.756C31.892 173.232 32.064 173.048 32.272 172.904C32.48 172.76 32.712 172.652 32.968 172.58C33.224 172.5 33.488 172.46 33.76 172.46C34.28 172.46 34.712 172.544 35.056 172.712C35.408 172.872 35.672 173.124 35.848 173.468C36.024 173.812 36.112 174.26 36.112 174.812V179H35.068V174.884C35.068 174.364 34.952 173.976 34.72 173.72C34.488 173.464 34.124 173.336 33.628 173.336C33.148 173.336 32.772 173.428 32.5 173.612C32.228 173.788 32.032 174.052 31.912 174.404C31.8 174.748 31.744 175.172 31.744 175.676V179H30.688V169.88H31.744V172.556ZM40.5419 172.46C41.3259 172.46 41.9059 172.632 42.2819 172.976C42.6579 173.32 42.8459 173.868 42.8459 174.62V179H42.0779L41.8739 178.088H41.8259C41.6419 178.32 41.4499 178.516 41.2499 178.676C41.0579 178.828 40.8339 178.94 40.5779 179.012C40.3299 179.084 40.0259 179.12 39.6659 179.12C39.2819 179.12 38.9339 179.052 38.6219 178.916C38.3179 178.78 38.0779 178.572 37.9019 178.292C37.7259 178.004 37.6379 177.644 37.6379 177.212C37.6379 176.572 37.8899 176.08 38.3939 175.736C38.8979 175.384 39.6739 175.192 40.7219 175.16L41.8139 175.124V174.74C41.8139 174.204 41.6979 173.832 41.4659 173.624C41.2339 173.416 40.9059 173.312 40.4819 173.312C40.1459 173.312 39.8259 173.364 39.5219 173.468C39.2179 173.564 38.9339 173.676 38.6699 173.804L38.3459 173.012C38.6259 172.86 38.9579 172.732 39.3419 172.628C39.7259 172.516 40.1259 172.46 40.5419 172.46ZM40.8539 175.892C40.0539 175.924 39.4979 176.052 39.1859 176.276C38.8819 176.5 38.7299 176.816 38.7299 177.224C38.7299 177.584 38.8379 177.848 39.0539 178.016C39.2779 178.184 39.5619 178.268 39.9059 178.268C40.4499 178.268 40.9019 178.12 41.2619 177.824C41.6219 177.52 41.8019 177.056 41.8019 176.432V175.856L40.8539 175.892ZM45.8885 172.568V179H44.8325V172.568H45.8885ZM45.3725 170.156C45.5325 170.156 45.6725 170.212 45.7925 170.324C45.9205 170.428 45.9845 170.596 45.9845 170.828C45.9845 171.052 45.9205 171.22 45.7925 171.332C45.6725 171.444 45.5325 171.5 45.3725 171.5C45.1965 171.5 45.0485 171.444 44.9285 171.332C44.8085 171.22 44.7485 171.052 44.7485 170.828C44.7485 170.596 44.8085 170.428 44.9285 170.324C45.0485 170.212 45.1965 170.156 45.3725 170.156ZM48.9823 179H47.9263V169.88H48.9823V179ZM53.456 172.46C54.24 172.46 54.82 172.632 55.196 172.976C55.572 173.32 55.76 173.868 55.76 174.62V179H54.992L54.788 178.088H54.74C54.556 178.32 54.364 178.516 54.164 178.676C53.972 178.828 53.748 178.94 53.492 179.012C53.244 179.084 52.94 179.12 52.58 179.12C52.196 179.12 51.848 179.052 51.536 178.916C51.232 178.78 50.992 178.572 50.816 178.292C50.64 178.004 50.552 177.644 50.552 177.212C50.552 176.572 50.804 176.08 51.308 175.736C51.812 175.384 52.588 175.192 53.636 175.16L54.728 175.124V174.74C54.728 174.204 54.612 173.832 54.38 173.624C54.148 173.416 53.82 173.312 53.396 173.312C53.06 173.312 52.74 173.364 52.436 173.468C52.132 173.564 51.848 173.676 51.584 173.804L51.26 173.012C51.54 172.86 51.872 172.732 52.256 172.628C52.64 172.516 53.04 172.46 53.456 172.46ZM53.768 175.892C52.968 175.924 52.412 176.052 52.1 176.276C51.796 176.5 51.644 176.816 51.644 177.224C51.644 177.584 51.752 177.848 51.968 178.016C52.192 178.184 52.476 178.268 52.82 178.268C53.364 178.268 53.816 178.12 54.176 177.824C54.536 177.52 54.716 177.056 54.716 176.432V175.856L53.768 175.892ZM60.8426 172.448C61.6106 172.448 62.1906 172.636 62.5826 173.012C62.9746 173.38 63.1706 173.98 63.1706 174.812V179H62.1266V174.884C62.1266 174.364 62.0106 173.976 61.7786 173.72C61.5466 173.464 61.1826 173.336 60.6866 173.336C59.9746 173.336 59.4826 173.536 59.2106 173.936C58.9386 174.336 58.8026 174.912 58.8026 175.664V179H57.7466V172.568H58.5986L58.7546 173.444H58.8146C58.9586 173.22 59.1346 173.036 59.3426 172.892C59.5586 172.74 59.7946 172.628 60.0506 172.556C60.3066 172.484 60.5706 172.448 60.8426 172.448ZM67.4445 179.12C66.6445 179.12 66.0045 178.844 65.5245 178.292C65.0445 177.732 64.8045 176.9 64.8045 175.796C64.8045 174.692 65.0445 173.86 65.5245 173.3C66.0125 172.732 66.6565 172.448 67.4565 172.448C67.7925 172.448 68.0845 172.492 68.3325 172.58C68.5805 172.66 68.7965 172.772 68.9805 172.916C69.1645 173.06 69.3205 173.22 69.4485 173.396H69.5205C69.5125 173.292 69.4965 173.14 69.4725 172.94C69.4565 172.732 69.4485 172.568 69.4485 172.448V169.88H70.5045V179H69.6525L69.4965 178.136H69.4485C69.3205 178.32 69.1645 178.488 68.9805 178.64C68.7965 178.784 68.5765 178.9 68.3205 178.988C68.0725 179.076 67.7805 179.12 67.4445 179.12ZM67.6125 178.244C68.2925 178.244 68.7685 178.06 69.0405 177.692C69.3205 177.316 69.4605 176.752 69.4605 176V175.808C69.4605 175.008 69.3285 174.396 69.0645 173.972C68.8005 173.54 68.3125 173.324 67.6005 173.324C67.0325 173.324 66.6045 173.552 66.3165 174.008C66.0365 174.456 65.8965 175.06 65.8965 175.82C65.8965 176.588 66.0365 177.184 66.3165 177.608C66.6045 178.032 67.0365 178.244 67.6125 178.244Z" fill="#575353"/>
<ellipse cx="178.5" cy="243.5" rx="68.5" ry="62.5" fill="url(#paint0_radial_305_271)"/>
<defs>
<radialGradient id="paint0_radial_305_271" cx="0" cy="0" r="1" gradientUnits="userSpaceOnUse" gradientTransform="translate(178.5 243.5) rotate(90) scale(62.5 68.5)">
<stop stop-color="#FFC700"/>
<stop offset="1" stop-color="#D9D9D9" stop-opacity="0"/>
</radialGradient>
</defs>
</svg>
