<svg width="247" height="401" viewBox="0 0 247 401" fill="none" xmlns="http://www.w3.org/2000/svg">
<g clip-path="url(#clip0_306_308)">
<rect x="0.25" y="0.25" width="246.5" height="345.5" rx="19.75" fill="#F0F0F0" stroke="black" stroke-width="0.5"/>
<path opacity="0.72" d="M28.4512 33.2822V34H22.8525V33.2822H28.4512ZM23.1055 24.0469V34H22.2646V24.0469H23.1055ZM27.7539 28.5107V29.2285H22.8525V28.5107H27.7539ZM28.417 24.0469V24.7715H22.8525V24.0469H28.417ZM34.7129 32.5645V23.5H35.5332V34H34.7676L34.7129 32.5645ZM29.5791 30.377V30.2334C29.5791 29.6592 29.6452 29.1419 29.7773 28.6816C29.9095 28.2168 30.0986 27.8203 30.3447 27.4922C30.5954 27.1595 30.8962 26.9066 31.2471 26.7334C31.598 26.5557 31.9945 26.4668 32.4365 26.4668C32.8695 26.4668 33.2523 26.5374 33.585 26.6787C33.9176 26.82 34.2025 27.0228 34.4395 27.2871C34.681 27.5514 34.8747 27.8659 35.0205 28.2305C35.1709 28.5951 35.2803 29.0007 35.3486 29.4473V31.2725C35.2939 31.6917 35.1937 32.0768 35.0479 32.4277C34.902 32.7741 34.7083 33.0771 34.4668 33.3369C34.2253 33.5921 33.9336 33.7904 33.5918 33.9316C33.2546 34.0684 32.8649 34.1367 32.4229 34.1367C31.9854 34.1367 31.5911 34.0456 31.2402 33.8633C30.8893 33.681 30.5908 33.4235 30.3447 33.0908C30.0986 32.7536 29.9095 32.3548 29.7773 31.8945C29.6452 31.4342 29.5791 30.9284 29.5791 30.377ZM30.3994 30.2334V30.377C30.3994 30.8099 30.4427 31.2109 30.5293 31.5801C30.6159 31.9492 30.748 32.2705 30.9258 32.5439C31.1035 32.8174 31.3291 33.0316 31.6025 33.1865C31.876 33.3415 32.1995 33.4189 32.5732 33.4189C33.0426 33.4189 33.4368 33.3301 33.7559 33.1523C34.0749 32.9701 34.3301 32.7308 34.5215 32.4346C34.7129 32.1338 34.8519 31.8057 34.9385 31.4502V29.3242C34.8838 29.0827 34.804 28.8366 34.6992 28.5859C34.5944 28.3353 34.4508 28.1051 34.2686 27.8955C34.0908 27.6813 33.863 27.5104 33.585 27.3828C33.3115 27.2507 32.9788 27.1846 32.5869 27.1846C32.2087 27.1846 31.8828 27.262 31.6094 27.417C31.3359 27.5719 31.1081 27.7884 30.9258 28.0664C30.748 28.3398 30.6159 28.6611 30.5293 29.0303C30.4427 29.3994 30.3994 29.8005 30.3994 30.2334ZM42.4238 32.291V26.6035H43.2441V34H42.458L42.4238 32.291ZM42.5742 30.9238L42.998 30.9102C42.998 31.375 42.9434 31.8034 42.834 32.1953C42.7246 32.5872 42.5537 32.929 42.3213 33.2207C42.0889 33.5124 41.7881 33.738 41.4189 33.8975C41.0498 34.057 40.6055 34.1367 40.0859 34.1367C39.7259 34.1367 39.3955 34.0866 39.0947 33.9863C38.7985 33.8815 38.5433 33.7174 38.3291 33.4941C38.1149 33.2708 37.9486 32.9814 37.8301 32.626C37.7161 32.2705 37.6592 31.8398 37.6592 31.334V26.6035H38.4727V31.3477C38.4727 31.7441 38.516 32.0745 38.6025 32.3389C38.6937 32.6032 38.8167 32.8151 38.9717 32.9746C39.1312 33.1341 39.3135 33.248 39.5186 33.3164C39.7236 33.3848 39.9447 33.4189 40.1816 33.4189C40.7832 33.4189 41.2572 33.3027 41.6035 33.0703C41.9544 32.8379 42.2028 32.5326 42.3486 32.1543C42.499 31.7715 42.5742 31.3613 42.5742 30.9238ZM48.1113 33.4326C48.4577 33.4326 48.7812 33.3688 49.082 33.2412C49.3874 33.109 49.638 32.9154 49.834 32.6602C50.0345 32.4004 50.1484 32.0837 50.1758 31.71H50.9551C50.9323 32.1794 50.7887 32.5986 50.5244 32.9678C50.2646 33.3324 49.9229 33.6195 49.499 33.8291C49.0798 34.0342 48.6172 34.1367 48.1113 34.1367C47.5964 34.1367 47.1406 34.0433 46.7441 33.8564C46.3522 33.6696 46.0241 33.4098 45.7598 33.0771C45.4954 32.7399 45.2949 32.348 45.1582 31.9014C45.026 31.4502 44.96 30.9648 44.96 30.4453V30.1582C44.96 29.6387 45.026 29.1556 45.1582 28.709C45.2949 28.2578 45.4954 27.8659 45.7598 27.5332C46.0241 27.196 46.3522 26.9339 46.7441 26.7471C47.1361 26.5602 47.5895 26.4668 48.1045 26.4668C48.6331 26.4668 49.1071 26.5739 49.5264 26.7881C49.9502 27.0023 50.2874 27.3053 50.5381 27.6973C50.7933 28.0892 50.9323 28.554 50.9551 29.0918H50.1758C50.153 28.6953 50.0482 28.3535 49.8613 28.0664C49.6745 27.7793 49.4284 27.5583 49.123 27.4033C48.8177 27.2484 48.4782 27.1709 48.1045 27.1709C47.6852 27.1709 47.3275 27.2529 47.0312 27.417C46.735 27.5765 46.4935 27.7975 46.3066 28.0801C46.1243 28.3581 45.9899 28.6771 45.9033 29.0371C45.8167 29.3926 45.7734 29.7663 45.7734 30.1582V30.4453C45.7734 30.8418 45.8145 31.2201 45.8965 31.5801C45.9831 31.9355 46.1175 32.2523 46.2998 32.5303C46.4867 32.8083 46.7282 33.0293 47.0244 33.1934C47.3252 33.3529 47.6875 33.4326 48.1113 33.4326ZM57.1006 32.6738V28.8594C57.1006 28.5085 57.0277 28.2054 56.8818 27.9502C56.736 27.695 56.5218 27.499 56.2393 27.3623C55.9567 27.2256 55.6081 27.1572 55.1934 27.1572C54.8105 27.1572 54.4688 27.2256 54.168 27.3623C53.8717 27.4945 53.637 27.6745 53.4639 27.9023C53.2952 28.1257 53.2109 28.374 53.2109 28.6475L52.3906 28.6406C52.3906 28.3626 52.459 28.0938 52.5957 27.834C52.7324 27.5742 52.9261 27.3418 53.1768 27.1367C53.4274 26.9316 53.7259 26.7699 54.0723 26.6514C54.4232 26.5283 54.8083 26.4668 55.2275 26.4668C55.7562 26.4668 56.221 26.5557 56.6221 26.7334C57.0277 26.9111 57.3444 27.1777 57.5723 27.5332C57.8001 27.8887 57.9141 28.3353 57.9141 28.873V32.4482C57.9141 32.7035 57.9323 32.9678 57.9688 33.2412C58.0098 33.5146 58.0667 33.7402 58.1396 33.918V34H57.2715C57.2168 33.8359 57.1735 33.6309 57.1416 33.3848C57.1143 33.1341 57.1006 32.8971 57.1006 32.6738ZM57.292 29.6934L57.3057 30.3223H55.6992C55.2799 30.3223 54.904 30.361 54.5713 30.4385C54.2432 30.5114 53.9652 30.6208 53.7373 30.7666C53.5094 30.9079 53.334 31.0788 53.2109 31.2793C53.0924 31.4798 53.0332 31.7077 53.0332 31.9629C53.0332 32.2272 53.0993 32.4688 53.2314 32.6875C53.3682 32.9062 53.5596 33.0817 53.8057 33.2139C54.0563 33.3415 54.3525 33.4053 54.6943 33.4053C55.1501 33.4053 55.5511 33.321 55.8975 33.1523C56.2484 32.9837 56.5378 32.7627 56.7656 32.4893C56.9935 32.2158 57.1462 31.9173 57.2236 31.5938L57.5791 32.0654C57.5199 32.2933 57.4105 32.528 57.251 32.7695C57.096 33.0065 56.8932 33.2298 56.6426 33.4395C56.3919 33.6445 56.0957 33.8132 55.7539 33.9453C55.4167 34.0729 55.0339 34.1367 54.6055 34.1367C54.1224 34.1367 53.7008 34.0456 53.3408 33.8633C52.9854 33.681 52.7074 33.4326 52.5068 33.1182C52.3109 32.7992 52.2129 32.4391 52.2129 32.0381C52.2129 31.6735 52.2904 31.3477 52.4453 31.0605C52.6003 30.7689 52.8236 30.5228 53.1152 30.3223C53.4115 30.1172 53.7669 29.9622 54.1816 29.8574C54.6009 29.748 55.0703 29.6934 55.5898 29.6934H57.292ZM62.9043 26.6035V27.2734H59.1992V26.6035H62.9043ZM60.5596 24.7031H61.373V32.2021C61.373 32.5439 61.4186 32.8014 61.5098 32.9746C61.6009 33.1478 61.7194 33.264 61.8652 33.3232C62.0111 33.3825 62.1683 33.4121 62.3369 33.4121C62.46 33.4121 62.5785 33.4053 62.6924 33.3916C62.8063 33.3734 62.9089 33.3551 63 33.3369L63.0342 34.0273C62.9339 34.0592 62.804 34.0843 62.6445 34.1025C62.485 34.1253 62.3255 34.1367 62.166 34.1367C61.8516 34.1367 61.5736 34.0798 61.332 33.9658C61.0905 33.8473 60.9014 33.6468 60.7646 33.3643C60.6279 33.0771 60.5596 32.6875 60.5596 32.1953V24.7031ZM65.5293 26.6035V34H64.7158V26.6035H65.5293ZM64.5723 24.4639C64.5723 24.3089 64.6201 24.179 64.7158 24.0742C64.8161 23.9648 64.9528 23.9102 65.126 23.9102C65.2992 23.9102 65.4359 23.9648 65.5361 24.0742C65.641 24.179 65.6934 24.3089 65.6934 24.4639C65.6934 24.6143 65.641 24.7441 65.5361 24.8535C65.4359 24.9583 65.2992 25.0107 65.126 25.0107C64.9528 25.0107 64.8161 24.9583 64.7158 24.8535C64.6201 24.7441 64.5723 24.6143 64.5723 24.4639ZM67.3135 30.418V30.1924C67.3135 29.6546 67.391 29.1579 67.5459 28.7021C67.7008 28.2464 67.9219 27.8522 68.209 27.5195C68.5007 27.1868 68.8493 26.9294 69.2549 26.7471C69.6605 26.5602 70.1117 26.4668 70.6084 26.4668C71.1097 26.4668 71.5632 26.5602 71.9688 26.7471C72.3743 26.9294 72.723 27.1868 73.0146 27.5195C73.3063 27.8522 73.5296 28.2464 73.6846 28.7021C73.8395 29.1579 73.917 29.6546 73.917 30.1924V30.418C73.917 30.9557 73.8395 31.4525 73.6846 31.9082C73.5296 32.3594 73.3063 32.7513 73.0146 33.084C72.7275 33.4167 72.3812 33.6764 71.9756 33.8633C71.57 34.0456 71.1188 34.1367 70.6221 34.1367C70.1208 34.1367 69.6673 34.0456 69.2617 33.8633C68.8561 33.6764 68.5075 33.4167 68.2158 33.084C67.9242 32.7513 67.7008 32.3594 67.5459 31.9082C67.391 31.4525 67.3135 30.9557 67.3135 30.418ZM68.127 30.1924V30.418C68.127 30.8236 68.1816 31.2087 68.291 31.5732C68.4004 31.9333 68.5599 32.2546 68.7695 32.5371C68.9792 32.8151 69.2389 33.0339 69.5488 33.1934C69.8587 33.3529 70.2165 33.4326 70.6221 33.4326C71.0231 33.4326 71.3763 33.3529 71.6816 33.1934C71.9915 33.0339 72.2513 32.8151 72.4609 32.5371C72.6706 32.2546 72.8278 31.9333 72.9326 31.5732C73.042 31.2087 73.0967 30.8236 73.0967 30.418V30.1924C73.0967 29.7913 73.042 29.4108 72.9326 29.0508C72.8278 28.6908 72.6683 28.3695 72.4541 28.0869C72.2445 27.8044 71.9847 27.5811 71.6748 27.417C71.3649 27.2529 71.0094 27.1709 70.6084 27.1709C70.2074 27.1709 69.8519 27.2529 69.542 27.417C69.2367 27.5811 68.9769 27.8044 68.7627 28.0869C68.5531 28.3695 68.3936 28.6908 68.2842 29.0508C68.1794 29.4108 68.127 29.7913 68.127 30.1924ZM76.4258 28.1826V34H75.6123V26.6035H76.3916L76.4258 28.1826ZM76.2412 29.8438L75.8789 29.6387C75.9062 29.2012 75.9951 28.791 76.1455 28.4082C76.2959 28.0254 76.4987 27.6882 76.7539 27.3965C77.0137 27.1048 77.3167 26.877 77.6631 26.7129C78.014 26.5488 78.4014 26.4668 78.8252 26.4668C79.1943 26.4668 79.5247 26.5169 79.8164 26.6172C80.1081 26.7174 80.3564 26.877 80.5615 27.0957C80.7666 27.3145 80.9215 27.5947 81.0264 27.9365C81.1357 28.2783 81.1904 28.6953 81.1904 29.1875V34H80.3701V29.1807C80.3701 28.6702 80.2995 28.2715 80.1582 27.9844C80.0169 27.6927 79.8164 27.4854 79.5566 27.3623C79.2969 27.2393 78.9893 27.1777 78.6338 27.1777C78.2419 27.1777 77.8978 27.2643 77.6016 27.4375C77.3099 27.6061 77.0638 27.8271 76.8633 28.1006C76.6673 28.3695 76.5169 28.6589 76.4121 28.9688C76.3073 29.2741 76.2503 29.5658 76.2412 29.8438Z" fill="#2B2F42"/>
<path opacity="0.72" d="M186.122 328.497V329H181.674V328.546L184.003 325.904C184.293 325.576 184.524 325.287 184.696 325.04C184.869 324.789 184.993 324.562 185.067 324.356C185.146 324.148 185.185 323.946 185.185 323.751C185.185 323.465 185.128 323.212 185.014 322.994C184.903 322.776 184.737 322.605 184.516 322.481C184.294 322.358 184.021 322.296 183.695 322.296C183.37 322.296 183.087 322.366 182.846 322.506C182.605 322.646 182.419 322.841 182.289 323.092C182.162 323.339 182.099 323.621 182.099 323.937H181.518C181.518 323.546 181.604 323.188 181.776 322.862C181.952 322.537 182.203 322.278 182.528 322.086C182.854 321.891 183.243 321.793 183.695 321.793C184.125 321.793 184.494 321.869 184.804 322.022C185.113 322.172 185.351 322.389 185.517 322.672C185.686 322.955 185.771 323.297 185.771 323.697C185.771 323.912 185.731 324.129 185.653 324.347C185.578 324.565 185.474 324.783 185.341 325.001C185.211 325.216 185.061 325.429 184.892 325.641C184.726 325.852 184.551 326.061 184.369 326.266L182.387 328.497H186.122ZM191.503 324.835V326.031C191.503 326.552 191.454 327.006 191.356 327.394C191.259 327.778 191.116 328.097 190.927 328.351C190.741 328.601 190.513 328.788 190.243 328.912C189.976 329.036 189.67 329.098 189.325 329.098C189.052 329.098 188.801 329.059 188.573 328.98C188.345 328.902 188.142 328.784 187.963 328.624C187.787 328.461 187.637 328.258 187.514 328.014C187.39 327.77 187.296 327.483 187.23 327.154C187.165 326.822 187.133 326.448 187.133 326.031V324.835C187.133 324.311 187.182 323.858 187.279 323.478C187.38 323.097 187.523 322.781 187.709 322.53C187.898 322.28 188.127 322.094 188.397 321.974C188.668 321.85 188.974 321.788 189.315 321.788C189.589 321.788 189.84 321.829 190.067 321.91C190.299 321.988 190.502 322.105 190.678 322.262C190.857 322.418 191.007 322.618 191.127 322.862C191.251 323.103 191.343 323.388 191.405 323.717C191.47 324.046 191.503 324.418 191.503 324.835ZM190.922 326.1V324.762C190.922 324.439 190.899 324.146 190.854 323.883C190.811 323.619 190.748 323.388 190.663 323.189C190.578 322.991 190.471 322.825 190.341 322.691C190.214 322.558 190.064 322.459 189.892 322.394C189.722 322.325 189.53 322.291 189.315 322.291C189.052 322.291 188.819 322.345 188.617 322.452C188.419 322.556 188.253 322.713 188.119 322.921C187.986 323.126 187.885 323.383 187.816 323.692C187.751 324.002 187.719 324.358 187.719 324.762V326.1C187.719 326.419 187.74 326.71 187.782 326.974C187.825 327.234 187.89 327.465 187.978 327.667C188.065 327.869 188.173 328.04 188.3 328.18C188.43 328.316 188.58 328.421 188.749 328.492C188.922 328.561 189.114 328.595 189.325 328.595C189.595 328.595 189.83 328.541 190.028 328.434C190.227 328.323 190.393 328.162 190.526 327.95C190.66 327.735 190.759 327.473 190.824 327.164C190.889 326.852 190.922 326.497 190.922 326.1ZM195.482 321.861V329H194.901V322.599L192.968 323.316V322.765L195.385 321.861H195.482ZM202.685 327.115C202.685 327.545 202.584 327.908 202.382 328.204C202.183 328.5 201.913 328.723 201.571 328.873C201.229 329.023 200.847 329.098 200.424 329.098C199.997 329.098 199.613 329.023 199.271 328.873C198.93 328.723 198.658 328.5 198.456 328.204C198.257 327.908 198.158 327.545 198.158 327.115C198.158 326.832 198.214 326.575 198.324 326.344C198.438 326.109 198.596 325.908 198.798 325.738C199.003 325.566 199.242 325.432 199.516 325.338C199.789 325.243 200.089 325.196 200.414 325.196C200.844 325.196 201.229 325.279 201.571 325.445C201.913 325.608 202.183 325.833 202.382 326.119C202.584 326.406 202.685 326.738 202.685 327.115ZM202.099 327.115C202.099 326.812 202.025 326.547 201.879 326.319C201.732 326.091 201.532 325.916 201.278 325.792C201.024 325.665 200.736 325.602 200.414 325.602C200.089 325.602 199.8 325.665 199.55 325.792C199.299 325.916 199.102 326.091 198.959 326.319C198.816 326.547 198.744 326.812 198.744 327.115C198.744 327.431 198.814 327.7 198.954 327.921C199.097 328.142 199.296 328.31 199.55 328.424C199.804 328.538 200.095 328.595 200.424 328.595C200.753 328.595 201.042 328.538 201.293 328.424C201.544 328.31 201.741 328.142 201.884 327.921C202.027 327.7 202.099 327.431 202.099 327.115ZM202.499 323.717C202.499 324.065 202.406 324.376 202.221 324.649C202.038 324.92 201.791 325.133 201.479 325.289C201.166 325.442 200.813 325.519 200.419 325.519C200.022 325.519 199.665 325.442 199.35 325.289C199.037 325.133 198.79 324.92 198.607 324.649C198.428 324.376 198.339 324.065 198.339 323.717C198.339 323.303 198.428 322.955 198.607 322.672C198.79 322.385 199.037 322.167 199.35 322.018C199.662 321.868 200.017 321.793 200.414 321.793C200.808 321.793 201.161 321.868 201.474 322.018C201.789 322.167 202.038 322.385 202.221 322.672C202.406 322.955 202.499 323.303 202.499 323.717ZM201.918 323.712C201.918 323.435 201.851 323.191 201.718 322.979C201.588 322.768 201.409 322.602 201.181 322.481C200.956 322.358 200.701 322.296 200.414 322.296C200.124 322.296 199.867 322.353 199.643 322.467C199.421 322.581 199.245 322.743 199.115 322.955C198.988 323.167 198.925 323.419 198.925 323.712C198.925 323.998 198.988 324.246 199.115 324.454C199.245 324.659 199.423 324.819 199.647 324.933C199.872 325.047 200.129 325.104 200.419 325.104C200.709 325.104 200.966 325.047 201.19 324.933C201.415 324.819 201.592 324.659 201.723 324.454C201.853 324.246 201.918 323.998 201.918 323.712ZM205.771 325.611V326.114H203.432V325.611H205.771ZM211.181 328.497V329H206.732V328.546L209.062 325.904C209.351 325.576 209.582 325.287 209.755 325.04C209.927 324.789 210.051 324.562 210.126 324.356C210.204 324.148 210.243 323.946 210.243 323.751C210.243 323.465 210.186 323.212 210.072 322.994C209.962 322.776 209.796 322.605 209.574 322.481C209.353 322.358 209.079 322.296 208.754 322.296C208.428 322.296 208.145 322.366 207.904 322.506C207.663 322.646 207.478 322.841 207.348 323.092C207.221 323.339 207.157 323.621 207.157 323.937H206.576C206.576 323.546 206.662 323.188 206.835 322.862C207.011 322.537 207.261 322.278 207.587 322.086C207.912 321.891 208.301 321.793 208.754 321.793C209.184 321.793 209.553 321.869 209.862 322.022C210.172 322.172 210.409 322.389 210.575 322.672C210.744 322.955 210.829 323.297 210.829 323.697C210.829 323.912 210.79 324.129 210.712 324.347C210.637 324.565 210.533 324.783 210.399 325.001C210.269 325.216 210.119 325.429 209.95 325.641C209.784 325.852 209.61 326.061 209.428 326.266L207.445 328.497H211.181ZM216.562 324.835V326.031C216.562 326.552 216.513 327.006 216.415 327.394C216.317 327.778 216.174 328.097 215.985 328.351C215.8 328.601 215.572 328.788 215.302 328.912C215.035 329.036 214.729 329.098 214.384 329.098C214.11 329.098 213.86 329.059 213.632 328.98C213.404 328.902 213.201 328.784 213.021 328.624C212.846 328.461 212.696 328.258 212.572 328.014C212.449 327.77 212.354 327.483 212.289 327.154C212.224 326.822 212.191 326.448 212.191 326.031V324.835C212.191 324.311 212.24 323.858 212.338 323.478C212.439 323.097 212.582 322.781 212.768 322.53C212.956 322.28 213.186 322.094 213.456 321.974C213.726 321.85 214.032 321.788 214.374 321.788C214.647 321.788 214.898 321.829 215.126 321.91C215.357 321.988 215.561 322.105 215.736 322.262C215.915 322.418 216.065 322.618 216.186 322.862C216.309 323.103 216.402 323.388 216.464 323.717C216.529 324.046 216.562 324.418 216.562 324.835ZM215.98 326.1V324.762C215.98 324.439 215.958 324.146 215.912 323.883C215.87 323.619 215.806 323.388 215.722 323.189C215.637 322.991 215.53 322.825 215.399 322.691C215.272 322.558 215.123 322.459 214.95 322.394C214.781 322.325 214.589 322.291 214.374 322.291C214.11 322.291 213.878 322.345 213.676 322.452C213.477 322.556 213.311 322.713 213.178 322.921C213.044 323.126 212.943 323.383 212.875 323.692C212.81 324.002 212.777 324.358 212.777 324.762V326.1C212.777 326.419 212.799 326.71 212.841 326.974C212.883 327.234 212.948 327.465 213.036 327.667C213.124 327.869 213.231 328.04 213.358 328.18C213.489 328.316 213.638 328.421 213.808 328.492C213.98 328.561 214.172 328.595 214.384 328.595C214.654 328.595 214.888 328.541 215.087 328.434C215.285 328.323 215.451 328.162 215.585 327.95C215.718 327.735 215.818 327.473 215.883 327.164C215.948 326.852 215.98 326.497 215.98 326.1ZM222.274 328.497V329H217.826V328.546L220.155 325.904C220.445 325.576 220.676 325.287 220.849 325.04C221.021 324.789 221.145 324.562 221.22 324.356C221.298 324.148 221.337 323.946 221.337 323.751C221.337 323.465 221.28 323.212 221.166 322.994C221.055 322.776 220.889 322.605 220.668 322.481C220.447 322.358 220.173 322.296 219.848 322.296C219.522 322.296 219.239 322.366 218.998 322.506C218.757 322.646 218.572 322.841 218.441 323.092C218.314 323.339 218.251 323.621 218.251 323.937H217.67C217.67 323.546 217.756 323.188 217.929 322.862C218.104 322.537 218.355 322.278 218.681 322.086C219.006 321.891 219.395 321.793 219.848 321.793C220.277 321.793 220.647 321.869 220.956 322.022C221.265 322.172 221.503 322.389 221.669 322.672C221.838 322.955 221.923 323.297 221.923 323.697C221.923 323.912 221.884 324.129 221.806 324.347C221.731 324.565 221.627 324.783 221.493 325.001C221.363 325.216 221.213 325.429 221.044 325.641C220.878 325.852 220.704 326.061 220.521 326.266L218.539 328.497H222.274ZM227.821 328.497V329H223.373V328.546L225.702 325.904C225.992 325.576 226.223 325.287 226.396 325.04C226.568 324.789 226.692 324.562 226.767 324.356C226.845 324.148 226.884 323.946 226.884 323.751C226.884 323.465 226.827 323.212 226.713 322.994C226.602 322.776 226.436 322.605 226.215 322.481C225.993 322.358 225.72 322.296 225.395 322.296C225.069 322.296 224.786 322.366 224.545 322.506C224.304 322.646 224.118 322.841 223.988 323.092C223.861 323.339 223.798 323.621 223.798 323.937H223.217C223.217 323.546 223.303 323.188 223.476 322.862C223.651 322.537 223.902 322.278 224.228 322.086C224.553 321.891 224.942 321.793 225.395 321.793C225.824 321.793 226.194 321.869 226.503 322.022C226.812 322.172 227.05 322.389 227.216 322.672C227.385 322.955 227.47 323.297 227.47 323.697C227.47 323.912 227.431 324.129 227.353 324.347C227.278 324.565 227.174 324.783 227.04 325.001C226.91 325.216 226.76 325.429 226.591 325.641C226.425 325.852 226.251 326.061 226.068 326.266L224.086 328.497H227.821Z" fill="#2B2F42"/>
<path d="M27.024 235.708C27.024 236.22 26.9 236.656 26.652 237.016C26.404 237.368 26.048 237.64 25.584 237.832C25.128 238.024 24.588 238.12 23.964 238.12C23.644 238.12 23.336 238.104 23.04 238.072C22.752 238.04 22.488 237.996 22.248 237.94C22.008 237.876 21.796 237.8 21.612 237.712V236.68C21.9 236.808 22.256 236.924 22.68 237.028C23.112 237.132 23.556 237.184 24.012 237.184C24.436 237.184 24.792 237.128 25.08 237.016C25.368 236.904 25.584 236.744 25.728 236.536C25.872 236.328 25.944 236.084 25.944 235.804C25.944 235.524 25.884 235.288 25.764 235.096C25.644 234.904 25.436 234.728 25.14 234.568C24.852 234.4 24.448 234.224 23.928 234.04C23.56 233.904 23.236 233.76 22.956 233.608C22.684 233.448 22.456 233.268 22.272 233.068C22.088 232.868 21.948 232.64 21.852 232.384C21.764 232.128 21.72 231.832 21.72 231.496C21.72 231.04 21.836 230.652 22.068 230.332C22.3 230.004 22.62 229.752 23.028 229.576C23.444 229.4 23.92 229.312 24.456 229.312C24.928 229.312 25.36 229.356 25.752 229.444C26.144 229.532 26.5 229.648 26.82 229.792L26.484 230.716C26.188 230.588 25.864 230.48 25.512 230.392C25.168 230.304 24.808 230.26 24.432 230.26C24.072 230.26 23.772 230.312 23.532 230.416C23.292 230.52 23.112 230.668 22.992 230.86C22.872 231.044 22.812 231.26 22.812 231.508C22.812 231.796 22.872 232.036 22.992 232.228C23.112 232.42 23.308 232.592 23.58 232.744C23.852 232.896 24.22 233.06 24.684 233.236C25.188 233.42 25.612 233.62 25.956 233.836C26.308 234.044 26.572 234.296 26.748 234.592C26.932 234.888 27.024 235.26 27.024 235.708ZM31.6059 231.448C31.7259 231.448 31.8539 231.456 31.9899 231.472C32.1339 231.48 32.2579 231.496 32.3619 231.52L32.2299 232.492C32.1259 232.468 32.0099 232.448 31.8819 232.432C31.7619 232.416 31.6459 232.408 31.5339 232.408C31.2859 232.408 31.0499 232.46 30.8259 232.564C30.6019 232.668 30.4019 232.816 30.2259 233.008C30.0499 233.192 29.9099 233.416 29.8059 233.68C29.7099 233.944 29.6619 234.24 29.6619 234.568V238H28.6059V231.568H29.4699L29.5899 232.744H29.6379C29.7739 232.504 29.9379 232.288 30.1299 232.096C30.3219 231.896 30.5419 231.74 30.7899 231.628C31.0379 231.508 31.3099 231.448 31.6059 231.448ZM34.619 231.568V238H33.563V231.568H34.619ZM34.103 229.156C34.263 229.156 34.403 229.212 34.523 229.324C34.651 229.428 34.715 229.596 34.715 229.828C34.715 230.052 34.651 230.22 34.523 230.332C34.403 230.444 34.263 230.5 34.103 230.5C33.927 230.5 33.779 230.444 33.659 230.332C33.539 230.22 33.479 230.052 33.479 229.828C33.479 229.596 33.539 229.428 33.659 229.324C33.779 229.212 33.927 229.156 34.103 229.156ZM39.7527 231.448C40.5207 231.448 41.1007 231.636 41.4927 232.012C41.8847 232.38 42.0807 232.98 42.0807 233.812V238H41.0367V233.884C41.0367 233.364 40.9207 232.976 40.6887 232.72C40.4567 232.464 40.0927 232.336 39.5967 232.336C38.8847 232.336 38.3927 232.536 38.1207 232.936C37.8487 233.336 37.7127 233.912 37.7127 234.664V238H36.6567V231.568H37.5087L37.6647 232.444H37.7247C37.8687 232.22 38.0447 232.036 38.2527 231.892C38.4687 231.74 38.7047 231.628 38.9607 231.556C39.2167 231.484 39.4807 231.448 39.7527 231.448ZM46.5107 231.46C47.2947 231.46 47.8747 231.632 48.2507 231.976C48.6267 232.32 48.8147 232.868 48.8147 233.62V238H48.0467L47.8427 237.088H47.7947C47.6107 237.32 47.4187 237.516 47.2187 237.676C47.0267 237.828 46.8027 237.94 46.5467 238.012C46.2987 238.084 45.9947 238.12 45.6347 238.12C45.2507 238.12 44.9027 238.052 44.5907 237.916C44.2867 237.78 44.0467 237.572 43.8707 237.292C43.6947 237.004 43.6067 236.644 43.6067 236.212C43.6067 235.572 43.8587 235.08 44.3627 234.736C44.8667 234.384 45.6427 234.192 46.6907 234.16L47.7827 234.124V233.74C47.7827 233.204 47.6667 232.832 47.4347 232.624C47.2027 232.416 46.8747 232.312 46.4507 232.312C46.1147 232.312 45.7947 232.364 45.4907 232.468C45.1867 232.564 44.9027 232.676 44.6387 232.804L44.3147 232.012C44.5947 231.86 44.9267 231.732 45.3107 231.628C45.6947 231.516 46.0947 231.46 46.5107 231.46ZM46.8227 234.892C46.0227 234.924 45.4667 235.052 45.1547 235.276C44.8507 235.5 44.6987 235.816 44.6987 236.224C44.6987 236.584 44.8067 236.848 45.0227 237.016C45.2467 237.184 45.5307 237.268 45.8747 237.268C46.4187 237.268 46.8707 237.12 47.2307 236.824C47.5907 236.52 47.7707 236.056 47.7707 235.432V234.856L46.8227 234.892ZM51.8453 233.644C51.8453 233.772 51.8373 233.94 51.8213 234.148C51.8133 234.356 51.8053 234.536 51.7973 234.688H51.8453C51.8933 234.624 51.9653 234.532 52.0613 234.412C52.1573 234.292 52.2533 234.172 52.3493 234.052C52.4533 233.924 52.5413 233.82 52.6133 233.74L54.6653 231.568H55.9013L53.2973 234.316L56.0813 238H54.8093L52.5773 235L51.8453 235.636V238H50.8013V228.88H51.8453V233.644ZM59.6474 231.46C60.4314 231.46 61.0114 231.632 61.3874 231.976C61.7634 232.32 61.9514 232.868 61.9514 233.62V238H61.1834L60.9794 237.088H60.9314C60.7474 237.32 60.5554 237.516 60.3554 237.676C60.1634 237.828 59.9394 237.94 59.6834 238.012C59.4354 238.084 59.1314 238.12 58.7714 238.12C58.3874 238.12 58.0394 238.052 57.7274 237.916C57.4234 237.78 57.1834 237.572 57.0074 237.292C56.8314 237.004 56.7434 236.644 56.7434 236.212C56.7434 235.572 56.9954 235.08 57.4994 234.736C58.0034 234.384 58.7794 234.192 59.8274 234.16L60.9194 234.124V233.74C60.9194 233.204 60.8034 232.832 60.5714 232.624C60.3394 232.416 60.0114 232.312 59.5874 232.312C59.2514 232.312 58.9314 232.364 58.6274 232.468C58.3234 232.564 58.0394 232.676 57.7754 232.804L57.4514 232.012C57.7314 231.86 58.0634 231.732 58.4474 231.628C58.8314 231.516 59.2314 231.46 59.6474 231.46ZM59.9594 234.892C59.1594 234.924 58.6034 235.052 58.2914 235.276C57.9874 235.5 57.8354 235.816 57.8354 236.224C57.8354 236.584 57.9434 236.848 58.1594 237.016C58.3834 237.184 58.6674 237.268 59.0114 237.268C59.5554 237.268 60.0074 237.12 60.3674 236.824C60.7274 236.52 60.9074 236.056 60.9074 235.432V234.856L59.9594 234.892ZM66.938 231.448C67.058 231.448 67.186 231.456 67.322 231.472C67.466 231.48 67.59 231.496 67.694 231.52L67.562 232.492C67.458 232.468 67.342 232.448 67.214 232.432C67.094 232.416 66.978 232.408 66.866 232.408C66.618 232.408 66.382 232.46 66.158 232.564C65.934 232.668 65.734 232.816 65.558 233.008C65.382 233.192 65.242 233.416 65.138 233.68C65.042 233.944 64.994 234.24 64.994 234.568V238H63.938V231.568H64.802L64.922 232.744H64.97C65.106 232.504 65.27 232.288 65.462 232.096C65.654 231.896 65.874 231.74 66.122 231.628C66.37 231.508 66.642 231.448 66.938 231.448ZM69.951 231.568V238H68.895V231.568H69.951ZM69.435 229.156C69.595 229.156 69.735 229.212 69.855 229.324C69.983 229.428 70.047 229.596 70.047 229.828C70.047 230.052 69.983 230.22 69.855 230.332C69.735 230.444 69.595 230.5 69.435 230.5C69.259 230.5 69.111 230.444 68.991 230.332C68.871 230.22 68.811 230.052 68.811 229.828C68.811 229.596 68.871 229.428 68.991 229.324C69.111 229.212 69.259 229.156 69.435 229.156ZM75.0848 231.448C75.8528 231.448 76.4328 231.636 76.8248 232.012C77.2168 232.38 77.4128 232.98 77.4128 233.812V238H76.3688V233.884C76.3688 233.364 76.2528 232.976 76.0208 232.72C75.7888 232.464 75.4248 232.336 74.9288 232.336C74.2168 232.336 73.7248 232.536 73.4528 232.936C73.1808 233.336 73.0448 233.912 73.0448 234.664V238H71.9888V231.568H72.8408L72.9968 232.444H73.0568C73.2008 232.22 73.3768 232.036 73.5848 231.892C73.8008 231.74 74.0368 231.628 74.2928 231.556C74.5488 231.484 74.8128 231.448 75.0848 231.448ZM83.5587 234.364C83.5107 234.196 83.4627 234.032 83.4147 233.872C83.3667 233.704 83.3227 233.548 83.2827 233.404C83.2507 233.252 83.2187 233.112 83.1867 232.984C83.1547 232.856 83.1307 232.748 83.1147 232.66H83.0667C83.0507 232.748 83.0267 232.856 82.9947 232.984C82.9707 233.112 82.9387 233.252 82.8987 233.404C82.8667 233.556 82.8267 233.716 82.7787 233.884C82.7387 234.044 82.6907 234.208 82.6347 234.376L81.4827 237.988H80.2827L78.5187 231.556H79.6107L80.4987 234.988C80.5627 235.22 80.6227 235.456 80.6787 235.696C80.7347 235.928 80.7827 236.152 80.8227 236.368C80.8707 236.576 80.9027 236.756 80.9187 236.908H80.9667C80.9907 236.812 81.0187 236.692 81.0507 236.548C81.0827 236.404 81.1147 236.252 81.1467 236.092C81.1867 235.932 81.2267 235.772 81.2667 235.612C81.3147 235.452 81.3587 235.308 81.3987 235.18L82.5387 231.556H83.6907L84.7947 235.18C84.8507 235.364 84.9067 235.56 84.9627 235.768C85.0267 235.976 85.0827 236.18 85.1307 236.38C85.1787 236.572 85.2107 236.744 85.2267 236.896H85.2747C85.2907 236.76 85.3187 236.592 85.3587 236.392C85.4067 236.184 85.4587 235.96 85.5147 235.72C85.5787 235.472 85.6427 235.228 85.7067 234.988L86.6067 231.556H87.6867L85.8987 237.988H84.6627L83.5587 234.364ZM89.8963 231.568V238H88.8403V231.568H89.8963ZM89.3803 229.156C89.5403 229.156 89.6803 229.212 89.8003 229.324C89.9283 229.428 89.9923 229.596 89.9923 229.828C89.9923 230.052 89.9283 230.22 89.8003 230.332C89.6803 230.444 89.5403 230.5 89.3803 230.5C89.2043 230.5 89.0563 230.444 88.9363 230.332C88.8163 230.22 88.7563 230.052 88.7563 229.828C88.7563 229.596 88.8163 229.428 88.9363 229.324C89.0563 229.212 89.2043 229.156 89.3803 229.156ZM94.9341 231.448C95.0541 231.448 95.1821 231.456 95.3181 231.472C95.4621 231.48 95.5861 231.496 95.6901 231.52L95.5581 232.492C95.4541 232.468 95.3381 232.448 95.2101 232.432C95.0901 232.416 94.9741 232.408 94.8621 232.408C94.6141 232.408 94.3781 232.46 94.1541 232.564C93.9301 232.668 93.7301 232.816 93.5541 233.008C93.3781 233.192 93.2381 233.416 93.1341 233.68C93.0381 233.944 92.9901 234.24 92.9901 234.568V238H91.9341V231.568H92.7981L92.9181 232.744H92.9661C93.1021 232.504 93.2661 232.288 93.4581 232.096C93.6501 231.896 93.8701 231.74 94.1181 231.628C94.3661 231.508 94.6381 231.448 94.9341 231.448ZM102.249 234.772C102.249 235.308 102.177 235.784 102.033 236.2C101.897 236.608 101.697 236.956 101.433 237.244C101.177 237.532 100.861 237.752 100.485 237.904C100.117 238.048 99.7047 238.12 99.2487 238.12C98.8247 238.12 98.4327 238.048 98.0727 237.904C97.7127 237.752 97.4007 237.532 97.1367 237.244C96.8727 236.956 96.6647 236.608 96.5127 236.2C96.3687 235.784 96.2967 235.308 96.2967 234.772C96.2967 234.06 96.4167 233.46 96.6567 232.972C96.8967 232.476 97.2407 232.1 97.6887 231.844C98.1367 231.58 98.6687 231.448 99.2847 231.448C99.8687 231.448 100.381 231.58 100.821 231.844C101.269 232.1 101.617 232.476 101.865 232.972C102.121 233.46 102.249 234.06 102.249 234.772ZM97.3887 234.772C97.3887 235.276 97.4527 235.716 97.5807 236.092C97.7167 236.46 97.9247 236.744 98.2047 236.944C98.4847 237.144 98.8407 237.244 99.2727 237.244C99.7047 237.244 100.061 237.144 100.341 236.944C100.621 236.744 100.825 236.46 100.953 236.092C101.089 235.716 101.157 235.276 101.157 234.772C101.157 234.26 101.089 233.824 100.953 233.464C100.817 233.104 100.609 232.828 100.329 232.636C100.057 232.436 99.7007 232.336 99.2607 232.336C98.6047 232.336 98.1287 232.552 97.8327 232.984C97.5367 233.416 97.3887 234.012 97.3887 234.772ZM106.07 237.256C106.23 237.256 106.394 237.244 106.562 237.22C106.73 237.188 106.866 237.156 106.97 237.124V237.928C106.858 237.984 106.698 238.028 106.49 238.06C106.282 238.1 106.082 238.12 105.89 238.12C105.554 238.12 105.242 238.064 104.954 237.952C104.674 237.832 104.446 237.628 104.27 237.34C104.094 237.052 104.006 236.648 104.006 236.128V232.384H103.094V231.88L104.018 231.46L104.438 230.092H105.062V231.568H106.922V232.384H105.062V236.104C105.062 236.496 105.154 236.788 105.338 236.98C105.53 237.164 105.774 237.256 106.07 237.256ZM118.035 234.976C118.035 235.568 117.915 236.104 117.675 236.584C117.435 237.056 117.067 237.432 116.571 237.712C116.083 237.984 115.459 238.12 114.699 238.12C113.635 238.12 112.823 237.832 112.263 237.256C111.711 236.672 111.435 235.904 111.435 234.952V229.432H112.515V234.988C112.515 235.684 112.699 236.224 113.067 236.608C113.443 236.992 114.007 237.184 114.759 237.184C115.279 237.184 115.699 237.092 116.019 236.908C116.347 236.716 116.587 236.456 116.739 236.128C116.891 235.792 116.967 235.408 116.967 234.976V229.432H118.035V234.976ZM123.249 231.448C124.017 231.448 124.597 231.636 124.989 232.012C125.381 232.38 125.577 232.98 125.577 233.812V238H124.533V233.884C124.533 233.364 124.417 232.976 124.185 232.72C123.953 232.464 123.589 232.336 123.093 232.336C122.381 232.336 121.889 232.536 121.617 232.936C121.345 233.336 121.209 233.912 121.209 234.664V238H120.153V231.568H121.005L121.161 232.444H121.221C121.365 232.22 121.541 232.036 121.749 231.892C121.965 231.74 122.201 231.628 122.457 231.556C122.713 231.484 122.977 231.448 123.249 231.448ZM128.627 231.568V238H127.571V231.568H128.627ZM128.111 229.156C128.271 229.156 128.411 229.212 128.531 229.324C128.659 229.428 128.723 229.596 128.723 229.828C128.723 230.052 128.659 230.22 128.531 230.332C128.411 230.444 128.271 230.5 128.111 230.5C127.935 230.5 127.787 230.444 127.667 230.332C127.547 230.22 127.487 230.052 127.487 229.828C127.487 229.596 127.547 229.428 127.667 229.324C127.787 229.212 127.935 229.156 128.111 229.156ZM132.081 238L129.645 231.568H130.773L132.141 235.36C132.205 235.536 132.273 235.732 132.345 235.948C132.417 236.164 132.481 236.372 132.537 236.572C132.593 236.764 132.633 236.928 132.657 237.064H132.705C132.737 236.928 132.781 236.76 132.837 236.56C132.901 236.36 132.969 236.152 133.041 235.936C133.121 235.72 133.189 235.528 133.245 235.36L134.613 231.568H135.741L133.293 238H132.081ZM139.242 231.448C139.794 231.448 140.266 231.568 140.658 231.808C141.058 232.048 141.362 232.388 141.57 232.828C141.786 233.26 141.894 233.768 141.894 234.352V234.988H137.49C137.506 235.716 137.69 236.272 138.042 236.656C138.402 237.032 138.902 237.22 139.542 237.22C139.95 237.22 140.31 237.184 140.622 237.112C140.942 237.032 141.27 236.92 141.606 236.776V237.7C141.278 237.844 140.954 237.948 140.634 238.012C140.314 238.084 139.934 238.12 139.494 238.12C138.886 238.12 138.346 237.996 137.874 237.748C137.41 237.5 137.046 237.132 136.782 236.644C136.526 236.148 136.398 235.544 136.398 234.832C136.398 234.128 136.514 233.524 136.746 233.02C136.986 232.516 137.318 232.128 137.742 231.856C138.174 231.584 138.674 231.448 139.242 231.448ZM139.23 232.312C138.726 232.312 138.326 232.476 138.03 232.804C137.742 233.124 137.57 233.572 137.514 234.148H140.79C140.79 233.78 140.734 233.46 140.622 233.188C140.51 232.916 140.338 232.704 140.106 232.552C139.882 232.392 139.59 232.312 139.23 232.312ZM146.532 231.448C146.652 231.448 146.78 231.456 146.916 231.472C147.06 231.48 147.184 231.496 147.288 231.52L147.156 232.492C147.052 232.468 146.936 232.448 146.808 232.432C146.688 232.416 146.572 232.408 146.46 232.408C146.212 232.408 145.976 232.46 145.752 232.564C145.528 232.668 145.328 232.816 145.152 233.008C144.976 233.192 144.836 233.416 144.732 233.68C144.636 233.944 144.588 234.24 144.588 234.568V238H143.532V231.568H144.396L144.516 232.744H144.564C144.7 232.504 144.864 232.288 145.056 232.096C145.248 231.896 145.468 231.74 145.716 231.628C145.964 231.508 146.236 231.448 146.532 231.448ZM152.677 236.224C152.677 236.64 152.573 236.988 152.365 237.268C152.157 237.548 151.861 237.76 151.477 237.904C151.093 238.048 150.637 238.12 150.109 238.12C149.661 238.12 149.273 238.084 148.945 238.012C148.625 237.94 148.341 237.84 148.093 237.712V236.752C148.349 236.88 148.657 237 149.017 237.112C149.385 237.216 149.757 237.268 150.133 237.268C150.669 237.268 151.057 237.184 151.297 237.016C151.537 236.84 151.657 236.608 151.657 236.32C151.657 236.16 151.613 236.016 151.525 235.888C151.437 235.76 151.277 235.632 151.045 235.504C150.821 235.376 150.497 235.232 150.073 235.072C149.657 234.912 149.301 234.752 149.005 234.592C148.709 234.432 148.481 234.24 148.321 234.016C148.161 233.792 148.081 233.504 148.081 233.152C148.081 232.608 148.301 232.188 148.741 231.892C149.189 231.596 149.773 231.448 150.493 231.448C150.885 231.448 151.249 231.488 151.585 231.568C151.929 231.64 152.249 231.744 152.545 231.88L152.185 232.72C152.009 232.64 151.821 232.572 151.621 232.516C151.429 232.452 151.233 232.404 151.033 232.372C150.833 232.332 150.629 232.312 150.421 232.312C149.989 232.312 149.657 232.384 149.425 232.528C149.201 232.664 149.089 232.852 149.089 233.092C149.089 233.268 149.141 233.42 149.245 233.548C149.349 233.668 149.521 233.788 149.761 233.908C150.009 234.02 150.337 234.156 150.745 234.316C151.153 234.468 151.501 234.624 151.789 234.784C152.077 234.944 152.297 235.14 152.449 235.372C152.601 235.596 152.677 235.88 152.677 236.224ZM155.287 231.568V238H154.231V231.568H155.287ZM154.771 229.156C154.931 229.156 155.071 229.212 155.191 229.324C155.319 229.428 155.383 229.596 155.383 229.828C155.383 230.052 155.319 230.22 155.191 230.332C155.071 230.444 154.931 230.5 154.771 230.5C154.595 230.5 154.447 230.444 154.327 230.332C154.207 230.22 154.147 230.052 154.147 229.828C154.147 229.596 154.207 229.428 154.327 229.324C154.447 229.212 154.595 229.156 154.771 229.156ZM159.473 237.256C159.633 237.256 159.797 237.244 159.965 237.22C160.133 237.188 160.269 237.156 160.373 237.124V237.928C160.261 237.984 160.101 238.028 159.893 238.06C159.685 238.1 159.485 238.12 159.293 238.12C158.957 238.12 158.645 238.064 158.357 237.952C158.077 237.832 157.849 237.628 157.673 237.34C157.497 237.052 157.409 236.648 157.409 236.128V232.384H156.497V231.88L157.421 231.46L157.841 230.092H158.465V231.568H160.325V232.384H158.465V236.104C158.465 236.496 158.557 236.788 158.741 236.98C158.933 237.164 159.177 237.256 159.473 237.256ZM160.653 231.568H161.781L163.173 235.228C163.253 235.444 163.325 235.652 163.389 235.852C163.461 236.052 163.525 236.248 163.581 236.44C163.637 236.624 163.681 236.804 163.713 236.98H163.761C163.809 236.78 163.885 236.52 163.989 236.2C164.093 235.872 164.201 235.544 164.313 235.216L165.621 231.568H166.761L163.989 238.888C163.837 239.288 163.657 239.636 163.449 239.932C163.249 240.236 163.001 240.468 162.705 240.628C162.417 240.796 162.065 240.88 161.649 240.88C161.457 240.88 161.289 240.868 161.145 240.844C161.001 240.828 160.877 240.808 160.773 240.784V239.944C160.861 239.96 160.965 239.976 161.085 239.992C161.213 240.008 161.345 240.016 161.481 240.016C161.729 240.016 161.941 239.968 162.117 239.872C162.301 239.784 162.457 239.652 162.585 239.476C162.713 239.308 162.821 239.108 162.909 238.876L163.245 238.024L160.653 231.568ZM24.612 245.432C25.324 245.432 25.92 245.5 26.4 245.636C26.888 245.772 27.252 245.996 27.492 246.308C27.74 246.62 27.864 247.036 27.864 247.556C27.864 247.892 27.8 248.192 27.672 248.456C27.552 248.712 27.368 248.928 27.12 249.104C26.88 249.272 26.584 249.388 26.232 249.452V249.512C26.592 249.568 26.916 249.672 27.204 249.824C27.5 249.976 27.732 250.192 27.9 250.472C28.068 250.752 28.152 251.116 28.152 251.564C28.152 252.084 28.032 252.528 27.792 252.896C27.552 253.256 27.208 253.532 26.76 253.724C26.32 253.908 25.792 254 25.176 254H22.164V245.432H24.612ZM24.828 249.08C25.564 249.08 26.068 248.964 26.34 248.732C26.612 248.492 26.748 248.14 26.748 247.676C26.748 247.204 26.58 246.868 26.244 246.668C25.916 246.46 25.388 246.356 24.66 246.356H23.244V249.08H24.828ZM23.244 249.98V253.088H24.972C25.732 253.088 26.26 252.94 26.556 252.644C26.852 252.348 27 251.96 27 251.48C27 251.176 26.932 250.912 26.796 250.688C26.668 250.464 26.448 250.292 26.136 250.172C25.832 250.044 25.416 249.98 24.888 249.98H23.244ZM32.2607 247.46C33.0447 247.46 33.6247 247.632 34.0007 247.976C34.3767 248.32 34.5647 248.868 34.5647 249.62V254H33.7967L33.5927 253.088H33.5447C33.3607 253.32 33.1687 253.516 32.9687 253.676C32.7767 253.828 32.5527 253.94 32.2967 254.012C32.0487 254.084 31.7447 254.12 31.3847 254.12C31.0007 254.12 30.6527 254.052 30.3407 253.916C30.0367 253.78 29.7967 253.572 29.6207 253.292C29.4447 253.004 29.3567 252.644 29.3567 252.212C29.3567 251.572 29.6087 251.08 30.1127 250.736C30.6167 250.384 31.3927 250.192 32.4407 250.16L33.5327 250.124V249.74C33.5327 249.204 33.4167 248.832 33.1847 248.624C32.9527 248.416 32.6247 248.312 32.2007 248.312C31.8647 248.312 31.5447 248.364 31.2407 248.468C30.9367 248.564 30.6527 248.676 30.3887 248.804L30.0647 248.012C30.3447 247.86 30.6767 247.732 31.0607 247.628C31.4447 247.516 31.8447 247.46 32.2607 247.46ZM32.5727 250.892C31.7727 250.924 31.2167 251.052 30.9047 251.276C30.6007 251.5 30.4487 251.816 30.4487 252.224C30.4487 252.584 30.5567 252.848 30.7727 253.016C30.9967 253.184 31.2807 253.268 31.6247 253.268C32.1687 253.268 32.6207 253.12 32.9807 252.824C33.3407 252.52 33.5207 252.056 33.5207 251.432V250.856L32.5727 250.892ZM39.6473 247.448C40.4153 247.448 40.9953 247.636 41.3873 248.012C41.7793 248.38 41.9753 248.98 41.9753 249.812V254H40.9313V249.884C40.9313 249.364 40.8153 248.976 40.5833 248.72C40.3513 248.464 39.9873 248.336 39.4913 248.336C38.7793 248.336 38.2873 248.536 38.0153 248.936C37.7433 249.336 37.6073 249.912 37.6073 250.664V254H36.5513V247.568H37.4033L37.5593 248.444H37.6193C37.7633 248.22 37.9393 248.036 38.1473 247.892C38.3633 247.74 38.5993 247.628 38.8553 247.556C39.1113 247.484 39.3753 247.448 39.6473 247.448ZM46.2492 247.448C46.6732 247.448 47.0532 247.528 47.3892 247.688C47.7332 247.848 48.0252 248.092 48.2652 248.42H48.3252L48.4692 247.568H49.3092V254.108C49.3092 254.716 49.2052 255.224 48.9972 255.632C48.7892 256.048 48.4732 256.36 48.0492 256.568C47.6252 256.776 47.0852 256.88 46.4292 256.88C45.9652 256.88 45.5372 256.844 45.1452 256.772C44.7612 256.708 44.4172 256.608 44.1132 256.472V255.5C44.3212 255.604 44.5492 255.692 44.7972 255.764C45.0452 255.844 45.3132 255.904 45.6012 255.944C45.8892 255.984 46.1852 256.004 46.4892 256.004C47.0412 256.004 47.4732 255.84 47.7852 255.512C48.1052 255.192 48.2652 254.752 48.2652 254.192V253.94C48.2652 253.844 48.2692 253.708 48.2772 253.532C48.2852 253.348 48.2932 253.22 48.3012 253.148H48.2532C48.0292 253.476 47.7492 253.72 47.4132 253.88C47.0852 254.04 46.7012 254.12 46.2612 254.12C45.4292 254.12 44.7772 253.828 44.3052 253.244C43.8412 252.66 43.6092 251.844 43.6092 250.796C43.6092 250.108 43.7132 249.516 43.9212 249.02C44.1372 248.516 44.4412 248.128 44.8332 247.856C45.2252 247.584 45.6972 247.448 46.2492 247.448ZM46.3932 248.336C46.0332 248.336 45.7252 248.432 45.4692 248.624C45.2212 248.816 45.0292 249.096 44.8932 249.464C44.7652 249.832 44.7012 250.28 44.7012 250.808C44.7012 251.6 44.8452 252.208 45.1332 252.632C45.4292 253.048 45.8572 253.256 46.4172 253.256C46.7452 253.256 47.0252 253.216 47.2572 253.136C47.4892 253.048 47.6812 252.916 47.8332 252.74C47.9852 252.556 48.0972 252.324 48.1692 252.044C48.2412 251.764 48.2772 251.432 48.2772 251.048V250.796C48.2772 250.212 48.2092 249.74 48.0732 249.38C47.9452 249.02 47.7412 248.756 47.4612 248.588C47.1812 248.42 46.8252 248.336 46.3932 248.336ZM52.396 249.644C52.396 249.772 52.388 249.94 52.372 250.148C52.364 250.356 52.356 250.536 52.348 250.688H52.396C52.444 250.624 52.516 250.532 52.612 250.412C52.708 250.292 52.804 250.172 52.9 250.052C53.004 249.924 53.092 249.82 53.164 249.74L55.216 247.568H56.452L53.848 250.316L56.632 254H55.36L53.128 251L52.396 251.636V254H51.352V244.88H52.396V249.644ZM63.3542 250.772C63.3542 251.308 63.2822 251.784 63.1382 252.2C63.0022 252.608 62.8022 252.956 62.5382 253.244C62.2822 253.532 61.9662 253.752 61.5902 253.904C61.2222 254.048 60.8102 254.12 60.3542 254.12C59.9302 254.12 59.5382 254.048 59.1782 253.904C58.8182 253.752 58.5062 253.532 58.2422 253.244C57.9782 252.956 57.7702 252.608 57.6182 252.2C57.4742 251.784 57.4022 251.308 57.4022 250.772C57.4022 250.06 57.5222 249.46 57.7622 248.972C58.0022 248.476 58.3462 248.1 58.7942 247.844C59.2422 247.58 59.7742 247.448 60.3902 247.448C60.9742 247.448 61.4862 247.58 61.9262 247.844C62.3742 248.1 62.7222 248.476 62.9702 248.972C63.2262 249.46 63.3542 250.06 63.3542 250.772ZM58.4942 250.772C58.4942 251.276 58.5582 251.716 58.6862 252.092C58.8222 252.46 59.0302 252.744 59.3102 252.944C59.5902 253.144 59.9462 253.244 60.3782 253.244C60.8102 253.244 61.1662 253.144 61.4462 252.944C61.7262 252.744 61.9302 252.46 62.0582 252.092C62.1942 251.716 62.2622 251.276 62.2622 250.772C62.2622 250.26 62.1942 249.824 62.0582 249.464C61.9222 249.104 61.7142 248.828 61.4342 248.636C61.1622 248.436 60.8062 248.336 60.3662 248.336C59.7102 248.336 59.2342 248.552 58.9382 248.984C58.6422 249.416 58.4942 250.012 58.4942 250.772ZM66.0718 249.644C66.0718 249.772 66.0638 249.94 66.0478 250.148C66.0398 250.356 66.0318 250.536 66.0238 250.688H66.0718C66.1198 250.624 66.1918 250.532 66.2878 250.412C66.3838 250.292 66.4798 250.172 66.5758 250.052C66.6798 249.924 66.7678 249.82 66.8398 249.74L68.8918 247.568H70.1278L67.5238 250.316L70.3078 254H69.0358L66.8038 251L66.0718 251.636V254H65.0278V244.88H66.0718V249.644Z" fill="#575353"/>
<path d="M32.424 79H22.024V76.248L24.808 74.968V60.184L22.024 58.904V56.152H32.424V58.904L29.64 60.184V74.968L32.424 76.248V79ZM45.8535 61.208C47.7308 61.208 49.2348 61.72 50.3655 62.744C51.4962 63.7467 52.0615 65.368 52.0615 67.608V79H47.2935V68.792C47.2935 67.5333 47.0695 66.5947 46.6215 65.976C46.1735 65.336 45.4588 65.016 44.4775 65.016C43.0268 65.016 42.0348 65.5173 41.5015 66.52C40.9682 67.5013 40.7015 68.92 40.7015 70.776V79H35.9335V61.528H39.5815L40.2215 63.768H40.4775C40.8615 63.1707 41.3308 62.6907 41.8855 62.328C42.4402 61.944 43.0588 61.6667 43.7415 61.496C44.4242 61.304 45.1282 61.208 45.8535 61.208ZM66.8848 61.208C68.7621 61.208 70.2661 61.72 71.3968 62.744C72.5274 63.7467 73.0928 65.368 73.0928 67.608V79H68.3248V68.792C68.3248 67.5333 68.1008 66.5947 67.6528 65.976C67.2048 65.336 66.4901 65.016 65.5088 65.016C64.0581 65.016 63.0661 65.5173 62.5328 66.52C61.9994 67.5013 61.7328 68.92 61.7328 70.776V79H56.9648V61.528H60.6128L61.2528 63.768H61.5088C61.8928 63.1707 62.3621 62.6907 62.9167 62.328C63.4714 61.944 64.0901 61.6667 64.7728 61.496C65.4554 61.304 66.1594 61.208 66.8848 61.208ZM93.868 70.232C93.868 71.6827 93.6653 72.9733 93.26 74.104C92.876 75.2347 92.3107 76.1947 91.564 76.984C90.8387 77.752 89.9533 78.3387 88.908 78.744C87.8627 79.128 86.6787 79.32 85.356 79.32C84.14 79.32 83.0093 79.128 81.964 78.744C80.94 78.3387 80.0547 77.752 79.308 76.984C78.5613 76.1947 77.9747 75.2347 77.548 74.104C77.1427 72.9733 76.94 71.6827 76.94 70.232C76.94 68.2907 77.2813 66.6587 77.964 65.336C78.6467 63.992 79.628 62.968 80.908 62.264C82.188 61.56 83.7027 61.208 85.452 61.208C87.0947 61.208 88.5453 61.56 89.804 62.264C91.0627 62.968 92.0547 63.992 92.78 65.336C93.5053 66.6587 93.868 68.2907 93.868 70.232ZM81.804 70.232C81.804 71.384 81.9213 72.3547 82.156 73.144C82.412 73.912 82.8067 74.4987 83.34 74.904C83.8733 75.288 84.5667 75.48 85.42 75.48C86.2733 75.48 86.956 75.288 87.468 74.904C88.0013 74.4987 88.3853 73.912 88.62 73.144C88.876 72.3547 89.004 71.384 89.004 70.232C89.004 69.08 88.876 68.12 88.62 67.352C88.3853 66.584 88.0013 66.008 87.468 65.624C86.9347 65.24 86.2413 65.048 85.388 65.048C84.1293 65.048 83.212 65.4853 82.636 66.36C82.0813 67.2133 81.804 68.504 81.804 70.232ZM101.344 79L94.6875 61.528H99.6795L103.04 71.48C103.168 71.864 103.274 72.2693 103.36 72.696C103.466 73.1227 103.541 73.5387 103.584 73.944C103.648 74.3493 103.69 74.7227 103.712 75.064H103.84C103.861 74.7013 103.904 74.3173 103.968 73.912C104.032 73.5067 104.106 73.1013 104.192 72.696C104.298 72.2693 104.416 71.864 104.544 71.48L107.904 61.528H112.896L106.24 79H101.344ZM122.57 61.176C124.917 61.176 126.709 61.688 127.946 62.712C129.205 63.7147 129.834 65.2613 129.834 67.352V79H126.506L125.578 76.632H125.45C124.96 77.2507 124.448 77.7627 123.914 78.168C123.402 78.5733 122.805 78.8613 122.122 79.032C121.461 79.224 120.64 79.32 119.658 79.32C118.634 79.32 117.706 79.128 116.874 78.744C116.064 78.3387 115.424 77.7307 114.954 76.92C114.485 76.088 114.25 75.0427 114.25 73.784C114.25 71.928 114.901 70.5627 116.202 69.688C117.504 68.792 119.456 68.3013 122.058 68.216L125.098 68.12V67.352C125.098 66.4347 124.853 65.7627 124.362 65.336C123.893 64.9093 123.232 64.696 122.378 64.696C121.525 64.696 120.693 64.824 119.882 65.08C119.072 65.3147 118.261 65.6133 117.45 65.976L115.882 62.744C116.821 62.2533 117.856 61.8693 118.986 61.592C120.138 61.3147 121.333 61.176 122.57 61.176ZM123.242 70.968C121.706 71.0107 120.64 71.288 120.042 71.8C119.445 72.312 119.146 72.984 119.146 73.816C119.146 74.5413 119.36 75.064 119.786 75.384C120.213 75.6827 120.768 75.832 121.45 75.832C122.474 75.832 123.338 75.5333 124.042 74.936C124.746 74.3173 125.098 73.4533 125.098 72.344V70.904L123.242 70.968ZM142.075 75.512C142.608 75.512 143.12 75.4587 143.611 75.352C144.101 75.2453 144.592 75.1173 145.083 74.968V78.52C144.571 78.7333 143.931 78.9147 143.163 79.064C142.416 79.2347 141.595 79.32 140.699 79.32C139.653 79.32 138.715 79.1493 137.883 78.808C137.072 78.4667 136.421 77.88 135.931 77.048C135.461 76.1947 135.227 75.0213 135.227 73.528V65.112H132.955V63.096L135.579 61.496L136.955 57.816H139.995V61.528H144.891V65.112H139.995V73.528C139.995 74.1893 140.187 74.6907 140.571 75.032C140.955 75.352 141.456 75.512 142.075 75.512ZM153.358 61.528V79H148.59V61.528H153.358ZM150.99 54.68C151.694 54.68 152.302 54.8507 152.814 55.192C153.326 55.512 153.582 56.12 153.582 57.016C153.582 57.8907 153.326 58.4987 152.814 58.84C152.302 59.1813 151.694 59.352 150.99 59.352C150.264 59.352 149.646 59.1813 149.134 58.84C148.643 58.4987 148.398 57.8907 148.398 57.016C148.398 56.12 148.643 55.512 149.134 55.192C149.646 54.8507 150.264 54.68 150.99 54.68ZM174.212 70.232C174.212 71.6827 174.009 72.9733 173.604 74.104C173.22 75.2347 172.654 76.1947 171.908 76.984C171.182 77.752 170.297 78.3387 169.252 78.744C168.206 79.128 167.022 79.32 165.7 79.32C164.484 79.32 163.353 79.128 162.308 78.744C161.284 78.3387 160.398 77.752 159.652 76.984C158.905 76.1947 158.318 75.2347 157.892 74.104C157.486 72.9733 157.284 71.6827 157.284 70.232C157.284 68.2907 157.625 66.6587 158.308 65.336C158.99 63.992 159.972 62.968 161.252 62.264C162.532 61.56 164.046 61.208 165.796 61.208C167.438 61.208 168.889 61.56 170.148 62.264C171.406 62.968 172.398 63.992 173.124 65.336C173.849 66.6587 174.212 68.2907 174.212 70.232ZM162.148 70.232C162.148 71.384 162.265 72.3547 162.5 73.144C162.756 73.912 163.15 74.4987 163.684 74.904C164.217 75.288 164.91 75.48 165.764 75.48C166.617 75.48 167.3 75.288 167.812 74.904C168.345 74.4987 168.729 73.912 168.964 73.144C169.22 72.3547 169.348 71.384 169.348 70.232C169.348 69.08 169.22 68.12 168.964 67.352C168.729 66.584 168.345 66.008 167.812 65.624C167.278 65.24 166.585 65.048 165.732 65.048C164.473 65.048 163.556 65.4853 162.98 66.36C162.425 67.2133 162.148 68.504 162.148 70.232ZM188.072 61.208C189.95 61.208 191.454 61.72 192.584 62.744C193.715 63.7467 194.28 65.368 194.28 67.608V79H189.512V68.792C189.512 67.5333 189.288 66.5947 188.84 65.976C188.392 65.336 187.678 65.016 186.696 65.016C185.246 65.016 184.254 65.5173 183.72 66.52C183.187 67.5013 182.92 68.92 182.92 70.776V79H178.152V61.528H181.8L182.44 63.768H182.696C183.08 63.1707 183.55 62.6907 184.104 62.328C184.659 61.944 185.278 61.6667 185.96 61.496C186.643 61.304 187.347 61.208 188.072 61.208ZM33.544 123L28.04 105.08H27.912C27.9333 105.507 27.9653 106.147 28.008 107C28.0507 107.853 28.0933 108.771 28.136 109.752C28.1787 110.712 28.2 111.587 28.2 112.376V123H23.88V100.152H30.472L35.88 117.624H35.976L41.704 100.152H48.296V123H43.784V112.184C43.784 111.459 43.7947 110.627 43.816 109.688C43.8587 108.749 43.8907 107.864 43.912 107.032C43.9547 106.179 43.9867 105.539 44.008 105.112H43.88L37.992 123H33.544ZM60.8515 105.176C63.1982 105.176 64.9902 105.688 66.2275 106.712C67.4862 107.715 68.1155 109.261 68.1155 111.352V123H64.7875L63.8595 120.632H63.7315C63.2408 121.251 62.7288 121.763 62.1955 122.168C61.6835 122.573 61.0862 122.861 60.4035 123.032C59.7422 123.224 58.9208 123.32 57.9395 123.32C56.9155 123.32 55.9875 123.128 55.1555 122.744C54.3448 122.339 53.7048 121.731 53.2355 120.92C52.7662 120.088 52.5315 119.043 52.5315 117.784C52.5315 115.928 53.1822 114.563 54.4835 113.688C55.7848 112.792 57.7368 112.301 60.3395 112.216L63.3795 112.12V111.352C63.3795 110.435 63.1342 109.763 62.6435 109.336C62.1742 108.909 61.5128 108.696 60.6595 108.696C59.8062 108.696 58.9742 108.824 58.1635 109.08C57.3528 109.315 56.5422 109.613 55.7315 109.976L54.1635 106.744C55.1022 106.253 56.1368 105.869 57.2675 105.592C58.4195 105.315 59.6142 105.176 60.8515 105.176ZM61.5235 114.968C59.9875 115.011 58.9208 115.288 58.3235 115.8C57.7262 116.312 57.4275 116.984 57.4275 117.816C57.4275 118.541 57.6408 119.064 58.0675 119.384C58.4942 119.683 59.0488 119.832 59.7315 119.832C60.7555 119.832 61.6195 119.533 62.3235 118.936C63.0275 118.317 63.3795 117.453 63.3795 116.344V114.904L61.5235 114.968ZM82.916 105.208C84.7933 105.208 86.2973 105.72 87.428 106.744C88.5587 107.747 89.124 109.368 89.124 111.608V123H84.356V112.792C84.356 111.533 84.132 110.595 83.684 109.976C83.236 109.336 82.5213 109.016 81.54 109.016C80.0893 109.016 79.0973 109.517 78.564 110.52C78.0307 111.501 77.764 112.92 77.764 114.776V123H72.996V105.528H76.644L77.284 107.768H77.54C77.924 107.171 78.3933 106.691 78.948 106.328C79.5027 105.944 80.1213 105.667 80.804 105.496C81.4867 105.304 82.1907 105.208 82.916 105.208ZM101.195 105.176C103.542 105.176 105.334 105.688 106.571 106.712C107.83 107.715 108.459 109.261 108.459 111.352V123H105.131L104.203 120.632H104.075C103.585 121.251 103.073 121.763 102.539 122.168C102.027 122.573 101.43 122.861 100.747 123.032C100.086 123.224 99.2646 123.32 98.2833 123.32C97.2593 123.32 96.3313 123.128 95.4993 122.744C94.6886 122.339 94.0486 121.731 93.5793 120.92C93.1099 120.088 92.8753 119.043 92.8753 117.784C92.8753 115.928 93.5259 114.563 94.8273 113.688C96.1286 112.792 98.0806 112.301 100.683 112.216L103.723 112.12V111.352C103.723 110.435 103.478 109.763 102.987 109.336C102.518 108.909 101.857 108.696 101.003 108.696C100.15 108.696 99.3179 108.824 98.5073 109.08C97.6966 109.315 96.8859 109.613 96.0753 109.976L94.5073 106.744C95.4459 106.253 96.4806 105.869 97.6113 105.592C98.7633 105.315 99.9579 105.176 101.195 105.176ZM101.867 114.968C100.331 115.011 99.2646 115.288 98.6673 115.8C98.0699 116.312 97.7713 116.984 97.7713 117.816C97.7713 118.541 97.9846 119.064 98.4113 119.384C98.8379 119.683 99.3926 119.832 100.075 119.832C101.099 119.832 101.963 119.533 102.667 118.936C103.371 118.317 103.723 117.453 103.723 116.344V114.904L101.867 114.968ZM119.004 105.208C120.07 105.208 121.03 105.421 121.884 105.848C122.737 106.275 123.462 106.915 124.06 107.768H124.188L124.572 105.528H128.604V123.032C128.604 124.696 128.273 126.093 127.612 127.224C126.972 128.355 126.001 129.208 124.7 129.784C123.398 130.381 121.788 130.68 119.868 130.68C118.63 130.68 117.478 130.605 116.412 130.456C115.366 130.307 114.342 130.04 113.34 129.656V125.848C114.065 126.147 114.79 126.392 115.516 126.584C116.262 126.797 117.02 126.947 117.788 127.032C118.577 127.139 119.366 127.192 120.156 127.192C121.393 127.192 122.31 126.861 122.908 126.2C123.526 125.539 123.836 124.547 123.836 123.224V122.872C123.836 122.509 123.846 122.136 123.868 121.752C123.91 121.368 123.942 121.027 123.964 120.728H123.836C123.238 121.645 122.524 122.307 121.692 122.712C120.86 123.117 119.921 123.32 118.876 123.32C116.806 123.32 115.185 122.531 114.012 120.952C112.86 119.352 112.284 117.133 112.284 114.296C112.284 112.376 112.55 110.744 113.084 109.4C113.617 108.035 114.385 107 115.388 106.296C116.412 105.571 117.617 105.208 119.004 105.208ZM120.508 109.08C119.761 109.08 119.132 109.283 118.62 109.688C118.129 110.072 117.756 110.659 117.5 111.448C117.265 112.216 117.148 113.187 117.148 114.36C117.148 116.109 117.425 117.421 117.98 118.296C118.534 119.149 119.398 119.576 120.572 119.576C121.19 119.576 121.724 119.501 122.172 119.352C122.62 119.181 122.982 118.915 123.26 118.552C123.558 118.168 123.782 117.677 123.932 117.08C124.081 116.483 124.156 115.757 124.156 114.904V114.328C124.156 113.069 124.028 112.056 123.772 111.288C123.516 110.52 123.121 109.965 122.588 109.624C122.054 109.261 121.361 109.08 120.508 109.08ZM140.79 105.208C142.411 105.208 143.798 105.517 144.95 106.136C146.123 106.755 147.03 107.651 147.67 108.824C148.31 109.997 148.63 111.437 148.63 113.144V115.448H137.366C137.408 116.792 137.803 117.848 138.55 118.616C139.318 119.384 140.374 119.768 141.718 119.768C142.848 119.768 143.872 119.661 144.79 119.448C145.707 119.213 146.656 118.861 147.638 118.392V122.072C146.784 122.499 145.878 122.808 144.918 123C143.979 123.213 142.838 123.32 141.494 123.32C139.744 123.32 138.198 123 136.854 122.36C135.51 121.699 134.454 120.707 133.686 119.384C132.918 118.061 132.534 116.397 132.534 114.392C132.534 112.344 132.875 110.648 133.558 109.304C134.262 107.939 135.232 106.915 136.47 106.232C137.707 105.549 139.147 105.208 140.79 105.208ZM140.822 108.6C139.904 108.6 139.136 108.899 138.518 109.496C137.92 110.093 137.568 111.021 137.462 112.28H144.15C144.15 111.576 144.022 110.947 143.766 110.392C143.531 109.837 143.168 109.4 142.678 109.08C142.187 108.76 141.568 108.6 140.822 108.6ZM173.008 105.208C174.992 105.208 176.485 105.72 177.488 106.744C178.512 107.747 179.024 109.368 179.024 111.608V123H174.256V112.792C174.256 111.533 174.043 110.595 173.616 109.976C173.189 109.336 172.528 109.016 171.632 109.016C170.373 109.016 169.477 109.464 168.944 110.36C168.411 111.256 168.144 112.547 168.144 114.232V123H163.376V112.792C163.376 111.96 163.28 111.267 163.088 110.712C162.896 110.157 162.608 109.741 162.224 109.464C161.84 109.165 161.349 109.016 160.752 109.016C159.877 109.016 159.184 109.24 158.672 109.688C158.16 110.136 157.797 110.787 157.584 111.64C157.371 112.493 157.264 113.539 157.264 114.776V123H152.496V105.528H156.144L156.784 107.768H157.04C157.403 107.171 157.851 106.691 158.384 106.328C158.917 105.944 159.504 105.667 160.144 105.496C160.805 105.304 161.467 105.208 162.128 105.208C163.408 105.208 164.496 105.421 165.392 105.848C166.288 106.253 166.971 106.893 167.44 107.768H167.856C168.389 106.872 169.125 106.221 170.064 105.816C171.024 105.411 172.005 105.208 173.008 105.208ZM191.134 105.208C192.755 105.208 194.142 105.517 195.294 106.136C196.467 106.755 197.374 107.651 198.014 108.824C198.654 109.997 198.974 111.437 198.974 113.144V115.448H187.71C187.752 116.792 188.147 117.848 188.894 118.616C189.662 119.384 190.718 119.768 192.062 119.768C193.192 119.768 194.216 119.661 195.134 119.448C196.051 119.213 197 118.861 197.982 118.392V122.072C197.128 122.499 196.222 122.808 195.262 123C194.323 123.213 193.182 123.32 191.838 123.32C190.088 123.32 188.542 123 187.198 122.36C185.854 121.699 184.798 120.707 184.03 119.384C183.262 118.061 182.878 116.397 182.878 114.392C182.878 112.344 183.219 110.648 183.902 109.304C184.606 107.939 185.576 106.915 186.814 106.232C188.051 105.549 189.491 105.208 191.134 105.208ZM191.166 108.6C190.248 108.6 189.48 108.899 188.862 109.496C188.264 110.093 187.912 111.021 187.806 112.28H194.494C194.494 111.576 194.366 110.947 194.11 110.392C193.875 109.837 193.512 109.4 193.022 109.08C192.531 108.76 191.912 108.6 191.166 108.6ZM212.76 105.208C214.637 105.208 216.141 105.72 217.272 106.744C218.402 107.747 218.968 109.368 218.968 111.608V123H214.2V112.792C214.2 111.533 213.976 110.595 213.528 109.976C213.08 109.336 212.365 109.016 211.384 109.016C209.933 109.016 208.941 109.517 208.408 110.52C207.874 111.501 207.608 112.92 207.608 114.776V123H202.84V105.528H206.488L207.128 107.768H207.384C207.768 107.171 208.237 106.691 208.792 106.328C209.346 105.944 209.965 105.667 210.648 105.496C211.33 105.304 212.034 105.208 212.76 105.208ZM231.231 119.512C231.764 119.512 232.276 119.459 232.767 119.352C233.258 119.245 233.748 119.117 234.239 118.968V122.52C233.727 122.733 233.087 122.915 232.319 123.064C231.572 123.235 230.751 123.32 229.855 123.32C228.81 123.32 227.871 123.149 227.039 122.808C226.228 122.467 225.578 121.88 225.087 121.048C224.618 120.195 224.383 119.021 224.383 117.528V109.112H222.111V107.096L224.735 105.496L226.111 101.816H229.151V105.528H234.047V109.112H229.151V117.528C229.151 118.189 229.343 118.691 229.727 119.032C230.111 119.352 230.612 119.512 231.231 119.512ZM33.576 147.864C32.6587 147.864 31.8373 148.045 31.112 148.408C30.408 148.771 29.8107 149.293 29.32 149.976C28.8293 150.637 28.456 151.448 28.2 152.408C27.9653 153.368 27.848 154.445 27.848 155.64C27.848 157.261 28.04 158.648 28.424 159.8C28.8293 160.931 29.4587 161.795 30.312 162.392C31.1653 162.989 32.2533 163.288 33.576 163.288C34.5147 163.288 35.4427 163.181 36.36 162.968C37.2987 162.755 38.312 162.456 39.4 162.072V166.136C38.3973 166.541 37.4053 166.84 36.424 167.032C35.4427 167.224 34.344 167.32 33.128 167.32C30.7813 167.32 28.84 166.84 27.304 165.88C25.7893 164.899 24.6693 163.533 23.944 161.784C23.2187 160.013 22.856 157.955 22.856 155.608C22.856 153.88 23.0907 152.301 23.56 150.872C24.0293 149.421 24.712 148.173 25.608 147.128C26.5253 146.083 27.6453 145.272 28.968 144.696C30.312 144.12 31.848 143.832 33.576 143.832C34.7067 143.832 35.8373 143.981 36.968 144.28C38.12 144.557 39.2187 144.941 40.264 145.432L38.696 149.368C37.8427 148.963 36.9787 148.611 36.104 148.312C35.2507 148.013 34.408 147.864 33.576 147.864ZM59.743 158.232C59.743 159.683 59.5403 160.973 59.135 162.104C58.751 163.235 58.1857 164.195 57.439 164.984C56.7137 165.752 55.8283 166.339 54.783 166.744C53.7377 167.128 52.5537 167.32 51.231 167.32C50.015 167.32 48.8843 167.128 47.839 166.744C46.815 166.339 45.9297 165.752 45.183 164.984C44.4363 164.195 43.8497 163.235 43.423 162.104C43.0177 160.973 42.815 159.683 42.815 158.232C42.815 156.291 43.1563 154.659 43.839 153.336C44.5217 151.992 45.503 150.968 46.783 150.264C48.063 149.56 49.5777 149.208 51.327 149.208C52.9697 149.208 54.4203 149.56 55.679 150.264C56.9377 150.968 57.9297 151.992 58.655 153.336C59.3803 154.659 59.743 156.291 59.743 158.232ZM47.679 158.232C47.679 159.384 47.7963 160.355 48.031 161.144C48.287 161.912 48.6817 162.499 49.215 162.904C49.7483 163.288 50.4417 163.48 51.295 163.48C52.1483 163.48 52.831 163.288 53.343 162.904C53.8763 162.499 54.2603 161.912 54.495 161.144C54.751 160.355 54.879 159.384 54.879 158.232C54.879 157.08 54.751 156.12 54.495 155.352C54.2603 154.584 53.8763 154.008 53.343 153.624C52.8097 153.24 52.1163 153.048 51.263 153.048C50.0043 153.048 49.087 153.485 48.511 154.36C47.9563 155.213 47.679 156.504 47.679 158.232ZM84.1955 149.208C86.1795 149.208 87.6728 149.72 88.6755 150.744C89.6995 151.747 90.2115 153.368 90.2115 155.608V167H85.4435V156.792C85.4435 155.533 85.2302 154.595 84.8035 153.976C84.3768 153.336 83.7155 153.016 82.8195 153.016C81.5608 153.016 80.6648 153.464 80.1315 154.36C79.5982 155.256 79.3315 156.547 79.3315 158.232V167H74.5635V156.792C74.5635 155.96 74.4675 155.267 74.2755 154.712C74.0835 154.157 73.7955 153.741 73.4115 153.464C73.0275 153.165 72.5368 153.016 71.9395 153.016C71.0648 153.016 70.3715 153.24 69.8595 153.688C69.3475 154.136 68.9848 154.787 68.7715 155.64C68.5582 156.493 68.4515 157.539 68.4515 158.776V167H63.6835V149.528H67.3315L67.9715 151.768H68.2275C68.5902 151.171 69.0382 150.691 69.5715 150.328C70.1048 149.944 70.6915 149.667 71.3315 149.496C71.9928 149.304 72.6542 149.208 73.3155 149.208C74.5955 149.208 75.6835 149.421 76.5795 149.848C77.4755 150.253 78.1582 150.893 78.6275 151.768H79.0435C79.5768 150.872 80.3128 150.221 81.2515 149.816C82.2115 149.411 83.1928 149.208 84.1955 149.208ZM115.633 149.208C117.617 149.208 119.11 149.72 120.113 150.744C121.137 151.747 121.649 153.368 121.649 155.608V167H116.881V156.792C116.881 155.533 116.668 154.595 116.241 153.976C115.814 153.336 115.153 153.016 114.257 153.016C112.998 153.016 112.102 153.464 111.569 154.36C111.036 155.256 110.769 156.547 110.769 158.232V167H106.001V156.792C106.001 155.96 105.905 155.267 105.713 154.712C105.521 154.157 105.233 153.741 104.849 153.464C104.465 153.165 103.974 153.016 103.377 153.016C102.502 153.016 101.809 153.24 101.297 153.688C100.785 154.136 100.422 154.787 100.209 155.64C99.9957 156.493 99.889 157.539 99.889 158.776V167H95.121V149.528H98.769L99.409 151.768H99.665C100.028 151.171 100.476 150.691 101.009 150.328C101.542 149.944 102.129 149.667 102.769 149.496C103.43 149.304 104.092 149.208 104.753 149.208C106.033 149.208 107.121 149.421 108.017 149.848C108.913 150.253 109.596 150.893 110.065 151.768H110.481C111.014 150.872 111.75 150.221 112.689 149.816C113.649 149.411 114.63 149.208 115.633 149.208ZM142.591 149.528V167H138.943L138.303 164.76H138.047C137.684 165.357 137.215 165.848 136.639 166.232C136.084 166.595 135.465 166.861 134.783 167.032C134.1 167.224 133.396 167.32 132.671 167.32C131.433 167.32 130.345 167.096 129.407 166.648C128.468 166.2 127.743 165.507 127.231 164.568C126.719 163.629 126.463 162.413 126.463 160.92V149.528H131.231V159.736C131.231 160.973 131.455 161.912 131.903 162.552C132.351 163.192 133.065 163.512 134.047 163.512C135.028 163.512 135.785 163.288 136.319 162.84C136.873 162.392 137.257 161.741 137.471 160.888C137.705 160.035 137.823 158.989 137.823 157.752V149.528H142.591ZM146.054 160.376V156.472H154.438V160.376H146.054ZM33.416 193.208C35.2933 193.208 36.7973 193.72 37.928 194.744C39.0587 195.747 39.624 197.368 39.624 199.608V211H34.856V200.792C34.856 199.533 34.632 198.595 34.184 197.976C33.736 197.336 33.0213 197.016 32.04 197.016C30.5893 197.016 29.5973 197.517 29.064 198.52C28.5307 199.501 28.264 200.92 28.264 202.776V211H23.496V193.528H27.144L27.784 195.768H28.04C28.424 195.171 28.8933 194.691 29.448 194.328C30.0027 193.944 30.6213 193.667 31.304 193.496C31.9867 193.304 32.6907 193.208 33.416 193.208ZM49.2953 193.528V211H44.5273V193.528H49.2953ZM46.9273 186.68C47.6313 186.68 48.2393 186.851 48.7513 187.192C49.2633 187.512 49.5193 188.12 49.5193 189.016C49.5193 189.891 49.2633 190.499 48.7513 190.84C48.2393 191.181 47.6313 191.352 46.9273 191.352C46.2019 191.352 45.5833 191.181 45.0713 190.84C44.5806 190.499 44.3353 189.891 44.3353 189.016C44.3353 188.12 44.5806 187.512 45.0713 187.192C45.5833 186.851 46.2019 186.68 46.9273 186.68ZM61.3813 211.32C59.6533 211.32 58.1813 211.011 56.9653 210.392C55.7493 209.752 54.8213 208.771 54.1813 207.448C53.5413 206.125 53.2213 204.429 53.2213 202.36C53.2213 200.227 53.5839 198.488 54.3093 197.144C55.0346 195.8 56.0373 194.808 57.3173 194.168C58.6186 193.528 60.1119 193.208 61.7973 193.208C62.9919 193.208 64.0266 193.325 64.9013 193.56C65.7973 193.795 66.5759 194.072 67.2373 194.392L65.8293 198.072C65.0826 197.773 64.3786 197.528 63.7173 197.336C63.0773 197.144 62.4373 197.048 61.7973 197.048C60.9653 197.048 60.2719 197.251 59.7173 197.656C59.1626 198.04 58.7466 198.627 58.4693 199.416C58.2133 200.184 58.0853 201.155 58.0853 202.328C58.0853 203.48 58.2239 204.44 58.5013 205.208C58.7999 205.955 59.2266 206.52 59.7812 206.904C60.3359 207.267 61.0079 207.448 61.7973 207.448C62.7999 207.448 63.6853 207.32 64.4533 207.064C65.2213 206.787 65.9679 206.413 66.6933 205.944V210.008C65.9679 210.477 65.1999 210.808 64.3893 211C63.5999 211.213 62.5973 211.32 61.3813 211.32ZM77.8828 193.176C80.2294 193.176 82.0214 193.688 83.2588 194.712C84.5174 195.715 85.1468 197.261 85.1468 199.352V211H81.8188L80.8908 208.632H80.7628C80.2721 209.251 79.7601 209.763 79.2268 210.168C78.7148 210.573 78.1174 210.861 77.4348 211.032C76.7734 211.224 75.9521 211.32 74.9708 211.32C73.9468 211.32 73.0188 211.128 72.1868 210.744C71.3761 210.339 70.7361 209.731 70.2668 208.92C69.7974 208.088 69.5628 207.043 69.5628 205.784C69.5628 203.928 70.2134 202.563 71.5148 201.688C72.8161 200.792 74.7681 200.301 77.3708 200.216L80.4108 200.12V199.352C80.4108 198.435 80.1654 197.763 79.6748 197.336C79.2054 196.909 78.5441 196.696 77.6908 196.696C76.8374 196.696 76.0054 196.824 75.1948 197.08C74.3841 197.315 73.5734 197.613 72.7628 197.976L71.1948 194.744C72.1334 194.253 73.1681 193.869 74.2988 193.592C75.4508 193.315 76.6454 193.176 77.8828 193.176ZM78.5548 202.968C77.0188 203.011 75.9521 203.288 75.3548 203.8C74.7574 204.312 74.4588 204.984 74.4588 205.816C74.4588 206.541 74.6721 207.064 75.0988 207.384C75.5254 207.683 76.0801 207.832 76.7628 207.832C77.7868 207.832 78.6508 207.533 79.3548 206.936C80.0588 206.317 80.4108 205.453 80.4108 204.344V202.904L78.5548 202.968ZM97.3873 207.512C97.9206 207.512 98.4326 207.459 98.9233 207.352C99.4139 207.245 99.9046 207.117 100.395 206.968V210.52C99.8833 210.733 99.2433 210.915 98.4753 211.064C97.7286 211.235 96.9073 211.32 96.0113 211.32C94.9659 211.32 94.0273 211.149 93.1953 210.808C92.3846 210.467 91.7339 209.88 91.2433 209.048C90.7739 208.195 90.5393 207.021 90.5393 205.528V197.112H88.2673V195.096L90.8913 193.496L92.2673 189.816H95.3073V193.528H100.203V197.112H95.3073V205.528C95.3073 206.189 95.4993 206.691 95.8833 207.032C96.2673 207.352 96.7686 207.512 97.3873 207.512ZM108.67 193.528V211H103.902V193.528H108.67ZM106.302 186.68C107.006 186.68 107.614 186.851 108.126 187.192C108.638 187.512 108.894 188.12 108.894 189.016C108.894 189.891 108.638 190.499 108.126 190.84C107.614 191.181 107.006 191.352 106.302 191.352C105.577 191.352 104.958 191.181 104.446 190.84C103.956 190.499 103.71 189.891 103.71 189.016C103.71 188.12 103.956 187.512 104.446 187.192C104.958 186.851 105.577 186.68 106.302 186.68ZM129.524 202.232C129.524 203.683 129.322 204.973 128.916 206.104C128.532 207.235 127.967 208.195 127.22 208.984C126.495 209.752 125.61 210.339 124.564 210.744C123.519 211.128 122.335 211.32 121.012 211.32C119.796 211.32 118.666 211.128 117.62 210.744C116.596 210.339 115.711 209.752 114.964 208.984C114.218 208.195 113.631 207.235 113.204 206.104C112.799 204.973 112.596 203.683 112.596 202.232C112.596 200.291 112.938 198.659 113.62 197.336C114.303 195.992 115.284 194.968 116.564 194.264C117.844 193.56 119.359 193.208 121.108 193.208C122.751 193.208 124.202 193.56 125.46 194.264C126.719 194.968 127.711 195.992 128.436 197.336C129.162 198.659 129.524 200.291 129.524 202.232ZM117.46 202.232C117.46 203.384 117.578 204.355 117.812 205.144C118.068 205.912 118.463 206.499 118.996 206.904C119.53 207.288 120.223 207.48 121.076 207.48C121.93 207.48 122.612 207.288 123.124 206.904C123.658 206.499 124.042 205.912 124.276 205.144C124.532 204.355 124.66 203.384 124.66 202.232C124.66 201.08 124.532 200.12 124.276 199.352C124.042 198.584 123.658 198.008 123.124 197.624C122.591 197.24 121.898 197.048 121.044 197.048C119.786 197.048 118.868 197.485 118.292 198.36C117.738 199.213 117.46 200.504 117.46 202.232ZM143.385 193.208C145.262 193.208 146.766 193.72 147.897 194.744C149.027 195.747 149.593 197.368 149.593 199.608V211H144.825V200.792C144.825 199.533 144.601 198.595 144.153 197.976C143.705 197.336 142.99 197.016 142.009 197.016C140.558 197.016 139.566 197.517 139.033 198.52C138.499 199.501 138.233 200.92 138.233 202.776V211H133.465V193.528H137.113L137.753 195.768H138.009C138.393 195.171 138.862 194.691 139.417 194.328C139.971 193.944 140.59 193.667 141.273 193.496C141.955 193.304 142.659 193.208 143.385 193.208Z" fill="#575353"/>
<ellipse cx="200.5" cy="229.5" rx="68.5" ry="62.5" fill="url(#paint0_radial_306_308)"/>
</g>
<defs>
<radialGradient id="paint0_radial_306_308" cx="0" cy="0" r="1" gradientUnits="userSpaceOnUse" gradientTransform="translate(200.5 229.5) rotate(90) scale(62.5 68.5)">
<stop stop-color="#D4F64C"/>
<stop offset="1" stop-color="#D9D9D9" stop-opacity="0"/>
</radialGradient>
<clipPath id="clip0_306_308">
<rect width="247" height="401" fill="white"/>
</clipPath>
</defs>
</svg>
